G04 #@! TF.GenerationSoftware,KiCad,Pcbnew,5.99.0-unknown-a5c7d45~86~ubuntu18.04.1*
G04 #@! TF.CreationDate,2020-01-09T22:12:47+01:00*
G04 #@! TF.ProjectId,V1_0,56315f30-2e6b-4696-9361-645f70636258,rev?*
G04 #@! TF.SameCoordinates,Original*
G04 #@! TF.FileFunction,Paste,Top*
G04 #@! TF.FilePolarity,Positive*
%FSLAX46Y46*%
G04 Gerber Fmt 4.6, Leading zero omitted, Abs format (unit mm)*
G04 Created by KiCad (PCBNEW 5.99.0-unknown-a5c7d45~86~ubuntu18.04.1) date 2020-01-09 22:12:47*
%MOMM*%
%LPD*%
G04 APERTURE LIST*
%ADD10R,1.550000X1.000000*%
%ADD11R,1.500000X1.500000*%
%ADD12R,1.750000X0.700000*%
%ADD13R,1.400000X0.800000*%
%ADD14R,1.000000X1.450000*%
%ADD15R,1.500000X0.800000*%
%ADD16R,1.500000X1.300000*%
%ADD17R,1.300000X1.600000*%
%ADD18R,1.450000X0.450000*%
%ADD19R,0.800000X0.900000*%
%ADD20R,0.950000X0.800000*%
%ADD21R,0.500000X0.250000*%
%ADD22R,1.500000X4.200000*%
%ADD23R,2.200000X2.800000*%
%ADD24R,2.600000X2.800000*%
%ADD25R,2.800000X2.800000*%
%ADD26R,2.000000X1.700000*%
%ADD27R,0.500000X2.000000*%
G04 APERTURE END LIST*
D10*
X112930000Y-102435000D03*
D11*
X102255000Y-102485000D03*
D12*
X102130000Y-100035000D03*
X102130000Y-98935000D03*
X102130000Y-97835000D03*
X102130000Y-96735000D03*
X102130000Y-95635000D03*
X102130000Y-94535000D03*
X102130000Y-93435000D03*
D13*
X110505000Y-102835000D03*
D14*
X111355000Y-91210000D03*
D15*
X109855000Y-90885000D03*
D16*
X102255000Y-91135000D03*
D12*
X102130000Y-92335000D03*
G36*
X110949962Y-114231651D02*
G01*
X111020930Y-114279070D01*
X111068349Y-114350038D01*
X111085000Y-114433750D01*
X111085000Y-114946250D01*
X111068349Y-115029962D01*
X111020930Y-115100930D01*
X110949962Y-115148349D01*
X110866250Y-115165000D01*
X110428750Y-115165000D01*
X110345038Y-115148349D01*
X110274070Y-115100930D01*
X110226651Y-115029962D01*
X110210000Y-114946250D01*
X110210000Y-114433750D01*
X110226651Y-114350038D01*
X110274070Y-114279070D01*
X110345038Y-114231651D01*
X110428750Y-114215000D01*
X110866250Y-114215000D01*
X110949962Y-114231651D01*
G37*
G36*
X109374962Y-114231651D02*
G01*
X109445930Y-114279070D01*
X109493349Y-114350038D01*
X109510000Y-114433750D01*
X109510000Y-114946250D01*
X109493349Y-115029962D01*
X109445930Y-115100930D01*
X109374962Y-115148349D01*
X109291250Y-115165000D01*
X108853750Y-115165000D01*
X108770038Y-115148349D01*
X108699070Y-115100930D01*
X108651651Y-115029962D01*
X108635000Y-114946250D01*
X108635000Y-114433750D01*
X108651651Y-114350038D01*
X108699070Y-114279070D01*
X108770038Y-114231651D01*
X108853750Y-114215000D01*
X109291250Y-114215000D01*
X109374962Y-114231651D01*
G37*
G36*
X110939962Y-112761651D02*
G01*
X111010930Y-112809070D01*
X111058349Y-112880038D01*
X111075000Y-112963750D01*
X111075000Y-113476250D01*
X111058349Y-113559962D01*
X111010930Y-113630930D01*
X110939962Y-113678349D01*
X110856250Y-113695000D01*
X110418750Y-113695000D01*
X110335038Y-113678349D01*
X110264070Y-113630930D01*
X110216651Y-113559962D01*
X110200000Y-113476250D01*
X110200000Y-112963750D01*
X110216651Y-112880038D01*
X110264070Y-112809070D01*
X110335038Y-112761651D01*
X110418750Y-112745000D01*
X110856250Y-112745000D01*
X110939962Y-112761651D01*
G37*
G36*
X109364962Y-112761651D02*
G01*
X109435930Y-112809070D01*
X109483349Y-112880038D01*
X109500000Y-112963750D01*
X109500000Y-113476250D01*
X109483349Y-113559962D01*
X109435930Y-113630930D01*
X109364962Y-113678349D01*
X109281250Y-113695000D01*
X108843750Y-113695000D01*
X108760038Y-113678349D01*
X108689070Y-113630930D01*
X108641651Y-113559962D01*
X108625000Y-113476250D01*
X108625000Y-112963750D01*
X108641651Y-112880038D01*
X108689070Y-112809070D01*
X108760038Y-112761651D01*
X108843750Y-112745000D01*
X109281250Y-112745000D01*
X109364962Y-112761651D01*
G37*
G36*
X110939962Y-111311651D02*
G01*
X111010930Y-111359070D01*
X111058349Y-111430038D01*
X111075000Y-111513750D01*
X111075000Y-112026250D01*
X111058349Y-112109962D01*
X111010930Y-112180930D01*
X110939962Y-112228349D01*
X110856250Y-112245000D01*
X110418750Y-112245000D01*
X110335038Y-112228349D01*
X110264070Y-112180930D01*
X110216651Y-112109962D01*
X110200000Y-112026250D01*
X110200000Y-111513750D01*
X110216651Y-111430038D01*
X110264070Y-111359070D01*
X110335038Y-111311651D01*
X110418750Y-111295000D01*
X110856250Y-111295000D01*
X110939962Y-111311651D01*
G37*
G36*
X109364962Y-111311651D02*
G01*
X109435930Y-111359070D01*
X109483349Y-111430038D01*
X109500000Y-111513750D01*
X109500000Y-112026250D01*
X109483349Y-112109962D01*
X109435930Y-112180930D01*
X109364962Y-112228349D01*
X109281250Y-112245000D01*
X108843750Y-112245000D01*
X108760038Y-112228349D01*
X108689070Y-112180930D01*
X108641651Y-112109962D01*
X108625000Y-112026250D01*
X108625000Y-111513750D01*
X108641651Y-111430038D01*
X108689070Y-111359070D01*
X108760038Y-111311651D01*
X108843750Y-111295000D01*
X109281250Y-111295000D01*
X109364962Y-111311651D01*
G37*
G36*
X110939962Y-109851651D02*
G01*
X111010930Y-109899070D01*
X111058349Y-109970038D01*
X111075000Y-110053750D01*
X111075000Y-110566250D01*
X111058349Y-110649962D01*
X111010930Y-110720930D01*
X110939962Y-110768349D01*
X110856250Y-110785000D01*
X110418750Y-110785000D01*
X110335038Y-110768349D01*
X110264070Y-110720930D01*
X110216651Y-110649962D01*
X110200000Y-110566250D01*
X110200000Y-110053750D01*
X110216651Y-109970038D01*
X110264070Y-109899070D01*
X110335038Y-109851651D01*
X110418750Y-109835000D01*
X110856250Y-109835000D01*
X110939962Y-109851651D01*
G37*
G36*
X109364962Y-109851651D02*
G01*
X109435930Y-109899070D01*
X109483349Y-109970038D01*
X109500000Y-110053750D01*
X109500000Y-110566250D01*
X109483349Y-110649962D01*
X109435930Y-110720930D01*
X109364962Y-110768349D01*
X109281250Y-110785000D01*
X108843750Y-110785000D01*
X108760038Y-110768349D01*
X108689070Y-110720930D01*
X108641651Y-110649962D01*
X108625000Y-110566250D01*
X108625000Y-110053750D01*
X108641651Y-109970038D01*
X108689070Y-109899070D01*
X108760038Y-109851651D01*
X108843750Y-109835000D01*
X109281250Y-109835000D01*
X109364962Y-109851651D01*
G37*
G36*
X145133701Y-119055709D02*
G01*
X145158033Y-119071967D01*
X145174291Y-119096299D01*
X145180000Y-119125000D01*
X145180000Y-120525000D01*
X145174291Y-120553701D01*
X145158033Y-120578033D01*
X145133701Y-120594291D01*
X145105000Y-120600000D01*
X144955000Y-120600000D01*
X144926299Y-120594291D01*
X144901967Y-120578033D01*
X144885709Y-120553701D01*
X144880000Y-120525000D01*
X144880000Y-119125000D01*
X144885709Y-119096299D01*
X144901967Y-119071967D01*
X144926299Y-119055709D01*
X144955000Y-119050000D01*
X145105000Y-119050000D01*
X145133701Y-119055709D01*
G37*
G36*
X144633701Y-119055709D02*
G01*
X144658033Y-119071967D01*
X144674291Y-119096299D01*
X144680000Y-119125000D01*
X144680000Y-120525000D01*
X144674291Y-120553701D01*
X144658033Y-120578033D01*
X144633701Y-120594291D01*
X144605000Y-120600000D01*
X144455000Y-120600000D01*
X144426299Y-120594291D01*
X144401967Y-120578033D01*
X144385709Y-120553701D01*
X144380000Y-120525000D01*
X144380000Y-119125000D01*
X144385709Y-119096299D01*
X144401967Y-119071967D01*
X144426299Y-119055709D01*
X144455000Y-119050000D01*
X144605000Y-119050000D01*
X144633701Y-119055709D01*
G37*
G36*
X144133701Y-119055709D02*
G01*
X144158033Y-119071967D01*
X144174291Y-119096299D01*
X144180000Y-119125000D01*
X144180000Y-120525000D01*
X144174291Y-120553701D01*
X144158033Y-120578033D01*
X144133701Y-120594291D01*
X144105000Y-120600000D01*
X143955000Y-120600000D01*
X143926299Y-120594291D01*
X143901967Y-120578033D01*
X143885709Y-120553701D01*
X143880000Y-120525000D01*
X143880000Y-119125000D01*
X143885709Y-119096299D01*
X143901967Y-119071967D01*
X143926299Y-119055709D01*
X143955000Y-119050000D01*
X144105000Y-119050000D01*
X144133701Y-119055709D01*
G37*
G36*
X143633701Y-119055709D02*
G01*
X143658033Y-119071967D01*
X143674291Y-119096299D01*
X143680000Y-119125000D01*
X143680000Y-120525000D01*
X143674291Y-120553701D01*
X143658033Y-120578033D01*
X143633701Y-120594291D01*
X143605000Y-120600000D01*
X143455000Y-120600000D01*
X143426299Y-120594291D01*
X143401967Y-120578033D01*
X143385709Y-120553701D01*
X143380000Y-120525000D01*
X143380000Y-119125000D01*
X143385709Y-119096299D01*
X143401967Y-119071967D01*
X143426299Y-119055709D01*
X143455000Y-119050000D01*
X143605000Y-119050000D01*
X143633701Y-119055709D01*
G37*
G36*
X143133701Y-119055709D02*
G01*
X143158033Y-119071967D01*
X143174291Y-119096299D01*
X143180000Y-119125000D01*
X143180000Y-120525000D01*
X143174291Y-120553701D01*
X143158033Y-120578033D01*
X143133701Y-120594291D01*
X143105000Y-120600000D01*
X142955000Y-120600000D01*
X142926299Y-120594291D01*
X142901967Y-120578033D01*
X142885709Y-120553701D01*
X142880000Y-120525000D01*
X142880000Y-119125000D01*
X142885709Y-119096299D01*
X142901967Y-119071967D01*
X142926299Y-119055709D01*
X142955000Y-119050000D01*
X143105000Y-119050000D01*
X143133701Y-119055709D01*
G37*
G36*
X142633701Y-119055709D02*
G01*
X142658033Y-119071967D01*
X142674291Y-119096299D01*
X142680000Y-119125000D01*
X142680000Y-120525000D01*
X142674291Y-120553701D01*
X142658033Y-120578033D01*
X142633701Y-120594291D01*
X142605000Y-120600000D01*
X142455000Y-120600000D01*
X142426299Y-120594291D01*
X142401967Y-120578033D01*
X142385709Y-120553701D01*
X142380000Y-120525000D01*
X142380000Y-119125000D01*
X142385709Y-119096299D01*
X142401967Y-119071967D01*
X142426299Y-119055709D01*
X142455000Y-119050000D01*
X142605000Y-119050000D01*
X142633701Y-119055709D01*
G37*
G36*
X142133701Y-119055709D02*
G01*
X142158033Y-119071967D01*
X142174291Y-119096299D01*
X142180000Y-119125000D01*
X142180000Y-120525000D01*
X142174291Y-120553701D01*
X142158033Y-120578033D01*
X142133701Y-120594291D01*
X142105000Y-120600000D01*
X141955000Y-120600000D01*
X141926299Y-120594291D01*
X141901967Y-120578033D01*
X141885709Y-120553701D01*
X141880000Y-120525000D01*
X141880000Y-119125000D01*
X141885709Y-119096299D01*
X141901967Y-119071967D01*
X141926299Y-119055709D01*
X141955000Y-119050000D01*
X142105000Y-119050000D01*
X142133701Y-119055709D01*
G37*
G36*
X141633701Y-119055709D02*
G01*
X141658033Y-119071967D01*
X141674291Y-119096299D01*
X141680000Y-119125000D01*
X141680000Y-120525000D01*
X141674291Y-120553701D01*
X141658033Y-120578033D01*
X141633701Y-120594291D01*
X141605000Y-120600000D01*
X141455000Y-120600000D01*
X141426299Y-120594291D01*
X141401967Y-120578033D01*
X141385709Y-120553701D01*
X141380000Y-120525000D01*
X141380000Y-119125000D01*
X141385709Y-119096299D01*
X141401967Y-119071967D01*
X141426299Y-119055709D01*
X141455000Y-119050000D01*
X141605000Y-119050000D01*
X141633701Y-119055709D01*
G37*
G36*
X141133701Y-119055709D02*
G01*
X141158033Y-119071967D01*
X141174291Y-119096299D01*
X141180000Y-119125000D01*
X141180000Y-120525000D01*
X141174291Y-120553701D01*
X141158033Y-120578033D01*
X141133701Y-120594291D01*
X141105000Y-120600000D01*
X140955000Y-120600000D01*
X140926299Y-120594291D01*
X140901967Y-120578033D01*
X140885709Y-120553701D01*
X140880000Y-120525000D01*
X140880000Y-119125000D01*
X140885709Y-119096299D01*
X140901967Y-119071967D01*
X140926299Y-119055709D01*
X140955000Y-119050000D01*
X141105000Y-119050000D01*
X141133701Y-119055709D01*
G37*
G36*
X140633701Y-119055709D02*
G01*
X140658033Y-119071967D01*
X140674291Y-119096299D01*
X140680000Y-119125000D01*
X140680000Y-120525000D01*
X140674291Y-120553701D01*
X140658033Y-120578033D01*
X140633701Y-120594291D01*
X140605000Y-120600000D01*
X140455000Y-120600000D01*
X140426299Y-120594291D01*
X140401967Y-120578033D01*
X140385709Y-120553701D01*
X140380000Y-120525000D01*
X140380000Y-119125000D01*
X140385709Y-119096299D01*
X140401967Y-119071967D01*
X140426299Y-119055709D01*
X140455000Y-119050000D01*
X140605000Y-119050000D01*
X140633701Y-119055709D01*
G37*
G36*
X140133701Y-119055709D02*
G01*
X140158033Y-119071967D01*
X140174291Y-119096299D01*
X140180000Y-119125000D01*
X140180000Y-120525000D01*
X140174291Y-120553701D01*
X140158033Y-120578033D01*
X140133701Y-120594291D01*
X140105000Y-120600000D01*
X139955000Y-120600000D01*
X139926299Y-120594291D01*
X139901967Y-120578033D01*
X139885709Y-120553701D01*
X139880000Y-120525000D01*
X139880000Y-119125000D01*
X139885709Y-119096299D01*
X139901967Y-119071967D01*
X139926299Y-119055709D01*
X139955000Y-119050000D01*
X140105000Y-119050000D01*
X140133701Y-119055709D01*
G37*
G36*
X139633701Y-119055709D02*
G01*
X139658033Y-119071967D01*
X139674291Y-119096299D01*
X139680000Y-119125000D01*
X139680000Y-120525000D01*
X139674291Y-120553701D01*
X139658033Y-120578033D01*
X139633701Y-120594291D01*
X139605000Y-120600000D01*
X139455000Y-120600000D01*
X139426299Y-120594291D01*
X139401967Y-120578033D01*
X139385709Y-120553701D01*
X139380000Y-120525000D01*
X139380000Y-119125000D01*
X139385709Y-119096299D01*
X139401967Y-119071967D01*
X139426299Y-119055709D01*
X139455000Y-119050000D01*
X139605000Y-119050000D01*
X139633701Y-119055709D01*
G37*
G36*
X139133701Y-119055709D02*
G01*
X139158033Y-119071967D01*
X139174291Y-119096299D01*
X139180000Y-119125000D01*
X139180000Y-120525000D01*
X139174291Y-120553701D01*
X139158033Y-120578033D01*
X139133701Y-120594291D01*
X139105000Y-120600000D01*
X138955000Y-120600000D01*
X138926299Y-120594291D01*
X138901967Y-120578033D01*
X138885709Y-120553701D01*
X138880000Y-120525000D01*
X138880000Y-119125000D01*
X138885709Y-119096299D01*
X138901967Y-119071967D01*
X138926299Y-119055709D01*
X138955000Y-119050000D01*
X139105000Y-119050000D01*
X139133701Y-119055709D01*
G37*
G36*
X138633701Y-119055709D02*
G01*
X138658033Y-119071967D01*
X138674291Y-119096299D01*
X138680000Y-119125000D01*
X138680000Y-120525000D01*
X138674291Y-120553701D01*
X138658033Y-120578033D01*
X138633701Y-120594291D01*
X138605000Y-120600000D01*
X138455000Y-120600000D01*
X138426299Y-120594291D01*
X138401967Y-120578033D01*
X138385709Y-120553701D01*
X138380000Y-120525000D01*
X138380000Y-119125000D01*
X138385709Y-119096299D01*
X138401967Y-119071967D01*
X138426299Y-119055709D01*
X138455000Y-119050000D01*
X138605000Y-119050000D01*
X138633701Y-119055709D01*
G37*
G36*
X138133701Y-119055709D02*
G01*
X138158033Y-119071967D01*
X138174291Y-119096299D01*
X138180000Y-119125000D01*
X138180000Y-120525000D01*
X138174291Y-120553701D01*
X138158033Y-120578033D01*
X138133701Y-120594291D01*
X138105000Y-120600000D01*
X137955000Y-120600000D01*
X137926299Y-120594291D01*
X137901967Y-120578033D01*
X137885709Y-120553701D01*
X137880000Y-120525000D01*
X137880000Y-119125000D01*
X137885709Y-119096299D01*
X137901967Y-119071967D01*
X137926299Y-119055709D01*
X137955000Y-119050000D01*
X138105000Y-119050000D01*
X138133701Y-119055709D01*
G37*
G36*
X137633701Y-119055709D02*
G01*
X137658033Y-119071967D01*
X137674291Y-119096299D01*
X137680000Y-119125000D01*
X137680000Y-120525000D01*
X137674291Y-120553701D01*
X137658033Y-120578033D01*
X137633701Y-120594291D01*
X137605000Y-120600000D01*
X137455000Y-120600000D01*
X137426299Y-120594291D01*
X137401967Y-120578033D01*
X137385709Y-120553701D01*
X137380000Y-120525000D01*
X137380000Y-119125000D01*
X137385709Y-119096299D01*
X137401967Y-119071967D01*
X137426299Y-119055709D01*
X137455000Y-119050000D01*
X137605000Y-119050000D01*
X137633701Y-119055709D01*
G37*
G36*
X136333701Y-117755709D02*
G01*
X136358033Y-117771967D01*
X136374291Y-117796299D01*
X136380000Y-117825000D01*
X136380000Y-117975000D01*
X136374291Y-118003701D01*
X136358033Y-118028033D01*
X136333701Y-118044291D01*
X136305000Y-118050000D01*
X134905000Y-118050000D01*
X134876299Y-118044291D01*
X134851967Y-118028033D01*
X134835709Y-118003701D01*
X134830000Y-117975000D01*
X134830000Y-117825000D01*
X134835709Y-117796299D01*
X134851967Y-117771967D01*
X134876299Y-117755709D01*
X134905000Y-117750000D01*
X136305000Y-117750000D01*
X136333701Y-117755709D01*
G37*
G36*
X136333701Y-117255709D02*
G01*
X136358033Y-117271967D01*
X136374291Y-117296299D01*
X136380000Y-117325000D01*
X136380000Y-117475000D01*
X136374291Y-117503701D01*
X136358033Y-117528033D01*
X136333701Y-117544291D01*
X136305000Y-117550000D01*
X134905000Y-117550000D01*
X134876299Y-117544291D01*
X134851967Y-117528033D01*
X134835709Y-117503701D01*
X134830000Y-117475000D01*
X134830000Y-117325000D01*
X134835709Y-117296299D01*
X134851967Y-117271967D01*
X134876299Y-117255709D01*
X134905000Y-117250000D01*
X136305000Y-117250000D01*
X136333701Y-117255709D01*
G37*
G36*
X136333701Y-116755709D02*
G01*
X136358033Y-116771967D01*
X136374291Y-116796299D01*
X136380000Y-116825000D01*
X136380000Y-116975000D01*
X136374291Y-117003701D01*
X136358033Y-117028033D01*
X136333701Y-117044291D01*
X136305000Y-117050000D01*
X134905000Y-117050000D01*
X134876299Y-117044291D01*
X134851967Y-117028033D01*
X134835709Y-117003701D01*
X134830000Y-116975000D01*
X134830000Y-116825000D01*
X134835709Y-116796299D01*
X134851967Y-116771967D01*
X134876299Y-116755709D01*
X134905000Y-116750000D01*
X136305000Y-116750000D01*
X136333701Y-116755709D01*
G37*
G36*
X136333701Y-116255709D02*
G01*
X136358033Y-116271967D01*
X136374291Y-116296299D01*
X136380000Y-116325000D01*
X136380000Y-116475000D01*
X136374291Y-116503701D01*
X136358033Y-116528033D01*
X136333701Y-116544291D01*
X136305000Y-116550000D01*
X134905000Y-116550000D01*
X134876299Y-116544291D01*
X134851967Y-116528033D01*
X134835709Y-116503701D01*
X134830000Y-116475000D01*
X134830000Y-116325000D01*
X134835709Y-116296299D01*
X134851967Y-116271967D01*
X134876299Y-116255709D01*
X134905000Y-116250000D01*
X136305000Y-116250000D01*
X136333701Y-116255709D01*
G37*
G36*
X136333701Y-115755709D02*
G01*
X136358033Y-115771967D01*
X136374291Y-115796299D01*
X136380000Y-115825000D01*
X136380000Y-115975000D01*
X136374291Y-116003701D01*
X136358033Y-116028033D01*
X136333701Y-116044291D01*
X136305000Y-116050000D01*
X134905000Y-116050000D01*
X134876299Y-116044291D01*
X134851967Y-116028033D01*
X134835709Y-116003701D01*
X134830000Y-115975000D01*
X134830000Y-115825000D01*
X134835709Y-115796299D01*
X134851967Y-115771967D01*
X134876299Y-115755709D01*
X134905000Y-115750000D01*
X136305000Y-115750000D01*
X136333701Y-115755709D01*
G37*
G36*
X136333701Y-115255709D02*
G01*
X136358033Y-115271967D01*
X136374291Y-115296299D01*
X136380000Y-115325000D01*
X136380000Y-115475000D01*
X136374291Y-115503701D01*
X136358033Y-115528033D01*
X136333701Y-115544291D01*
X136305000Y-115550000D01*
X134905000Y-115550000D01*
X134876299Y-115544291D01*
X134851967Y-115528033D01*
X134835709Y-115503701D01*
X134830000Y-115475000D01*
X134830000Y-115325000D01*
X134835709Y-115296299D01*
X134851967Y-115271967D01*
X134876299Y-115255709D01*
X134905000Y-115250000D01*
X136305000Y-115250000D01*
X136333701Y-115255709D01*
G37*
G36*
X136333701Y-114755709D02*
G01*
X136358033Y-114771967D01*
X136374291Y-114796299D01*
X136380000Y-114825000D01*
X136380000Y-114975000D01*
X136374291Y-115003701D01*
X136358033Y-115028033D01*
X136333701Y-115044291D01*
X136305000Y-115050000D01*
X134905000Y-115050000D01*
X134876299Y-115044291D01*
X134851967Y-115028033D01*
X134835709Y-115003701D01*
X134830000Y-114975000D01*
X134830000Y-114825000D01*
X134835709Y-114796299D01*
X134851967Y-114771967D01*
X134876299Y-114755709D01*
X134905000Y-114750000D01*
X136305000Y-114750000D01*
X136333701Y-114755709D01*
G37*
G36*
X136333701Y-114255709D02*
G01*
X136358033Y-114271967D01*
X136374291Y-114296299D01*
X136380000Y-114325000D01*
X136380000Y-114475000D01*
X136374291Y-114503701D01*
X136358033Y-114528033D01*
X136333701Y-114544291D01*
X136305000Y-114550000D01*
X134905000Y-114550000D01*
X134876299Y-114544291D01*
X134851967Y-114528033D01*
X134835709Y-114503701D01*
X134830000Y-114475000D01*
X134830000Y-114325000D01*
X134835709Y-114296299D01*
X134851967Y-114271967D01*
X134876299Y-114255709D01*
X134905000Y-114250000D01*
X136305000Y-114250000D01*
X136333701Y-114255709D01*
G37*
G36*
X136333701Y-113755709D02*
G01*
X136358033Y-113771967D01*
X136374291Y-113796299D01*
X136380000Y-113825000D01*
X136380000Y-113975000D01*
X136374291Y-114003701D01*
X136358033Y-114028033D01*
X136333701Y-114044291D01*
X136305000Y-114050000D01*
X134905000Y-114050000D01*
X134876299Y-114044291D01*
X134851967Y-114028033D01*
X134835709Y-114003701D01*
X134830000Y-113975000D01*
X134830000Y-113825000D01*
X134835709Y-113796299D01*
X134851967Y-113771967D01*
X134876299Y-113755709D01*
X134905000Y-113750000D01*
X136305000Y-113750000D01*
X136333701Y-113755709D01*
G37*
G36*
X136333701Y-113255709D02*
G01*
X136358033Y-113271967D01*
X136374291Y-113296299D01*
X136380000Y-113325000D01*
X136380000Y-113475000D01*
X136374291Y-113503701D01*
X136358033Y-113528033D01*
X136333701Y-113544291D01*
X136305000Y-113550000D01*
X134905000Y-113550000D01*
X134876299Y-113544291D01*
X134851967Y-113528033D01*
X134835709Y-113503701D01*
X134830000Y-113475000D01*
X134830000Y-113325000D01*
X134835709Y-113296299D01*
X134851967Y-113271967D01*
X134876299Y-113255709D01*
X134905000Y-113250000D01*
X136305000Y-113250000D01*
X136333701Y-113255709D01*
G37*
G36*
X136333701Y-112755709D02*
G01*
X136358033Y-112771967D01*
X136374291Y-112796299D01*
X136380000Y-112825000D01*
X136380000Y-112975000D01*
X136374291Y-113003701D01*
X136358033Y-113028033D01*
X136333701Y-113044291D01*
X136305000Y-113050000D01*
X134905000Y-113050000D01*
X134876299Y-113044291D01*
X134851967Y-113028033D01*
X134835709Y-113003701D01*
X134830000Y-112975000D01*
X134830000Y-112825000D01*
X134835709Y-112796299D01*
X134851967Y-112771967D01*
X134876299Y-112755709D01*
X134905000Y-112750000D01*
X136305000Y-112750000D01*
X136333701Y-112755709D01*
G37*
G36*
X136333701Y-112255709D02*
G01*
X136358033Y-112271967D01*
X136374291Y-112296299D01*
X136380000Y-112325000D01*
X136380000Y-112475000D01*
X136374291Y-112503701D01*
X136358033Y-112528033D01*
X136333701Y-112544291D01*
X136305000Y-112550000D01*
X134905000Y-112550000D01*
X134876299Y-112544291D01*
X134851967Y-112528033D01*
X134835709Y-112503701D01*
X134830000Y-112475000D01*
X134830000Y-112325000D01*
X134835709Y-112296299D01*
X134851967Y-112271967D01*
X134876299Y-112255709D01*
X134905000Y-112250000D01*
X136305000Y-112250000D01*
X136333701Y-112255709D01*
G37*
G36*
X136333701Y-111755709D02*
G01*
X136358033Y-111771967D01*
X136374291Y-111796299D01*
X136380000Y-111825000D01*
X136380000Y-111975000D01*
X136374291Y-112003701D01*
X136358033Y-112028033D01*
X136333701Y-112044291D01*
X136305000Y-112050000D01*
X134905000Y-112050000D01*
X134876299Y-112044291D01*
X134851967Y-112028033D01*
X134835709Y-112003701D01*
X134830000Y-111975000D01*
X134830000Y-111825000D01*
X134835709Y-111796299D01*
X134851967Y-111771967D01*
X134876299Y-111755709D01*
X134905000Y-111750000D01*
X136305000Y-111750000D01*
X136333701Y-111755709D01*
G37*
G36*
X136333701Y-111255709D02*
G01*
X136358033Y-111271967D01*
X136374291Y-111296299D01*
X136380000Y-111325000D01*
X136380000Y-111475000D01*
X136374291Y-111503701D01*
X136358033Y-111528033D01*
X136333701Y-111544291D01*
X136305000Y-111550000D01*
X134905000Y-111550000D01*
X134876299Y-111544291D01*
X134851967Y-111528033D01*
X134835709Y-111503701D01*
X134830000Y-111475000D01*
X134830000Y-111325000D01*
X134835709Y-111296299D01*
X134851967Y-111271967D01*
X134876299Y-111255709D01*
X134905000Y-111250000D01*
X136305000Y-111250000D01*
X136333701Y-111255709D01*
G37*
G36*
X136333701Y-110755709D02*
G01*
X136358033Y-110771967D01*
X136374291Y-110796299D01*
X136380000Y-110825000D01*
X136380000Y-110975000D01*
X136374291Y-111003701D01*
X136358033Y-111028033D01*
X136333701Y-111044291D01*
X136305000Y-111050000D01*
X134905000Y-111050000D01*
X134876299Y-111044291D01*
X134851967Y-111028033D01*
X134835709Y-111003701D01*
X134830000Y-110975000D01*
X134830000Y-110825000D01*
X134835709Y-110796299D01*
X134851967Y-110771967D01*
X134876299Y-110755709D01*
X134905000Y-110750000D01*
X136305000Y-110750000D01*
X136333701Y-110755709D01*
G37*
G36*
X136333701Y-110255709D02*
G01*
X136358033Y-110271967D01*
X136374291Y-110296299D01*
X136380000Y-110325000D01*
X136380000Y-110475000D01*
X136374291Y-110503701D01*
X136358033Y-110528033D01*
X136333701Y-110544291D01*
X136305000Y-110550000D01*
X134905000Y-110550000D01*
X134876299Y-110544291D01*
X134851967Y-110528033D01*
X134835709Y-110503701D01*
X134830000Y-110475000D01*
X134830000Y-110325000D01*
X134835709Y-110296299D01*
X134851967Y-110271967D01*
X134876299Y-110255709D01*
X134905000Y-110250000D01*
X136305000Y-110250000D01*
X136333701Y-110255709D01*
G37*
G36*
X137633701Y-107705709D02*
G01*
X137658033Y-107721967D01*
X137674291Y-107746299D01*
X137680000Y-107775000D01*
X137680000Y-109175000D01*
X137674291Y-109203701D01*
X137658033Y-109228033D01*
X137633701Y-109244291D01*
X137605000Y-109250000D01*
X137455000Y-109250000D01*
X137426299Y-109244291D01*
X137401967Y-109228033D01*
X137385709Y-109203701D01*
X137380000Y-109175000D01*
X137380000Y-107775000D01*
X137385709Y-107746299D01*
X137401967Y-107721967D01*
X137426299Y-107705709D01*
X137455000Y-107700000D01*
X137605000Y-107700000D01*
X137633701Y-107705709D01*
G37*
G36*
X138133701Y-107705709D02*
G01*
X138158033Y-107721967D01*
X138174291Y-107746299D01*
X138180000Y-107775000D01*
X138180000Y-109175000D01*
X138174291Y-109203701D01*
X138158033Y-109228033D01*
X138133701Y-109244291D01*
X138105000Y-109250000D01*
X137955000Y-109250000D01*
X137926299Y-109244291D01*
X137901967Y-109228033D01*
X137885709Y-109203701D01*
X137880000Y-109175000D01*
X137880000Y-107775000D01*
X137885709Y-107746299D01*
X137901967Y-107721967D01*
X137926299Y-107705709D01*
X137955000Y-107700000D01*
X138105000Y-107700000D01*
X138133701Y-107705709D01*
G37*
G36*
X138633701Y-107705709D02*
G01*
X138658033Y-107721967D01*
X138674291Y-107746299D01*
X138680000Y-107775000D01*
X138680000Y-109175000D01*
X138674291Y-109203701D01*
X138658033Y-109228033D01*
X138633701Y-109244291D01*
X138605000Y-109250000D01*
X138455000Y-109250000D01*
X138426299Y-109244291D01*
X138401967Y-109228033D01*
X138385709Y-109203701D01*
X138380000Y-109175000D01*
X138380000Y-107775000D01*
X138385709Y-107746299D01*
X138401967Y-107721967D01*
X138426299Y-107705709D01*
X138455000Y-107700000D01*
X138605000Y-107700000D01*
X138633701Y-107705709D01*
G37*
G36*
X139133701Y-107705709D02*
G01*
X139158033Y-107721967D01*
X139174291Y-107746299D01*
X139180000Y-107775000D01*
X139180000Y-109175000D01*
X139174291Y-109203701D01*
X139158033Y-109228033D01*
X139133701Y-109244291D01*
X139105000Y-109250000D01*
X138955000Y-109250000D01*
X138926299Y-109244291D01*
X138901967Y-109228033D01*
X138885709Y-109203701D01*
X138880000Y-109175000D01*
X138880000Y-107775000D01*
X138885709Y-107746299D01*
X138901967Y-107721967D01*
X138926299Y-107705709D01*
X138955000Y-107700000D01*
X139105000Y-107700000D01*
X139133701Y-107705709D01*
G37*
G36*
X139633701Y-107705709D02*
G01*
X139658033Y-107721967D01*
X139674291Y-107746299D01*
X139680000Y-107775000D01*
X139680000Y-109175000D01*
X139674291Y-109203701D01*
X139658033Y-109228033D01*
X139633701Y-109244291D01*
X139605000Y-109250000D01*
X139455000Y-109250000D01*
X139426299Y-109244291D01*
X139401967Y-109228033D01*
X139385709Y-109203701D01*
X139380000Y-109175000D01*
X139380000Y-107775000D01*
X139385709Y-107746299D01*
X139401967Y-107721967D01*
X139426299Y-107705709D01*
X139455000Y-107700000D01*
X139605000Y-107700000D01*
X139633701Y-107705709D01*
G37*
G36*
X140133701Y-107705709D02*
G01*
X140158033Y-107721967D01*
X140174291Y-107746299D01*
X140180000Y-107775000D01*
X140180000Y-109175000D01*
X140174291Y-109203701D01*
X140158033Y-109228033D01*
X140133701Y-109244291D01*
X140105000Y-109250000D01*
X139955000Y-109250000D01*
X139926299Y-109244291D01*
X139901967Y-109228033D01*
X139885709Y-109203701D01*
X139880000Y-109175000D01*
X139880000Y-107775000D01*
X139885709Y-107746299D01*
X139901967Y-107721967D01*
X139926299Y-107705709D01*
X139955000Y-107700000D01*
X140105000Y-107700000D01*
X140133701Y-107705709D01*
G37*
G36*
X140633701Y-107705709D02*
G01*
X140658033Y-107721967D01*
X140674291Y-107746299D01*
X140680000Y-107775000D01*
X140680000Y-109175000D01*
X140674291Y-109203701D01*
X140658033Y-109228033D01*
X140633701Y-109244291D01*
X140605000Y-109250000D01*
X140455000Y-109250000D01*
X140426299Y-109244291D01*
X140401967Y-109228033D01*
X140385709Y-109203701D01*
X140380000Y-109175000D01*
X140380000Y-107775000D01*
X140385709Y-107746299D01*
X140401967Y-107721967D01*
X140426299Y-107705709D01*
X140455000Y-107700000D01*
X140605000Y-107700000D01*
X140633701Y-107705709D01*
G37*
G36*
X141133701Y-107705709D02*
G01*
X141158033Y-107721967D01*
X141174291Y-107746299D01*
X141180000Y-107775000D01*
X141180000Y-109175000D01*
X141174291Y-109203701D01*
X141158033Y-109228033D01*
X141133701Y-109244291D01*
X141105000Y-109250000D01*
X140955000Y-109250000D01*
X140926299Y-109244291D01*
X140901967Y-109228033D01*
X140885709Y-109203701D01*
X140880000Y-109175000D01*
X140880000Y-107775000D01*
X140885709Y-107746299D01*
X140901967Y-107721967D01*
X140926299Y-107705709D01*
X140955000Y-107700000D01*
X141105000Y-107700000D01*
X141133701Y-107705709D01*
G37*
G36*
X141633701Y-107705709D02*
G01*
X141658033Y-107721967D01*
X141674291Y-107746299D01*
X141680000Y-107775000D01*
X141680000Y-109175000D01*
X141674291Y-109203701D01*
X141658033Y-109228033D01*
X141633701Y-109244291D01*
X141605000Y-109250000D01*
X141455000Y-109250000D01*
X141426299Y-109244291D01*
X141401967Y-109228033D01*
X141385709Y-109203701D01*
X141380000Y-109175000D01*
X141380000Y-107775000D01*
X141385709Y-107746299D01*
X141401967Y-107721967D01*
X141426299Y-107705709D01*
X141455000Y-107700000D01*
X141605000Y-107700000D01*
X141633701Y-107705709D01*
G37*
G36*
X142133701Y-107705709D02*
G01*
X142158033Y-107721967D01*
X142174291Y-107746299D01*
X142180000Y-107775000D01*
X142180000Y-109175000D01*
X142174291Y-109203701D01*
X142158033Y-109228033D01*
X142133701Y-109244291D01*
X142105000Y-109250000D01*
X141955000Y-109250000D01*
X141926299Y-109244291D01*
X141901967Y-109228033D01*
X141885709Y-109203701D01*
X141880000Y-109175000D01*
X141880000Y-107775000D01*
X141885709Y-107746299D01*
X141901967Y-107721967D01*
X141926299Y-107705709D01*
X141955000Y-107700000D01*
X142105000Y-107700000D01*
X142133701Y-107705709D01*
G37*
G36*
X142633701Y-107705709D02*
G01*
X142658033Y-107721967D01*
X142674291Y-107746299D01*
X142680000Y-107775000D01*
X142680000Y-109175000D01*
X142674291Y-109203701D01*
X142658033Y-109228033D01*
X142633701Y-109244291D01*
X142605000Y-109250000D01*
X142455000Y-109250000D01*
X142426299Y-109244291D01*
X142401967Y-109228033D01*
X142385709Y-109203701D01*
X142380000Y-109175000D01*
X142380000Y-107775000D01*
X142385709Y-107746299D01*
X142401967Y-107721967D01*
X142426299Y-107705709D01*
X142455000Y-107700000D01*
X142605000Y-107700000D01*
X142633701Y-107705709D01*
G37*
G36*
X143133701Y-107705709D02*
G01*
X143158033Y-107721967D01*
X143174291Y-107746299D01*
X143180000Y-107775000D01*
X143180000Y-109175000D01*
X143174291Y-109203701D01*
X143158033Y-109228033D01*
X143133701Y-109244291D01*
X143105000Y-109250000D01*
X142955000Y-109250000D01*
X142926299Y-109244291D01*
X142901967Y-109228033D01*
X142885709Y-109203701D01*
X142880000Y-109175000D01*
X142880000Y-107775000D01*
X142885709Y-107746299D01*
X142901967Y-107721967D01*
X142926299Y-107705709D01*
X142955000Y-107700000D01*
X143105000Y-107700000D01*
X143133701Y-107705709D01*
G37*
G36*
X143633701Y-107705709D02*
G01*
X143658033Y-107721967D01*
X143674291Y-107746299D01*
X143680000Y-107775000D01*
X143680000Y-109175000D01*
X143674291Y-109203701D01*
X143658033Y-109228033D01*
X143633701Y-109244291D01*
X143605000Y-109250000D01*
X143455000Y-109250000D01*
X143426299Y-109244291D01*
X143401967Y-109228033D01*
X143385709Y-109203701D01*
X143380000Y-109175000D01*
X143380000Y-107775000D01*
X143385709Y-107746299D01*
X143401967Y-107721967D01*
X143426299Y-107705709D01*
X143455000Y-107700000D01*
X143605000Y-107700000D01*
X143633701Y-107705709D01*
G37*
G36*
X144133701Y-107705709D02*
G01*
X144158033Y-107721967D01*
X144174291Y-107746299D01*
X144180000Y-107775000D01*
X144180000Y-109175000D01*
X144174291Y-109203701D01*
X144158033Y-109228033D01*
X144133701Y-109244291D01*
X144105000Y-109250000D01*
X143955000Y-109250000D01*
X143926299Y-109244291D01*
X143901967Y-109228033D01*
X143885709Y-109203701D01*
X143880000Y-109175000D01*
X143880000Y-107775000D01*
X143885709Y-107746299D01*
X143901967Y-107721967D01*
X143926299Y-107705709D01*
X143955000Y-107700000D01*
X144105000Y-107700000D01*
X144133701Y-107705709D01*
G37*
G36*
X144633701Y-107705709D02*
G01*
X144658033Y-107721967D01*
X144674291Y-107746299D01*
X144680000Y-107775000D01*
X144680000Y-109175000D01*
X144674291Y-109203701D01*
X144658033Y-109228033D01*
X144633701Y-109244291D01*
X144605000Y-109250000D01*
X144455000Y-109250000D01*
X144426299Y-109244291D01*
X144401967Y-109228033D01*
X144385709Y-109203701D01*
X144380000Y-109175000D01*
X144380000Y-107775000D01*
X144385709Y-107746299D01*
X144401967Y-107721967D01*
X144426299Y-107705709D01*
X144455000Y-107700000D01*
X144605000Y-107700000D01*
X144633701Y-107705709D01*
G37*
G36*
X145133701Y-107705709D02*
G01*
X145158033Y-107721967D01*
X145174291Y-107746299D01*
X145180000Y-107775000D01*
X145180000Y-109175000D01*
X145174291Y-109203701D01*
X145158033Y-109228033D01*
X145133701Y-109244291D01*
X145105000Y-109250000D01*
X144955000Y-109250000D01*
X144926299Y-109244291D01*
X144901967Y-109228033D01*
X144885709Y-109203701D01*
X144880000Y-109175000D01*
X144880000Y-107775000D01*
X144885709Y-107746299D01*
X144901967Y-107721967D01*
X144926299Y-107705709D01*
X144955000Y-107700000D01*
X145105000Y-107700000D01*
X145133701Y-107705709D01*
G37*
G36*
X147683701Y-110255709D02*
G01*
X147708033Y-110271967D01*
X147724291Y-110296299D01*
X147730000Y-110325000D01*
X147730000Y-110475000D01*
X147724291Y-110503701D01*
X147708033Y-110528033D01*
X147683701Y-110544291D01*
X147655000Y-110550000D01*
X146255000Y-110550000D01*
X146226299Y-110544291D01*
X146201967Y-110528033D01*
X146185709Y-110503701D01*
X146180000Y-110475000D01*
X146180000Y-110325000D01*
X146185709Y-110296299D01*
X146201967Y-110271967D01*
X146226299Y-110255709D01*
X146255000Y-110250000D01*
X147655000Y-110250000D01*
X147683701Y-110255709D01*
G37*
G36*
X147683701Y-110755709D02*
G01*
X147708033Y-110771967D01*
X147724291Y-110796299D01*
X147730000Y-110825000D01*
X147730000Y-110975000D01*
X147724291Y-111003701D01*
X147708033Y-111028033D01*
X147683701Y-111044291D01*
X147655000Y-111050000D01*
X146255000Y-111050000D01*
X146226299Y-111044291D01*
X146201967Y-111028033D01*
X146185709Y-111003701D01*
X146180000Y-110975000D01*
X146180000Y-110825000D01*
X146185709Y-110796299D01*
X146201967Y-110771967D01*
X146226299Y-110755709D01*
X146255000Y-110750000D01*
X147655000Y-110750000D01*
X147683701Y-110755709D01*
G37*
G36*
X147683701Y-111255709D02*
G01*
X147708033Y-111271967D01*
X147724291Y-111296299D01*
X147730000Y-111325000D01*
X147730000Y-111475000D01*
X147724291Y-111503701D01*
X147708033Y-111528033D01*
X147683701Y-111544291D01*
X147655000Y-111550000D01*
X146255000Y-111550000D01*
X146226299Y-111544291D01*
X146201967Y-111528033D01*
X146185709Y-111503701D01*
X146180000Y-111475000D01*
X146180000Y-111325000D01*
X146185709Y-111296299D01*
X146201967Y-111271967D01*
X146226299Y-111255709D01*
X146255000Y-111250000D01*
X147655000Y-111250000D01*
X147683701Y-111255709D01*
G37*
G36*
X147683701Y-111755709D02*
G01*
X147708033Y-111771967D01*
X147724291Y-111796299D01*
X147730000Y-111825000D01*
X147730000Y-111975000D01*
X147724291Y-112003701D01*
X147708033Y-112028033D01*
X147683701Y-112044291D01*
X147655000Y-112050000D01*
X146255000Y-112050000D01*
X146226299Y-112044291D01*
X146201967Y-112028033D01*
X146185709Y-112003701D01*
X146180000Y-111975000D01*
X146180000Y-111825000D01*
X146185709Y-111796299D01*
X146201967Y-111771967D01*
X146226299Y-111755709D01*
X146255000Y-111750000D01*
X147655000Y-111750000D01*
X147683701Y-111755709D01*
G37*
G36*
X147683701Y-112255709D02*
G01*
X147708033Y-112271967D01*
X147724291Y-112296299D01*
X147730000Y-112325000D01*
X147730000Y-112475000D01*
X147724291Y-112503701D01*
X147708033Y-112528033D01*
X147683701Y-112544291D01*
X147655000Y-112550000D01*
X146255000Y-112550000D01*
X146226299Y-112544291D01*
X146201967Y-112528033D01*
X146185709Y-112503701D01*
X146180000Y-112475000D01*
X146180000Y-112325000D01*
X146185709Y-112296299D01*
X146201967Y-112271967D01*
X146226299Y-112255709D01*
X146255000Y-112250000D01*
X147655000Y-112250000D01*
X147683701Y-112255709D01*
G37*
G36*
X147683701Y-112755709D02*
G01*
X147708033Y-112771967D01*
X147724291Y-112796299D01*
X147730000Y-112825000D01*
X147730000Y-112975000D01*
X147724291Y-113003701D01*
X147708033Y-113028033D01*
X147683701Y-113044291D01*
X147655000Y-113050000D01*
X146255000Y-113050000D01*
X146226299Y-113044291D01*
X146201967Y-113028033D01*
X146185709Y-113003701D01*
X146180000Y-112975000D01*
X146180000Y-112825000D01*
X146185709Y-112796299D01*
X146201967Y-112771967D01*
X146226299Y-112755709D01*
X146255000Y-112750000D01*
X147655000Y-112750000D01*
X147683701Y-112755709D01*
G37*
G36*
X147683701Y-113255709D02*
G01*
X147708033Y-113271967D01*
X147724291Y-113296299D01*
X147730000Y-113325000D01*
X147730000Y-113475000D01*
X147724291Y-113503701D01*
X147708033Y-113528033D01*
X147683701Y-113544291D01*
X147655000Y-113550000D01*
X146255000Y-113550000D01*
X146226299Y-113544291D01*
X146201967Y-113528033D01*
X146185709Y-113503701D01*
X146180000Y-113475000D01*
X146180000Y-113325000D01*
X146185709Y-113296299D01*
X146201967Y-113271967D01*
X146226299Y-113255709D01*
X146255000Y-113250000D01*
X147655000Y-113250000D01*
X147683701Y-113255709D01*
G37*
G36*
X147683701Y-113755709D02*
G01*
X147708033Y-113771967D01*
X147724291Y-113796299D01*
X147730000Y-113825000D01*
X147730000Y-113975000D01*
X147724291Y-114003701D01*
X147708033Y-114028033D01*
X147683701Y-114044291D01*
X147655000Y-114050000D01*
X146255000Y-114050000D01*
X146226299Y-114044291D01*
X146201967Y-114028033D01*
X146185709Y-114003701D01*
X146180000Y-113975000D01*
X146180000Y-113825000D01*
X146185709Y-113796299D01*
X146201967Y-113771967D01*
X146226299Y-113755709D01*
X146255000Y-113750000D01*
X147655000Y-113750000D01*
X147683701Y-113755709D01*
G37*
G36*
X147683701Y-114255709D02*
G01*
X147708033Y-114271967D01*
X147724291Y-114296299D01*
X147730000Y-114325000D01*
X147730000Y-114475000D01*
X147724291Y-114503701D01*
X147708033Y-114528033D01*
X147683701Y-114544291D01*
X147655000Y-114550000D01*
X146255000Y-114550000D01*
X146226299Y-114544291D01*
X146201967Y-114528033D01*
X146185709Y-114503701D01*
X146180000Y-114475000D01*
X146180000Y-114325000D01*
X146185709Y-114296299D01*
X146201967Y-114271967D01*
X146226299Y-114255709D01*
X146255000Y-114250000D01*
X147655000Y-114250000D01*
X147683701Y-114255709D01*
G37*
G36*
X147683701Y-114755709D02*
G01*
X147708033Y-114771967D01*
X147724291Y-114796299D01*
X147730000Y-114825000D01*
X147730000Y-114975000D01*
X147724291Y-115003701D01*
X147708033Y-115028033D01*
X147683701Y-115044291D01*
X147655000Y-115050000D01*
X146255000Y-115050000D01*
X146226299Y-115044291D01*
X146201967Y-115028033D01*
X146185709Y-115003701D01*
X146180000Y-114975000D01*
X146180000Y-114825000D01*
X146185709Y-114796299D01*
X146201967Y-114771967D01*
X146226299Y-114755709D01*
X146255000Y-114750000D01*
X147655000Y-114750000D01*
X147683701Y-114755709D01*
G37*
G36*
X147683701Y-115255709D02*
G01*
X147708033Y-115271967D01*
X147724291Y-115296299D01*
X147730000Y-115325000D01*
X147730000Y-115475000D01*
X147724291Y-115503701D01*
X147708033Y-115528033D01*
X147683701Y-115544291D01*
X147655000Y-115550000D01*
X146255000Y-115550000D01*
X146226299Y-115544291D01*
X146201967Y-115528033D01*
X146185709Y-115503701D01*
X146180000Y-115475000D01*
X146180000Y-115325000D01*
X146185709Y-115296299D01*
X146201967Y-115271967D01*
X146226299Y-115255709D01*
X146255000Y-115250000D01*
X147655000Y-115250000D01*
X147683701Y-115255709D01*
G37*
G36*
X147683701Y-115755709D02*
G01*
X147708033Y-115771967D01*
X147724291Y-115796299D01*
X147730000Y-115825000D01*
X147730000Y-115975000D01*
X147724291Y-116003701D01*
X147708033Y-116028033D01*
X147683701Y-116044291D01*
X147655000Y-116050000D01*
X146255000Y-116050000D01*
X146226299Y-116044291D01*
X146201967Y-116028033D01*
X146185709Y-116003701D01*
X146180000Y-115975000D01*
X146180000Y-115825000D01*
X146185709Y-115796299D01*
X146201967Y-115771967D01*
X146226299Y-115755709D01*
X146255000Y-115750000D01*
X147655000Y-115750000D01*
X147683701Y-115755709D01*
G37*
G36*
X147683701Y-116255709D02*
G01*
X147708033Y-116271967D01*
X147724291Y-116296299D01*
X147730000Y-116325000D01*
X147730000Y-116475000D01*
X147724291Y-116503701D01*
X147708033Y-116528033D01*
X147683701Y-116544291D01*
X147655000Y-116550000D01*
X146255000Y-116550000D01*
X146226299Y-116544291D01*
X146201967Y-116528033D01*
X146185709Y-116503701D01*
X146180000Y-116475000D01*
X146180000Y-116325000D01*
X146185709Y-116296299D01*
X146201967Y-116271967D01*
X146226299Y-116255709D01*
X146255000Y-116250000D01*
X147655000Y-116250000D01*
X147683701Y-116255709D01*
G37*
G36*
X147683701Y-116755709D02*
G01*
X147708033Y-116771967D01*
X147724291Y-116796299D01*
X147730000Y-116825000D01*
X147730000Y-116975000D01*
X147724291Y-117003701D01*
X147708033Y-117028033D01*
X147683701Y-117044291D01*
X147655000Y-117050000D01*
X146255000Y-117050000D01*
X146226299Y-117044291D01*
X146201967Y-117028033D01*
X146185709Y-117003701D01*
X146180000Y-116975000D01*
X146180000Y-116825000D01*
X146185709Y-116796299D01*
X146201967Y-116771967D01*
X146226299Y-116755709D01*
X146255000Y-116750000D01*
X147655000Y-116750000D01*
X147683701Y-116755709D01*
G37*
G36*
X147683701Y-117255709D02*
G01*
X147708033Y-117271967D01*
X147724291Y-117296299D01*
X147730000Y-117325000D01*
X147730000Y-117475000D01*
X147724291Y-117503701D01*
X147708033Y-117528033D01*
X147683701Y-117544291D01*
X147655000Y-117550000D01*
X146255000Y-117550000D01*
X146226299Y-117544291D01*
X146201967Y-117528033D01*
X146185709Y-117503701D01*
X146180000Y-117475000D01*
X146180000Y-117325000D01*
X146185709Y-117296299D01*
X146201967Y-117271967D01*
X146226299Y-117255709D01*
X146255000Y-117250000D01*
X147655000Y-117250000D01*
X147683701Y-117255709D01*
G37*
G36*
X147683701Y-117755709D02*
G01*
X147708033Y-117771967D01*
X147724291Y-117796299D01*
X147730000Y-117825000D01*
X147730000Y-117975000D01*
X147724291Y-118003701D01*
X147708033Y-118028033D01*
X147683701Y-118044291D01*
X147655000Y-118050000D01*
X146255000Y-118050000D01*
X146226299Y-118044291D01*
X146201967Y-118028033D01*
X146185709Y-118003701D01*
X146180000Y-117975000D01*
X146180000Y-117825000D01*
X146185709Y-117796299D01*
X146201967Y-117771967D01*
X146226299Y-117755709D01*
X146255000Y-117750000D01*
X147655000Y-117750000D01*
X147683701Y-117755709D01*
G37*
G36*
X140439962Y-99166651D02*
G01*
X140510930Y-99214070D01*
X140558349Y-99285038D01*
X140575000Y-99368750D01*
X140575000Y-99806250D01*
X140558349Y-99889962D01*
X140510930Y-99960930D01*
X140439962Y-100008349D01*
X140356250Y-100025000D01*
X139843750Y-100025000D01*
X139760038Y-100008349D01*
X139689070Y-99960930D01*
X139641651Y-99889962D01*
X139625000Y-99806250D01*
X139625000Y-99368750D01*
X139641651Y-99285038D01*
X139689070Y-99214070D01*
X139760038Y-99166651D01*
X139843750Y-99150000D01*
X140356250Y-99150000D01*
X140439962Y-99166651D01*
G37*
G36*
X140439962Y-97591651D02*
G01*
X140510930Y-97639070D01*
X140558349Y-97710038D01*
X140575000Y-97793750D01*
X140575000Y-98231250D01*
X140558349Y-98314962D01*
X140510930Y-98385930D01*
X140439962Y-98433349D01*
X140356250Y-98450000D01*
X139843750Y-98450000D01*
X139760038Y-98433349D01*
X139689070Y-98385930D01*
X139641651Y-98314962D01*
X139625000Y-98231250D01*
X139625000Y-97793750D01*
X139641651Y-97710038D01*
X139689070Y-97639070D01*
X139760038Y-97591651D01*
X139843750Y-97575000D01*
X140356250Y-97575000D01*
X140439962Y-97591651D01*
G37*
G36*
X137934962Y-104421651D02*
G01*
X138005930Y-104469070D01*
X138053349Y-104540038D01*
X138070000Y-104623750D01*
X138070000Y-105136250D01*
X138053349Y-105219962D01*
X138005930Y-105290930D01*
X137934962Y-105338349D01*
X137851250Y-105355000D01*
X137413750Y-105355000D01*
X137330038Y-105338349D01*
X137259070Y-105290930D01*
X137211651Y-105219962D01*
X137195000Y-105136250D01*
X137195000Y-104623750D01*
X137211651Y-104540038D01*
X137259070Y-104469070D01*
X137330038Y-104421651D01*
X137413750Y-104405000D01*
X137851250Y-104405000D01*
X137934962Y-104421651D01*
G37*
G36*
X139509962Y-104421651D02*
G01*
X139580930Y-104469070D01*
X139628349Y-104540038D01*
X139645000Y-104623750D01*
X139645000Y-105136250D01*
X139628349Y-105219962D01*
X139580930Y-105290930D01*
X139509962Y-105338349D01*
X139426250Y-105355000D01*
X138988750Y-105355000D01*
X138905038Y-105338349D01*
X138834070Y-105290930D01*
X138786651Y-105219962D01*
X138770000Y-105136250D01*
X138770000Y-104623750D01*
X138786651Y-104540038D01*
X138834070Y-104469070D01*
X138905038Y-104421651D01*
X138988750Y-104405000D01*
X139426250Y-104405000D01*
X139509962Y-104421651D01*
G37*
G36*
X137934962Y-102953651D02*
G01*
X138005930Y-103001070D01*
X138053349Y-103072038D01*
X138070000Y-103155750D01*
X138070000Y-103668250D01*
X138053349Y-103751962D01*
X138005930Y-103822930D01*
X137934962Y-103870349D01*
X137851250Y-103887000D01*
X137413750Y-103887000D01*
X137330038Y-103870349D01*
X137259070Y-103822930D01*
X137211651Y-103751962D01*
X137195000Y-103668250D01*
X137195000Y-103155750D01*
X137211651Y-103072038D01*
X137259070Y-103001070D01*
X137330038Y-102953651D01*
X137413750Y-102937000D01*
X137851250Y-102937000D01*
X137934962Y-102953651D01*
G37*
G36*
X139509962Y-102953651D02*
G01*
X139580930Y-103001070D01*
X139628349Y-103072038D01*
X139645000Y-103155750D01*
X139645000Y-103668250D01*
X139628349Y-103751962D01*
X139580930Y-103822930D01*
X139509962Y-103870349D01*
X139426250Y-103887000D01*
X138988750Y-103887000D01*
X138905038Y-103870349D01*
X138834070Y-103822930D01*
X138786651Y-103751962D01*
X138770000Y-103668250D01*
X138770000Y-103155750D01*
X138786651Y-103072038D01*
X138834070Y-103001070D01*
X138905038Y-102953651D01*
X138988750Y-102937000D01*
X139426250Y-102937000D01*
X139509962Y-102953651D01*
G37*
G36*
X136551962Y-104421651D02*
G01*
X136622930Y-104469070D01*
X136670349Y-104540038D01*
X136687000Y-104623750D01*
X136687000Y-105136250D01*
X136670349Y-105219962D01*
X136622930Y-105290930D01*
X136551962Y-105338349D01*
X136468250Y-105355000D01*
X136030750Y-105355000D01*
X135947038Y-105338349D01*
X135876070Y-105290930D01*
X135828651Y-105219962D01*
X135812000Y-105136250D01*
X135812000Y-104623750D01*
X135828651Y-104540038D01*
X135876070Y-104469070D01*
X135947038Y-104421651D01*
X136030750Y-104405000D01*
X136468250Y-104405000D01*
X136551962Y-104421651D01*
G37*
G36*
X134976962Y-104421651D02*
G01*
X135047930Y-104469070D01*
X135095349Y-104540038D01*
X135112000Y-104623750D01*
X135112000Y-105136250D01*
X135095349Y-105219962D01*
X135047930Y-105290930D01*
X134976962Y-105338349D01*
X134893250Y-105355000D01*
X134455750Y-105355000D01*
X134372038Y-105338349D01*
X134301070Y-105290930D01*
X134253651Y-105219962D01*
X134237000Y-105136250D01*
X134237000Y-104623750D01*
X134253651Y-104540038D01*
X134301070Y-104469070D01*
X134372038Y-104421651D01*
X134455750Y-104405000D01*
X134893250Y-104405000D01*
X134976962Y-104421651D01*
G37*
G36*
X136539962Y-102953651D02*
G01*
X136610930Y-103001070D01*
X136658349Y-103072038D01*
X136675000Y-103155750D01*
X136675000Y-103668250D01*
X136658349Y-103751962D01*
X136610930Y-103822930D01*
X136539962Y-103870349D01*
X136456250Y-103887000D01*
X136018750Y-103887000D01*
X135935038Y-103870349D01*
X135864070Y-103822930D01*
X135816651Y-103751962D01*
X135800000Y-103668250D01*
X135800000Y-103155750D01*
X135816651Y-103072038D01*
X135864070Y-103001070D01*
X135935038Y-102953651D01*
X136018750Y-102937000D01*
X136456250Y-102937000D01*
X136539962Y-102953651D01*
G37*
G36*
X134964962Y-102953651D02*
G01*
X135035930Y-103001070D01*
X135083349Y-103072038D01*
X135100000Y-103155750D01*
X135100000Y-103668250D01*
X135083349Y-103751962D01*
X135035930Y-103822930D01*
X134964962Y-103870349D01*
X134881250Y-103887000D01*
X134443750Y-103887000D01*
X134360038Y-103870349D01*
X134289070Y-103822930D01*
X134241651Y-103751962D01*
X134225000Y-103668250D01*
X134225000Y-103155750D01*
X134241651Y-103072038D01*
X134289070Y-103001070D01*
X134360038Y-102953651D01*
X134443750Y-102937000D01*
X134881250Y-102937000D01*
X134964962Y-102953651D01*
G37*
D17*
X149270000Y-117180000D03*
X149270000Y-113880000D03*
X151270000Y-113880000D03*
X151270000Y-117180000D03*
G36*
X157407403Y-98116418D02*
G01*
X157456066Y-98148934D01*
X157488582Y-98197597D01*
X157500000Y-98255000D01*
X157500000Y-98555000D01*
X157488582Y-98612403D01*
X157456066Y-98661066D01*
X157407403Y-98693582D01*
X157350000Y-98705000D01*
X155700000Y-98705000D01*
X155642597Y-98693582D01*
X155593934Y-98661066D01*
X155561418Y-98612403D01*
X155550000Y-98555000D01*
X155550000Y-98255000D01*
X155561418Y-98197597D01*
X155593934Y-98148934D01*
X155642597Y-98116418D01*
X155700000Y-98105000D01*
X157350000Y-98105000D01*
X157407403Y-98116418D01*
G37*
G36*
X157407403Y-96846418D02*
G01*
X157456066Y-96878934D01*
X157488582Y-96927597D01*
X157500000Y-96985000D01*
X157500000Y-97285000D01*
X157488582Y-97342403D01*
X157456066Y-97391066D01*
X157407403Y-97423582D01*
X157350000Y-97435000D01*
X155700000Y-97435000D01*
X155642597Y-97423582D01*
X155593934Y-97391066D01*
X155561418Y-97342403D01*
X155550000Y-97285000D01*
X155550000Y-96985000D01*
X155561418Y-96927597D01*
X155593934Y-96878934D01*
X155642597Y-96846418D01*
X155700000Y-96835000D01*
X157350000Y-96835000D01*
X157407403Y-96846418D01*
G37*
G36*
X157407403Y-95576418D02*
G01*
X157456066Y-95608934D01*
X157488582Y-95657597D01*
X157500000Y-95715000D01*
X157500000Y-96015000D01*
X157488582Y-96072403D01*
X157456066Y-96121066D01*
X157407403Y-96153582D01*
X157350000Y-96165000D01*
X155700000Y-96165000D01*
X155642597Y-96153582D01*
X155593934Y-96121066D01*
X155561418Y-96072403D01*
X155550000Y-96015000D01*
X155550000Y-95715000D01*
X155561418Y-95657597D01*
X155593934Y-95608934D01*
X155642597Y-95576418D01*
X155700000Y-95565000D01*
X157350000Y-95565000D01*
X157407403Y-95576418D01*
G37*
G36*
X157407403Y-94306418D02*
G01*
X157456066Y-94338934D01*
X157488582Y-94387597D01*
X157500000Y-94445000D01*
X157500000Y-94745000D01*
X157488582Y-94802403D01*
X157456066Y-94851066D01*
X157407403Y-94883582D01*
X157350000Y-94895000D01*
X155700000Y-94895000D01*
X155642597Y-94883582D01*
X155593934Y-94851066D01*
X155561418Y-94802403D01*
X155550000Y-94745000D01*
X155550000Y-94445000D01*
X155561418Y-94387597D01*
X155593934Y-94338934D01*
X155642597Y-94306418D01*
X155700000Y-94295000D01*
X157350000Y-94295000D01*
X157407403Y-94306418D01*
G37*
G36*
X162357403Y-94306418D02*
G01*
X162406066Y-94338934D01*
X162438582Y-94387597D01*
X162450000Y-94445000D01*
X162450000Y-94745000D01*
X162438582Y-94802403D01*
X162406066Y-94851066D01*
X162357403Y-94883582D01*
X162300000Y-94895000D01*
X160650000Y-94895000D01*
X160592597Y-94883582D01*
X160543934Y-94851066D01*
X160511418Y-94802403D01*
X160500000Y-94745000D01*
X160500000Y-94445000D01*
X160511418Y-94387597D01*
X160543934Y-94338934D01*
X160592597Y-94306418D01*
X160650000Y-94295000D01*
X162300000Y-94295000D01*
X162357403Y-94306418D01*
G37*
G36*
X162357403Y-95576418D02*
G01*
X162406066Y-95608934D01*
X162438582Y-95657597D01*
X162450000Y-95715000D01*
X162450000Y-96015000D01*
X162438582Y-96072403D01*
X162406066Y-96121066D01*
X162357403Y-96153582D01*
X162300000Y-96165000D01*
X160650000Y-96165000D01*
X160592597Y-96153582D01*
X160543934Y-96121066D01*
X160511418Y-96072403D01*
X160500000Y-96015000D01*
X160500000Y-95715000D01*
X160511418Y-95657597D01*
X160543934Y-95608934D01*
X160592597Y-95576418D01*
X160650000Y-95565000D01*
X162300000Y-95565000D01*
X162357403Y-95576418D01*
G37*
G36*
X162357403Y-96846418D02*
G01*
X162406066Y-96878934D01*
X162438582Y-96927597D01*
X162450000Y-96985000D01*
X162450000Y-97285000D01*
X162438582Y-97342403D01*
X162406066Y-97391066D01*
X162357403Y-97423582D01*
X162300000Y-97435000D01*
X160650000Y-97435000D01*
X160592597Y-97423582D01*
X160543934Y-97391066D01*
X160511418Y-97342403D01*
X160500000Y-97285000D01*
X160500000Y-96985000D01*
X160511418Y-96927597D01*
X160543934Y-96878934D01*
X160592597Y-96846418D01*
X160650000Y-96835000D01*
X162300000Y-96835000D01*
X162357403Y-96846418D01*
G37*
G36*
X162357403Y-98116418D02*
G01*
X162406066Y-98148934D01*
X162438582Y-98197597D01*
X162450000Y-98255000D01*
X162450000Y-98555000D01*
X162438582Y-98612403D01*
X162406066Y-98661066D01*
X162357403Y-98693582D01*
X162300000Y-98705000D01*
X160650000Y-98705000D01*
X160592597Y-98693582D01*
X160543934Y-98661066D01*
X160511418Y-98612403D01*
X160500000Y-98555000D01*
X160500000Y-98255000D01*
X160511418Y-98197597D01*
X160543934Y-98148934D01*
X160592597Y-98116418D01*
X160650000Y-98105000D01*
X162300000Y-98105000D01*
X162357403Y-98116418D01*
G37*
D18*
X155850000Y-119125000D03*
X155850000Y-118475000D03*
X155850000Y-117825000D03*
X155850000Y-117175000D03*
X155850000Y-116525000D03*
X155850000Y-115875000D03*
X155850000Y-115225000D03*
X155850000Y-114575000D03*
X155850000Y-113925000D03*
X155850000Y-113275000D03*
X161750000Y-113275000D03*
X161750000Y-113925000D03*
X161750000Y-114575000D03*
X161750000Y-115225000D03*
X161750000Y-115875000D03*
X161750000Y-116525000D03*
X161750000Y-117175000D03*
X161750000Y-117825000D03*
X161750000Y-118475000D03*
X161750000Y-119125000D03*
G36*
X133277835Y-98209515D02*
G01*
X133318388Y-98236612D01*
X133345485Y-98277165D01*
X133355000Y-98325000D01*
X133355000Y-99700000D01*
X133345485Y-99747835D01*
X133318388Y-99788388D01*
X133277835Y-99815485D01*
X133230000Y-99825000D01*
X132980000Y-99825000D01*
X132932165Y-99815485D01*
X132891612Y-99788388D01*
X132864515Y-99747835D01*
X132855000Y-99700000D01*
X132855000Y-98325000D01*
X132864515Y-98277165D01*
X132891612Y-98236612D01*
X132932165Y-98209515D01*
X132980000Y-98200000D01*
X133230000Y-98200000D01*
X133277835Y-98209515D01*
G37*
G36*
X132627835Y-98209515D02*
G01*
X132668388Y-98236612D01*
X132695485Y-98277165D01*
X132705000Y-98325000D01*
X132705000Y-99700000D01*
X132695485Y-99747835D01*
X132668388Y-99788388D01*
X132627835Y-99815485D01*
X132580000Y-99825000D01*
X132330000Y-99825000D01*
X132282165Y-99815485D01*
X132241612Y-99788388D01*
X132214515Y-99747835D01*
X132205000Y-99700000D01*
X132205000Y-98325000D01*
X132214515Y-98277165D01*
X132241612Y-98236612D01*
X132282165Y-98209515D01*
X132330000Y-98200000D01*
X132580000Y-98200000D01*
X132627835Y-98209515D01*
G37*
G36*
X131977835Y-98209515D02*
G01*
X132018388Y-98236612D01*
X132045485Y-98277165D01*
X132055000Y-98325000D01*
X132055000Y-99700000D01*
X132045485Y-99747835D01*
X132018388Y-99788388D01*
X131977835Y-99815485D01*
X131930000Y-99825000D01*
X131680000Y-99825000D01*
X131632165Y-99815485D01*
X131591612Y-99788388D01*
X131564515Y-99747835D01*
X131555000Y-99700000D01*
X131555000Y-98325000D01*
X131564515Y-98277165D01*
X131591612Y-98236612D01*
X131632165Y-98209515D01*
X131680000Y-98200000D01*
X131930000Y-98200000D01*
X131977835Y-98209515D01*
G37*
G36*
X131327835Y-98209515D02*
G01*
X131368388Y-98236612D01*
X131395485Y-98277165D01*
X131405000Y-98325000D01*
X131405000Y-99700000D01*
X131395485Y-99747835D01*
X131368388Y-99788388D01*
X131327835Y-99815485D01*
X131280000Y-99825000D01*
X131030000Y-99825000D01*
X130982165Y-99815485D01*
X130941612Y-99788388D01*
X130914515Y-99747835D01*
X130905000Y-99700000D01*
X130905000Y-98325000D01*
X130914515Y-98277165D01*
X130941612Y-98236612D01*
X130982165Y-98209515D01*
X131030000Y-98200000D01*
X131280000Y-98200000D01*
X131327835Y-98209515D01*
G37*
G36*
X131327835Y-93984515D02*
G01*
X131368388Y-94011612D01*
X131395485Y-94052165D01*
X131405000Y-94100000D01*
X131405000Y-95475000D01*
X131395485Y-95522835D01*
X131368388Y-95563388D01*
X131327835Y-95590485D01*
X131280000Y-95600000D01*
X131030000Y-95600000D01*
X130982165Y-95590485D01*
X130941612Y-95563388D01*
X130914515Y-95522835D01*
X130905000Y-95475000D01*
X130905000Y-94100000D01*
X130914515Y-94052165D01*
X130941612Y-94011612D01*
X130982165Y-93984515D01*
X131030000Y-93975000D01*
X131280000Y-93975000D01*
X131327835Y-93984515D01*
G37*
G36*
X131977835Y-93984515D02*
G01*
X132018388Y-94011612D01*
X132045485Y-94052165D01*
X132055000Y-94100000D01*
X132055000Y-95475000D01*
X132045485Y-95522835D01*
X132018388Y-95563388D01*
X131977835Y-95590485D01*
X131930000Y-95600000D01*
X131680000Y-95600000D01*
X131632165Y-95590485D01*
X131591612Y-95563388D01*
X131564515Y-95522835D01*
X131555000Y-95475000D01*
X131555000Y-94100000D01*
X131564515Y-94052165D01*
X131591612Y-94011612D01*
X131632165Y-93984515D01*
X131680000Y-93975000D01*
X131930000Y-93975000D01*
X131977835Y-93984515D01*
G37*
G36*
X132627835Y-93984515D02*
G01*
X132668388Y-94011612D01*
X132695485Y-94052165D01*
X132705000Y-94100000D01*
X132705000Y-95475000D01*
X132695485Y-95522835D01*
X132668388Y-95563388D01*
X132627835Y-95590485D01*
X132580000Y-95600000D01*
X132330000Y-95600000D01*
X132282165Y-95590485D01*
X132241612Y-95563388D01*
X132214515Y-95522835D01*
X132205000Y-95475000D01*
X132205000Y-94100000D01*
X132214515Y-94052165D01*
X132241612Y-94011612D01*
X132282165Y-93984515D01*
X132330000Y-93975000D01*
X132580000Y-93975000D01*
X132627835Y-93984515D01*
G37*
G36*
X133277835Y-93984515D02*
G01*
X133318388Y-94011612D01*
X133345485Y-94052165D01*
X133355000Y-94100000D01*
X133355000Y-95475000D01*
X133345485Y-95522835D01*
X133318388Y-95563388D01*
X133277835Y-95590485D01*
X133230000Y-95600000D01*
X132980000Y-95600000D01*
X132932165Y-95590485D01*
X132891612Y-95563388D01*
X132864515Y-95522835D01*
X132855000Y-95475000D01*
X132855000Y-94100000D01*
X132864515Y-94052165D01*
X132891612Y-94011612D01*
X132932165Y-93984515D01*
X132980000Y-93975000D01*
X133230000Y-93975000D01*
X133277835Y-93984515D01*
G37*
D19*
X142730000Y-97710000D03*
X143680000Y-99710000D03*
X141780000Y-99710000D03*
D20*
X147860000Y-90940000D03*
X147860000Y-89940000D03*
D21*
X148810000Y-89190000D03*
X148810000Y-89690000D03*
X148810000Y-90190000D03*
X148810000Y-90690000D03*
X148810000Y-91190000D03*
X148810000Y-91690000D03*
X146910000Y-91690000D03*
X146910000Y-91190000D03*
X146910000Y-90690000D03*
X146910000Y-90190000D03*
X146910000Y-89690000D03*
X146910000Y-89190000D03*
G36*
X160077462Y-99741651D02*
G01*
X160148430Y-99789070D01*
X160195849Y-99860038D01*
X160212500Y-99943750D01*
X160212500Y-100456250D01*
X160195849Y-100539962D01*
X160148430Y-100610930D01*
X160077462Y-100658349D01*
X159993750Y-100675000D01*
X159556250Y-100675000D01*
X159472538Y-100658349D01*
X159401570Y-100610930D01*
X159354151Y-100539962D01*
X159337500Y-100456250D01*
X159337500Y-99943750D01*
X159354151Y-99860038D01*
X159401570Y-99789070D01*
X159472538Y-99741651D01*
X159556250Y-99725000D01*
X159993750Y-99725000D01*
X160077462Y-99741651D01*
G37*
G36*
X158502462Y-99741651D02*
G01*
X158573430Y-99789070D01*
X158620849Y-99860038D01*
X158637500Y-99943750D01*
X158637500Y-100456250D01*
X158620849Y-100539962D01*
X158573430Y-100610930D01*
X158502462Y-100658349D01*
X158418750Y-100675000D01*
X157981250Y-100675000D01*
X157897538Y-100658349D01*
X157826570Y-100610930D01*
X157779151Y-100539962D01*
X157762500Y-100456250D01*
X157762500Y-99943750D01*
X157779151Y-99860038D01*
X157826570Y-99789070D01*
X157897538Y-99741651D01*
X157981250Y-99725000D01*
X158418750Y-99725000D01*
X158502462Y-99741651D01*
G37*
G36*
X169539962Y-101526651D02*
G01*
X169610930Y-101574070D01*
X169658349Y-101645038D01*
X169675000Y-101728750D01*
X169675000Y-102166250D01*
X169658349Y-102249962D01*
X169610930Y-102320930D01*
X169539962Y-102368349D01*
X169456250Y-102385000D01*
X168943750Y-102385000D01*
X168860038Y-102368349D01*
X168789070Y-102320930D01*
X168741651Y-102249962D01*
X168725000Y-102166250D01*
X168725000Y-101728750D01*
X168741651Y-101645038D01*
X168789070Y-101574070D01*
X168860038Y-101526651D01*
X168943750Y-101510000D01*
X169456250Y-101510000D01*
X169539962Y-101526651D01*
G37*
G36*
X169539962Y-99951651D02*
G01*
X169610930Y-99999070D01*
X169658349Y-100070038D01*
X169675000Y-100153750D01*
X169675000Y-100591250D01*
X169658349Y-100674962D01*
X169610930Y-100745930D01*
X169539962Y-100793349D01*
X169456250Y-100810000D01*
X168943750Y-100810000D01*
X168860038Y-100793349D01*
X168789070Y-100745930D01*
X168741651Y-100674962D01*
X168725000Y-100591250D01*
X168725000Y-100153750D01*
X168741651Y-100070038D01*
X168789070Y-99999070D01*
X168860038Y-99951651D01*
X168943750Y-99935000D01*
X169456250Y-99935000D01*
X169539962Y-99951651D01*
G37*
G36*
X173089962Y-99991651D02*
G01*
X173160930Y-100039070D01*
X173208349Y-100110038D01*
X173225000Y-100193750D01*
X173225000Y-100631250D01*
X173208349Y-100714962D01*
X173160930Y-100785930D01*
X173089962Y-100833349D01*
X173006250Y-100850000D01*
X172493750Y-100850000D01*
X172410038Y-100833349D01*
X172339070Y-100785930D01*
X172291651Y-100714962D01*
X172275000Y-100631250D01*
X172275000Y-100193750D01*
X172291651Y-100110038D01*
X172339070Y-100039070D01*
X172410038Y-99991651D01*
X172493750Y-99975000D01*
X173006250Y-99975000D01*
X173089962Y-99991651D01*
G37*
G36*
X173089962Y-101566651D02*
G01*
X173160930Y-101614070D01*
X173208349Y-101685038D01*
X173225000Y-101768750D01*
X173225000Y-102206250D01*
X173208349Y-102289962D01*
X173160930Y-102360930D01*
X173089962Y-102408349D01*
X173006250Y-102425000D01*
X172493750Y-102425000D01*
X172410038Y-102408349D01*
X172339070Y-102360930D01*
X172291651Y-102289962D01*
X172275000Y-102206250D01*
X172275000Y-101768750D01*
X172291651Y-101685038D01*
X172339070Y-101614070D01*
X172410038Y-101566651D01*
X172493750Y-101550000D01*
X173006250Y-101550000D01*
X173089962Y-101566651D01*
G37*
G36*
X162679962Y-101486651D02*
G01*
X162750930Y-101534070D01*
X162798349Y-101605038D01*
X162815000Y-101688750D01*
X162815000Y-102126250D01*
X162798349Y-102209962D01*
X162750930Y-102280930D01*
X162679962Y-102328349D01*
X162596250Y-102345000D01*
X162083750Y-102345000D01*
X162000038Y-102328349D01*
X161929070Y-102280930D01*
X161881651Y-102209962D01*
X161865000Y-102126250D01*
X161865000Y-101688750D01*
X161881651Y-101605038D01*
X161929070Y-101534070D01*
X162000038Y-101486651D01*
X162083750Y-101470000D01*
X162596250Y-101470000D01*
X162679962Y-101486651D01*
G37*
G36*
X162679962Y-99911651D02*
G01*
X162750930Y-99959070D01*
X162798349Y-100030038D01*
X162815000Y-100113750D01*
X162815000Y-100551250D01*
X162798349Y-100634962D01*
X162750930Y-100705930D01*
X162679962Y-100753349D01*
X162596250Y-100770000D01*
X162083750Y-100770000D01*
X162000038Y-100753349D01*
X161929070Y-100705930D01*
X161881651Y-100634962D01*
X161865000Y-100551250D01*
X161865000Y-100113750D01*
X161881651Y-100030038D01*
X161929070Y-99959070D01*
X162000038Y-99911651D01*
X162083750Y-99895000D01*
X162596250Y-99895000D01*
X162679962Y-99911651D01*
G37*
G36*
X166139962Y-99964151D02*
G01*
X166210930Y-100011570D01*
X166258349Y-100082538D01*
X166275000Y-100166250D01*
X166275000Y-100603750D01*
X166258349Y-100687462D01*
X166210930Y-100758430D01*
X166139962Y-100805849D01*
X166056250Y-100822500D01*
X165543750Y-100822500D01*
X165460038Y-100805849D01*
X165389070Y-100758430D01*
X165341651Y-100687462D01*
X165325000Y-100603750D01*
X165325000Y-100166250D01*
X165341651Y-100082538D01*
X165389070Y-100011570D01*
X165460038Y-99964151D01*
X165543750Y-99947500D01*
X166056250Y-99947500D01*
X166139962Y-99964151D01*
G37*
G36*
X166139962Y-101539151D02*
G01*
X166210930Y-101586570D01*
X166258349Y-101657538D01*
X166275000Y-101741250D01*
X166275000Y-102178750D01*
X166258349Y-102262462D01*
X166210930Y-102333430D01*
X166139962Y-102380849D01*
X166056250Y-102397500D01*
X165543750Y-102397500D01*
X165460038Y-102380849D01*
X165389070Y-102333430D01*
X165341651Y-102262462D01*
X165325000Y-102178750D01*
X165325000Y-101741250D01*
X165341651Y-101657538D01*
X165389070Y-101586570D01*
X165460038Y-101539151D01*
X165543750Y-101522500D01*
X166056250Y-101522500D01*
X166139962Y-101539151D01*
G37*
G36*
X176509962Y-101576651D02*
G01*
X176580930Y-101624070D01*
X176628349Y-101695038D01*
X176645000Y-101778750D01*
X176645000Y-102216250D01*
X176628349Y-102299962D01*
X176580930Y-102370930D01*
X176509962Y-102418349D01*
X176426250Y-102435000D01*
X175913750Y-102435000D01*
X175830038Y-102418349D01*
X175759070Y-102370930D01*
X175711651Y-102299962D01*
X175695000Y-102216250D01*
X175695000Y-101778750D01*
X175711651Y-101695038D01*
X175759070Y-101624070D01*
X175830038Y-101576651D01*
X175913750Y-101560000D01*
X176426250Y-101560000D01*
X176509962Y-101576651D01*
G37*
G36*
X176509962Y-100001651D02*
G01*
X176580930Y-100049070D01*
X176628349Y-100120038D01*
X176645000Y-100203750D01*
X176645000Y-100641250D01*
X176628349Y-100724962D01*
X176580930Y-100795930D01*
X176509962Y-100843349D01*
X176426250Y-100860000D01*
X175913750Y-100860000D01*
X175830038Y-100843349D01*
X175759070Y-100795930D01*
X175711651Y-100724962D01*
X175695000Y-100641250D01*
X175695000Y-100203750D01*
X175711651Y-100120038D01*
X175759070Y-100049070D01*
X175830038Y-100001651D01*
X175913750Y-99985000D01*
X176426250Y-99985000D01*
X176509962Y-100001651D01*
G37*
G36*
X179939962Y-100011651D02*
G01*
X180010930Y-100059070D01*
X180058349Y-100130038D01*
X180075000Y-100213750D01*
X180075000Y-100651250D01*
X180058349Y-100734962D01*
X180010930Y-100805930D01*
X179939962Y-100853349D01*
X179856250Y-100870000D01*
X179343750Y-100870000D01*
X179260038Y-100853349D01*
X179189070Y-100805930D01*
X179141651Y-100734962D01*
X179125000Y-100651250D01*
X179125000Y-100213750D01*
X179141651Y-100130038D01*
X179189070Y-100059070D01*
X179260038Y-100011651D01*
X179343750Y-99995000D01*
X179856250Y-99995000D01*
X179939962Y-100011651D01*
G37*
G36*
X179939962Y-101586651D02*
G01*
X180010930Y-101634070D01*
X180058349Y-101705038D01*
X180075000Y-101788750D01*
X180075000Y-102226250D01*
X180058349Y-102309962D01*
X180010930Y-102380930D01*
X179939962Y-102428349D01*
X179856250Y-102445000D01*
X179343750Y-102445000D01*
X179260038Y-102428349D01*
X179189070Y-102380930D01*
X179141651Y-102309962D01*
X179125000Y-102226250D01*
X179125000Y-101788750D01*
X179141651Y-101705038D01*
X179189070Y-101634070D01*
X179260038Y-101586651D01*
X179343750Y-101570000D01*
X179856250Y-101570000D01*
X179939962Y-101586651D01*
G37*
G36*
X154289962Y-112254151D02*
G01*
X154360930Y-112301570D01*
X154408349Y-112372538D01*
X154425000Y-112456250D01*
X154425000Y-112893750D01*
X154408349Y-112977462D01*
X154360930Y-113048430D01*
X154289962Y-113095849D01*
X154206250Y-113112500D01*
X153693750Y-113112500D01*
X153610038Y-113095849D01*
X153539070Y-113048430D01*
X153491651Y-112977462D01*
X153475000Y-112893750D01*
X153475000Y-112456250D01*
X153491651Y-112372538D01*
X153539070Y-112301570D01*
X153610038Y-112254151D01*
X153693750Y-112237500D01*
X154206250Y-112237500D01*
X154289962Y-112254151D01*
G37*
G36*
X154289962Y-110679151D02*
G01*
X154360930Y-110726570D01*
X154408349Y-110797538D01*
X154425000Y-110881250D01*
X154425000Y-111318750D01*
X154408349Y-111402462D01*
X154360930Y-111473430D01*
X154289962Y-111520849D01*
X154206250Y-111537500D01*
X153693750Y-111537500D01*
X153610038Y-111520849D01*
X153539070Y-111473430D01*
X153491651Y-111402462D01*
X153475000Y-111318750D01*
X153475000Y-110881250D01*
X153491651Y-110797538D01*
X153539070Y-110726570D01*
X153610038Y-110679151D01*
X153693750Y-110662500D01*
X154206250Y-110662500D01*
X154289962Y-110679151D01*
G37*
G36*
X119339962Y-105866651D02*
G01*
X119410930Y-105914070D01*
X119458349Y-105985038D01*
X119475000Y-106068750D01*
X119475000Y-106506250D01*
X119458349Y-106589962D01*
X119410930Y-106660930D01*
X119339962Y-106708349D01*
X119256250Y-106725000D01*
X118743750Y-106725000D01*
X118660038Y-106708349D01*
X118589070Y-106660930D01*
X118541651Y-106589962D01*
X118525000Y-106506250D01*
X118525000Y-106068750D01*
X118541651Y-105985038D01*
X118589070Y-105914070D01*
X118660038Y-105866651D01*
X118743750Y-105850000D01*
X119256250Y-105850000D01*
X119339962Y-105866651D01*
G37*
G36*
X119339962Y-104291651D02*
G01*
X119410930Y-104339070D01*
X119458349Y-104410038D01*
X119475000Y-104493750D01*
X119475000Y-104931250D01*
X119458349Y-105014962D01*
X119410930Y-105085930D01*
X119339962Y-105133349D01*
X119256250Y-105150000D01*
X118743750Y-105150000D01*
X118660038Y-105133349D01*
X118589070Y-105085930D01*
X118541651Y-105014962D01*
X118525000Y-104931250D01*
X118525000Y-104493750D01*
X118541651Y-104410038D01*
X118589070Y-104339070D01*
X118660038Y-104291651D01*
X118743750Y-104275000D01*
X119256250Y-104275000D01*
X119339962Y-104291651D01*
G37*
G36*
X117879962Y-105866651D02*
G01*
X117950930Y-105914070D01*
X117998349Y-105985038D01*
X118015000Y-106068750D01*
X118015000Y-106506250D01*
X117998349Y-106589962D01*
X117950930Y-106660930D01*
X117879962Y-106708349D01*
X117796250Y-106725000D01*
X117283750Y-106725000D01*
X117200038Y-106708349D01*
X117129070Y-106660930D01*
X117081651Y-106589962D01*
X117065000Y-106506250D01*
X117065000Y-106068750D01*
X117081651Y-105985038D01*
X117129070Y-105914070D01*
X117200038Y-105866651D01*
X117283750Y-105850000D01*
X117796250Y-105850000D01*
X117879962Y-105866651D01*
G37*
G36*
X117879962Y-104291651D02*
G01*
X117950930Y-104339070D01*
X117998349Y-104410038D01*
X118015000Y-104493750D01*
X118015000Y-104931250D01*
X117998349Y-105014962D01*
X117950930Y-105085930D01*
X117879962Y-105133349D01*
X117796250Y-105150000D01*
X117283750Y-105150000D01*
X117200038Y-105133349D01*
X117129070Y-105085930D01*
X117081651Y-105014962D01*
X117065000Y-104931250D01*
X117065000Y-104493750D01*
X117081651Y-104410038D01*
X117129070Y-104339070D01*
X117200038Y-104291651D01*
X117283750Y-104275000D01*
X117796250Y-104275000D01*
X117879962Y-104291651D01*
G37*
G36*
X135084962Y-92651651D02*
G01*
X135155930Y-92699070D01*
X135203349Y-92770038D01*
X135220000Y-92853750D01*
X135220000Y-93366250D01*
X135203349Y-93449962D01*
X135155930Y-93520930D01*
X135084962Y-93568349D01*
X135001250Y-93585000D01*
X134563750Y-93585000D01*
X134480038Y-93568349D01*
X134409070Y-93520930D01*
X134361651Y-93449962D01*
X134345000Y-93366250D01*
X134345000Y-92853750D01*
X134361651Y-92770038D01*
X134409070Y-92699070D01*
X134480038Y-92651651D01*
X134563750Y-92635000D01*
X135001250Y-92635000D01*
X135084962Y-92651651D01*
G37*
G36*
X136659962Y-92651651D02*
G01*
X136730930Y-92699070D01*
X136778349Y-92770038D01*
X136795000Y-92853750D01*
X136795000Y-93366250D01*
X136778349Y-93449962D01*
X136730930Y-93520930D01*
X136659962Y-93568349D01*
X136576250Y-93585000D01*
X136138750Y-93585000D01*
X136055038Y-93568349D01*
X135984070Y-93520930D01*
X135936651Y-93449962D01*
X135920000Y-93366250D01*
X135920000Y-92853750D01*
X135936651Y-92770038D01*
X135984070Y-92699070D01*
X136055038Y-92651651D01*
X136138750Y-92635000D01*
X136576250Y-92635000D01*
X136659962Y-92651651D01*
G37*
G36*
X136659962Y-94111651D02*
G01*
X136730930Y-94159070D01*
X136778349Y-94230038D01*
X136795000Y-94313750D01*
X136795000Y-94826250D01*
X136778349Y-94909962D01*
X136730930Y-94980930D01*
X136659962Y-95028349D01*
X136576250Y-95045000D01*
X136138750Y-95045000D01*
X136055038Y-95028349D01*
X135984070Y-94980930D01*
X135936651Y-94909962D01*
X135920000Y-94826250D01*
X135920000Y-94313750D01*
X135936651Y-94230038D01*
X135984070Y-94159070D01*
X136055038Y-94111651D01*
X136138750Y-94095000D01*
X136576250Y-94095000D01*
X136659962Y-94111651D01*
G37*
G36*
X135084962Y-94111651D02*
G01*
X135155930Y-94159070D01*
X135203349Y-94230038D01*
X135220000Y-94313750D01*
X135220000Y-94826250D01*
X135203349Y-94909962D01*
X135155930Y-94980930D01*
X135084962Y-95028349D01*
X135001250Y-95045000D01*
X134563750Y-95045000D01*
X134480038Y-95028349D01*
X134409070Y-94980930D01*
X134361651Y-94909962D01*
X134345000Y-94826250D01*
X134345000Y-94313750D01*
X134361651Y-94230038D01*
X134409070Y-94159070D01*
X134480038Y-94111651D01*
X134563750Y-94095000D01*
X135001250Y-94095000D01*
X135084962Y-94111651D01*
G37*
G36*
X149559962Y-84451651D02*
G01*
X149630930Y-84499070D01*
X149678349Y-84570038D01*
X149695000Y-84653750D01*
X149695000Y-85166250D01*
X149678349Y-85249962D01*
X149630930Y-85320930D01*
X149559962Y-85368349D01*
X149476250Y-85385000D01*
X149038750Y-85385000D01*
X148955038Y-85368349D01*
X148884070Y-85320930D01*
X148836651Y-85249962D01*
X148820000Y-85166250D01*
X148820000Y-84653750D01*
X148836651Y-84570038D01*
X148884070Y-84499070D01*
X148955038Y-84451651D01*
X149038750Y-84435000D01*
X149476250Y-84435000D01*
X149559962Y-84451651D01*
G37*
G36*
X147984962Y-84451651D02*
G01*
X148055930Y-84499070D01*
X148103349Y-84570038D01*
X148120000Y-84653750D01*
X148120000Y-85166250D01*
X148103349Y-85249962D01*
X148055930Y-85320930D01*
X147984962Y-85368349D01*
X147901250Y-85385000D01*
X147463750Y-85385000D01*
X147380038Y-85368349D01*
X147309070Y-85320930D01*
X147261651Y-85249962D01*
X147245000Y-85166250D01*
X147245000Y-84653750D01*
X147261651Y-84570038D01*
X147309070Y-84499070D01*
X147380038Y-84451651D01*
X147463750Y-84435000D01*
X147901250Y-84435000D01*
X147984962Y-84451651D01*
G37*
G36*
X147984962Y-85921651D02*
G01*
X148055930Y-85969070D01*
X148103349Y-86040038D01*
X148120000Y-86123750D01*
X148120000Y-86636250D01*
X148103349Y-86719962D01*
X148055930Y-86790930D01*
X147984962Y-86838349D01*
X147901250Y-86855000D01*
X147463750Y-86855000D01*
X147380038Y-86838349D01*
X147309070Y-86790930D01*
X147261651Y-86719962D01*
X147245000Y-86636250D01*
X147245000Y-86123750D01*
X147261651Y-86040038D01*
X147309070Y-85969070D01*
X147380038Y-85921651D01*
X147463750Y-85905000D01*
X147901250Y-85905000D01*
X147984962Y-85921651D01*
G37*
G36*
X149559962Y-85921651D02*
G01*
X149630930Y-85969070D01*
X149678349Y-86040038D01*
X149695000Y-86123750D01*
X149695000Y-86636250D01*
X149678349Y-86719962D01*
X149630930Y-86790930D01*
X149559962Y-86838349D01*
X149476250Y-86855000D01*
X149038750Y-86855000D01*
X148955038Y-86838349D01*
X148884070Y-86790930D01*
X148836651Y-86719962D01*
X148820000Y-86636250D01*
X148820000Y-86123750D01*
X148836651Y-86040038D01*
X148884070Y-85969070D01*
X148955038Y-85921651D01*
X149038750Y-85905000D01*
X149476250Y-85905000D01*
X149559962Y-85921651D01*
G37*
G36*
X148054962Y-94121651D02*
G01*
X148125930Y-94169070D01*
X148173349Y-94240038D01*
X148190000Y-94323750D01*
X148190000Y-94836250D01*
X148173349Y-94919962D01*
X148125930Y-94990930D01*
X148054962Y-95038349D01*
X147971250Y-95055000D01*
X147533750Y-95055000D01*
X147450038Y-95038349D01*
X147379070Y-94990930D01*
X147331651Y-94919962D01*
X147315000Y-94836250D01*
X147315000Y-94323750D01*
X147331651Y-94240038D01*
X147379070Y-94169070D01*
X147450038Y-94121651D01*
X147533750Y-94105000D01*
X147971250Y-94105000D01*
X148054962Y-94121651D01*
G37*
G36*
X149629962Y-94121651D02*
G01*
X149700930Y-94169070D01*
X149748349Y-94240038D01*
X149765000Y-94323750D01*
X149765000Y-94836250D01*
X149748349Y-94919962D01*
X149700930Y-94990930D01*
X149629962Y-95038349D01*
X149546250Y-95055000D01*
X149108750Y-95055000D01*
X149025038Y-95038349D01*
X148954070Y-94990930D01*
X148906651Y-94919962D01*
X148890000Y-94836250D01*
X148890000Y-94323750D01*
X148906651Y-94240038D01*
X148954070Y-94169070D01*
X149025038Y-94121651D01*
X149108750Y-94105000D01*
X149546250Y-94105000D01*
X149629962Y-94121651D01*
G37*
G36*
X151139962Y-94176651D02*
G01*
X151210930Y-94224070D01*
X151258349Y-94295038D01*
X151275000Y-94378750D01*
X151275000Y-94816250D01*
X151258349Y-94899962D01*
X151210930Y-94970930D01*
X151139962Y-95018349D01*
X151056250Y-95035000D01*
X150543750Y-95035000D01*
X150460038Y-95018349D01*
X150389070Y-94970930D01*
X150341651Y-94899962D01*
X150325000Y-94816250D01*
X150325000Y-94378750D01*
X150341651Y-94295038D01*
X150389070Y-94224070D01*
X150460038Y-94176651D01*
X150543750Y-94160000D01*
X151056250Y-94160000D01*
X151139962Y-94176651D01*
G37*
G36*
X151139962Y-92601651D02*
G01*
X151210930Y-92649070D01*
X151258349Y-92720038D01*
X151275000Y-92803750D01*
X151275000Y-93241250D01*
X151258349Y-93324962D01*
X151210930Y-93395930D01*
X151139962Y-93443349D01*
X151056250Y-93460000D01*
X150543750Y-93460000D01*
X150460038Y-93443349D01*
X150389070Y-93395930D01*
X150341651Y-93324962D01*
X150325000Y-93241250D01*
X150325000Y-92803750D01*
X150341651Y-92720038D01*
X150389070Y-92649070D01*
X150460038Y-92601651D01*
X150543750Y-92585000D01*
X151056250Y-92585000D01*
X151139962Y-92601651D01*
G37*
G36*
X146279962Y-87241651D02*
G01*
X146350930Y-87289070D01*
X146398349Y-87360038D01*
X146415000Y-87443750D01*
X146415000Y-87956250D01*
X146398349Y-88039962D01*
X146350930Y-88110930D01*
X146279962Y-88158349D01*
X146196250Y-88175000D01*
X145758750Y-88175000D01*
X145675038Y-88158349D01*
X145604070Y-88110930D01*
X145556651Y-88039962D01*
X145540000Y-87956250D01*
X145540000Y-87443750D01*
X145556651Y-87360038D01*
X145604070Y-87289070D01*
X145675038Y-87241651D01*
X145758750Y-87225000D01*
X146196250Y-87225000D01*
X146279962Y-87241651D01*
G37*
G36*
X144704962Y-87241651D02*
G01*
X144775930Y-87289070D01*
X144823349Y-87360038D01*
X144840000Y-87443750D01*
X144840000Y-87956250D01*
X144823349Y-88039962D01*
X144775930Y-88110930D01*
X144704962Y-88158349D01*
X144621250Y-88175000D01*
X144183750Y-88175000D01*
X144100038Y-88158349D01*
X144029070Y-88110930D01*
X143981651Y-88039962D01*
X143965000Y-87956250D01*
X143965000Y-87443750D01*
X143981651Y-87360038D01*
X144029070Y-87289070D01*
X144100038Y-87241651D01*
X144183750Y-87225000D01*
X144621250Y-87225000D01*
X144704962Y-87241651D01*
G37*
G36*
X110949962Y-108381651D02*
G01*
X111020930Y-108429070D01*
X111068349Y-108500038D01*
X111085000Y-108583750D01*
X111085000Y-109096250D01*
X111068349Y-109179962D01*
X111020930Y-109250930D01*
X110949962Y-109298349D01*
X110866250Y-109315000D01*
X110428750Y-109315000D01*
X110345038Y-109298349D01*
X110274070Y-109250930D01*
X110226651Y-109179962D01*
X110210000Y-109096250D01*
X110210000Y-108583750D01*
X110226651Y-108500038D01*
X110274070Y-108429070D01*
X110345038Y-108381651D01*
X110428750Y-108365000D01*
X110866250Y-108365000D01*
X110949962Y-108381651D01*
G37*
G36*
X109374962Y-108381651D02*
G01*
X109445930Y-108429070D01*
X109493349Y-108500038D01*
X109510000Y-108583750D01*
X109510000Y-109096250D01*
X109493349Y-109179962D01*
X109445930Y-109250930D01*
X109374962Y-109298349D01*
X109291250Y-109315000D01*
X108853750Y-109315000D01*
X108770038Y-109298349D01*
X108699070Y-109250930D01*
X108651651Y-109179962D01*
X108635000Y-109096250D01*
X108635000Y-108583750D01*
X108651651Y-108500038D01*
X108699070Y-108429070D01*
X108770038Y-108381651D01*
X108853750Y-108365000D01*
X109291250Y-108365000D01*
X109374962Y-108381651D01*
G37*
G36*
X110949962Y-106921651D02*
G01*
X111020930Y-106969070D01*
X111068349Y-107040038D01*
X111085000Y-107123750D01*
X111085000Y-107636250D01*
X111068349Y-107719962D01*
X111020930Y-107790930D01*
X110949962Y-107838349D01*
X110866250Y-107855000D01*
X110428750Y-107855000D01*
X110345038Y-107838349D01*
X110274070Y-107790930D01*
X110226651Y-107719962D01*
X110210000Y-107636250D01*
X110210000Y-107123750D01*
X110226651Y-107040038D01*
X110274070Y-106969070D01*
X110345038Y-106921651D01*
X110428750Y-106905000D01*
X110866250Y-106905000D01*
X110949962Y-106921651D01*
G37*
G36*
X109374962Y-106921651D02*
G01*
X109445930Y-106969070D01*
X109493349Y-107040038D01*
X109510000Y-107123750D01*
X109510000Y-107636250D01*
X109493349Y-107719962D01*
X109445930Y-107790930D01*
X109374962Y-107838349D01*
X109291250Y-107855000D01*
X108853750Y-107855000D01*
X108770038Y-107838349D01*
X108699070Y-107790930D01*
X108651651Y-107719962D01*
X108635000Y-107636250D01*
X108635000Y-107123750D01*
X108651651Y-107040038D01*
X108699070Y-106969070D01*
X108770038Y-106921651D01*
X108853750Y-106905000D01*
X109291250Y-106905000D01*
X109374962Y-106921651D01*
G37*
G36*
X115439962Y-107511651D02*
G01*
X115510930Y-107559070D01*
X115558349Y-107630038D01*
X115575000Y-107713750D01*
X115575000Y-108226250D01*
X115558349Y-108309962D01*
X115510930Y-108380930D01*
X115439962Y-108428349D01*
X115356250Y-108445000D01*
X114918750Y-108445000D01*
X114835038Y-108428349D01*
X114764070Y-108380930D01*
X114716651Y-108309962D01*
X114700000Y-108226250D01*
X114700000Y-107713750D01*
X114716651Y-107630038D01*
X114764070Y-107559070D01*
X114835038Y-107511651D01*
X114918750Y-107495000D01*
X115356250Y-107495000D01*
X115439962Y-107511651D01*
G37*
G36*
X113864962Y-107511651D02*
G01*
X113935930Y-107559070D01*
X113983349Y-107630038D01*
X114000000Y-107713750D01*
X114000000Y-108226250D01*
X113983349Y-108309962D01*
X113935930Y-108380930D01*
X113864962Y-108428349D01*
X113781250Y-108445000D01*
X113343750Y-108445000D01*
X113260038Y-108428349D01*
X113189070Y-108380930D01*
X113141651Y-108309962D01*
X113125000Y-108226250D01*
X113125000Y-107713750D01*
X113141651Y-107630038D01*
X113189070Y-107559070D01*
X113260038Y-107511651D01*
X113343750Y-107495000D01*
X113781250Y-107495000D01*
X113864962Y-107511651D01*
G37*
D22*
X127750000Y-104880000D03*
X131350000Y-104880000D03*
D23*
X176680000Y-97120000D03*
X178680000Y-89720000D03*
D24*
X165280000Y-94170000D03*
D25*
X169280000Y-89720000D03*
D26*
X113550000Y-82150000D03*
X113550000Y-87600000D03*
X122450000Y-82150000D03*
X122450000Y-87600000D03*
D27*
X116400000Y-87700000D03*
X117200000Y-87700000D03*
X118000000Y-87700000D03*
X118800000Y-87700000D03*
X119600000Y-87700000D03*
G36*
X169659529Y-114068554D02*
G01*
X169738607Y-114121393D01*
X169791446Y-114200471D01*
X169810000Y-114293750D01*
X169810000Y-114781250D01*
X169791446Y-114874529D01*
X169738607Y-114953607D01*
X169659529Y-115006446D01*
X169566250Y-115025000D01*
X168653750Y-115025000D01*
X168560471Y-115006446D01*
X168481393Y-114953607D01*
X168428554Y-114874529D01*
X168410000Y-114781250D01*
X168410000Y-114293750D01*
X168428554Y-114200471D01*
X168481393Y-114121393D01*
X168560471Y-114068554D01*
X168653750Y-114050000D01*
X169566250Y-114050000D01*
X169659529Y-114068554D01*
G37*
G36*
X169659529Y-112193554D02*
G01*
X169738607Y-112246393D01*
X169791446Y-112325471D01*
X169810000Y-112418750D01*
X169810000Y-112906250D01*
X169791446Y-112999529D01*
X169738607Y-113078607D01*
X169659529Y-113131446D01*
X169566250Y-113150000D01*
X168653750Y-113150000D01*
X168560471Y-113131446D01*
X168481393Y-113078607D01*
X168428554Y-112999529D01*
X168410000Y-112906250D01*
X168410000Y-112418750D01*
X168428554Y-112325471D01*
X168481393Y-112246393D01*
X168560471Y-112193554D01*
X168653750Y-112175000D01*
X169566250Y-112175000D01*
X169659529Y-112193554D01*
G37*
G36*
X167459529Y-114068554D02*
G01*
X167538607Y-114121393D01*
X167591446Y-114200471D01*
X167610000Y-114293750D01*
X167610000Y-114781250D01*
X167591446Y-114874529D01*
X167538607Y-114953607D01*
X167459529Y-115006446D01*
X167366250Y-115025000D01*
X166453750Y-115025000D01*
X166360471Y-115006446D01*
X166281393Y-114953607D01*
X166228554Y-114874529D01*
X166210000Y-114781250D01*
X166210000Y-114293750D01*
X166228554Y-114200471D01*
X166281393Y-114121393D01*
X166360471Y-114068554D01*
X166453750Y-114050000D01*
X167366250Y-114050000D01*
X167459529Y-114068554D01*
G37*
G36*
X167459529Y-112193554D02*
G01*
X167538607Y-112246393D01*
X167591446Y-112325471D01*
X167610000Y-112418750D01*
X167610000Y-112906250D01*
X167591446Y-112999529D01*
X167538607Y-113078607D01*
X167459529Y-113131446D01*
X167366250Y-113150000D01*
X166453750Y-113150000D01*
X166360471Y-113131446D01*
X166281393Y-113078607D01*
X166228554Y-112999529D01*
X166210000Y-112906250D01*
X166210000Y-112418750D01*
X166228554Y-112325471D01*
X166281393Y-112246393D01*
X166360471Y-112193554D01*
X166453750Y-112175000D01*
X167366250Y-112175000D01*
X167459529Y-112193554D01*
G37*
G36*
X171849529Y-114068554D02*
G01*
X171928607Y-114121393D01*
X171981446Y-114200471D01*
X172000000Y-114293750D01*
X172000000Y-114781250D01*
X171981446Y-114874529D01*
X171928607Y-114953607D01*
X171849529Y-115006446D01*
X171756250Y-115025000D01*
X170843750Y-115025000D01*
X170750471Y-115006446D01*
X170671393Y-114953607D01*
X170618554Y-114874529D01*
X170600000Y-114781250D01*
X170600000Y-114293750D01*
X170618554Y-114200471D01*
X170671393Y-114121393D01*
X170750471Y-114068554D01*
X170843750Y-114050000D01*
X171756250Y-114050000D01*
X171849529Y-114068554D01*
G37*
G36*
X171849529Y-112193554D02*
G01*
X171928607Y-112246393D01*
X171981446Y-112325471D01*
X172000000Y-112418750D01*
X172000000Y-112906250D01*
X171981446Y-112999529D01*
X171928607Y-113078607D01*
X171849529Y-113131446D01*
X171756250Y-113150000D01*
X170843750Y-113150000D01*
X170750471Y-113131446D01*
X170671393Y-113078607D01*
X170618554Y-112999529D01*
X170600000Y-112906250D01*
X170600000Y-112418750D01*
X170618554Y-112325471D01*
X170671393Y-112246393D01*
X170750471Y-112193554D01*
X170843750Y-112175000D01*
X171756250Y-112175000D01*
X171849529Y-112193554D01*
G37*
G36*
X157449962Y-111301651D02*
G01*
X157520930Y-111349070D01*
X157568349Y-111420038D01*
X157585000Y-111503750D01*
X157585000Y-112016250D01*
X157568349Y-112099962D01*
X157520930Y-112170930D01*
X157449962Y-112218349D01*
X157366250Y-112235000D01*
X156928750Y-112235000D01*
X156845038Y-112218349D01*
X156774070Y-112170930D01*
X156726651Y-112099962D01*
X156710000Y-112016250D01*
X156710000Y-111503750D01*
X156726651Y-111420038D01*
X156774070Y-111349070D01*
X156845038Y-111301651D01*
X156928750Y-111285000D01*
X157366250Y-111285000D01*
X157449962Y-111301651D01*
G37*
G36*
X155874962Y-111301651D02*
G01*
X155945930Y-111349070D01*
X155993349Y-111420038D01*
X156010000Y-111503750D01*
X156010000Y-112016250D01*
X155993349Y-112099962D01*
X155945930Y-112170930D01*
X155874962Y-112218349D01*
X155791250Y-112235000D01*
X155353750Y-112235000D01*
X155270038Y-112218349D01*
X155199070Y-112170930D01*
X155151651Y-112099962D01*
X155135000Y-112016250D01*
X155135000Y-111503750D01*
X155151651Y-111420038D01*
X155199070Y-111349070D01*
X155270038Y-111301651D01*
X155353750Y-111285000D01*
X155791250Y-111285000D01*
X155874962Y-111301651D01*
G37*
G36*
X149650962Y-111325651D02*
G01*
X149721930Y-111373070D01*
X149769349Y-111444038D01*
X149786000Y-111527750D01*
X149786000Y-112040250D01*
X149769349Y-112123962D01*
X149721930Y-112194930D01*
X149650962Y-112242349D01*
X149567250Y-112259000D01*
X149129750Y-112259000D01*
X149046038Y-112242349D01*
X148975070Y-112194930D01*
X148927651Y-112123962D01*
X148911000Y-112040250D01*
X148911000Y-111527750D01*
X148927651Y-111444038D01*
X148975070Y-111373070D01*
X149046038Y-111325651D01*
X149129750Y-111309000D01*
X149567250Y-111309000D01*
X149650962Y-111325651D01*
G37*
G36*
X151225962Y-111325651D02*
G01*
X151296930Y-111373070D01*
X151344349Y-111444038D01*
X151361000Y-111527750D01*
X151361000Y-112040250D01*
X151344349Y-112123962D01*
X151296930Y-112194930D01*
X151225962Y-112242349D01*
X151142250Y-112259000D01*
X150704750Y-112259000D01*
X150621038Y-112242349D01*
X150550070Y-112194930D01*
X150502651Y-112123962D01*
X150486000Y-112040250D01*
X150486000Y-111527750D01*
X150502651Y-111444038D01*
X150550070Y-111373070D01*
X150621038Y-111325651D01*
X150704750Y-111309000D01*
X151142250Y-111309000D01*
X151225962Y-111325651D01*
G37*
G36*
X139499962Y-106021651D02*
G01*
X139570930Y-106069070D01*
X139618349Y-106140038D01*
X139635000Y-106223750D01*
X139635000Y-106736250D01*
X139618349Y-106819962D01*
X139570930Y-106890930D01*
X139499962Y-106938349D01*
X139416250Y-106955000D01*
X138978750Y-106955000D01*
X138895038Y-106938349D01*
X138824070Y-106890930D01*
X138776651Y-106819962D01*
X138760000Y-106736250D01*
X138760000Y-106223750D01*
X138776651Y-106140038D01*
X138824070Y-106069070D01*
X138895038Y-106021651D01*
X138978750Y-106005000D01*
X139416250Y-106005000D01*
X139499962Y-106021651D01*
G37*
G36*
X137924962Y-106021651D02*
G01*
X137995930Y-106069070D01*
X138043349Y-106140038D01*
X138060000Y-106223750D01*
X138060000Y-106736250D01*
X138043349Y-106819962D01*
X137995930Y-106890930D01*
X137924962Y-106938349D01*
X137841250Y-106955000D01*
X137403750Y-106955000D01*
X137320038Y-106938349D01*
X137249070Y-106890930D01*
X137201651Y-106819962D01*
X137185000Y-106736250D01*
X137185000Y-106223750D01*
X137201651Y-106140038D01*
X137249070Y-106069070D01*
X137320038Y-106021651D01*
X137403750Y-106005000D01*
X137841250Y-106005000D01*
X137924962Y-106021651D01*
G37*
G36*
X151379962Y-118811651D02*
G01*
X151450930Y-118859070D01*
X151498349Y-118930038D01*
X151515000Y-119013750D01*
X151515000Y-119526250D01*
X151498349Y-119609962D01*
X151450930Y-119680930D01*
X151379962Y-119728349D01*
X151296250Y-119745000D01*
X150858750Y-119745000D01*
X150775038Y-119728349D01*
X150704070Y-119680930D01*
X150656651Y-119609962D01*
X150640000Y-119526250D01*
X150640000Y-119013750D01*
X150656651Y-118930038D01*
X150704070Y-118859070D01*
X150775038Y-118811651D01*
X150858750Y-118795000D01*
X151296250Y-118795000D01*
X151379962Y-118811651D01*
G37*
G36*
X149804962Y-118811651D02*
G01*
X149875930Y-118859070D01*
X149923349Y-118930038D01*
X149940000Y-119013750D01*
X149940000Y-119526250D01*
X149923349Y-119609962D01*
X149875930Y-119680930D01*
X149804962Y-119728349D01*
X149721250Y-119745000D01*
X149283750Y-119745000D01*
X149200038Y-119728349D01*
X149129070Y-119680930D01*
X149081651Y-119609962D01*
X149065000Y-119526250D01*
X149065000Y-119013750D01*
X149081651Y-118930038D01*
X149129070Y-118859070D01*
X149200038Y-118811651D01*
X149283750Y-118795000D01*
X149721250Y-118795000D01*
X149804962Y-118811651D01*
G37*
G36*
X145129962Y-105961651D02*
G01*
X145200930Y-106009070D01*
X145248349Y-106080038D01*
X145265000Y-106163750D01*
X145265000Y-106676250D01*
X145248349Y-106759962D01*
X145200930Y-106830930D01*
X145129962Y-106878349D01*
X145046250Y-106895000D01*
X144608750Y-106895000D01*
X144525038Y-106878349D01*
X144454070Y-106830930D01*
X144406651Y-106759962D01*
X144390000Y-106676250D01*
X144390000Y-106163750D01*
X144406651Y-106080038D01*
X144454070Y-106009070D01*
X144525038Y-105961651D01*
X144608750Y-105945000D01*
X145046250Y-105945000D01*
X145129962Y-105961651D01*
G37*
G36*
X143554962Y-105961651D02*
G01*
X143625930Y-106009070D01*
X143673349Y-106080038D01*
X143690000Y-106163750D01*
X143690000Y-106676250D01*
X143673349Y-106759962D01*
X143625930Y-106830930D01*
X143554962Y-106878349D01*
X143471250Y-106895000D01*
X143033750Y-106895000D01*
X142950038Y-106878349D01*
X142879070Y-106830930D01*
X142831651Y-106759962D01*
X142815000Y-106676250D01*
X142815000Y-106163750D01*
X142831651Y-106080038D01*
X142879070Y-106009070D01*
X142950038Y-105961651D01*
X143033750Y-105945000D01*
X143471250Y-105945000D01*
X143554962Y-105961651D01*
G37*
G36*
X124340671Y-101749030D02*
G01*
X124421777Y-101803223D01*
X124475970Y-101884329D01*
X124495000Y-101979999D01*
X124495000Y-102805001D01*
X124475970Y-102900671D01*
X124421777Y-102981777D01*
X124340671Y-103035970D01*
X124245001Y-103055000D01*
X122394999Y-103055000D01*
X122299329Y-103035970D01*
X122218223Y-102981777D01*
X122164030Y-102900671D01*
X122145000Y-102805001D01*
X122145000Y-101979999D01*
X122164030Y-101884329D01*
X122218223Y-101803223D01*
X122299329Y-101749030D01*
X122394999Y-101730000D01*
X124245001Y-101730000D01*
X124340671Y-101749030D01*
G37*
G36*
X124340408Y-104824062D02*
G01*
X124421652Y-104878348D01*
X124475938Y-104959592D01*
X124495000Y-105055425D01*
X124495000Y-105879575D01*
X124475938Y-105975408D01*
X124421652Y-106056652D01*
X124340408Y-106110938D01*
X124244575Y-106130000D01*
X122395425Y-106130000D01*
X122299592Y-106110938D01*
X122218348Y-106056652D01*
X122164062Y-105975408D01*
X122145000Y-105879575D01*
X122145000Y-105055425D01*
X122164062Y-104959592D01*
X122218348Y-104878348D01*
X122299592Y-104824062D01*
X122395425Y-104805000D01*
X124244575Y-104805000D01*
X124340408Y-104824062D01*
G37*
G36*
X126189962Y-101829151D02*
G01*
X126260930Y-101876570D01*
X126308349Y-101947538D01*
X126325000Y-102031250D01*
X126325000Y-102468750D01*
X126308349Y-102552462D01*
X126260930Y-102623430D01*
X126189962Y-102670849D01*
X126106250Y-102687500D01*
X125593750Y-102687500D01*
X125510038Y-102670849D01*
X125439070Y-102623430D01*
X125391651Y-102552462D01*
X125375000Y-102468750D01*
X125375000Y-102031250D01*
X125391651Y-101947538D01*
X125439070Y-101876570D01*
X125510038Y-101829151D01*
X125593750Y-101812500D01*
X126106250Y-101812500D01*
X126189962Y-101829151D01*
G37*
G36*
X126189962Y-103404151D02*
G01*
X126260930Y-103451570D01*
X126308349Y-103522538D01*
X126325000Y-103606250D01*
X126325000Y-104043750D01*
X126308349Y-104127462D01*
X126260930Y-104198430D01*
X126189962Y-104245849D01*
X126106250Y-104262500D01*
X125593750Y-104262500D01*
X125510038Y-104245849D01*
X125439070Y-104198430D01*
X125391651Y-104127462D01*
X125375000Y-104043750D01*
X125375000Y-103606250D01*
X125391651Y-103522538D01*
X125439070Y-103451570D01*
X125510038Y-103404151D01*
X125593750Y-103387500D01*
X126106250Y-103387500D01*
X126189962Y-103404151D01*
G37*
G36*
X131664962Y-100541651D02*
G01*
X131735930Y-100589070D01*
X131783349Y-100660038D01*
X131800000Y-100743750D01*
X131800000Y-101256250D01*
X131783349Y-101339962D01*
X131735930Y-101410930D01*
X131664962Y-101458349D01*
X131581250Y-101475000D01*
X131143750Y-101475000D01*
X131060038Y-101458349D01*
X130989070Y-101410930D01*
X130941651Y-101339962D01*
X130925000Y-101256250D01*
X130925000Y-100743750D01*
X130941651Y-100660038D01*
X130989070Y-100589070D01*
X131060038Y-100541651D01*
X131143750Y-100525000D01*
X131581250Y-100525000D01*
X131664962Y-100541651D01*
G37*
G36*
X133239962Y-100541651D02*
G01*
X133310930Y-100589070D01*
X133358349Y-100660038D01*
X133375000Y-100743750D01*
X133375000Y-101256250D01*
X133358349Y-101339962D01*
X133310930Y-101410930D01*
X133239962Y-101458349D01*
X133156250Y-101475000D01*
X132718750Y-101475000D01*
X132635038Y-101458349D01*
X132564070Y-101410930D01*
X132516651Y-101339962D01*
X132500000Y-101256250D01*
X132500000Y-100743750D01*
X132516651Y-100660038D01*
X132564070Y-100589070D01*
X132635038Y-100541651D01*
X132718750Y-100525000D01*
X133156250Y-100525000D01*
X133239962Y-100541651D01*
G37*
G36*
X135109962Y-97366651D02*
G01*
X135180930Y-97414070D01*
X135228349Y-97485038D01*
X135245000Y-97568750D01*
X135245000Y-98006250D01*
X135228349Y-98089962D01*
X135180930Y-98160930D01*
X135109962Y-98208349D01*
X135026250Y-98225000D01*
X134513750Y-98225000D01*
X134430038Y-98208349D01*
X134359070Y-98160930D01*
X134311651Y-98089962D01*
X134295000Y-98006250D01*
X134295000Y-97568750D01*
X134311651Y-97485038D01*
X134359070Y-97414070D01*
X134430038Y-97366651D01*
X134513750Y-97350000D01*
X135026250Y-97350000D01*
X135109962Y-97366651D01*
G37*
G36*
X135109962Y-95791651D02*
G01*
X135180930Y-95839070D01*
X135228349Y-95910038D01*
X135245000Y-95993750D01*
X135245000Y-96431250D01*
X135228349Y-96514962D01*
X135180930Y-96585930D01*
X135109962Y-96633349D01*
X135026250Y-96650000D01*
X134513750Y-96650000D01*
X134430038Y-96633349D01*
X134359070Y-96585930D01*
X134311651Y-96514962D01*
X134295000Y-96431250D01*
X134295000Y-95993750D01*
X134311651Y-95910038D01*
X134359070Y-95839070D01*
X134430038Y-95791651D01*
X134513750Y-95775000D01*
X135026250Y-95775000D01*
X135109962Y-95791651D01*
G37*
G36*
X149489962Y-92551651D02*
G01*
X149560930Y-92599070D01*
X149608349Y-92670038D01*
X149625000Y-92753750D01*
X149625000Y-93266250D01*
X149608349Y-93349962D01*
X149560930Y-93420930D01*
X149489962Y-93468349D01*
X149406250Y-93485000D01*
X148968750Y-93485000D01*
X148885038Y-93468349D01*
X148814070Y-93420930D01*
X148766651Y-93349962D01*
X148750000Y-93266250D01*
X148750000Y-92753750D01*
X148766651Y-92670038D01*
X148814070Y-92599070D01*
X148885038Y-92551651D01*
X148968750Y-92535000D01*
X149406250Y-92535000D01*
X149489962Y-92551651D01*
G37*
G36*
X147914962Y-92551651D02*
G01*
X147985930Y-92599070D01*
X148033349Y-92670038D01*
X148050000Y-92753750D01*
X148050000Y-93266250D01*
X148033349Y-93349962D01*
X147985930Y-93420930D01*
X147914962Y-93468349D01*
X147831250Y-93485000D01*
X147393750Y-93485000D01*
X147310038Y-93468349D01*
X147239070Y-93420930D01*
X147191651Y-93349962D01*
X147175000Y-93266250D01*
X147175000Y-92753750D01*
X147191651Y-92670038D01*
X147239070Y-92599070D01*
X147310038Y-92551651D01*
X147393750Y-92535000D01*
X147831250Y-92535000D01*
X147914962Y-92551651D01*
G37*
G36*
X147984962Y-87391651D02*
G01*
X148055930Y-87439070D01*
X148103349Y-87510038D01*
X148120000Y-87593750D01*
X148120000Y-88106250D01*
X148103349Y-88189962D01*
X148055930Y-88260930D01*
X147984962Y-88308349D01*
X147901250Y-88325000D01*
X147463750Y-88325000D01*
X147380038Y-88308349D01*
X147309070Y-88260930D01*
X147261651Y-88189962D01*
X147245000Y-88106250D01*
X147245000Y-87593750D01*
X147261651Y-87510038D01*
X147309070Y-87439070D01*
X147380038Y-87391651D01*
X147463750Y-87375000D01*
X147901250Y-87375000D01*
X147984962Y-87391651D01*
G37*
G36*
X149559962Y-87391651D02*
G01*
X149630930Y-87439070D01*
X149678349Y-87510038D01*
X149695000Y-87593750D01*
X149695000Y-88106250D01*
X149678349Y-88189962D01*
X149630930Y-88260930D01*
X149559962Y-88308349D01*
X149476250Y-88325000D01*
X149038750Y-88325000D01*
X148955038Y-88308349D01*
X148884070Y-88260930D01*
X148836651Y-88189962D01*
X148820000Y-88106250D01*
X148820000Y-87593750D01*
X148836651Y-87510038D01*
X148884070Y-87439070D01*
X148955038Y-87391651D01*
X149038750Y-87375000D01*
X149476250Y-87375000D01*
X149559962Y-87391651D01*
G37*
G36*
X129859962Y-95666651D02*
G01*
X129930930Y-95714070D01*
X129978349Y-95785038D01*
X129995000Y-95868750D01*
X129995000Y-96306250D01*
X129978349Y-96389962D01*
X129930930Y-96460930D01*
X129859962Y-96508349D01*
X129776250Y-96525000D01*
X129263750Y-96525000D01*
X129180038Y-96508349D01*
X129109070Y-96460930D01*
X129061651Y-96389962D01*
X129045000Y-96306250D01*
X129045000Y-95868750D01*
X129061651Y-95785038D01*
X129109070Y-95714070D01*
X129180038Y-95666651D01*
X129263750Y-95650000D01*
X129776250Y-95650000D01*
X129859962Y-95666651D01*
G37*
G36*
X129859962Y-94091651D02*
G01*
X129930930Y-94139070D01*
X129978349Y-94210038D01*
X129995000Y-94293750D01*
X129995000Y-94731250D01*
X129978349Y-94814962D01*
X129930930Y-94885930D01*
X129859962Y-94933349D01*
X129776250Y-94950000D01*
X129263750Y-94950000D01*
X129180038Y-94933349D01*
X129109070Y-94885930D01*
X129061651Y-94814962D01*
X129045000Y-94731250D01*
X129045000Y-94293750D01*
X129061651Y-94210038D01*
X129109070Y-94139070D01*
X129180038Y-94091651D01*
X129263750Y-94075000D01*
X129776250Y-94075000D01*
X129859962Y-94091651D01*
G37*
G36*
X144904962Y-92551651D02*
G01*
X144975930Y-92599070D01*
X145023349Y-92670038D01*
X145040000Y-92753750D01*
X145040000Y-93266250D01*
X145023349Y-93349962D01*
X144975930Y-93420930D01*
X144904962Y-93468349D01*
X144821250Y-93485000D01*
X144383750Y-93485000D01*
X144300038Y-93468349D01*
X144229070Y-93420930D01*
X144181651Y-93349962D01*
X144165000Y-93266250D01*
X144165000Y-92753750D01*
X144181651Y-92670038D01*
X144229070Y-92599070D01*
X144300038Y-92551651D01*
X144383750Y-92535000D01*
X144821250Y-92535000D01*
X144904962Y-92551651D01*
G37*
G36*
X146479962Y-92551651D02*
G01*
X146550930Y-92599070D01*
X146598349Y-92670038D01*
X146615000Y-92753750D01*
X146615000Y-93266250D01*
X146598349Y-93349962D01*
X146550930Y-93420930D01*
X146479962Y-93468349D01*
X146396250Y-93485000D01*
X145958750Y-93485000D01*
X145875038Y-93468349D01*
X145804070Y-93420930D01*
X145756651Y-93349962D01*
X145740000Y-93266250D01*
X145740000Y-92753750D01*
X145756651Y-92670038D01*
X145804070Y-92599070D01*
X145875038Y-92551651D01*
X145958750Y-92535000D01*
X146396250Y-92535000D01*
X146479962Y-92551651D01*
G37*
G36*
X150909962Y-90726651D02*
G01*
X150980930Y-90774070D01*
X151028349Y-90845038D01*
X151045000Y-90928750D01*
X151045000Y-91366250D01*
X151028349Y-91449962D01*
X150980930Y-91520930D01*
X150909962Y-91568349D01*
X150826250Y-91585000D01*
X150313750Y-91585000D01*
X150230038Y-91568349D01*
X150159070Y-91520930D01*
X150111651Y-91449962D01*
X150095000Y-91366250D01*
X150095000Y-90928750D01*
X150111651Y-90845038D01*
X150159070Y-90774070D01*
X150230038Y-90726651D01*
X150313750Y-90710000D01*
X150826250Y-90710000D01*
X150909962Y-90726651D01*
G37*
G36*
X150909962Y-89151651D02*
G01*
X150980930Y-89199070D01*
X151028349Y-89270038D01*
X151045000Y-89353750D01*
X151045000Y-89791250D01*
X151028349Y-89874962D01*
X150980930Y-89945930D01*
X150909962Y-89993349D01*
X150826250Y-90010000D01*
X150313750Y-90010000D01*
X150230038Y-89993349D01*
X150159070Y-89945930D01*
X150111651Y-89874962D01*
X150095000Y-89791250D01*
X150095000Y-89353750D01*
X150111651Y-89270038D01*
X150159070Y-89199070D01*
X150230038Y-89151651D01*
X150313750Y-89135000D01*
X150826250Y-89135000D01*
X150909962Y-89151651D01*
G37*
G36*
X145849962Y-90786651D02*
G01*
X145920930Y-90834070D01*
X145968349Y-90905038D01*
X145985000Y-90988750D01*
X145985000Y-91426250D01*
X145968349Y-91509962D01*
X145920930Y-91580930D01*
X145849962Y-91628349D01*
X145766250Y-91645000D01*
X145253750Y-91645000D01*
X145170038Y-91628349D01*
X145099070Y-91580930D01*
X145051651Y-91509962D01*
X145035000Y-91426250D01*
X145035000Y-90988750D01*
X145051651Y-90905038D01*
X145099070Y-90834070D01*
X145170038Y-90786651D01*
X145253750Y-90770000D01*
X145766250Y-90770000D01*
X145849962Y-90786651D01*
G37*
G36*
X145849962Y-89211651D02*
G01*
X145920930Y-89259070D01*
X145968349Y-89330038D01*
X145985000Y-89413750D01*
X145985000Y-89851250D01*
X145968349Y-89934962D01*
X145920930Y-90005930D01*
X145849962Y-90053349D01*
X145766250Y-90070000D01*
X145253750Y-90070000D01*
X145170038Y-90053349D01*
X145099070Y-90005930D01*
X145051651Y-89934962D01*
X145035000Y-89851250D01*
X145035000Y-89413750D01*
X145051651Y-89330038D01*
X145099070Y-89259070D01*
X145170038Y-89211651D01*
X145253750Y-89195000D01*
X145766250Y-89195000D01*
X145849962Y-89211651D01*
G37*
M02*
