M48
; DRILL file {KiCad 5.99.0-unknown-a5c7d45~86~ubuntu18.04.1} date tor  9 jan 2020 22:12:50
; FORMAT={-:-/ absolute / metric / decimal}
; #@! TF.CreationDate,2020-01-09T22:12:50+01:00
; #@! TF.GenerationSoftware,Kicad,Pcbnew,5.99.0-unknown-a5c7d45~86~ubuntu18.04.1
; #@! TF.FileFunction,Plated,1,2,PTH
FMAT,2
METRIC
T1C0.300
T2C0.750
T3C1.000
T4C2.300
%
G90
G05
T1
X101.49Y-105.2
X102.11Y-88.86
X103.72Y-96.87
X103.77Y-95.09
X105.17Y-91.58
X106.0Y-124.0
X107.68Y-108.76
X107.69Y-107.25
X107.76Y-110.21
X107.79Y-111.73
X107.8Y-113.17
X110.24Y-88.45
X110.81Y-106.01
X111.91Y-114.23
X114.28Y-109.61
X114.49Y-112.25
X114.93Y-110.23
X115.05Y-104.16
X115.83Y-96.65
X116.8Y-111.36
X117.2Y-124.46
X117.46Y-131.1
X117.75Y-90.25
X117.75Y-103.5
X117.75Y-112.0
X118.31Y-112.65
X118.45Y-107.4
X118.75Y-89.75
X118.75Y-103.5
X119.38Y-110.81
X120.11Y-114.49
X120.17Y-107.93
X120.23Y-103.04
X120.28Y-110.81
X120.37Y-97.43
X121.57Y-114.69
X121.61Y-110.81
X122.434Y-110.81
X122.49Y-108.28
X123.09Y-122.78
X125.52Y-85.81
X125.61Y-107.79
X127.16Y-108.45
X127.55Y-82.15
X128.26Y-100.67
X128.46Y-98.56
X128.91Y-107.96
X129.0Y-125.0
X129.32Y-123.62
X129.35Y-82.15
X129.51Y-116.04
X129.92Y-102.54
X129.92Y-106.72
X130.85Y-82.15
X131.06Y-116.92
X132.44Y-114.13
X132.57Y-116.27
X132.65Y-117.35
X132.85Y-82.15
X133.0Y-122.24
X133.12Y-110.39
X133.14Y-104.34
X134.19Y-114.98
X134.45Y-82.15
X134.46Y-122.23
X134.48Y-107.71
X134.64Y-119.45
X134.78Y-105.83
X135.35Y-118.65
X135.561Y-91.491
X135.7Y-123.83
X136.02Y-119.74
X136.05Y-82.15
X136.13Y-97.61
X136.9Y-99.29
X137.17Y-114.92
X137.41Y-110.027
X137.55Y-82.15
X138.07Y-125.26
X138.44Y-95.84
X138.44Y-105.8
X138.53Y-116.69
X138.8Y-118.5
X138.95Y-82.15
X139.64Y-109.72
X140.14Y-128.7
X140.295Y-114.078
X140.394Y-117.857
X140.411Y-111.617
X140.45Y-82.15
X140.55Y-91.49
X140.55Y-95.86
X140.626Y-116.054
X140.66Y-86.24
X140.78Y-121.09
X141.04Y-112.71
X141.048Y-117.396
X141.12Y-122.39
X141.14Y-109.895
X141.17Y-106.99
X141.213Y-111.891
X141.26Y-104.61
X141.28Y-105.86
X141.669Y-113.478
X141.8Y-82.2
X141.88Y-114.5
X141.94Y-102.45
X141.94Y-109.88
X142.05Y-117.95
X142.33Y-128.14
X142.51Y-95.91
X142.56Y-117.25
X142.713Y-110.086
X142.9Y-113.84
X143.0Y-126.0
X143.11Y-89.91
X143.28Y-115.1
X143.28Y-121.51
X143.69Y-118.39
X144.2Y-114.178
X144.232Y-112.252
X144.7Y-95.93
X144.71Y-116.67
X144.777Y-114.732
X144.94Y-101.6
X144.94Y-104.6
X145.0Y-103.0
X145.11Y-115.58
X145.29Y-118.29
X145.447Y-111.898
X146.05Y-120.2
X146.09Y-88.68
X146.36Y-129.91
X146.63Y-86.28
X146.75Y-106.37
X146.99Y-118.95
X147.13Y-109.37
X147.39Y-95.97
X147.66Y-103.26
X147.71Y-120.13
X148.129Y-112.984
X148.208Y-118.346
X148.49Y-88.6
X149.05Y-132.52
X149.953Y-93.667
X149.953Y-96.047
X150.3Y-120.17
X150.35Y-115.3
X150.645Y-97.255
X150.67Y-125.24
X150.923Y-109.136
X150.94Y-107.536
X151.47Y-87.58
X151.48Y-90.4
X151.5Y-98.11
X151.57Y-105.36
X151.58Y-120.7
X151.71Y-112.22
X151.717Y-109.038
X152.43Y-90.86
X152.49Y-118.55
X152.635Y-120.575
X153.3Y-116.7
X153.365Y-98.235
X153.45Y-125.28
X153.46Y-106.31
X154.08Y-120.71
X154.365Y-99.235
X154.58Y-97.12
X154.83Y-108.87
X155.165Y-100.035
X155.39Y-105.85
X155.49Y-84.91
X155.5Y-86.3
X155.5Y-87.8
X155.5Y-89.1
X155.5Y-90.3
X155.5Y-91.8
X155.97Y-100.84
X156.9Y-101.8
X157.25Y-113.46
X157.3Y-84.8
X157.8Y-102.7
X158.47Y-93.05
X158.51Y-112.18
X158.7Y-103.5
X158.71Y-115.06
X159.0Y-84.8
X159.8Y-104.5
X159.8Y-105.9
X159.8Y-107.4
X160.5Y-81.4
X160.5Y-82.5
X160.5Y-83.6
X160.5Y-84.8
X161.756Y-119.83
X162.21Y-81.35
X162.21Y-93.19
X163.0Y-127.0
X163.0Y-130.0
X163.44Y-116.18
X163.939Y-113.111
X164.35Y-113.925
X164.36Y-115.41
X164.56Y-110.33
X165.0Y-125.0
X165.0Y-127.0
X165.0Y-130.0
X165.03Y-96.86
X165.18Y-91.54
X165.4Y-115.01
X166.0Y-119.0
X166.96Y-116.01
X167.0Y-119.0
X167.51Y-110.43
X168.0Y-119.0
X169.0Y-119.0
X169.0Y-120.0
X169.22Y-115.79
X170.0Y-120.0
X171.0Y-120.0
X171.4Y-110.4
X171.62Y-85.17
X172.0Y-118.0
X172.0Y-120.0
X173.15Y-97.06
X174.0Y-120.0
X174.68Y-88.99
X175.0Y-120.0
X147.86Y-89.44
X147.86Y-90.44
X147.86Y-91.44
T2
X165.93Y-84.31
X167.93Y-84.31
X124.2Y-113.2
X126.2Y-113.2
X128.2Y-113.2
X130.2Y-113.2
X120.2Y-119.8
X122.2Y-119.8
X124.2Y-119.8
X126.2Y-119.8
X128.2Y-119.8
X130.2Y-119.8
X109.3Y-118.7
X111.3Y-118.7
X113.3Y-118.7
X115.3Y-118.7
T3
X176.17Y-105.27
X176.17Y-107.81
X104.5Y-130.0
X107.0Y-130.0
X109.5Y-130.0
X122.9Y-93.3
X122.9Y-98.3
X149.5Y-130.0
X152.0Y-130.0
X154.5Y-130.0
X169.24Y-105.27
X169.24Y-107.81
X165.81Y-105.27
X165.81Y-107.81
X172.72Y-105.27
X172.72Y-107.81
X172.0Y-130.0
X174.5Y-130.0
X177.0Y-130.0
X127.0Y-130.0
X129.5Y-130.0
X132.0Y-130.0
X162.34Y-105.27
X162.34Y-107.81
X179.6Y-105.26
X179.6Y-107.8
T4
X147.0Y-126.7
X157.0Y-126.7
X169.5Y-126.7
X179.5Y-126.7
X124.5Y-126.7
X134.5Y-126.7
X102.0Y-126.7
X112.0Y-126.7
T0
M30
