G04 #@! TF.GenerationSoftware,KiCad,Pcbnew,5.99.0-unknown-a5c7d45~86~ubuntu18.04.1*
G04 #@! TF.CreationDate,2020-01-09T22:12:47+01:00*
G04 #@! TF.ProjectId,V1_0,56315f30-2e6b-4696-9361-645f70636258,rev?*
G04 #@! TF.SameCoordinates,Original*
G04 #@! TF.FileFunction,Legend,Top*
G04 #@! TF.FilePolarity,Positive*
%FSLAX46Y46*%
G04 Gerber Fmt 4.6, Leading zero omitted, Abs format (unit mm)*
G04 Created by KiCad (PCBNEW 5.99.0-unknown-a5c7d45~86~ubuntu18.04.1) date 2020-01-09 22:12:47*
%MOMM*%
%LPD*%
G04 APERTURE LIST*
%ADD10C,0.150000*%
%ADD11C,0.120000*%
%ADD12C,0.920000*%
%ADD13R,1.570000X1.020000*%
%ADD14R,1.520000X1.520000*%
%ADD15R,1.770000X0.720000*%
%ADD16R,1.420000X0.820000*%
%ADD17R,1.020000X1.470000*%
%ADD18R,1.520000X0.820000*%
%ADD19R,1.520000X1.320000*%
%ADD20C,3.220000*%
%ADD21C,2.020000*%
%ADD22R,2.020000X2.020000*%
%ADD23C,4.620000*%
%ADD24C,1.820000*%
%ADD25R,1.320000X1.620000*%
%ADD26R,1.470000X0.470000*%
%ADD27R,0.820000X0.920000*%
%ADD28R,1.020000X2.670000*%
%ADD29R,0.520000X0.270000*%
%ADD30O,1.220000X1.770000*%
%ADD31R,1.520000X4.220000*%
%ADD32R,2.220000X2.820000*%
%ADD33R,2.620000X2.820000*%
%ADD34R,2.820000X2.820000*%
%ADD35C,1.720000*%
%ADD36O,1.720000X1.720000*%
%ADD37R,1.720000X1.720000*%
%ADD38C,1.020000*%
%ADD39R,2.020000X1.720000*%
%ADD40R,0.520000X2.020000*%
G04 APERTURE END LIST*
D10*
X170386190Y-82111666D02*
X170862380Y-82111666D01*
X170290952Y-82397380D02*
X170624285Y-81397380D01*
X170957619Y-82397380D01*
X171290952Y-81397380D02*
X171290952Y-82206904D01*
X171338571Y-82302142D01*
X171386190Y-82349761D01*
X171481428Y-82397380D01*
X171671904Y-82397380D01*
X171767142Y-82349761D01*
X171814761Y-82302142D01*
X171862380Y-82206904D01*
X171862380Y-81397380D01*
X172338571Y-82397380D02*
X172338571Y-81397380D01*
X172576666Y-81397380D01*
X172719523Y-81445000D01*
X172814761Y-81540238D01*
X172862380Y-81635476D01*
X172910000Y-81825952D01*
X172910000Y-81968809D01*
X172862380Y-82159285D01*
X172814761Y-82254523D01*
X172719523Y-82349761D01*
X172576666Y-82397380D01*
X172338571Y-82397380D01*
X173338571Y-82397380D02*
X173338571Y-81397380D01*
X174005238Y-81397380D02*
X174195714Y-81397380D01*
X174290952Y-81445000D01*
X174386190Y-81540238D01*
X174433809Y-81730714D01*
X174433809Y-82064047D01*
X174386190Y-82254523D01*
X174290952Y-82349761D01*
X174195714Y-82397380D01*
X174005238Y-82397380D01*
X173910000Y-82349761D01*
X173814761Y-82254523D01*
X173767142Y-82064047D01*
X173767142Y-81730714D01*
X173814761Y-81540238D01*
X173910000Y-81445000D01*
X174005238Y-81397380D01*
X171410000Y-83007380D02*
X171600476Y-83007380D01*
X171695714Y-83055000D01*
X171790952Y-83150238D01*
X171838571Y-83340714D01*
X171838571Y-83674047D01*
X171790952Y-83864523D01*
X171695714Y-83959761D01*
X171600476Y-84007380D01*
X171410000Y-84007380D01*
X171314761Y-83959761D01*
X171219523Y-83864523D01*
X171171904Y-83674047D01*
X171171904Y-83340714D01*
X171219523Y-83150238D01*
X171314761Y-83055000D01*
X171410000Y-83007380D01*
X172267142Y-83007380D02*
X172267142Y-83816904D01*
X172314761Y-83912142D01*
X172362380Y-83959761D01*
X172457619Y-84007380D01*
X172648095Y-84007380D01*
X172743333Y-83959761D01*
X172790952Y-83912142D01*
X172838571Y-83816904D01*
X172838571Y-83007380D01*
X173171904Y-83007380D02*
X173743333Y-83007380D01*
X173457619Y-84007380D02*
X173457619Y-83007380D01*
X101155714Y-132742380D02*
X100584285Y-132742380D01*
X100870000Y-132742380D02*
X100870000Y-131742380D01*
X100774761Y-131885238D01*
X100679523Y-131980476D01*
X100584285Y-132028095D01*
X123244285Y-131957619D02*
X123291904Y-131910000D01*
X123387142Y-131862380D01*
X123625238Y-131862380D01*
X123720476Y-131910000D01*
X123768095Y-131957619D01*
X123815714Y-132052857D01*
X123815714Y-132148095D01*
X123768095Y-132290952D01*
X123196666Y-132862380D01*
X123815714Y-132862380D01*
X145606666Y-131932380D02*
X146225714Y-131932380D01*
X145892380Y-132313333D01*
X146035238Y-132313333D01*
X146130476Y-132360952D01*
X146178095Y-132408571D01*
X146225714Y-132503809D01*
X146225714Y-132741904D01*
X146178095Y-132837142D01*
X146130476Y-132884761D01*
X146035238Y-132932380D01*
X145749523Y-132932380D01*
X145654285Y-132884761D01*
X145606666Y-132837142D01*
X168870476Y-132225714D02*
X168870476Y-132892380D01*
X168632380Y-131844761D02*
X168394285Y-132559047D01*
X169013333Y-132559047D01*
X108928095Y-82877380D02*
X108928095Y-83686904D01*
X108975714Y-83782142D01*
X109023333Y-83829761D01*
X109118571Y-83877380D01*
X109309047Y-83877380D01*
X109404285Y-83829761D01*
X109451904Y-83782142D01*
X109499523Y-83686904D01*
X109499523Y-82877380D01*
X109928095Y-83829761D02*
X110070952Y-83877380D01*
X110309047Y-83877380D01*
X110404285Y-83829761D01*
X110451904Y-83782142D01*
X110499523Y-83686904D01*
X110499523Y-83591666D01*
X110451904Y-83496428D01*
X110404285Y-83448809D01*
X110309047Y-83401190D01*
X110118571Y-83353571D01*
X110023333Y-83305952D01*
X109975714Y-83258333D01*
X109928095Y-83163095D01*
X109928095Y-83067857D01*
X109975714Y-82972619D01*
X110023333Y-82925000D01*
X110118571Y-82877380D01*
X110356666Y-82877380D01*
X110499523Y-82925000D01*
X111261428Y-83353571D02*
X111404285Y-83401190D01*
X111451904Y-83448809D01*
X111499523Y-83544047D01*
X111499523Y-83686904D01*
X111451904Y-83782142D01*
X111404285Y-83829761D01*
X111309047Y-83877380D01*
X110928095Y-83877380D01*
X110928095Y-82877380D01*
X111261428Y-82877380D01*
X111356666Y-82925000D01*
X111404285Y-82972619D01*
X111451904Y-83067857D01*
X111451904Y-83163095D01*
X111404285Y-83258333D01*
X111356666Y-83305952D01*
X111261428Y-83353571D01*
X110928095Y-83353571D01*
X108832857Y-85487380D02*
X108832857Y-84487380D01*
X109166190Y-85201666D01*
X109499523Y-84487380D01*
X109499523Y-85487380D01*
X110547142Y-85392142D02*
X110499523Y-85439761D01*
X110356666Y-85487380D01*
X110261428Y-85487380D01*
X110118571Y-85439761D01*
X110023333Y-85344523D01*
X109975714Y-85249285D01*
X109928095Y-85058809D01*
X109928095Y-84915952D01*
X109975714Y-84725476D01*
X110023333Y-84630238D01*
X110118571Y-84535000D01*
X110261428Y-84487380D01*
X110356666Y-84487380D01*
X110499523Y-84535000D01*
X110547142Y-84582619D01*
X110975714Y-84487380D02*
X110975714Y-85296904D01*
X111023333Y-85392142D01*
X111070952Y-85439761D01*
X111166190Y-85487380D01*
X111356666Y-85487380D01*
X111451904Y-85439761D01*
X111499523Y-85392142D01*
X111547142Y-85296904D01*
X111547142Y-84487380D01*
D11*
X109555000Y-103295000D02*
X103255000Y-103295000D01*
X108855000Y-90425000D02*
X103255000Y-90425000D01*
X113265000Y-103295000D02*
X111455000Y-103295000D01*
X113265000Y-90425000D02*
X113265000Y-101685000D01*
X112105000Y-90425000D02*
X113265000Y-90425000D01*
X113265000Y-103185000D02*
X113265000Y-103295000D01*
X109697221Y-114180000D02*
X110022779Y-114180000D01*
X109697221Y-115200000D02*
X110022779Y-115200000D01*
X109687221Y-112710000D02*
X110012779Y-112710000D01*
X109687221Y-113730000D02*
X110012779Y-113730000D01*
X109687221Y-111260000D02*
X110012779Y-111260000D01*
X109687221Y-112280000D02*
X110012779Y-112280000D01*
X109687221Y-109800000D02*
X110012779Y-109800000D01*
X109687221Y-110820000D02*
X110012779Y-110820000D01*
X137120000Y-109040000D02*
X136170000Y-109040000D01*
X136170000Y-109040000D02*
X136170000Y-109990000D01*
X145440000Y-109040000D02*
X146390000Y-109040000D01*
X146390000Y-109040000D02*
X146390000Y-109990000D01*
X137120000Y-119260000D02*
X136170000Y-119260000D01*
X136170000Y-119260000D02*
X136170000Y-118310000D01*
X145440000Y-119260000D02*
X146390000Y-119260000D01*
X146390000Y-119260000D02*
X146390000Y-118310000D01*
X146390000Y-118310000D02*
X147730000Y-118310000D01*
X140610000Y-98637221D02*
X140610000Y-98962779D01*
X139590000Y-98637221D02*
X139590000Y-98962779D01*
X138582779Y-105390000D02*
X138257221Y-105390000D01*
X138582779Y-104370000D02*
X138257221Y-104370000D01*
X138582779Y-103922000D02*
X138257221Y-103922000D01*
X138582779Y-102902000D02*
X138257221Y-102902000D01*
X136262000Y-104145000D02*
X133977000Y-104145000D01*
X133977000Y-104145000D02*
X133977000Y-105615000D01*
X133977000Y-105615000D02*
X136262000Y-105615000D01*
X136250000Y-102677000D02*
X133965000Y-102677000D01*
X133965000Y-102677000D02*
X133965000Y-104147000D01*
X133965000Y-104147000D02*
X136250000Y-104147000D01*
X128020000Y-95800000D02*
G75*
G03*
X128020000Y-95800000I-5120000J0D01*
G01*
X127980000Y-95800000D02*
X117820000Y-95800000D01*
X127980000Y-95840000D02*
X117820000Y-95840000D01*
X127980000Y-95880000D02*
X117820000Y-95880000D01*
X127979000Y-95920000D02*
X117821000Y-95920000D01*
X127978000Y-95960000D02*
X117822000Y-95960000D01*
X127977000Y-96000000D02*
X117823000Y-96000000D01*
X127975000Y-96040000D02*
X117825000Y-96040000D01*
X127973000Y-96080000D02*
X117827000Y-96080000D01*
X127970000Y-96120000D02*
X117830000Y-96120000D01*
X127968000Y-96160000D02*
X117832000Y-96160000D01*
X127965000Y-96200000D02*
X117835000Y-96200000D01*
X127962000Y-96240000D02*
X117838000Y-96240000D01*
X127958000Y-96280000D02*
X117842000Y-96280000D01*
X127954000Y-96320000D02*
X117846000Y-96320000D01*
X127950000Y-96360000D02*
X117850000Y-96360000D01*
X127945000Y-96400000D02*
X117855000Y-96400000D01*
X127940000Y-96440000D02*
X117860000Y-96440000D01*
X127935000Y-96480000D02*
X117865000Y-96480000D01*
X127930000Y-96521000D02*
X117870000Y-96521000D01*
X127924000Y-96561000D02*
X117876000Y-96561000D01*
X127918000Y-96601000D02*
X117882000Y-96601000D01*
X127911000Y-96641000D02*
X117889000Y-96641000D01*
X127904000Y-96681000D02*
X117896000Y-96681000D01*
X127897000Y-96721000D02*
X117903000Y-96721000D01*
X127890000Y-96761000D02*
X117910000Y-96761000D01*
X127882000Y-96801000D02*
X117918000Y-96801000D01*
X127874000Y-96841000D02*
X117926000Y-96841000D01*
X127865000Y-96881000D02*
X117935000Y-96881000D01*
X127856000Y-96921000D02*
X117944000Y-96921000D01*
X127847000Y-96961000D02*
X117953000Y-96961000D01*
X127838000Y-97001000D02*
X117962000Y-97001000D01*
X127828000Y-97041000D02*
X117972000Y-97041000D01*
X127818000Y-97081000D02*
X124141000Y-97081000D01*
X121659000Y-97081000D02*
X117982000Y-97081000D01*
X127807000Y-97121000D02*
X124141000Y-97121000D01*
X121659000Y-97121000D02*
X117993000Y-97121000D01*
X127797000Y-97161000D02*
X124141000Y-97161000D01*
X121659000Y-97161000D02*
X118003000Y-97161000D01*
X127785000Y-97201000D02*
X124141000Y-97201000D01*
X121659000Y-97201000D02*
X118015000Y-97201000D01*
X127774000Y-97241000D02*
X124141000Y-97241000D01*
X121659000Y-97241000D02*
X118026000Y-97241000D01*
X127762000Y-97281000D02*
X124141000Y-97281000D01*
X121659000Y-97281000D02*
X118038000Y-97281000D01*
X127750000Y-97321000D02*
X124141000Y-97321000D01*
X121659000Y-97321000D02*
X118050000Y-97321000D01*
X127737000Y-97361000D02*
X124141000Y-97361000D01*
X121659000Y-97361000D02*
X118063000Y-97361000D01*
X127724000Y-97401000D02*
X124141000Y-97401000D01*
X121659000Y-97401000D02*
X118076000Y-97401000D01*
X127711000Y-97441000D02*
X124141000Y-97441000D01*
X121659000Y-97441000D02*
X118089000Y-97441000D01*
X127697000Y-97481000D02*
X124141000Y-97481000D01*
X121659000Y-97481000D02*
X118103000Y-97481000D01*
X127683000Y-97521000D02*
X124141000Y-97521000D01*
X121659000Y-97521000D02*
X118117000Y-97521000D01*
X127668000Y-97561000D02*
X124141000Y-97561000D01*
X121659000Y-97561000D02*
X118132000Y-97561000D01*
X127654000Y-97601000D02*
X124141000Y-97601000D01*
X121659000Y-97601000D02*
X118146000Y-97601000D01*
X127638000Y-97641000D02*
X124141000Y-97641000D01*
X121659000Y-97641000D02*
X118162000Y-97641000D01*
X127623000Y-97681000D02*
X124141000Y-97681000D01*
X121659000Y-97681000D02*
X118177000Y-97681000D01*
X127607000Y-97721000D02*
X124141000Y-97721000D01*
X121659000Y-97721000D02*
X118193000Y-97721000D01*
X127590000Y-97761000D02*
X124141000Y-97761000D01*
X121659000Y-97761000D02*
X118210000Y-97761000D01*
X127574000Y-97801000D02*
X124141000Y-97801000D01*
X121659000Y-97801000D02*
X118226000Y-97801000D01*
X127557000Y-97841000D02*
X124141000Y-97841000D01*
X121659000Y-97841000D02*
X118243000Y-97841000D01*
X127539000Y-97881000D02*
X124141000Y-97881000D01*
X121659000Y-97881000D02*
X118261000Y-97881000D01*
X127521000Y-97921000D02*
X124141000Y-97921000D01*
X121659000Y-97921000D02*
X118279000Y-97921000D01*
X127503000Y-97961000D02*
X124141000Y-97961000D01*
X121659000Y-97961000D02*
X118297000Y-97961000D01*
X127484000Y-98001000D02*
X124141000Y-98001000D01*
X121659000Y-98001000D02*
X118316000Y-98001000D01*
X127464000Y-98041000D02*
X124141000Y-98041000D01*
X121659000Y-98041000D02*
X118336000Y-98041000D01*
X127445000Y-98081000D02*
X124141000Y-98081000D01*
X121659000Y-98081000D02*
X118355000Y-98081000D01*
X127425000Y-98121000D02*
X124141000Y-98121000D01*
X121659000Y-98121000D02*
X118375000Y-98121000D01*
X127404000Y-98161000D02*
X124141000Y-98161000D01*
X121659000Y-98161000D02*
X118396000Y-98161000D01*
X127383000Y-98201000D02*
X124141000Y-98201000D01*
X121659000Y-98201000D02*
X118417000Y-98201000D01*
X127362000Y-98241000D02*
X124141000Y-98241000D01*
X121659000Y-98241000D02*
X118438000Y-98241000D01*
X127340000Y-98281000D02*
X124141000Y-98281000D01*
X121659000Y-98281000D02*
X118460000Y-98281000D01*
X127317000Y-98321000D02*
X124141000Y-98321000D01*
X121659000Y-98321000D02*
X118483000Y-98321000D01*
X127295000Y-98361000D02*
X124141000Y-98361000D01*
X121659000Y-98361000D02*
X118505000Y-98361000D01*
X127271000Y-98401000D02*
X124141000Y-98401000D01*
X121659000Y-98401000D02*
X118529000Y-98401000D01*
X127247000Y-98441000D02*
X124141000Y-98441000D01*
X121659000Y-98441000D02*
X118553000Y-98441000D01*
X127223000Y-98481000D02*
X124141000Y-98481000D01*
X121659000Y-98481000D02*
X118577000Y-98481000D01*
X127198000Y-98521000D02*
X124141000Y-98521000D01*
X121659000Y-98521000D02*
X118602000Y-98521000D01*
X127173000Y-98561000D02*
X124141000Y-98561000D01*
X121659000Y-98561000D02*
X118627000Y-98561000D01*
X127147000Y-98601000D02*
X124141000Y-98601000D01*
X121659000Y-98601000D02*
X118653000Y-98601000D01*
X127121000Y-98641000D02*
X124141000Y-98641000D01*
X121659000Y-98641000D02*
X118679000Y-98641000D01*
X127094000Y-98681000D02*
X124141000Y-98681000D01*
X121659000Y-98681000D02*
X118706000Y-98681000D01*
X127066000Y-98721000D02*
X124141000Y-98721000D01*
X121659000Y-98721000D02*
X118734000Y-98721000D01*
X127038000Y-98761000D02*
X124141000Y-98761000D01*
X121659000Y-98761000D02*
X118762000Y-98761000D01*
X127010000Y-98801000D02*
X124141000Y-98801000D01*
X121659000Y-98801000D02*
X118790000Y-98801000D01*
X126980000Y-98841000D02*
X124141000Y-98841000D01*
X121659000Y-98841000D02*
X118820000Y-98841000D01*
X126950000Y-98881000D02*
X124141000Y-98881000D01*
X121659000Y-98881000D02*
X118850000Y-98881000D01*
X126920000Y-98921000D02*
X124141000Y-98921000D01*
X121659000Y-98921000D02*
X118880000Y-98921000D01*
X126889000Y-98961000D02*
X124141000Y-98961000D01*
X121659000Y-98961000D02*
X118911000Y-98961000D01*
X126857000Y-99001000D02*
X124141000Y-99001000D01*
X121659000Y-99001000D02*
X118943000Y-99001000D01*
X126825000Y-99041000D02*
X124141000Y-99041000D01*
X121659000Y-99041000D02*
X118975000Y-99041000D01*
X126792000Y-99081000D02*
X124141000Y-99081000D01*
X121659000Y-99081000D02*
X119008000Y-99081000D01*
X126758000Y-99121000D02*
X124141000Y-99121000D01*
X121659000Y-99121000D02*
X119042000Y-99121000D01*
X126724000Y-99161000D02*
X124141000Y-99161000D01*
X121659000Y-99161000D02*
X119076000Y-99161000D01*
X126689000Y-99201000D02*
X124141000Y-99201000D01*
X121659000Y-99201000D02*
X119111000Y-99201000D01*
X126653000Y-99241000D02*
X124141000Y-99241000D01*
X121659000Y-99241000D02*
X119147000Y-99241000D01*
X126616000Y-99281000D02*
X124141000Y-99281000D01*
X121659000Y-99281000D02*
X119184000Y-99281000D01*
X126579000Y-99321000D02*
X124141000Y-99321000D01*
X121659000Y-99321000D02*
X119221000Y-99321000D01*
X126540000Y-99361000D02*
X124141000Y-99361000D01*
X121659000Y-99361000D02*
X119260000Y-99361000D01*
X126501000Y-99401000D02*
X124141000Y-99401000D01*
X121659000Y-99401000D02*
X119299000Y-99401000D01*
X126461000Y-99441000D02*
X124141000Y-99441000D01*
X121659000Y-99441000D02*
X119339000Y-99441000D01*
X126420000Y-99481000D02*
X124141000Y-99481000D01*
X121659000Y-99481000D02*
X119380000Y-99481000D01*
X126378000Y-99521000D02*
X124141000Y-99521000D01*
X121659000Y-99521000D02*
X119422000Y-99521000D01*
X126336000Y-99561000D02*
X119464000Y-99561000D01*
X126292000Y-99601000D02*
X119508000Y-99601000D01*
X126247000Y-99641000D02*
X119553000Y-99641000D01*
X126201000Y-99681000D02*
X119599000Y-99681000D01*
X126154000Y-99721000D02*
X119646000Y-99721000D01*
X126106000Y-99761000D02*
X119694000Y-99761000D01*
X126056000Y-99801000D02*
X119744000Y-99801000D01*
X126006000Y-99841000D02*
X119794000Y-99841000D01*
X125954000Y-99881000D02*
X119846000Y-99881000D01*
X125900000Y-99921000D02*
X119900000Y-99921000D01*
X125845000Y-99961000D02*
X119955000Y-99961000D01*
X125789000Y-100001000D02*
X120011000Y-100001000D01*
X125730000Y-100041000D02*
X120070000Y-100041000D01*
X125670000Y-100081000D02*
X120130000Y-100081000D01*
X125609000Y-100121000D02*
X120191000Y-100121000D01*
X125545000Y-100161000D02*
X120255000Y-100161000D01*
X125479000Y-100201000D02*
X120321000Y-100201000D01*
X125410000Y-100241000D02*
X120390000Y-100241000D01*
X125339000Y-100281000D02*
X120461000Y-100281000D01*
X125265000Y-100321000D02*
X120535000Y-100321000D01*
X125189000Y-100361000D02*
X120611000Y-100361000D01*
X125109000Y-100401000D02*
X120691000Y-100401000D01*
X125025000Y-100441000D02*
X120775000Y-100441000D01*
X124937000Y-100481000D02*
X120863000Y-100481000D01*
X124844000Y-100521000D02*
X120956000Y-100521000D01*
X124746000Y-100561000D02*
X121054000Y-100561000D01*
X124642000Y-100601000D02*
X121158000Y-100601000D01*
X124530000Y-100641000D02*
X121270000Y-100641000D01*
X124410000Y-100681000D02*
X121390000Y-100681000D01*
X124278000Y-100721000D02*
X121522000Y-100721000D01*
X124130000Y-100761000D02*
X121670000Y-100761000D01*
X123962000Y-100801000D02*
X121838000Y-100801000D01*
X123762000Y-100841000D02*
X122038000Y-100841000D01*
X123499000Y-100881000D02*
X122301000Y-100881000D01*
X125775000Y-90320354D02*
X125775000Y-91320354D01*
X126275000Y-90820354D02*
X125275000Y-90820354D01*
X177620000Y-143620000D02*
X171380000Y-143620000D01*
X177620000Y-134420000D02*
X171380000Y-134420000D01*
X171380000Y-134420000D02*
X171380000Y-143620000D01*
X177620000Y-134420000D02*
X177620000Y-143620000D01*
X178020000Y-134420000D02*
X170980000Y-134420000D01*
X178020000Y-133620000D02*
X170980000Y-133620000D01*
X170980000Y-133620000D02*
X170980000Y-134420000D01*
X178020000Y-133620000D02*
X178020000Y-134420000D01*
X179470000Y-133620000D02*
X169530000Y-133620000D01*
X176944000Y-128380000D02*
X172055000Y-128380000D01*
X169530000Y-129255000D02*
X169530000Y-133620000D01*
X179470000Y-129255000D02*
X179470000Y-133620000D01*
X132620000Y-143620000D02*
X126380000Y-143620000D01*
X132620000Y-134420000D02*
X126380000Y-134420000D01*
X126380000Y-134420000D02*
X126380000Y-143620000D01*
X132620000Y-134420000D02*
X132620000Y-143620000D01*
X133020000Y-134420000D02*
X125980000Y-134420000D01*
X133020000Y-133620000D02*
X125980000Y-133620000D01*
X125980000Y-133620000D02*
X125980000Y-134420000D01*
X133020000Y-133620000D02*
X133020000Y-134420000D01*
X134470000Y-133620000D02*
X124530000Y-133620000D01*
X131944000Y-128380000D02*
X127055000Y-128380000D01*
X124530000Y-129255000D02*
X124530000Y-133620000D01*
X134470000Y-129255000D02*
X134470000Y-133620000D01*
X155120000Y-143620000D02*
X148880000Y-143620000D01*
X155120000Y-134420000D02*
X148880000Y-134420000D01*
X148880000Y-134420000D02*
X148880000Y-143620000D01*
X155120000Y-134420000D02*
X155120000Y-143620000D01*
X155520000Y-134420000D02*
X148480000Y-134420000D01*
X155520000Y-133620000D02*
X148480000Y-133620000D01*
X148480000Y-133620000D02*
X148480000Y-134420000D01*
X155520000Y-133620000D02*
X155520000Y-134420000D01*
X156970000Y-133620000D02*
X147030000Y-133620000D01*
X154444000Y-128380000D02*
X149555000Y-128380000D01*
X147030000Y-129255000D02*
X147030000Y-133620000D01*
X156970000Y-129255000D02*
X156970000Y-133620000D01*
X110120000Y-143620000D02*
X103880000Y-143620000D01*
X110120000Y-134420000D02*
X103880000Y-134420000D01*
X103880000Y-134420000D02*
X103880000Y-143620000D01*
X110120000Y-134420000D02*
X110120000Y-143620000D01*
X110520000Y-134420000D02*
X103480000Y-134420000D01*
X110520000Y-133620000D02*
X103480000Y-133620000D01*
X103480000Y-133620000D02*
X103480000Y-134420000D01*
X110520000Y-133620000D02*
X110520000Y-134420000D01*
X111970000Y-133620000D02*
X102030000Y-133620000D01*
X109444000Y-128380000D02*
X104555000Y-128380000D01*
X102030000Y-129255000D02*
X102030000Y-133620000D01*
X111970000Y-129255000D02*
X111970000Y-133620000D01*
X148420000Y-118180000D02*
X152120000Y-118180000D01*
X152120000Y-118180000D02*
X152120000Y-112880000D01*
X159000000Y-93940000D02*
X157050000Y-93940000D01*
X159000000Y-93940000D02*
X160950000Y-93940000D01*
X159000000Y-99060000D02*
X157050000Y-99060000D01*
X159000000Y-99060000D02*
X162450000Y-99060000D01*
D10*
X161025000Y-112750000D02*
X156575000Y-112750000D01*
X162550000Y-119650000D02*
X156575000Y-119650000D01*
D11*
X130520000Y-96900000D02*
X130520000Y-98400000D01*
X130520000Y-96900000D02*
X130520000Y-95400000D01*
X133740000Y-96900000D02*
X133740000Y-98400000D01*
X133740000Y-96900000D02*
X133740000Y-93975000D01*
X144310000Y-97950000D02*
X143380000Y-97950000D01*
X141150000Y-97950000D02*
X142080000Y-97950000D01*
X141150000Y-97950000D02*
X141150000Y-100110000D01*
X144310000Y-97950000D02*
X144310000Y-99410000D01*
X146160000Y-89940000D02*
X146160000Y-88440000D01*
X146160000Y-88440000D02*
X147360000Y-88440000D01*
X148360000Y-92060000D02*
X147360000Y-92060000D01*
X146610000Y-88820000D02*
X148980000Y-88820000D01*
X158824721Y-99690000D02*
X159150279Y-99690000D01*
X158824721Y-100710000D02*
X159150279Y-100710000D01*
X169710000Y-100997221D02*
X169710000Y-101322779D01*
X168690000Y-100997221D02*
X168690000Y-101322779D01*
X172240000Y-101362779D02*
X172240000Y-101037221D01*
X173260000Y-101362779D02*
X173260000Y-101037221D01*
X162850000Y-100957221D02*
X162850000Y-101282779D01*
X161830000Y-100957221D02*
X161830000Y-101282779D01*
X165290000Y-101335279D02*
X165290000Y-101009721D01*
X166310000Y-101335279D02*
X166310000Y-101009721D01*
X176680000Y-101047221D02*
X176680000Y-101372779D01*
X175660000Y-101047221D02*
X175660000Y-101372779D01*
X179090000Y-101382779D02*
X179090000Y-101057221D01*
X180110000Y-101382779D02*
X180110000Y-101057221D01*
X154460000Y-111724721D02*
X154460000Y-112050279D01*
X153440000Y-111724721D02*
X153440000Y-112050279D01*
X119510000Y-105337221D02*
X119510000Y-105662779D01*
X118490000Y-105337221D02*
X118490000Y-105662779D01*
X118050000Y-105337221D02*
X118050000Y-105662779D01*
X117030000Y-105337221D02*
X117030000Y-105662779D01*
X135732779Y-93620000D02*
X135407221Y-93620000D01*
X135732779Y-92600000D02*
X135407221Y-92600000D01*
X135407221Y-94060000D02*
X135732779Y-94060000D01*
X135407221Y-95080000D02*
X135732779Y-95080000D01*
X148307221Y-84400000D02*
X148632779Y-84400000D01*
X148307221Y-85420000D02*
X148632779Y-85420000D01*
X148632779Y-86890000D02*
X148307221Y-86890000D01*
X148632779Y-85870000D02*
X148307221Y-85870000D01*
X148702779Y-95090000D02*
X148377221Y-95090000D01*
X148702779Y-94070000D02*
X148377221Y-94070000D01*
X151310000Y-93647221D02*
X151310000Y-93972779D01*
X150290000Y-93647221D02*
X150290000Y-93972779D01*
X145027221Y-87190000D02*
X145352779Y-87190000D01*
X145027221Y-88210000D02*
X145352779Y-88210000D01*
X109697221Y-108330000D02*
X110022779Y-108330000D01*
X109697221Y-109350000D02*
X110022779Y-109350000D01*
X109697221Y-106870000D02*
X110022779Y-106870000D01*
X109697221Y-107890000D02*
X110022779Y-107890000D01*
X114187221Y-107460000D02*
X114512779Y-107460000D01*
X114187221Y-108480000D02*
X114512779Y-108480000D01*
X132260000Y-121610000D02*
X132260000Y-116890000D01*
X132260000Y-116890000D02*
X118140000Y-116890000D01*
X118140000Y-116890000D02*
X118140000Y-121610000D01*
X118140000Y-121610000D02*
X132260000Y-121610000D01*
X130500000Y-121610000D02*
X130500000Y-121810000D01*
X130500000Y-121810000D02*
X130800000Y-121810000D01*
X130800000Y-121810000D02*
X130800000Y-121610000D01*
X130500000Y-121710000D02*
X130800000Y-121710000D01*
X129700000Y-121610000D02*
X129700000Y-121000000D01*
X129700000Y-121000000D02*
X131650000Y-121000000D01*
X131650000Y-121000000D02*
X131650000Y-117500000D01*
X131650000Y-117500000D02*
X118750000Y-117500000D01*
X118750000Y-117500000D02*
X118750000Y-121000000D01*
X118750000Y-121000000D02*
X120700000Y-121000000D01*
X120700000Y-121000000D02*
X120700000Y-121610000D01*
X132260000Y-120300000D02*
X131650000Y-120300000D01*
X132260000Y-119000000D02*
X131650000Y-119000000D01*
X118140000Y-120300000D02*
X118750000Y-120300000D01*
X118140000Y-119000000D02*
X118750000Y-119000000D01*
X129300000Y-117500000D02*
X129300000Y-118000000D01*
X129300000Y-118000000D02*
X129100000Y-118000000D01*
X129100000Y-118000000D02*
X129100000Y-117500000D01*
X129200000Y-117500000D02*
X129200000Y-118000000D01*
X127300000Y-117500000D02*
X127300000Y-118000000D01*
X127300000Y-118000000D02*
X127100000Y-118000000D01*
X127100000Y-118000000D02*
X127100000Y-117500000D01*
X127200000Y-117500000D02*
X127200000Y-118000000D01*
X125300000Y-117500000D02*
X125300000Y-118000000D01*
X125300000Y-118000000D02*
X125100000Y-118000000D01*
X125100000Y-118000000D02*
X125100000Y-117500000D01*
X125200000Y-117500000D02*
X125200000Y-118000000D01*
X123300000Y-117500000D02*
X123300000Y-118000000D01*
X123300000Y-118000000D02*
X123100000Y-118000000D01*
X123100000Y-118000000D02*
X123100000Y-117500000D01*
X123200000Y-117500000D02*
X123200000Y-118000000D01*
X121300000Y-117500000D02*
X121300000Y-118000000D01*
X121300000Y-118000000D02*
X121100000Y-118000000D01*
X121100000Y-118000000D02*
X121100000Y-117500000D01*
X121200000Y-117500000D02*
X121200000Y-118000000D01*
X131310000Y-121910000D02*
X132560000Y-121910000D01*
X132560000Y-121910000D02*
X132560000Y-120660000D01*
X132100000Y-107480000D02*
X127000000Y-107480000D01*
X132100000Y-102280000D02*
X127000000Y-102280000D01*
X177380000Y-90320000D02*
X177380000Y-88320000D01*
X179980000Y-90320000D02*
X179980000Y-88320000D01*
X170880000Y-90320000D02*
X177380000Y-90320000D01*
X166480000Y-90320000D02*
X167680000Y-90320000D01*
X166480000Y-92570000D02*
X166480000Y-90320000D01*
X166480000Y-96520000D02*
X166480000Y-95770000D01*
X175380000Y-96520000D02*
X166480000Y-96520000D01*
X181180000Y-96520000D02*
X177980000Y-96520000D01*
X181180000Y-96020000D02*
X181180000Y-96520000D01*
X183680000Y-96020000D02*
X181180000Y-96020000D01*
X183680000Y-90820000D02*
X183680000Y-96020000D01*
X181180000Y-90820000D02*
X183680000Y-90820000D01*
X181180000Y-90320000D02*
X181180000Y-90820000D01*
X179980000Y-90320000D02*
X181180000Y-90320000D01*
X169990000Y-86120000D02*
X169990000Y-81400000D01*
X169990000Y-81400000D02*
X163870000Y-81400000D01*
X163870000Y-81400000D02*
X163870000Y-86120000D01*
X163870000Y-86120000D02*
X169990000Y-86120000D01*
X168230000Y-86120000D02*
X168230000Y-86320000D01*
X168230000Y-86320000D02*
X168530000Y-86320000D01*
X168530000Y-86320000D02*
X168530000Y-86120000D01*
X168230000Y-86220000D02*
X168530000Y-86220000D01*
X167430000Y-86120000D02*
X167430000Y-85510000D01*
X167430000Y-85510000D02*
X169380000Y-85510000D01*
X169380000Y-85510000D02*
X169380000Y-82010000D01*
X169380000Y-82010000D02*
X164480000Y-82010000D01*
X164480000Y-82010000D02*
X164480000Y-85510000D01*
X164480000Y-85510000D02*
X166430000Y-85510000D01*
X166430000Y-85510000D02*
X166430000Y-86120000D01*
X169990000Y-84810000D02*
X169380000Y-84810000D01*
X169990000Y-83510000D02*
X169380000Y-83510000D01*
X163870000Y-84810000D02*
X164480000Y-84810000D01*
X163870000Y-83510000D02*
X164480000Y-83510000D01*
X167030000Y-82010000D02*
X167030000Y-82510000D01*
X167030000Y-82510000D02*
X166830000Y-82510000D01*
X166830000Y-82510000D02*
X166830000Y-82010000D01*
X166930000Y-82010000D02*
X166930000Y-82510000D01*
X169040000Y-86420000D02*
X170290000Y-86420000D01*
X170290000Y-86420000D02*
X170290000Y-85170000D01*
X174050000Y-103940000D02*
X171390000Y-103940000D01*
X174050000Y-106540000D02*
X174050000Y-103940000D01*
X171390000Y-106540000D02*
X171390000Y-103940000D01*
X174050000Y-106540000D02*
X171390000Y-106540000D01*
X174050000Y-107810000D02*
X174050000Y-109140000D01*
X174050000Y-109140000D02*
X172720000Y-109140000D01*
X167140000Y-103940000D02*
X164480000Y-103940000D01*
X167140000Y-106540000D02*
X167140000Y-103940000D01*
X164480000Y-106540000D02*
X164480000Y-103940000D01*
X167140000Y-106540000D02*
X164480000Y-106540000D01*
X167140000Y-107810000D02*
X167140000Y-109140000D01*
X167140000Y-109140000D02*
X165810000Y-109140000D01*
X180930000Y-103930000D02*
X178270000Y-103930000D01*
X180930000Y-106530000D02*
X180930000Y-103930000D01*
X178270000Y-106530000D02*
X178270000Y-103930000D01*
X180930000Y-106530000D02*
X178270000Y-106530000D01*
X180930000Y-107800000D02*
X180930000Y-109130000D01*
X180930000Y-109130000D02*
X179600000Y-109130000D01*
X170570000Y-103940000D02*
X167910000Y-103940000D01*
X170570000Y-106540000D02*
X170570000Y-103940000D01*
X167910000Y-106540000D02*
X167910000Y-103940000D01*
X170570000Y-106540000D02*
X167910000Y-106540000D01*
X170570000Y-107810000D02*
X170570000Y-109140000D01*
X170570000Y-109140000D02*
X169240000Y-109140000D01*
X163670000Y-103940000D02*
X161010000Y-103940000D01*
X163670000Y-106540000D02*
X163670000Y-103940000D01*
X161010000Y-106540000D02*
X161010000Y-103940000D01*
X163670000Y-106540000D02*
X161010000Y-106540000D01*
X163670000Y-107810000D02*
X163670000Y-109140000D01*
X163670000Y-109140000D02*
X162340000Y-109140000D01*
X177500000Y-103940000D02*
X174840000Y-103940000D01*
X177500000Y-106540000D02*
X177500000Y-103940000D01*
X174840000Y-106540000D02*
X174840000Y-103940000D01*
X177500000Y-106540000D02*
X174840000Y-106540000D01*
X177500000Y-107810000D02*
X177500000Y-109140000D01*
X177500000Y-109140000D02*
X176170000Y-109140000D01*
X122140000Y-111390000D02*
X122140000Y-116110000D01*
X122140000Y-116110000D02*
X132260000Y-116110000D01*
X132260000Y-116110000D02*
X132260000Y-111390000D01*
X132260000Y-111390000D02*
X122140000Y-111390000D01*
X123900000Y-111390000D02*
X123900000Y-111190000D01*
X123900000Y-111190000D02*
X123600000Y-111190000D01*
X123600000Y-111190000D02*
X123600000Y-111390000D01*
X123900000Y-111290000D02*
X123600000Y-111290000D01*
X124700000Y-111390000D02*
X124700000Y-112000000D01*
X124700000Y-112000000D02*
X122750000Y-112000000D01*
X122750000Y-112000000D02*
X122750000Y-115500000D01*
X122750000Y-115500000D02*
X131650000Y-115500000D01*
X131650000Y-115500000D02*
X131650000Y-112000000D01*
X131650000Y-112000000D02*
X129700000Y-112000000D01*
X129700000Y-112000000D02*
X129700000Y-111390000D01*
X122140000Y-112700000D02*
X122750000Y-112700000D01*
X122140000Y-114000000D02*
X122750000Y-114000000D01*
X132260000Y-112700000D02*
X131650000Y-112700000D01*
X132260000Y-114000000D02*
X131650000Y-114000000D01*
X125100000Y-115500000D02*
X125100000Y-115000000D01*
X125100000Y-115000000D02*
X125300000Y-115000000D01*
X125300000Y-115000000D02*
X125300000Y-115500000D01*
X125200000Y-115500000D02*
X125200000Y-115000000D01*
X127100000Y-115500000D02*
X127100000Y-115000000D01*
X127100000Y-115000000D02*
X127300000Y-115000000D01*
X127300000Y-115000000D02*
X127300000Y-115500000D01*
X127200000Y-115500000D02*
X127200000Y-115000000D01*
X129100000Y-115500000D02*
X129100000Y-115000000D01*
X129100000Y-115000000D02*
X129300000Y-115000000D01*
X129300000Y-115000000D02*
X129300000Y-115500000D01*
X129200000Y-115500000D02*
X129200000Y-115000000D01*
X123090000Y-111090000D02*
X121840000Y-111090000D01*
X121840000Y-111090000D02*
X121840000Y-112340000D01*
X114090000Y-79090000D02*
X121910000Y-79090000D01*
X120110000Y-88410000D02*
X120110000Y-88840000D01*
X114090000Y-79090000D02*
X114090000Y-81040000D01*
X114090000Y-83260000D02*
X114090000Y-86490000D01*
X115890000Y-88410000D02*
X114810000Y-88410000D01*
X121190000Y-88410000D02*
X120110000Y-88410000D01*
X121910000Y-83260000D02*
X121910000Y-86490000D01*
X121910000Y-79090000D02*
X121910000Y-81040000D01*
X107240000Y-116890000D02*
X107240000Y-121610000D01*
X107240000Y-121610000D02*
X117360000Y-121610000D01*
X117360000Y-121610000D02*
X117360000Y-116890000D01*
X117360000Y-116890000D02*
X107240000Y-116890000D01*
X109000000Y-116890000D02*
X109000000Y-116690000D01*
X109000000Y-116690000D02*
X108700000Y-116690000D01*
X108700000Y-116690000D02*
X108700000Y-116890000D01*
X109000000Y-116790000D02*
X108700000Y-116790000D01*
X109800000Y-116890000D02*
X109800000Y-117500000D01*
X109800000Y-117500000D02*
X107850000Y-117500000D01*
X107850000Y-117500000D02*
X107850000Y-121000000D01*
X107850000Y-121000000D02*
X116750000Y-121000000D01*
X116750000Y-121000000D02*
X116750000Y-117500000D01*
X116750000Y-117500000D02*
X114800000Y-117500000D01*
X114800000Y-117500000D02*
X114800000Y-116890000D01*
X107240000Y-118200000D02*
X107850000Y-118200000D01*
X107240000Y-119500000D02*
X107850000Y-119500000D01*
X117360000Y-118200000D02*
X116750000Y-118200000D01*
X117360000Y-119500000D02*
X116750000Y-119500000D01*
X110200000Y-121000000D02*
X110200000Y-120500000D01*
X110200000Y-120500000D02*
X110400000Y-120500000D01*
X110400000Y-120500000D02*
X110400000Y-121000000D01*
X110300000Y-121000000D02*
X110300000Y-120500000D01*
X112200000Y-121000000D02*
X112200000Y-120500000D01*
X112200000Y-120500000D02*
X112400000Y-120500000D01*
X112400000Y-120500000D02*
X112400000Y-121000000D01*
X112300000Y-121000000D02*
X112300000Y-120500000D01*
X114200000Y-121000000D02*
X114200000Y-120500000D01*
X114200000Y-120500000D02*
X114400000Y-120500000D01*
X114400000Y-120500000D02*
X114400000Y-121000000D01*
X114300000Y-121000000D02*
X114300000Y-120500000D01*
X108190000Y-116590000D02*
X106940000Y-116590000D01*
X106940000Y-116590000D02*
X106940000Y-117840000D01*
X169820000Y-113341422D02*
X169820000Y-113858578D01*
X168400000Y-113341422D02*
X168400000Y-113858578D01*
X167620000Y-113341422D02*
X167620000Y-113858578D01*
X166200000Y-113341422D02*
X166200000Y-113858578D01*
X172010000Y-113341422D02*
X172010000Y-113858578D01*
X170590000Y-113341422D02*
X170590000Y-113858578D01*
X156197221Y-111250000D02*
X156522779Y-111250000D01*
X156197221Y-112270000D02*
X156522779Y-112270000D01*
X150298779Y-112294000D02*
X149973221Y-112294000D01*
X150298779Y-111274000D02*
X149973221Y-111274000D01*
X138247221Y-105970000D02*
X138572779Y-105970000D01*
X138247221Y-106990000D02*
X138572779Y-106990000D01*
X150127221Y-118760000D02*
X150452779Y-118760000D01*
X150127221Y-119780000D02*
X150452779Y-119780000D01*
X143877221Y-105910000D02*
X144202779Y-105910000D01*
X143877221Y-106930000D02*
X144202779Y-106930000D01*
X121810000Y-102180000D02*
X121810000Y-106390000D01*
X121810000Y-106390000D02*
X124830000Y-106390000D01*
X124830000Y-106390000D02*
X124830000Y-102180000D01*
X125340000Y-103200279D02*
X125340000Y-102874721D01*
X126360000Y-103200279D02*
X126360000Y-102874721D01*
X132312779Y-101510000D02*
X131987221Y-101510000D01*
X132312779Y-100490000D02*
X131987221Y-100490000D01*
X135280000Y-96837221D02*
X135280000Y-97162779D01*
X134260000Y-96837221D02*
X134260000Y-97162779D01*
X148237221Y-92500000D02*
X148562779Y-92500000D01*
X148237221Y-93520000D02*
X148562779Y-93520000D01*
X148632779Y-88360000D02*
X148307221Y-88360000D01*
X148632779Y-87340000D02*
X148307221Y-87340000D01*
X130030000Y-95137221D02*
X130030000Y-95462779D01*
X129010000Y-95137221D02*
X129010000Y-95462779D01*
X145552779Y-93520000D02*
X145227221Y-93520000D01*
X145552779Y-92500000D02*
X145227221Y-92500000D01*
X151080000Y-90197221D02*
X151080000Y-90522779D01*
X150060000Y-90197221D02*
X150060000Y-90522779D01*
X146020000Y-90257221D02*
X146020000Y-90582779D01*
X145000000Y-90257221D02*
X145000000Y-90582779D01*
D10*
X115652619Y-96501666D02*
X114938333Y-96501666D01*
X114795476Y-96454047D01*
X114700238Y-96358809D01*
X114652619Y-96215952D01*
X114652619Y-96120714D01*
X114652619Y-97501666D02*
X114652619Y-96930238D01*
X114652619Y-97215952D02*
X115652619Y-97215952D01*
X115509761Y-97120714D01*
X115414523Y-97025476D01*
X115366904Y-96930238D01*
X106583333Y-114882380D02*
X106250000Y-114406190D01*
X106011904Y-114882380D02*
X106011904Y-113882380D01*
X106392857Y-113882380D01*
X106488095Y-113930000D01*
X106535714Y-113977619D01*
X106583333Y-114072857D01*
X106583333Y-114215714D01*
X106535714Y-114310952D01*
X106488095Y-114358571D01*
X106392857Y-114406190D01*
X106011904Y-114406190D01*
X106916666Y-113882380D02*
X107583333Y-113882380D01*
X107154761Y-114882380D01*
X106453333Y-113292380D02*
X106120000Y-112816190D01*
X105881904Y-113292380D02*
X105881904Y-112292380D01*
X106262857Y-112292380D01*
X106358095Y-112340000D01*
X106405714Y-112387619D01*
X106453333Y-112482857D01*
X106453333Y-112625714D01*
X106405714Y-112720952D01*
X106358095Y-112768571D01*
X106262857Y-112816190D01*
X105881904Y-112816190D01*
X107310476Y-112292380D02*
X107120000Y-112292380D01*
X107024761Y-112340000D01*
X106977142Y-112387619D01*
X106881904Y-112530476D01*
X106834285Y-112720952D01*
X106834285Y-113101904D01*
X106881904Y-113197142D01*
X106929523Y-113244761D01*
X107024761Y-113292380D01*
X107215238Y-113292380D01*
X107310476Y-113244761D01*
X107358095Y-113197142D01*
X107405714Y-113101904D01*
X107405714Y-112863809D01*
X107358095Y-112768571D01*
X107310476Y-112720952D01*
X107215238Y-112673333D01*
X107024761Y-112673333D01*
X106929523Y-112720952D01*
X106881904Y-112768571D01*
X106834285Y-112863809D01*
X106423333Y-111892380D02*
X106090000Y-111416190D01*
X105851904Y-111892380D02*
X105851904Y-110892380D01*
X106232857Y-110892380D01*
X106328095Y-110940000D01*
X106375714Y-110987619D01*
X106423333Y-111082857D01*
X106423333Y-111225714D01*
X106375714Y-111320952D01*
X106328095Y-111368571D01*
X106232857Y-111416190D01*
X105851904Y-111416190D01*
X107328095Y-110892380D02*
X106851904Y-110892380D01*
X106804285Y-111368571D01*
X106851904Y-111320952D01*
X106947142Y-111273333D01*
X107185238Y-111273333D01*
X107280476Y-111320952D01*
X107328095Y-111368571D01*
X107375714Y-111463809D01*
X107375714Y-111701904D01*
X107328095Y-111797142D01*
X107280476Y-111844761D01*
X107185238Y-111892380D01*
X106947142Y-111892380D01*
X106851904Y-111844761D01*
X106804285Y-111797142D01*
X106533333Y-110502380D02*
X106200000Y-110026190D01*
X105961904Y-110502380D02*
X105961904Y-109502380D01*
X106342857Y-109502380D01*
X106438095Y-109550000D01*
X106485714Y-109597619D01*
X106533333Y-109692857D01*
X106533333Y-109835714D01*
X106485714Y-109930952D01*
X106438095Y-109978571D01*
X106342857Y-110026190D01*
X105961904Y-110026190D01*
X107390476Y-109835714D02*
X107390476Y-110502380D01*
X107152380Y-109454761D02*
X106914285Y-110169047D01*
X107533333Y-110169047D01*
X140518095Y-121002380D02*
X140518095Y-121811904D01*
X140565714Y-121907142D01*
X140613333Y-121954761D01*
X140708571Y-122002380D01*
X140899047Y-122002380D01*
X140994285Y-121954761D01*
X141041904Y-121907142D01*
X141089523Y-121811904D01*
X141089523Y-121002380D01*
X141994285Y-121335714D02*
X141994285Y-122002380D01*
X141756190Y-120954761D02*
X141518095Y-121669047D01*
X142137142Y-121669047D01*
X141887142Y-99442857D02*
X141934761Y-99490476D01*
X141982380Y-99633333D01*
X141982380Y-99728571D01*
X141934761Y-99871428D01*
X141839523Y-99966666D01*
X141744285Y-100014285D01*
X141553809Y-100061904D01*
X141410952Y-100061904D01*
X141220476Y-100014285D01*
X141125238Y-99966666D01*
X141030000Y-99871428D01*
X140982380Y-99728571D01*
X140982380Y-99633333D01*
X141030000Y-99490476D01*
X141077619Y-99442857D01*
X140982380Y-99109523D02*
X140982380Y-98490476D01*
X141363333Y-98823809D01*
X141363333Y-98680952D01*
X141410952Y-98585714D01*
X141458571Y-98538095D01*
X141553809Y-98490476D01*
X141791904Y-98490476D01*
X141887142Y-98538095D01*
X141934761Y-98585714D01*
X141982380Y-98680952D01*
X141982380Y-98966666D01*
X141934761Y-99061904D01*
X141887142Y-99109523D01*
X140982380Y-97871428D02*
X140982380Y-97776190D01*
X141030000Y-97680952D01*
X141077619Y-97633333D01*
X141172857Y-97585714D01*
X141363333Y-97538095D01*
X141601428Y-97538095D01*
X141791904Y-97585714D01*
X141887142Y-97633333D01*
X141934761Y-97680952D01*
X141982380Y-97776190D01*
X141982380Y-97871428D01*
X141934761Y-97966666D01*
X141887142Y-98014285D01*
X141791904Y-98061904D01*
X141601428Y-98109523D01*
X141363333Y-98109523D01*
X141172857Y-98061904D01*
X141077619Y-98014285D01*
X141030000Y-97966666D01*
X140982380Y-97871428D01*
X140617142Y-105282380D02*
X140283809Y-104806190D01*
X140045714Y-105282380D02*
X140045714Y-104282380D01*
X140426666Y-104282380D01*
X140521904Y-104330000D01*
X140569523Y-104377619D01*
X140617142Y-104472857D01*
X140617142Y-104615714D01*
X140569523Y-104710952D01*
X140521904Y-104758571D01*
X140426666Y-104806190D01*
X140045714Y-104806190D01*
X140998095Y-104377619D02*
X141045714Y-104330000D01*
X141140952Y-104282380D01*
X141379047Y-104282380D01*
X141474285Y-104330000D01*
X141521904Y-104377619D01*
X141569523Y-104472857D01*
X141569523Y-104568095D01*
X141521904Y-104710952D01*
X140950476Y-105282380D01*
X141569523Y-105282380D01*
X142426666Y-104282380D02*
X142236190Y-104282380D01*
X142140952Y-104330000D01*
X142093333Y-104377619D01*
X141998095Y-104520476D01*
X141950476Y-104710952D01*
X141950476Y-105091904D01*
X141998095Y-105187142D01*
X142045714Y-105234761D01*
X142140952Y-105282380D01*
X142331428Y-105282380D01*
X142426666Y-105234761D01*
X142474285Y-105187142D01*
X142521904Y-105091904D01*
X142521904Y-104853809D01*
X142474285Y-104758571D01*
X142426666Y-104710952D01*
X142331428Y-104663333D01*
X142140952Y-104663333D01*
X142045714Y-104710952D01*
X141998095Y-104758571D01*
X141950476Y-104853809D01*
X137797142Y-102422380D02*
X137463809Y-101946190D01*
X137225714Y-102422380D02*
X137225714Y-101422380D01*
X137606666Y-101422380D01*
X137701904Y-101470000D01*
X137749523Y-101517619D01*
X137797142Y-101612857D01*
X137797142Y-101755714D01*
X137749523Y-101850952D01*
X137701904Y-101898571D01*
X137606666Y-101946190D01*
X137225714Y-101946190D01*
X138178095Y-101517619D02*
X138225714Y-101470000D01*
X138320952Y-101422380D01*
X138559047Y-101422380D01*
X138654285Y-101470000D01*
X138701904Y-101517619D01*
X138749523Y-101612857D01*
X138749523Y-101708095D01*
X138701904Y-101850952D01*
X138130476Y-102422380D01*
X138749523Y-102422380D01*
X139654285Y-101422380D02*
X139178095Y-101422380D01*
X139130476Y-101898571D01*
X139178095Y-101850952D01*
X139273333Y-101803333D01*
X139511428Y-101803333D01*
X139606666Y-101850952D01*
X139654285Y-101898571D01*
X139701904Y-101993809D01*
X139701904Y-102231904D01*
X139654285Y-102327142D01*
X139606666Y-102374761D01*
X139511428Y-102422380D01*
X139273333Y-102422380D01*
X139178095Y-102374761D01*
X139130476Y-102327142D01*
X134401904Y-107152380D02*
X134401904Y-106152380D01*
X134640000Y-106152380D01*
X134782857Y-106200000D01*
X134878095Y-106295238D01*
X134925714Y-106390476D01*
X134973333Y-106580952D01*
X134973333Y-106723809D01*
X134925714Y-106914285D01*
X134878095Y-107009523D01*
X134782857Y-107104761D01*
X134640000Y-107152380D01*
X134401904Y-107152380D01*
X135354285Y-106247619D02*
X135401904Y-106200000D01*
X135497142Y-106152380D01*
X135735238Y-106152380D01*
X135830476Y-106200000D01*
X135878095Y-106247619D01*
X135925714Y-106342857D01*
X135925714Y-106438095D01*
X135878095Y-106580952D01*
X135306666Y-107152380D01*
X135925714Y-107152380D01*
X134461904Y-102492380D02*
X134461904Y-101492380D01*
X134700000Y-101492380D01*
X134842857Y-101540000D01*
X134938095Y-101635238D01*
X134985714Y-101730476D01*
X135033333Y-101920952D01*
X135033333Y-102063809D01*
X134985714Y-102254285D01*
X134938095Y-102349523D01*
X134842857Y-102444761D01*
X134700000Y-102492380D01*
X134461904Y-102492380D01*
X135985714Y-102492380D02*
X135414285Y-102492380D01*
X135700000Y-102492380D02*
X135700000Y-101492380D01*
X135604761Y-101635238D01*
X135509523Y-101730476D01*
X135414285Y-101778095D01*
X127287142Y-91797142D02*
X127239523Y-91844761D01*
X127096666Y-91892380D01*
X127001428Y-91892380D01*
X126858571Y-91844761D01*
X126763333Y-91749523D01*
X126715714Y-91654285D01*
X126668095Y-91463809D01*
X126668095Y-91320952D01*
X126715714Y-91130476D01*
X126763333Y-91035238D01*
X126858571Y-90940000D01*
X127001428Y-90892380D01*
X127096666Y-90892380D01*
X127239523Y-90940000D01*
X127287142Y-90987619D01*
X127668095Y-90987619D02*
X127715714Y-90940000D01*
X127810952Y-90892380D01*
X128049047Y-90892380D01*
X128144285Y-90940000D01*
X128191904Y-90987619D01*
X128239523Y-91082857D01*
X128239523Y-91178095D01*
X128191904Y-91320952D01*
X127620476Y-91892380D01*
X128239523Y-91892380D01*
X128715714Y-91892380D02*
X128906190Y-91892380D01*
X129001428Y-91844761D01*
X129049047Y-91797142D01*
X129144285Y-91654285D01*
X129191904Y-91463809D01*
X129191904Y-91082857D01*
X129144285Y-90987619D01*
X129096666Y-90940000D01*
X129001428Y-90892380D01*
X128810952Y-90892380D01*
X128715714Y-90940000D01*
X128668095Y-90987619D01*
X128620476Y-91082857D01*
X128620476Y-91320952D01*
X128668095Y-91416190D01*
X128715714Y-91463809D01*
X128810952Y-91511428D01*
X129001428Y-91511428D01*
X129096666Y-91463809D01*
X129144285Y-91416190D01*
X129191904Y-91320952D01*
X152926190Y-115976190D02*
X153402380Y-115976190D01*
X152402380Y-116309523D02*
X152926190Y-115976190D01*
X152402380Y-115642857D01*
X153402380Y-114785714D02*
X153402380Y-115357142D01*
X153402380Y-115071428D02*
X152402380Y-115071428D01*
X152545238Y-115166666D01*
X152640476Y-115261904D01*
X152688095Y-115357142D01*
X163028095Y-97952380D02*
X163028095Y-98761904D01*
X163075714Y-98857142D01*
X163123333Y-98904761D01*
X163218571Y-98952380D01*
X163409047Y-98952380D01*
X163504285Y-98904761D01*
X163551904Y-98857142D01*
X163599523Y-98761904D01*
X163599523Y-97952380D01*
X164504285Y-97952380D02*
X164313809Y-97952380D01*
X164218571Y-98000000D01*
X164170952Y-98047619D01*
X164075714Y-98190476D01*
X164028095Y-98380952D01*
X164028095Y-98761904D01*
X164075714Y-98857142D01*
X164123333Y-98904761D01*
X164218571Y-98952380D01*
X164409047Y-98952380D01*
X164504285Y-98904761D01*
X164551904Y-98857142D01*
X164599523Y-98761904D01*
X164599523Y-98523809D01*
X164551904Y-98428571D01*
X164504285Y-98380952D01*
X164409047Y-98333333D01*
X164218571Y-98333333D01*
X164123333Y-98380952D01*
X164075714Y-98428571D01*
X164028095Y-98523809D01*
X158038095Y-119952380D02*
X158038095Y-120761904D01*
X158085714Y-120857142D01*
X158133333Y-120904761D01*
X158228571Y-120952380D01*
X158419047Y-120952380D01*
X158514285Y-120904761D01*
X158561904Y-120857142D01*
X158609523Y-120761904D01*
X158609523Y-119952380D01*
X159561904Y-119952380D02*
X159085714Y-119952380D01*
X159038095Y-120428571D01*
X159085714Y-120380952D01*
X159180952Y-120333333D01*
X159419047Y-120333333D01*
X159514285Y-120380952D01*
X159561904Y-120428571D01*
X159609523Y-120523809D01*
X159609523Y-120761904D01*
X159561904Y-120857142D01*
X159514285Y-120904761D01*
X159419047Y-120952380D01*
X159180952Y-120952380D01*
X159085714Y-120904761D01*
X159038095Y-120857142D01*
X128338095Y-99072380D02*
X128338095Y-99881904D01*
X128385714Y-99977142D01*
X128433333Y-100024761D01*
X128528571Y-100072380D01*
X128719047Y-100072380D01*
X128814285Y-100024761D01*
X128861904Y-99977142D01*
X128909523Y-99881904D01*
X128909523Y-99072380D01*
X129290476Y-99072380D02*
X129909523Y-99072380D01*
X129576190Y-99453333D01*
X129719047Y-99453333D01*
X129814285Y-99500952D01*
X129861904Y-99548571D01*
X129909523Y-99643809D01*
X129909523Y-99881904D01*
X129861904Y-99977142D01*
X129814285Y-100024761D01*
X129719047Y-100072380D01*
X129433333Y-100072380D01*
X129338095Y-100024761D01*
X129290476Y-99977142D01*
X139682380Y-99471904D02*
X140491904Y-99471904D01*
X140587142Y-99424285D01*
X140634761Y-99376666D01*
X140682380Y-99281428D01*
X140682380Y-99090952D01*
X140634761Y-98995714D01*
X140587142Y-98948095D01*
X140491904Y-98900476D01*
X139682380Y-98900476D01*
X139777619Y-98471904D02*
X139730000Y-98424285D01*
X139682380Y-98329047D01*
X139682380Y-98090952D01*
X139730000Y-97995714D01*
X139777619Y-97948095D01*
X139872857Y-97900476D01*
X139968095Y-97900476D01*
X140110952Y-97948095D01*
X140682380Y-98519523D01*
X140682380Y-97900476D01*
X152288095Y-87772380D02*
X152288095Y-88581904D01*
X152335714Y-88677142D01*
X152383333Y-88724761D01*
X152478571Y-88772380D01*
X152669047Y-88772380D01*
X152764285Y-88724761D01*
X152811904Y-88677142D01*
X152859523Y-88581904D01*
X152859523Y-87772380D01*
X153859523Y-88772380D02*
X153288095Y-88772380D01*
X153573809Y-88772380D02*
X153573809Y-87772380D01*
X153478571Y-87915238D01*
X153383333Y-88010476D01*
X153288095Y-88058095D01*
X158397142Y-102112380D02*
X158063809Y-101636190D01*
X157825714Y-102112380D02*
X157825714Y-101112380D01*
X158206666Y-101112380D01*
X158301904Y-101160000D01*
X158349523Y-101207619D01*
X158397142Y-101302857D01*
X158397142Y-101445714D01*
X158349523Y-101540952D01*
X158301904Y-101588571D01*
X158206666Y-101636190D01*
X157825714Y-101636190D01*
X158778095Y-101207619D02*
X158825714Y-101160000D01*
X158920952Y-101112380D01*
X159159047Y-101112380D01*
X159254285Y-101160000D01*
X159301904Y-101207619D01*
X159349523Y-101302857D01*
X159349523Y-101398095D01*
X159301904Y-101540952D01*
X158730476Y-102112380D01*
X159349523Y-102112380D01*
X160206666Y-101445714D02*
X160206666Y-102112380D01*
X159968571Y-101064761D02*
X159730476Y-101779047D01*
X160349523Y-101779047D01*
X171082380Y-101802857D02*
X170606190Y-102136190D01*
X171082380Y-102374285D02*
X170082380Y-102374285D01*
X170082380Y-101993333D01*
X170130000Y-101898095D01*
X170177619Y-101850476D01*
X170272857Y-101802857D01*
X170415714Y-101802857D01*
X170510952Y-101850476D01*
X170558571Y-101898095D01*
X170606190Y-101993333D01*
X170606190Y-102374285D01*
X170177619Y-101421904D02*
X170130000Y-101374285D01*
X170082380Y-101279047D01*
X170082380Y-101040952D01*
X170130000Y-100945714D01*
X170177619Y-100898095D01*
X170272857Y-100850476D01*
X170368095Y-100850476D01*
X170510952Y-100898095D01*
X171082380Y-101469523D01*
X171082380Y-100850476D01*
X170082380Y-100517142D02*
X170082380Y-99898095D01*
X170463333Y-100231428D01*
X170463333Y-100088571D01*
X170510952Y-99993333D01*
X170558571Y-99945714D01*
X170653809Y-99898095D01*
X170891904Y-99898095D01*
X170987142Y-99945714D01*
X171034761Y-99993333D01*
X171082380Y-100088571D01*
X171082380Y-100374285D01*
X171034761Y-100469523D01*
X170987142Y-100517142D01*
X174662380Y-101782857D02*
X174186190Y-102116190D01*
X174662380Y-102354285D02*
X173662380Y-102354285D01*
X173662380Y-101973333D01*
X173710000Y-101878095D01*
X173757619Y-101830476D01*
X173852857Y-101782857D01*
X173995714Y-101782857D01*
X174090952Y-101830476D01*
X174138571Y-101878095D01*
X174186190Y-101973333D01*
X174186190Y-102354285D01*
X173757619Y-101401904D02*
X173710000Y-101354285D01*
X173662380Y-101259047D01*
X173662380Y-101020952D01*
X173710000Y-100925714D01*
X173757619Y-100878095D01*
X173852857Y-100830476D01*
X173948095Y-100830476D01*
X174090952Y-100878095D01*
X174662380Y-101449523D01*
X174662380Y-100830476D01*
X173757619Y-100449523D02*
X173710000Y-100401904D01*
X173662380Y-100306666D01*
X173662380Y-100068571D01*
X173710000Y-99973333D01*
X173757619Y-99925714D01*
X173852857Y-99878095D01*
X173948095Y-99878095D01*
X174090952Y-99925714D01*
X174662380Y-100497142D01*
X174662380Y-99878095D01*
X164222380Y-101762857D02*
X163746190Y-102096190D01*
X164222380Y-102334285D02*
X163222380Y-102334285D01*
X163222380Y-101953333D01*
X163270000Y-101858095D01*
X163317619Y-101810476D01*
X163412857Y-101762857D01*
X163555714Y-101762857D01*
X163650952Y-101810476D01*
X163698571Y-101858095D01*
X163746190Y-101953333D01*
X163746190Y-102334285D01*
X163317619Y-101381904D02*
X163270000Y-101334285D01*
X163222380Y-101239047D01*
X163222380Y-101000952D01*
X163270000Y-100905714D01*
X163317619Y-100858095D01*
X163412857Y-100810476D01*
X163508095Y-100810476D01*
X163650952Y-100858095D01*
X164222380Y-101429523D01*
X164222380Y-100810476D01*
X164222380Y-99858095D02*
X164222380Y-100429523D01*
X164222380Y-100143809D02*
X163222380Y-100143809D01*
X163365238Y-100239047D01*
X163460476Y-100334285D01*
X163508095Y-100429523D01*
X167732380Y-101782857D02*
X167256190Y-102116190D01*
X167732380Y-102354285D02*
X166732380Y-102354285D01*
X166732380Y-101973333D01*
X166780000Y-101878095D01*
X166827619Y-101830476D01*
X166922857Y-101782857D01*
X167065714Y-101782857D01*
X167160952Y-101830476D01*
X167208571Y-101878095D01*
X167256190Y-101973333D01*
X167256190Y-102354285D01*
X166827619Y-101401904D02*
X166780000Y-101354285D01*
X166732380Y-101259047D01*
X166732380Y-101020952D01*
X166780000Y-100925714D01*
X166827619Y-100878095D01*
X166922857Y-100830476D01*
X167018095Y-100830476D01*
X167160952Y-100878095D01*
X167732380Y-101449523D01*
X167732380Y-100830476D01*
X166732380Y-100211428D02*
X166732380Y-100116190D01*
X166780000Y-100020952D01*
X166827619Y-99973333D01*
X166922857Y-99925714D01*
X167113333Y-99878095D01*
X167351428Y-99878095D01*
X167541904Y-99925714D01*
X167637142Y-99973333D01*
X167684761Y-100020952D01*
X167732380Y-100116190D01*
X167732380Y-100211428D01*
X167684761Y-100306666D01*
X167637142Y-100354285D01*
X167541904Y-100401904D01*
X167351428Y-100449523D01*
X167113333Y-100449523D01*
X166922857Y-100401904D01*
X166827619Y-100354285D01*
X166780000Y-100306666D01*
X166732380Y-100211428D01*
X178132380Y-101852857D02*
X177656190Y-102186190D01*
X178132380Y-102424285D02*
X177132380Y-102424285D01*
X177132380Y-102043333D01*
X177180000Y-101948095D01*
X177227619Y-101900476D01*
X177322857Y-101852857D01*
X177465714Y-101852857D01*
X177560952Y-101900476D01*
X177608571Y-101948095D01*
X177656190Y-102043333D01*
X177656190Y-102424285D01*
X178132380Y-100900476D02*
X178132380Y-101471904D01*
X178132380Y-101186190D02*
X177132380Y-101186190D01*
X177275238Y-101281428D01*
X177370476Y-101376666D01*
X177418095Y-101471904D01*
X178132380Y-100424285D02*
X178132380Y-100233809D01*
X178084761Y-100138571D01*
X178037142Y-100090952D01*
X177894285Y-99995714D01*
X177703809Y-99948095D01*
X177322857Y-99948095D01*
X177227619Y-99995714D01*
X177180000Y-100043333D01*
X177132380Y-100138571D01*
X177132380Y-100329047D01*
X177180000Y-100424285D01*
X177227619Y-100471904D01*
X177322857Y-100519523D01*
X177560952Y-100519523D01*
X177656190Y-100471904D01*
X177703809Y-100424285D01*
X177751428Y-100329047D01*
X177751428Y-100138571D01*
X177703809Y-100043333D01*
X177656190Y-99995714D01*
X177560952Y-99948095D01*
X181472380Y-101732857D02*
X180996190Y-102066190D01*
X181472380Y-102304285D02*
X180472380Y-102304285D01*
X180472380Y-101923333D01*
X180520000Y-101828095D01*
X180567619Y-101780476D01*
X180662857Y-101732857D01*
X180805714Y-101732857D01*
X180900952Y-101780476D01*
X180948571Y-101828095D01*
X180996190Y-101923333D01*
X180996190Y-102304285D01*
X181472380Y-100780476D02*
X181472380Y-101351904D01*
X181472380Y-101066190D02*
X180472380Y-101066190D01*
X180615238Y-101161428D01*
X180710476Y-101256666D01*
X180758095Y-101351904D01*
X180900952Y-100209047D02*
X180853333Y-100304285D01*
X180805714Y-100351904D01*
X180710476Y-100399523D01*
X180662857Y-100399523D01*
X180567619Y-100351904D01*
X180520000Y-100304285D01*
X180472380Y-100209047D01*
X180472380Y-100018571D01*
X180520000Y-99923333D01*
X180567619Y-99875714D01*
X180662857Y-99828095D01*
X180710476Y-99828095D01*
X180805714Y-99875714D01*
X180853333Y-99923333D01*
X180900952Y-100018571D01*
X180900952Y-100209047D01*
X180948571Y-100304285D01*
X180996190Y-100351904D01*
X181091428Y-100399523D01*
X181281904Y-100399523D01*
X181377142Y-100351904D01*
X181424761Y-100304285D01*
X181472380Y-100209047D01*
X181472380Y-100018571D01*
X181424761Y-99923333D01*
X181377142Y-99875714D01*
X181281904Y-99828095D01*
X181091428Y-99828095D01*
X180996190Y-99875714D01*
X180948571Y-99923333D01*
X180900952Y-100018571D01*
X153112380Y-111542857D02*
X152636190Y-111876190D01*
X153112380Y-112114285D02*
X152112380Y-112114285D01*
X152112380Y-111733333D01*
X152160000Y-111638095D01*
X152207619Y-111590476D01*
X152302857Y-111542857D01*
X152445714Y-111542857D01*
X152540952Y-111590476D01*
X152588571Y-111638095D01*
X152636190Y-111733333D01*
X152636190Y-112114285D01*
X153112380Y-110590476D02*
X153112380Y-111161904D01*
X153112380Y-110876190D02*
X152112380Y-110876190D01*
X152255238Y-110971428D01*
X152350476Y-111066666D01*
X152398095Y-111161904D01*
X152112380Y-110257142D02*
X152112380Y-109590476D01*
X153112380Y-110019047D01*
X120852380Y-106112857D02*
X120376190Y-106446190D01*
X120852380Y-106684285D02*
X119852380Y-106684285D01*
X119852380Y-106303333D01*
X119900000Y-106208095D01*
X119947619Y-106160476D01*
X120042857Y-106112857D01*
X120185714Y-106112857D01*
X120280952Y-106160476D01*
X120328571Y-106208095D01*
X120376190Y-106303333D01*
X120376190Y-106684285D01*
X120852380Y-105160476D02*
X120852380Y-105731904D01*
X120852380Y-105446190D02*
X119852380Y-105446190D01*
X119995238Y-105541428D01*
X120090476Y-105636666D01*
X120138095Y-105731904D01*
X119852380Y-104303333D02*
X119852380Y-104493809D01*
X119900000Y-104589047D01*
X119947619Y-104636666D01*
X120090476Y-104731904D01*
X120280952Y-104779523D01*
X120661904Y-104779523D01*
X120757142Y-104731904D01*
X120804761Y-104684285D01*
X120852380Y-104589047D01*
X120852380Y-104398571D01*
X120804761Y-104303333D01*
X120757142Y-104255714D01*
X120661904Y-104208095D01*
X120423809Y-104208095D01*
X120328571Y-104255714D01*
X120280952Y-104303333D01*
X120233333Y-104398571D01*
X120233333Y-104589047D01*
X120280952Y-104684285D01*
X120328571Y-104731904D01*
X120423809Y-104779523D01*
X116582380Y-106032857D02*
X116106190Y-106366190D01*
X116582380Y-106604285D02*
X115582380Y-106604285D01*
X115582380Y-106223333D01*
X115630000Y-106128095D01*
X115677619Y-106080476D01*
X115772857Y-106032857D01*
X115915714Y-106032857D01*
X116010952Y-106080476D01*
X116058571Y-106128095D01*
X116106190Y-106223333D01*
X116106190Y-106604285D01*
X116582380Y-105080476D02*
X116582380Y-105651904D01*
X116582380Y-105366190D02*
X115582380Y-105366190D01*
X115725238Y-105461428D01*
X115820476Y-105556666D01*
X115868095Y-105651904D01*
X115582380Y-104175714D02*
X115582380Y-104651904D01*
X116058571Y-104699523D01*
X116010952Y-104651904D01*
X115963333Y-104556666D01*
X115963333Y-104318571D01*
X116010952Y-104223333D01*
X116058571Y-104175714D01*
X116153809Y-104128095D01*
X116391904Y-104128095D01*
X116487142Y-104175714D01*
X116534761Y-104223333D01*
X116582380Y-104318571D01*
X116582380Y-104556666D01*
X116534761Y-104651904D01*
X116487142Y-104699523D01*
X137887142Y-95092380D02*
X137553809Y-94616190D01*
X137315714Y-95092380D02*
X137315714Y-94092380D01*
X137696666Y-94092380D01*
X137791904Y-94140000D01*
X137839523Y-94187619D01*
X137887142Y-94282857D01*
X137887142Y-94425714D01*
X137839523Y-94520952D01*
X137791904Y-94568571D01*
X137696666Y-94616190D01*
X137315714Y-94616190D01*
X138839523Y-95092380D02*
X138268095Y-95092380D01*
X138553809Y-95092380D02*
X138553809Y-94092380D01*
X138458571Y-94235238D01*
X138363333Y-94330476D01*
X138268095Y-94378095D01*
X139696666Y-94425714D02*
X139696666Y-95092380D01*
X139458571Y-94044761D02*
X139220476Y-94759047D01*
X139839523Y-94759047D01*
X137917142Y-93552380D02*
X137583809Y-93076190D01*
X137345714Y-93552380D02*
X137345714Y-92552380D01*
X137726666Y-92552380D01*
X137821904Y-92600000D01*
X137869523Y-92647619D01*
X137917142Y-92742857D01*
X137917142Y-92885714D01*
X137869523Y-92980952D01*
X137821904Y-93028571D01*
X137726666Y-93076190D01*
X137345714Y-93076190D01*
X138869523Y-93552380D02*
X138298095Y-93552380D01*
X138583809Y-93552380D02*
X138583809Y-92552380D01*
X138488571Y-92695238D01*
X138393333Y-92790476D01*
X138298095Y-92838095D01*
X139202857Y-92552380D02*
X139821904Y-92552380D01*
X139488571Y-92933333D01*
X139631428Y-92933333D01*
X139726666Y-92980952D01*
X139774285Y-93028571D01*
X139821904Y-93123809D01*
X139821904Y-93361904D01*
X139774285Y-93457142D01*
X139726666Y-93504761D01*
X139631428Y-93552380D01*
X139345714Y-93552380D01*
X139250476Y-93504761D01*
X139202857Y-93457142D01*
X147827142Y-83932380D02*
X147493809Y-83456190D01*
X147255714Y-83932380D02*
X147255714Y-82932380D01*
X147636666Y-82932380D01*
X147731904Y-82980000D01*
X147779523Y-83027619D01*
X147827142Y-83122857D01*
X147827142Y-83265714D01*
X147779523Y-83360952D01*
X147731904Y-83408571D01*
X147636666Y-83456190D01*
X147255714Y-83456190D01*
X148779523Y-83932380D02*
X148208095Y-83932380D01*
X148493809Y-83932380D02*
X148493809Y-82932380D01*
X148398571Y-83075238D01*
X148303333Y-83170476D01*
X148208095Y-83218095D01*
X149160476Y-83027619D02*
X149208095Y-82980000D01*
X149303333Y-82932380D01*
X149541428Y-82932380D01*
X149636666Y-82980000D01*
X149684285Y-83027619D01*
X149731904Y-83122857D01*
X149731904Y-83218095D01*
X149684285Y-83360952D01*
X149112857Y-83932380D01*
X149731904Y-83932380D01*
X150957142Y-86002380D02*
X150623809Y-85526190D01*
X150385714Y-86002380D02*
X150385714Y-85002380D01*
X150766666Y-85002380D01*
X150861904Y-85050000D01*
X150909523Y-85097619D01*
X150957142Y-85192857D01*
X150957142Y-85335714D01*
X150909523Y-85430952D01*
X150861904Y-85478571D01*
X150766666Y-85526190D01*
X150385714Y-85526190D01*
X151909523Y-86002380D02*
X151338095Y-86002380D01*
X151623809Y-86002380D02*
X151623809Y-85002380D01*
X151528571Y-85145238D01*
X151433333Y-85240476D01*
X151338095Y-85288095D01*
X152861904Y-86002380D02*
X152290476Y-86002380D01*
X152576190Y-86002380D02*
X152576190Y-85002380D01*
X152480952Y-85145238D01*
X152385714Y-85240476D01*
X152290476Y-85288095D01*
X147897142Y-96462380D02*
X147563809Y-95986190D01*
X147325714Y-96462380D02*
X147325714Y-95462380D01*
X147706666Y-95462380D01*
X147801904Y-95510000D01*
X147849523Y-95557619D01*
X147897142Y-95652857D01*
X147897142Y-95795714D01*
X147849523Y-95890952D01*
X147801904Y-95938571D01*
X147706666Y-95986190D01*
X147325714Y-95986190D01*
X148849523Y-96462380D02*
X148278095Y-96462380D01*
X148563809Y-96462380D02*
X148563809Y-95462380D01*
X148468571Y-95605238D01*
X148373333Y-95700476D01*
X148278095Y-95748095D01*
X149468571Y-95462380D02*
X149563809Y-95462380D01*
X149659047Y-95510000D01*
X149706666Y-95557619D01*
X149754285Y-95652857D01*
X149801904Y-95843333D01*
X149801904Y-96081428D01*
X149754285Y-96271904D01*
X149706666Y-96367142D01*
X149659047Y-96414761D01*
X149563809Y-96462380D01*
X149468571Y-96462380D01*
X149373333Y-96414761D01*
X149325714Y-96367142D01*
X149278095Y-96271904D01*
X149230476Y-96081428D01*
X149230476Y-95843333D01*
X149278095Y-95652857D01*
X149325714Y-95557619D01*
X149373333Y-95510000D01*
X149468571Y-95462380D01*
X152682380Y-93976666D02*
X152206190Y-94310000D01*
X152682380Y-94548095D02*
X151682380Y-94548095D01*
X151682380Y-94167142D01*
X151730000Y-94071904D01*
X151777619Y-94024285D01*
X151872857Y-93976666D01*
X152015714Y-93976666D01*
X152110952Y-94024285D01*
X152158571Y-94071904D01*
X152206190Y-94167142D01*
X152206190Y-94548095D01*
X152682380Y-93500476D02*
X152682380Y-93310000D01*
X152634761Y-93214761D01*
X152587142Y-93167142D01*
X152444285Y-93071904D01*
X152253809Y-93024285D01*
X151872857Y-93024285D01*
X151777619Y-93071904D01*
X151730000Y-93119523D01*
X151682380Y-93214761D01*
X151682380Y-93405238D01*
X151730000Y-93500476D01*
X151777619Y-93548095D01*
X151872857Y-93595714D01*
X152110952Y-93595714D01*
X152206190Y-93548095D01*
X152253809Y-93500476D01*
X152301428Y-93405238D01*
X152301428Y-93214761D01*
X152253809Y-93119523D01*
X152206190Y-93071904D01*
X152110952Y-93024285D01*
X145023333Y-86722380D02*
X144690000Y-86246190D01*
X144451904Y-86722380D02*
X144451904Y-85722380D01*
X144832857Y-85722380D01*
X144928095Y-85770000D01*
X144975714Y-85817619D01*
X145023333Y-85912857D01*
X145023333Y-86055714D01*
X144975714Y-86150952D01*
X144928095Y-86198571D01*
X144832857Y-86246190D01*
X144451904Y-86246190D01*
X145594761Y-86150952D02*
X145499523Y-86103333D01*
X145451904Y-86055714D01*
X145404285Y-85960476D01*
X145404285Y-85912857D01*
X145451904Y-85817619D01*
X145499523Y-85770000D01*
X145594761Y-85722380D01*
X145785238Y-85722380D01*
X145880476Y-85770000D01*
X145928095Y-85817619D01*
X145975714Y-85912857D01*
X145975714Y-85960476D01*
X145928095Y-86055714D01*
X145880476Y-86103333D01*
X145785238Y-86150952D01*
X145594761Y-86150952D01*
X145499523Y-86198571D01*
X145451904Y-86246190D01*
X145404285Y-86341428D01*
X145404285Y-86531904D01*
X145451904Y-86627142D01*
X145499523Y-86674761D01*
X145594761Y-86722380D01*
X145785238Y-86722380D01*
X145880476Y-86674761D01*
X145928095Y-86627142D01*
X145975714Y-86531904D01*
X145975714Y-86341428D01*
X145928095Y-86246190D01*
X145880476Y-86198571D01*
X145785238Y-86150952D01*
X106373333Y-109082380D02*
X106040000Y-108606190D01*
X105801904Y-109082380D02*
X105801904Y-108082380D01*
X106182857Y-108082380D01*
X106278095Y-108130000D01*
X106325714Y-108177619D01*
X106373333Y-108272857D01*
X106373333Y-108415714D01*
X106325714Y-108510952D01*
X106278095Y-108558571D01*
X106182857Y-108606190D01*
X105801904Y-108606190D01*
X106706666Y-108082380D02*
X107325714Y-108082380D01*
X106992380Y-108463333D01*
X107135238Y-108463333D01*
X107230476Y-108510952D01*
X107278095Y-108558571D01*
X107325714Y-108653809D01*
X107325714Y-108891904D01*
X107278095Y-108987142D01*
X107230476Y-109034761D01*
X107135238Y-109082380D01*
X106849523Y-109082380D01*
X106754285Y-109034761D01*
X106706666Y-108987142D01*
X106483333Y-106942380D02*
X106150000Y-106466190D01*
X105911904Y-106942380D02*
X105911904Y-105942380D01*
X106292857Y-105942380D01*
X106388095Y-105990000D01*
X106435714Y-106037619D01*
X106483333Y-106132857D01*
X106483333Y-106275714D01*
X106435714Y-106370952D01*
X106388095Y-106418571D01*
X106292857Y-106466190D01*
X105911904Y-106466190D01*
X106864285Y-106037619D02*
X106911904Y-105990000D01*
X107007142Y-105942380D01*
X107245238Y-105942380D01*
X107340476Y-105990000D01*
X107388095Y-106037619D01*
X107435714Y-106132857D01*
X107435714Y-106228095D01*
X107388095Y-106370952D01*
X106816666Y-106942380D01*
X107435714Y-106942380D01*
X111163333Y-108612380D02*
X110830000Y-108136190D01*
X110591904Y-108612380D02*
X110591904Y-107612380D01*
X110972857Y-107612380D01*
X111068095Y-107660000D01*
X111115714Y-107707619D01*
X111163333Y-107802857D01*
X111163333Y-107945714D01*
X111115714Y-108040952D01*
X111068095Y-108088571D01*
X110972857Y-108136190D01*
X110591904Y-108136190D01*
X112115714Y-108612380D02*
X111544285Y-108612380D01*
X111830000Y-108612380D02*
X111830000Y-107612380D01*
X111734761Y-107755238D01*
X111639523Y-107850476D01*
X111544285Y-107898095D01*
X124461904Y-123152380D02*
X124461904Y-122152380D01*
X124842857Y-122152380D01*
X124938095Y-122200000D01*
X124985714Y-122247619D01*
X125033333Y-122342857D01*
X125033333Y-122485714D01*
X124985714Y-122580952D01*
X124938095Y-122628571D01*
X124842857Y-122676190D01*
X124461904Y-122676190D01*
X125985714Y-123152380D02*
X125414285Y-123152380D01*
X125700000Y-123152380D02*
X125700000Y-122152380D01*
X125604761Y-122295238D01*
X125509523Y-122390476D01*
X125414285Y-122438095D01*
X129383333Y-108832380D02*
X128907142Y-108832380D01*
X128907142Y-107832380D01*
X130240476Y-108832380D02*
X129669047Y-108832380D01*
X129954761Y-108832380D02*
X129954761Y-107832380D01*
X129859523Y-107975238D01*
X129764285Y-108070476D01*
X129669047Y-108118095D01*
X171910476Y-109592380D02*
X171910476Y-110306666D01*
X171862857Y-110449523D01*
X171767619Y-110544761D01*
X171624761Y-110592380D01*
X171529523Y-110592380D01*
X172910476Y-110592380D02*
X172339047Y-110592380D01*
X172624761Y-110592380D02*
X172624761Y-109592380D01*
X172529523Y-109735238D01*
X172434285Y-109830476D01*
X172339047Y-109878095D01*
X173529523Y-109592380D02*
X173624761Y-109592380D01*
X173720000Y-109640000D01*
X173767619Y-109687619D01*
X173815238Y-109782857D01*
X173862857Y-109973333D01*
X173862857Y-110211428D01*
X173815238Y-110401904D01*
X173767619Y-110497142D01*
X173720000Y-110544761D01*
X173624761Y-110592380D01*
X173529523Y-110592380D01*
X173434285Y-110544761D01*
X173386666Y-110497142D01*
X173339047Y-110401904D01*
X173291428Y-110211428D01*
X173291428Y-109973333D01*
X173339047Y-109782857D01*
X173386666Y-109687619D01*
X173434285Y-109640000D01*
X173529523Y-109592380D01*
X165476666Y-109592380D02*
X165476666Y-110306666D01*
X165429047Y-110449523D01*
X165333809Y-110544761D01*
X165190952Y-110592380D01*
X165095714Y-110592380D01*
X166000476Y-110592380D02*
X166190952Y-110592380D01*
X166286190Y-110544761D01*
X166333809Y-110497142D01*
X166429047Y-110354285D01*
X166476666Y-110163809D01*
X166476666Y-109782857D01*
X166429047Y-109687619D01*
X166381428Y-109640000D01*
X166286190Y-109592380D01*
X166095714Y-109592380D01*
X166000476Y-109640000D01*
X165952857Y-109687619D01*
X165905238Y-109782857D01*
X165905238Y-110020952D01*
X165952857Y-110116190D01*
X166000476Y-110163809D01*
X166095714Y-110211428D01*
X166286190Y-110211428D01*
X166381428Y-110163809D01*
X166429047Y-110116190D01*
X166476666Y-110020952D01*
X179266666Y-109582380D02*
X179266666Y-110296666D01*
X179219047Y-110439523D01*
X179123809Y-110534761D01*
X178980952Y-110582380D01*
X178885714Y-110582380D01*
X179885714Y-110010952D02*
X179790476Y-109963333D01*
X179742857Y-109915714D01*
X179695238Y-109820476D01*
X179695238Y-109772857D01*
X179742857Y-109677619D01*
X179790476Y-109630000D01*
X179885714Y-109582380D01*
X180076190Y-109582380D01*
X180171428Y-109630000D01*
X180219047Y-109677619D01*
X180266666Y-109772857D01*
X180266666Y-109820476D01*
X180219047Y-109915714D01*
X180171428Y-109963333D01*
X180076190Y-110010952D01*
X179885714Y-110010952D01*
X179790476Y-110058571D01*
X179742857Y-110106190D01*
X179695238Y-110201428D01*
X179695238Y-110391904D01*
X179742857Y-110487142D01*
X179790476Y-110534761D01*
X179885714Y-110582380D01*
X180076190Y-110582380D01*
X180171428Y-110534761D01*
X180219047Y-110487142D01*
X180266666Y-110391904D01*
X180266666Y-110201428D01*
X180219047Y-110106190D01*
X180171428Y-110058571D01*
X180076190Y-110010952D01*
X168906666Y-109592380D02*
X168906666Y-110306666D01*
X168859047Y-110449523D01*
X168763809Y-110544761D01*
X168620952Y-110592380D01*
X168525714Y-110592380D01*
X169287619Y-109592380D02*
X169954285Y-109592380D01*
X169525714Y-110592380D01*
X162006666Y-109592380D02*
X162006666Y-110306666D01*
X161959047Y-110449523D01*
X161863809Y-110544761D01*
X161720952Y-110592380D01*
X161625714Y-110592380D01*
X162911428Y-109592380D02*
X162720952Y-109592380D01*
X162625714Y-109640000D01*
X162578095Y-109687619D01*
X162482857Y-109830476D01*
X162435238Y-110020952D01*
X162435238Y-110401904D01*
X162482857Y-110497142D01*
X162530476Y-110544761D01*
X162625714Y-110592380D01*
X162816190Y-110592380D01*
X162911428Y-110544761D01*
X162959047Y-110497142D01*
X163006666Y-110401904D01*
X163006666Y-110163809D01*
X162959047Y-110068571D01*
X162911428Y-110020952D01*
X162816190Y-109973333D01*
X162625714Y-109973333D01*
X162530476Y-110020952D01*
X162482857Y-110068571D01*
X162435238Y-110163809D01*
X175836666Y-109592380D02*
X175836666Y-110306666D01*
X175789047Y-110449523D01*
X175693809Y-110544761D01*
X175550952Y-110592380D01*
X175455714Y-110592380D01*
X176789047Y-109592380D02*
X176312857Y-109592380D01*
X176265238Y-110068571D01*
X176312857Y-110020952D01*
X176408095Y-109973333D01*
X176646190Y-109973333D01*
X176741428Y-110020952D01*
X176789047Y-110068571D01*
X176836666Y-110163809D01*
X176836666Y-110401904D01*
X176789047Y-110497142D01*
X176741428Y-110544761D01*
X176646190Y-110592380D01*
X176408095Y-110592380D01*
X176312857Y-110544761D01*
X176265238Y-110497142D01*
X126866666Y-109752380D02*
X126866666Y-110466666D01*
X126819047Y-110609523D01*
X126723809Y-110704761D01*
X126580952Y-110752380D01*
X126485714Y-110752380D01*
X127771428Y-110085714D02*
X127771428Y-110752380D01*
X127533333Y-109704761D02*
X127295238Y-110419047D01*
X127914285Y-110419047D01*
X113306666Y-89452380D02*
X113306666Y-90166666D01*
X113259047Y-90309523D01*
X113163809Y-90404761D01*
X113020952Y-90452380D01*
X112925714Y-90452380D01*
X113687619Y-89452380D02*
X114306666Y-89452380D01*
X113973333Y-89833333D01*
X114116190Y-89833333D01*
X114211428Y-89880952D01*
X114259047Y-89928571D01*
X114306666Y-90023809D01*
X114306666Y-90261904D01*
X114259047Y-90357142D01*
X114211428Y-90404761D01*
X114116190Y-90452380D01*
X113830476Y-90452380D01*
X113735238Y-90404761D01*
X113687619Y-90357142D01*
X111966666Y-115252380D02*
X111966666Y-115966666D01*
X111919047Y-116109523D01*
X111823809Y-116204761D01*
X111680952Y-116252380D01*
X111585714Y-116252380D01*
X112395238Y-115347619D02*
X112442857Y-115300000D01*
X112538095Y-115252380D01*
X112776190Y-115252380D01*
X112871428Y-115300000D01*
X112919047Y-115347619D01*
X112966666Y-115442857D01*
X112966666Y-115538095D01*
X112919047Y-115680952D01*
X112347619Y-116252380D01*
X112966666Y-116252380D01*
X168797142Y-117482857D02*
X168844761Y-117530476D01*
X168892380Y-117673333D01*
X168892380Y-117768571D01*
X168844761Y-117911428D01*
X168749523Y-118006666D01*
X168654285Y-118054285D01*
X168463809Y-118101904D01*
X168320952Y-118101904D01*
X168130476Y-118054285D01*
X168035238Y-118006666D01*
X167940000Y-117911428D01*
X167892380Y-117768571D01*
X167892380Y-117673333D01*
X167940000Y-117530476D01*
X167987619Y-117482857D01*
X167987619Y-117101904D02*
X167940000Y-117054285D01*
X167892380Y-116959047D01*
X167892380Y-116720952D01*
X167940000Y-116625714D01*
X167987619Y-116578095D01*
X168082857Y-116530476D01*
X168178095Y-116530476D01*
X168320952Y-116578095D01*
X168892380Y-117149523D01*
X168892380Y-116530476D01*
X168320952Y-115959047D02*
X168273333Y-116054285D01*
X168225714Y-116101904D01*
X168130476Y-116149523D01*
X168082857Y-116149523D01*
X167987619Y-116101904D01*
X167940000Y-116054285D01*
X167892380Y-115959047D01*
X167892380Y-115768571D01*
X167940000Y-115673333D01*
X167987619Y-115625714D01*
X168082857Y-115578095D01*
X168130476Y-115578095D01*
X168225714Y-115625714D01*
X168273333Y-115673333D01*
X168320952Y-115768571D01*
X168320952Y-115959047D01*
X168368571Y-116054285D01*
X168416190Y-116101904D01*
X168511428Y-116149523D01*
X168701904Y-116149523D01*
X168797142Y-116101904D01*
X168844761Y-116054285D01*
X168892380Y-115959047D01*
X168892380Y-115768571D01*
X168844761Y-115673333D01*
X168797142Y-115625714D01*
X168701904Y-115578095D01*
X168511428Y-115578095D01*
X168416190Y-115625714D01*
X168368571Y-115673333D01*
X168320952Y-115768571D01*
X166367142Y-117452857D02*
X166414761Y-117500476D01*
X166462380Y-117643333D01*
X166462380Y-117738571D01*
X166414761Y-117881428D01*
X166319523Y-117976666D01*
X166224285Y-118024285D01*
X166033809Y-118071904D01*
X165890952Y-118071904D01*
X165700476Y-118024285D01*
X165605238Y-117976666D01*
X165510000Y-117881428D01*
X165462380Y-117738571D01*
X165462380Y-117643333D01*
X165510000Y-117500476D01*
X165557619Y-117452857D01*
X165557619Y-117071904D02*
X165510000Y-117024285D01*
X165462380Y-116929047D01*
X165462380Y-116690952D01*
X165510000Y-116595714D01*
X165557619Y-116548095D01*
X165652857Y-116500476D01*
X165748095Y-116500476D01*
X165890952Y-116548095D01*
X166462380Y-117119523D01*
X166462380Y-116500476D01*
X165462380Y-116167142D02*
X165462380Y-115500476D01*
X166462380Y-115929047D01*
X171397142Y-117392857D02*
X171444761Y-117440476D01*
X171492380Y-117583333D01*
X171492380Y-117678571D01*
X171444761Y-117821428D01*
X171349523Y-117916666D01*
X171254285Y-117964285D01*
X171063809Y-118011904D01*
X170920952Y-118011904D01*
X170730476Y-117964285D01*
X170635238Y-117916666D01*
X170540000Y-117821428D01*
X170492380Y-117678571D01*
X170492380Y-117583333D01*
X170540000Y-117440476D01*
X170587619Y-117392857D01*
X170587619Y-117011904D02*
X170540000Y-116964285D01*
X170492380Y-116869047D01*
X170492380Y-116630952D01*
X170540000Y-116535714D01*
X170587619Y-116488095D01*
X170682857Y-116440476D01*
X170778095Y-116440476D01*
X170920952Y-116488095D01*
X171492380Y-117059523D01*
X171492380Y-116440476D01*
X170492380Y-115583333D02*
X170492380Y-115773809D01*
X170540000Y-115869047D01*
X170587619Y-115916666D01*
X170730476Y-116011904D01*
X170920952Y-116059523D01*
X171301904Y-116059523D01*
X171397142Y-116011904D01*
X171444761Y-115964285D01*
X171492380Y-115869047D01*
X171492380Y-115678571D01*
X171444761Y-115583333D01*
X171397142Y-115535714D01*
X171301904Y-115488095D01*
X171063809Y-115488095D01*
X170968571Y-115535714D01*
X170920952Y-115583333D01*
X170873333Y-115678571D01*
X170873333Y-115869047D01*
X170920952Y-115964285D01*
X170968571Y-116011904D01*
X171063809Y-116059523D01*
X155717142Y-110687142D02*
X155669523Y-110734761D01*
X155526666Y-110782380D01*
X155431428Y-110782380D01*
X155288571Y-110734761D01*
X155193333Y-110639523D01*
X155145714Y-110544285D01*
X155098095Y-110353809D01*
X155098095Y-110210952D01*
X155145714Y-110020476D01*
X155193333Y-109925238D01*
X155288571Y-109830000D01*
X155431428Y-109782380D01*
X155526666Y-109782380D01*
X155669523Y-109830000D01*
X155717142Y-109877619D01*
X156098095Y-109877619D02*
X156145714Y-109830000D01*
X156240952Y-109782380D01*
X156479047Y-109782380D01*
X156574285Y-109830000D01*
X156621904Y-109877619D01*
X156669523Y-109972857D01*
X156669523Y-110068095D01*
X156621904Y-110210952D01*
X156050476Y-110782380D01*
X156669523Y-110782380D01*
X157574285Y-109782380D02*
X157098095Y-109782380D01*
X157050476Y-110258571D01*
X157098095Y-110210952D01*
X157193333Y-110163333D01*
X157431428Y-110163333D01*
X157526666Y-110210952D01*
X157574285Y-110258571D01*
X157621904Y-110353809D01*
X157621904Y-110591904D01*
X157574285Y-110687142D01*
X157526666Y-110734761D01*
X157431428Y-110782380D01*
X157193333Y-110782380D01*
X157098095Y-110734761D01*
X157050476Y-110687142D01*
X149347142Y-110152857D02*
X149394761Y-110200476D01*
X149442380Y-110343333D01*
X149442380Y-110438571D01*
X149394761Y-110581428D01*
X149299523Y-110676666D01*
X149204285Y-110724285D01*
X149013809Y-110771904D01*
X148870952Y-110771904D01*
X148680476Y-110724285D01*
X148585238Y-110676666D01*
X148490000Y-110581428D01*
X148442380Y-110438571D01*
X148442380Y-110343333D01*
X148490000Y-110200476D01*
X148537619Y-110152857D01*
X148537619Y-109771904D02*
X148490000Y-109724285D01*
X148442380Y-109629047D01*
X148442380Y-109390952D01*
X148490000Y-109295714D01*
X148537619Y-109248095D01*
X148632857Y-109200476D01*
X148728095Y-109200476D01*
X148870952Y-109248095D01*
X149442380Y-109819523D01*
X149442380Y-109200476D01*
X148442380Y-108867142D02*
X148442380Y-108248095D01*
X148823333Y-108581428D01*
X148823333Y-108438571D01*
X148870952Y-108343333D01*
X148918571Y-108295714D01*
X149013809Y-108248095D01*
X149251904Y-108248095D01*
X149347142Y-108295714D01*
X149394761Y-108343333D01*
X149442380Y-108438571D01*
X149442380Y-108724285D01*
X149394761Y-108819523D01*
X149347142Y-108867142D01*
X134787142Y-108407142D02*
X134739523Y-108454761D01*
X134596666Y-108502380D01*
X134501428Y-108502380D01*
X134358571Y-108454761D01*
X134263333Y-108359523D01*
X134215714Y-108264285D01*
X134168095Y-108073809D01*
X134168095Y-107930952D01*
X134215714Y-107740476D01*
X134263333Y-107645238D01*
X134358571Y-107550000D01*
X134501428Y-107502380D01*
X134596666Y-107502380D01*
X134739523Y-107550000D01*
X134787142Y-107597619D01*
X135168095Y-107597619D02*
X135215714Y-107550000D01*
X135310952Y-107502380D01*
X135549047Y-107502380D01*
X135644285Y-107550000D01*
X135691904Y-107597619D01*
X135739523Y-107692857D01*
X135739523Y-107788095D01*
X135691904Y-107930952D01*
X135120476Y-108502380D01*
X135739523Y-108502380D01*
X136358571Y-107502380D02*
X136453809Y-107502380D01*
X136549047Y-107550000D01*
X136596666Y-107597619D01*
X136644285Y-107692857D01*
X136691904Y-107883333D01*
X136691904Y-108121428D01*
X136644285Y-108311904D01*
X136596666Y-108407142D01*
X136549047Y-108454761D01*
X136453809Y-108502380D01*
X136358571Y-108502380D01*
X136263333Y-108454761D01*
X136215714Y-108407142D01*
X136168095Y-108311904D01*
X136120476Y-108121428D01*
X136120476Y-107883333D01*
X136168095Y-107692857D01*
X136215714Y-107597619D01*
X136263333Y-107550000D01*
X136358571Y-107502380D01*
X149727142Y-121077142D02*
X149679523Y-121124761D01*
X149536666Y-121172380D01*
X149441428Y-121172380D01*
X149298571Y-121124761D01*
X149203333Y-121029523D01*
X149155714Y-120934285D01*
X149108095Y-120743809D01*
X149108095Y-120600952D01*
X149155714Y-120410476D01*
X149203333Y-120315238D01*
X149298571Y-120220000D01*
X149441428Y-120172380D01*
X149536666Y-120172380D01*
X149679523Y-120220000D01*
X149727142Y-120267619D01*
X150679523Y-121172380D02*
X150108095Y-121172380D01*
X150393809Y-121172380D02*
X150393809Y-120172380D01*
X150298571Y-120315238D01*
X150203333Y-120410476D01*
X150108095Y-120458095D01*
X151155714Y-121172380D02*
X151346190Y-121172380D01*
X151441428Y-121124761D01*
X151489047Y-121077142D01*
X151584285Y-120934285D01*
X151631904Y-120743809D01*
X151631904Y-120362857D01*
X151584285Y-120267619D01*
X151536666Y-120220000D01*
X151441428Y-120172380D01*
X151250952Y-120172380D01*
X151155714Y-120220000D01*
X151108095Y-120267619D01*
X151060476Y-120362857D01*
X151060476Y-120600952D01*
X151108095Y-120696190D01*
X151155714Y-120743809D01*
X151250952Y-120791428D01*
X151441428Y-120791428D01*
X151536666Y-120743809D01*
X151584285Y-120696190D01*
X151631904Y-120600952D01*
X143397142Y-105347142D02*
X143349523Y-105394761D01*
X143206666Y-105442380D01*
X143111428Y-105442380D01*
X142968571Y-105394761D01*
X142873333Y-105299523D01*
X142825714Y-105204285D01*
X142778095Y-105013809D01*
X142778095Y-104870952D01*
X142825714Y-104680476D01*
X142873333Y-104585238D01*
X142968571Y-104490000D01*
X143111428Y-104442380D01*
X143206666Y-104442380D01*
X143349523Y-104490000D01*
X143397142Y-104537619D01*
X144349523Y-105442380D02*
X143778095Y-105442380D01*
X144063809Y-105442380D02*
X144063809Y-104442380D01*
X143968571Y-104585238D01*
X143873333Y-104680476D01*
X143778095Y-104728095D01*
X144920952Y-104870952D02*
X144825714Y-104823333D01*
X144778095Y-104775714D01*
X144730476Y-104680476D01*
X144730476Y-104632857D01*
X144778095Y-104537619D01*
X144825714Y-104490000D01*
X144920952Y-104442380D01*
X145111428Y-104442380D01*
X145206666Y-104490000D01*
X145254285Y-104537619D01*
X145301904Y-104632857D01*
X145301904Y-104680476D01*
X145254285Y-104775714D01*
X145206666Y-104823333D01*
X145111428Y-104870952D01*
X144920952Y-104870952D01*
X144825714Y-104918571D01*
X144778095Y-104966190D01*
X144730476Y-105061428D01*
X144730476Y-105251904D01*
X144778095Y-105347142D01*
X144825714Y-105394761D01*
X144920952Y-105442380D01*
X145111428Y-105442380D01*
X145206666Y-105394761D01*
X145254285Y-105347142D01*
X145301904Y-105251904D01*
X145301904Y-105061428D01*
X145254285Y-104966190D01*
X145206666Y-104918571D01*
X145111428Y-104870952D01*
X122737142Y-108027142D02*
X122689523Y-108074761D01*
X122546666Y-108122380D01*
X122451428Y-108122380D01*
X122308571Y-108074761D01*
X122213333Y-107979523D01*
X122165714Y-107884285D01*
X122118095Y-107693809D01*
X122118095Y-107550952D01*
X122165714Y-107360476D01*
X122213333Y-107265238D01*
X122308571Y-107170000D01*
X122451428Y-107122380D01*
X122546666Y-107122380D01*
X122689523Y-107170000D01*
X122737142Y-107217619D01*
X123689523Y-108122380D02*
X123118095Y-108122380D01*
X123403809Y-108122380D02*
X123403809Y-107122380D01*
X123308571Y-107265238D01*
X123213333Y-107360476D01*
X123118095Y-107408095D01*
X124641904Y-108122380D02*
X124070476Y-108122380D01*
X124356190Y-108122380D02*
X124356190Y-107122380D01*
X124260952Y-107265238D01*
X124165714Y-107360476D01*
X124070476Y-107408095D01*
X124777142Y-103680357D02*
X124824761Y-103727976D01*
X124872380Y-103870833D01*
X124872380Y-103966071D01*
X124824761Y-104108928D01*
X124729523Y-104204166D01*
X124634285Y-104251785D01*
X124443809Y-104299404D01*
X124300952Y-104299404D01*
X124110476Y-104251785D01*
X124015238Y-104204166D01*
X123920000Y-104108928D01*
X123872380Y-103966071D01*
X123872380Y-103870833D01*
X123920000Y-103727976D01*
X123967619Y-103680357D01*
X124872380Y-102727976D02*
X124872380Y-103299404D01*
X124872380Y-103013690D02*
X123872380Y-103013690D01*
X124015238Y-103108928D01*
X124110476Y-103204166D01*
X124158095Y-103299404D01*
X123872380Y-102108928D02*
X123872380Y-102013690D01*
X123920000Y-101918452D01*
X123967619Y-101870833D01*
X124062857Y-101823214D01*
X124253333Y-101775595D01*
X124491428Y-101775595D01*
X124681904Y-101823214D01*
X124777142Y-101870833D01*
X124824761Y-101918452D01*
X124872380Y-102013690D01*
X124872380Y-102108928D01*
X124824761Y-102204166D01*
X124777142Y-102251785D01*
X124681904Y-102299404D01*
X124491428Y-102347023D01*
X124253333Y-102347023D01*
X124062857Y-102299404D01*
X123967619Y-102251785D01*
X123920000Y-102204166D01*
X123872380Y-102108928D01*
X134693333Y-100817142D02*
X134645714Y-100864761D01*
X134502857Y-100912380D01*
X134407619Y-100912380D01*
X134264761Y-100864761D01*
X134169523Y-100769523D01*
X134121904Y-100674285D01*
X134074285Y-100483809D01*
X134074285Y-100340952D01*
X134121904Y-100150476D01*
X134169523Y-100055238D01*
X134264761Y-99960000D01*
X134407619Y-99912380D01*
X134502857Y-99912380D01*
X134645714Y-99960000D01*
X134693333Y-100007619D01*
X135169523Y-100912380D02*
X135360000Y-100912380D01*
X135455238Y-100864761D01*
X135502857Y-100817142D01*
X135598095Y-100674285D01*
X135645714Y-100483809D01*
X135645714Y-100102857D01*
X135598095Y-100007619D01*
X135550476Y-99960000D01*
X135455238Y-99912380D01*
X135264761Y-99912380D01*
X135169523Y-99960000D01*
X135121904Y-100007619D01*
X135074285Y-100102857D01*
X135074285Y-100340952D01*
X135121904Y-100436190D01*
X135169523Y-100483809D01*
X135264761Y-100531428D01*
X135455238Y-100531428D01*
X135550476Y-100483809D01*
X135598095Y-100436190D01*
X135645714Y-100340952D01*
X136537142Y-97446666D02*
X136584761Y-97494285D01*
X136632380Y-97637142D01*
X136632380Y-97732380D01*
X136584761Y-97875238D01*
X136489523Y-97970476D01*
X136394285Y-98018095D01*
X136203809Y-98065714D01*
X136060952Y-98065714D01*
X135870476Y-98018095D01*
X135775238Y-97970476D01*
X135680000Y-97875238D01*
X135632380Y-97732380D01*
X135632380Y-97637142D01*
X135680000Y-97494285D01*
X135727619Y-97446666D01*
X136060952Y-96875238D02*
X136013333Y-96970476D01*
X135965714Y-97018095D01*
X135870476Y-97065714D01*
X135822857Y-97065714D01*
X135727619Y-97018095D01*
X135680000Y-96970476D01*
X135632380Y-96875238D01*
X135632380Y-96684761D01*
X135680000Y-96589523D01*
X135727619Y-96541904D01*
X135822857Y-96494285D01*
X135870476Y-96494285D01*
X135965714Y-96541904D01*
X136013333Y-96589523D01*
X136060952Y-96684761D01*
X136060952Y-96875238D01*
X136108571Y-96970476D01*
X136156190Y-97018095D01*
X136251428Y-97065714D01*
X136441904Y-97065714D01*
X136537142Y-97018095D01*
X136584761Y-96970476D01*
X136632380Y-96875238D01*
X136632380Y-96684761D01*
X136584761Y-96589523D01*
X136537142Y-96541904D01*
X136441904Y-96494285D01*
X136251428Y-96494285D01*
X136156190Y-96541904D01*
X136108571Y-96589523D01*
X136060952Y-96684761D01*
X145783333Y-94947142D02*
X145735714Y-94994761D01*
X145592857Y-95042380D01*
X145497619Y-95042380D01*
X145354761Y-94994761D01*
X145259523Y-94899523D01*
X145211904Y-94804285D01*
X145164285Y-94613809D01*
X145164285Y-94470952D01*
X145211904Y-94280476D01*
X145259523Y-94185238D01*
X145354761Y-94090000D01*
X145497619Y-94042380D01*
X145592857Y-94042380D01*
X145735714Y-94090000D01*
X145783333Y-94137619D01*
X146116666Y-94042380D02*
X146783333Y-94042380D01*
X146354761Y-95042380D01*
X150903333Y-87297142D02*
X150855714Y-87344761D01*
X150712857Y-87392380D01*
X150617619Y-87392380D01*
X150474761Y-87344761D01*
X150379523Y-87249523D01*
X150331904Y-87154285D01*
X150284285Y-86963809D01*
X150284285Y-86820952D01*
X150331904Y-86630476D01*
X150379523Y-86535238D01*
X150474761Y-86440000D01*
X150617619Y-86392380D01*
X150712857Y-86392380D01*
X150855714Y-86440000D01*
X150903333Y-86487619D01*
X151760476Y-86392380D02*
X151570000Y-86392380D01*
X151474761Y-86440000D01*
X151427142Y-86487619D01*
X151331904Y-86630476D01*
X151284285Y-86820952D01*
X151284285Y-87201904D01*
X151331904Y-87297142D01*
X151379523Y-87344761D01*
X151474761Y-87392380D01*
X151665238Y-87392380D01*
X151760476Y-87344761D01*
X151808095Y-87297142D01*
X151855714Y-87201904D01*
X151855714Y-86963809D01*
X151808095Y-86868571D01*
X151760476Y-86820952D01*
X151665238Y-86773333D01*
X151474761Y-86773333D01*
X151379523Y-86820952D01*
X151331904Y-86868571D01*
X151284285Y-86963809D01*
X129403333Y-93337142D02*
X129355714Y-93384761D01*
X129212857Y-93432380D01*
X129117619Y-93432380D01*
X128974761Y-93384761D01*
X128879523Y-93289523D01*
X128831904Y-93194285D01*
X128784285Y-93003809D01*
X128784285Y-92860952D01*
X128831904Y-92670476D01*
X128879523Y-92575238D01*
X128974761Y-92480000D01*
X129117619Y-92432380D01*
X129212857Y-92432380D01*
X129355714Y-92480000D01*
X129403333Y-92527619D01*
X130308095Y-92432380D02*
X129831904Y-92432380D01*
X129784285Y-92908571D01*
X129831904Y-92860952D01*
X129927142Y-92813333D01*
X130165238Y-92813333D01*
X130260476Y-92860952D01*
X130308095Y-92908571D01*
X130355714Y-93003809D01*
X130355714Y-93241904D01*
X130308095Y-93337142D01*
X130260476Y-93384761D01*
X130165238Y-93432380D01*
X129927142Y-93432380D01*
X129831904Y-93384761D01*
X129784285Y-93337142D01*
X142903333Y-93307142D02*
X142855714Y-93354761D01*
X142712857Y-93402380D01*
X142617619Y-93402380D01*
X142474761Y-93354761D01*
X142379523Y-93259523D01*
X142331904Y-93164285D01*
X142284285Y-92973809D01*
X142284285Y-92830952D01*
X142331904Y-92640476D01*
X142379523Y-92545238D01*
X142474761Y-92450000D01*
X142617619Y-92402380D01*
X142712857Y-92402380D01*
X142855714Y-92450000D01*
X142903333Y-92497619D01*
X143760476Y-92735714D02*
X143760476Y-93402380D01*
X143522380Y-92354761D02*
X143284285Y-93069047D01*
X143903333Y-93069047D01*
X152357142Y-90526666D02*
X152404761Y-90574285D01*
X152452380Y-90717142D01*
X152452380Y-90812380D01*
X152404761Y-90955238D01*
X152309523Y-91050476D01*
X152214285Y-91098095D01*
X152023809Y-91145714D01*
X151880952Y-91145714D01*
X151690476Y-91098095D01*
X151595238Y-91050476D01*
X151500000Y-90955238D01*
X151452380Y-90812380D01*
X151452380Y-90717142D01*
X151500000Y-90574285D01*
X151547619Y-90526666D01*
X151452380Y-90193333D02*
X151452380Y-89574285D01*
X151833333Y-89907619D01*
X151833333Y-89764761D01*
X151880952Y-89669523D01*
X151928571Y-89621904D01*
X152023809Y-89574285D01*
X152261904Y-89574285D01*
X152357142Y-89621904D01*
X152404761Y-89669523D01*
X152452380Y-89764761D01*
X152452380Y-90050476D01*
X152404761Y-90145714D01*
X152357142Y-90193333D01*
X144407142Y-90396666D02*
X144454761Y-90444285D01*
X144502380Y-90587142D01*
X144502380Y-90682380D01*
X144454761Y-90825238D01*
X144359523Y-90920476D01*
X144264285Y-90968095D01*
X144073809Y-91015714D01*
X143930952Y-91015714D01*
X143740476Y-90968095D01*
X143645238Y-90920476D01*
X143550000Y-90825238D01*
X143502380Y-90682380D01*
X143502380Y-90587142D01*
X143550000Y-90444285D01*
X143597619Y-90396666D01*
X143597619Y-90015714D02*
X143550000Y-89968095D01*
X143502380Y-89872857D01*
X143502380Y-89634761D01*
X143550000Y-89539523D01*
X143597619Y-89491904D01*
X143692857Y-89444285D01*
X143788095Y-89444285D01*
X143930952Y-89491904D01*
X144502380Y-90063333D01*
X144502380Y-89444285D01*
%LPC*%
D12*
X139350000Y-132050000D03*
X142350000Y-132050000D03*
D13*
X112930000Y-102435000D03*
D14*
X102255000Y-102485000D03*
D15*
X102130000Y-100035000D03*
X102130000Y-98935000D03*
X102130000Y-97835000D03*
X102130000Y-96735000D03*
X102130000Y-95635000D03*
X102130000Y-94535000D03*
X102130000Y-93435000D03*
D16*
X110505000Y-102835000D03*
D17*
X111355000Y-91210000D03*
D18*
X109855000Y-90885000D03*
D19*
X102255000Y-91135000D03*
D15*
X102130000Y-92335000D03*
G36*
X110956875Y-114222032D02*
G01*
X111029465Y-114270535D01*
X111077968Y-114343125D01*
X111095000Y-114428750D01*
X111095000Y-114951250D01*
X111077968Y-115036875D01*
X111029465Y-115109465D01*
X110956875Y-115157968D01*
X110871250Y-115175000D01*
X110423750Y-115175000D01*
X110338125Y-115157968D01*
X110265535Y-115109465D01*
X110217032Y-115036875D01*
X110200000Y-114951250D01*
X110200000Y-114428750D01*
X110217032Y-114343125D01*
X110265535Y-114270535D01*
X110338125Y-114222032D01*
X110423750Y-114205000D01*
X110871250Y-114205000D01*
X110956875Y-114222032D01*
G37*
G36*
X109381875Y-114222032D02*
G01*
X109454465Y-114270535D01*
X109502968Y-114343125D01*
X109520000Y-114428750D01*
X109520000Y-114951250D01*
X109502968Y-115036875D01*
X109454465Y-115109465D01*
X109381875Y-115157968D01*
X109296250Y-115175000D01*
X108848750Y-115175000D01*
X108763125Y-115157968D01*
X108690535Y-115109465D01*
X108642032Y-115036875D01*
X108625000Y-114951250D01*
X108625000Y-114428750D01*
X108642032Y-114343125D01*
X108690535Y-114270535D01*
X108763125Y-114222032D01*
X108848750Y-114205000D01*
X109296250Y-114205000D01*
X109381875Y-114222032D01*
G37*
G36*
X110946875Y-112752032D02*
G01*
X111019465Y-112800535D01*
X111067968Y-112873125D01*
X111085000Y-112958750D01*
X111085000Y-113481250D01*
X111067968Y-113566875D01*
X111019465Y-113639465D01*
X110946875Y-113687968D01*
X110861250Y-113705000D01*
X110413750Y-113705000D01*
X110328125Y-113687968D01*
X110255535Y-113639465D01*
X110207032Y-113566875D01*
X110190000Y-113481250D01*
X110190000Y-112958750D01*
X110207032Y-112873125D01*
X110255535Y-112800535D01*
X110328125Y-112752032D01*
X110413750Y-112735000D01*
X110861250Y-112735000D01*
X110946875Y-112752032D01*
G37*
G36*
X109371875Y-112752032D02*
G01*
X109444465Y-112800535D01*
X109492968Y-112873125D01*
X109510000Y-112958750D01*
X109510000Y-113481250D01*
X109492968Y-113566875D01*
X109444465Y-113639465D01*
X109371875Y-113687968D01*
X109286250Y-113705000D01*
X108838750Y-113705000D01*
X108753125Y-113687968D01*
X108680535Y-113639465D01*
X108632032Y-113566875D01*
X108615000Y-113481250D01*
X108615000Y-112958750D01*
X108632032Y-112873125D01*
X108680535Y-112800535D01*
X108753125Y-112752032D01*
X108838750Y-112735000D01*
X109286250Y-112735000D01*
X109371875Y-112752032D01*
G37*
G36*
X110946875Y-111302032D02*
G01*
X111019465Y-111350535D01*
X111067968Y-111423125D01*
X111085000Y-111508750D01*
X111085000Y-112031250D01*
X111067968Y-112116875D01*
X111019465Y-112189465D01*
X110946875Y-112237968D01*
X110861250Y-112255000D01*
X110413750Y-112255000D01*
X110328125Y-112237968D01*
X110255535Y-112189465D01*
X110207032Y-112116875D01*
X110190000Y-112031250D01*
X110190000Y-111508750D01*
X110207032Y-111423125D01*
X110255535Y-111350535D01*
X110328125Y-111302032D01*
X110413750Y-111285000D01*
X110861250Y-111285000D01*
X110946875Y-111302032D01*
G37*
G36*
X109371875Y-111302032D02*
G01*
X109444465Y-111350535D01*
X109492968Y-111423125D01*
X109510000Y-111508750D01*
X109510000Y-112031250D01*
X109492968Y-112116875D01*
X109444465Y-112189465D01*
X109371875Y-112237968D01*
X109286250Y-112255000D01*
X108838750Y-112255000D01*
X108753125Y-112237968D01*
X108680535Y-112189465D01*
X108632032Y-112116875D01*
X108615000Y-112031250D01*
X108615000Y-111508750D01*
X108632032Y-111423125D01*
X108680535Y-111350535D01*
X108753125Y-111302032D01*
X108838750Y-111285000D01*
X109286250Y-111285000D01*
X109371875Y-111302032D01*
G37*
G36*
X110946875Y-109842032D02*
G01*
X111019465Y-109890535D01*
X111067968Y-109963125D01*
X111085000Y-110048750D01*
X111085000Y-110571250D01*
X111067968Y-110656875D01*
X111019465Y-110729465D01*
X110946875Y-110777968D01*
X110861250Y-110795000D01*
X110413750Y-110795000D01*
X110328125Y-110777968D01*
X110255535Y-110729465D01*
X110207032Y-110656875D01*
X110190000Y-110571250D01*
X110190000Y-110048750D01*
X110207032Y-109963125D01*
X110255535Y-109890535D01*
X110328125Y-109842032D01*
X110413750Y-109825000D01*
X110861250Y-109825000D01*
X110946875Y-109842032D01*
G37*
G36*
X109371875Y-109842032D02*
G01*
X109444465Y-109890535D01*
X109492968Y-109963125D01*
X109510000Y-110048750D01*
X109510000Y-110571250D01*
X109492968Y-110656875D01*
X109444465Y-110729465D01*
X109371875Y-110777968D01*
X109286250Y-110795000D01*
X108838750Y-110795000D01*
X108753125Y-110777968D01*
X108680535Y-110729465D01*
X108632032Y-110656875D01*
X108615000Y-110571250D01*
X108615000Y-110048750D01*
X108632032Y-109963125D01*
X108680535Y-109890535D01*
X108753125Y-109842032D01*
X108838750Y-109825000D01*
X109286250Y-109825000D01*
X109371875Y-109842032D01*
G37*
G36*
X145140615Y-119046090D02*
G01*
X145166569Y-119063431D01*
X145183910Y-119089385D01*
X145190000Y-119120000D01*
X145190000Y-120530000D01*
X145183910Y-120560615D01*
X145166569Y-120586569D01*
X145140615Y-120603910D01*
X145110000Y-120610000D01*
X144950000Y-120610000D01*
X144919385Y-120603910D01*
X144893431Y-120586569D01*
X144876090Y-120560615D01*
X144870000Y-120530000D01*
X144870000Y-119120000D01*
X144876090Y-119089385D01*
X144893431Y-119063431D01*
X144919385Y-119046090D01*
X144950000Y-119040000D01*
X145110000Y-119040000D01*
X145140615Y-119046090D01*
G37*
G36*
X144640615Y-119046090D02*
G01*
X144666569Y-119063431D01*
X144683910Y-119089385D01*
X144690000Y-119120000D01*
X144690000Y-120530000D01*
X144683910Y-120560615D01*
X144666569Y-120586569D01*
X144640615Y-120603910D01*
X144610000Y-120610000D01*
X144450000Y-120610000D01*
X144419385Y-120603910D01*
X144393431Y-120586569D01*
X144376090Y-120560615D01*
X144370000Y-120530000D01*
X144370000Y-119120000D01*
X144376090Y-119089385D01*
X144393431Y-119063431D01*
X144419385Y-119046090D01*
X144450000Y-119040000D01*
X144610000Y-119040000D01*
X144640615Y-119046090D01*
G37*
G36*
X144140615Y-119046090D02*
G01*
X144166569Y-119063431D01*
X144183910Y-119089385D01*
X144190000Y-119120000D01*
X144190000Y-120530000D01*
X144183910Y-120560615D01*
X144166569Y-120586569D01*
X144140615Y-120603910D01*
X144110000Y-120610000D01*
X143950000Y-120610000D01*
X143919385Y-120603910D01*
X143893431Y-120586569D01*
X143876090Y-120560615D01*
X143870000Y-120530000D01*
X143870000Y-119120000D01*
X143876090Y-119089385D01*
X143893431Y-119063431D01*
X143919385Y-119046090D01*
X143950000Y-119040000D01*
X144110000Y-119040000D01*
X144140615Y-119046090D01*
G37*
G36*
X143640615Y-119046090D02*
G01*
X143666569Y-119063431D01*
X143683910Y-119089385D01*
X143690000Y-119120000D01*
X143690000Y-120530000D01*
X143683910Y-120560615D01*
X143666569Y-120586569D01*
X143640615Y-120603910D01*
X143610000Y-120610000D01*
X143450000Y-120610000D01*
X143419385Y-120603910D01*
X143393431Y-120586569D01*
X143376090Y-120560615D01*
X143370000Y-120530000D01*
X143370000Y-119120000D01*
X143376090Y-119089385D01*
X143393431Y-119063431D01*
X143419385Y-119046090D01*
X143450000Y-119040000D01*
X143610000Y-119040000D01*
X143640615Y-119046090D01*
G37*
G36*
X143140615Y-119046090D02*
G01*
X143166569Y-119063431D01*
X143183910Y-119089385D01*
X143190000Y-119120000D01*
X143190000Y-120530000D01*
X143183910Y-120560615D01*
X143166569Y-120586569D01*
X143140615Y-120603910D01*
X143110000Y-120610000D01*
X142950000Y-120610000D01*
X142919385Y-120603910D01*
X142893431Y-120586569D01*
X142876090Y-120560615D01*
X142870000Y-120530000D01*
X142870000Y-119120000D01*
X142876090Y-119089385D01*
X142893431Y-119063431D01*
X142919385Y-119046090D01*
X142950000Y-119040000D01*
X143110000Y-119040000D01*
X143140615Y-119046090D01*
G37*
G36*
X142640615Y-119046090D02*
G01*
X142666569Y-119063431D01*
X142683910Y-119089385D01*
X142690000Y-119120000D01*
X142690000Y-120530000D01*
X142683910Y-120560615D01*
X142666569Y-120586569D01*
X142640615Y-120603910D01*
X142610000Y-120610000D01*
X142450000Y-120610000D01*
X142419385Y-120603910D01*
X142393431Y-120586569D01*
X142376090Y-120560615D01*
X142370000Y-120530000D01*
X142370000Y-119120000D01*
X142376090Y-119089385D01*
X142393431Y-119063431D01*
X142419385Y-119046090D01*
X142450000Y-119040000D01*
X142610000Y-119040000D01*
X142640615Y-119046090D01*
G37*
G36*
X142140615Y-119046090D02*
G01*
X142166569Y-119063431D01*
X142183910Y-119089385D01*
X142190000Y-119120000D01*
X142190000Y-120530000D01*
X142183910Y-120560615D01*
X142166569Y-120586569D01*
X142140615Y-120603910D01*
X142110000Y-120610000D01*
X141950000Y-120610000D01*
X141919385Y-120603910D01*
X141893431Y-120586569D01*
X141876090Y-120560615D01*
X141870000Y-120530000D01*
X141870000Y-119120000D01*
X141876090Y-119089385D01*
X141893431Y-119063431D01*
X141919385Y-119046090D01*
X141950000Y-119040000D01*
X142110000Y-119040000D01*
X142140615Y-119046090D01*
G37*
G36*
X141640615Y-119046090D02*
G01*
X141666569Y-119063431D01*
X141683910Y-119089385D01*
X141690000Y-119120000D01*
X141690000Y-120530000D01*
X141683910Y-120560615D01*
X141666569Y-120586569D01*
X141640615Y-120603910D01*
X141610000Y-120610000D01*
X141450000Y-120610000D01*
X141419385Y-120603910D01*
X141393431Y-120586569D01*
X141376090Y-120560615D01*
X141370000Y-120530000D01*
X141370000Y-119120000D01*
X141376090Y-119089385D01*
X141393431Y-119063431D01*
X141419385Y-119046090D01*
X141450000Y-119040000D01*
X141610000Y-119040000D01*
X141640615Y-119046090D01*
G37*
G36*
X141140615Y-119046090D02*
G01*
X141166569Y-119063431D01*
X141183910Y-119089385D01*
X141190000Y-119120000D01*
X141190000Y-120530000D01*
X141183910Y-120560615D01*
X141166569Y-120586569D01*
X141140615Y-120603910D01*
X141110000Y-120610000D01*
X140950000Y-120610000D01*
X140919385Y-120603910D01*
X140893431Y-120586569D01*
X140876090Y-120560615D01*
X140870000Y-120530000D01*
X140870000Y-119120000D01*
X140876090Y-119089385D01*
X140893431Y-119063431D01*
X140919385Y-119046090D01*
X140950000Y-119040000D01*
X141110000Y-119040000D01*
X141140615Y-119046090D01*
G37*
G36*
X140640615Y-119046090D02*
G01*
X140666569Y-119063431D01*
X140683910Y-119089385D01*
X140690000Y-119120000D01*
X140690000Y-120530000D01*
X140683910Y-120560615D01*
X140666569Y-120586569D01*
X140640615Y-120603910D01*
X140610000Y-120610000D01*
X140450000Y-120610000D01*
X140419385Y-120603910D01*
X140393431Y-120586569D01*
X140376090Y-120560615D01*
X140370000Y-120530000D01*
X140370000Y-119120000D01*
X140376090Y-119089385D01*
X140393431Y-119063431D01*
X140419385Y-119046090D01*
X140450000Y-119040000D01*
X140610000Y-119040000D01*
X140640615Y-119046090D01*
G37*
G36*
X140140615Y-119046090D02*
G01*
X140166569Y-119063431D01*
X140183910Y-119089385D01*
X140190000Y-119120000D01*
X140190000Y-120530000D01*
X140183910Y-120560615D01*
X140166569Y-120586569D01*
X140140615Y-120603910D01*
X140110000Y-120610000D01*
X139950000Y-120610000D01*
X139919385Y-120603910D01*
X139893431Y-120586569D01*
X139876090Y-120560615D01*
X139870000Y-120530000D01*
X139870000Y-119120000D01*
X139876090Y-119089385D01*
X139893431Y-119063431D01*
X139919385Y-119046090D01*
X139950000Y-119040000D01*
X140110000Y-119040000D01*
X140140615Y-119046090D01*
G37*
G36*
X139640615Y-119046090D02*
G01*
X139666569Y-119063431D01*
X139683910Y-119089385D01*
X139690000Y-119120000D01*
X139690000Y-120530000D01*
X139683910Y-120560615D01*
X139666569Y-120586569D01*
X139640615Y-120603910D01*
X139610000Y-120610000D01*
X139450000Y-120610000D01*
X139419385Y-120603910D01*
X139393431Y-120586569D01*
X139376090Y-120560615D01*
X139370000Y-120530000D01*
X139370000Y-119120000D01*
X139376090Y-119089385D01*
X139393431Y-119063431D01*
X139419385Y-119046090D01*
X139450000Y-119040000D01*
X139610000Y-119040000D01*
X139640615Y-119046090D01*
G37*
G36*
X139140615Y-119046090D02*
G01*
X139166569Y-119063431D01*
X139183910Y-119089385D01*
X139190000Y-119120000D01*
X139190000Y-120530000D01*
X139183910Y-120560615D01*
X139166569Y-120586569D01*
X139140615Y-120603910D01*
X139110000Y-120610000D01*
X138950000Y-120610000D01*
X138919385Y-120603910D01*
X138893431Y-120586569D01*
X138876090Y-120560615D01*
X138870000Y-120530000D01*
X138870000Y-119120000D01*
X138876090Y-119089385D01*
X138893431Y-119063431D01*
X138919385Y-119046090D01*
X138950000Y-119040000D01*
X139110000Y-119040000D01*
X139140615Y-119046090D01*
G37*
G36*
X138640615Y-119046090D02*
G01*
X138666569Y-119063431D01*
X138683910Y-119089385D01*
X138690000Y-119120000D01*
X138690000Y-120530000D01*
X138683910Y-120560615D01*
X138666569Y-120586569D01*
X138640615Y-120603910D01*
X138610000Y-120610000D01*
X138450000Y-120610000D01*
X138419385Y-120603910D01*
X138393431Y-120586569D01*
X138376090Y-120560615D01*
X138370000Y-120530000D01*
X138370000Y-119120000D01*
X138376090Y-119089385D01*
X138393431Y-119063431D01*
X138419385Y-119046090D01*
X138450000Y-119040000D01*
X138610000Y-119040000D01*
X138640615Y-119046090D01*
G37*
G36*
X138140615Y-119046090D02*
G01*
X138166569Y-119063431D01*
X138183910Y-119089385D01*
X138190000Y-119120000D01*
X138190000Y-120530000D01*
X138183910Y-120560615D01*
X138166569Y-120586569D01*
X138140615Y-120603910D01*
X138110000Y-120610000D01*
X137950000Y-120610000D01*
X137919385Y-120603910D01*
X137893431Y-120586569D01*
X137876090Y-120560615D01*
X137870000Y-120530000D01*
X137870000Y-119120000D01*
X137876090Y-119089385D01*
X137893431Y-119063431D01*
X137919385Y-119046090D01*
X137950000Y-119040000D01*
X138110000Y-119040000D01*
X138140615Y-119046090D01*
G37*
G36*
X137640615Y-119046090D02*
G01*
X137666569Y-119063431D01*
X137683910Y-119089385D01*
X137690000Y-119120000D01*
X137690000Y-120530000D01*
X137683910Y-120560615D01*
X137666569Y-120586569D01*
X137640615Y-120603910D01*
X137610000Y-120610000D01*
X137450000Y-120610000D01*
X137419385Y-120603910D01*
X137393431Y-120586569D01*
X137376090Y-120560615D01*
X137370000Y-120530000D01*
X137370000Y-119120000D01*
X137376090Y-119089385D01*
X137393431Y-119063431D01*
X137419385Y-119046090D01*
X137450000Y-119040000D01*
X137610000Y-119040000D01*
X137640615Y-119046090D01*
G37*
G36*
X136340615Y-117746090D02*
G01*
X136366569Y-117763431D01*
X136383910Y-117789385D01*
X136390000Y-117820000D01*
X136390000Y-117980000D01*
X136383910Y-118010615D01*
X136366569Y-118036569D01*
X136340615Y-118053910D01*
X136310000Y-118060000D01*
X134900000Y-118060000D01*
X134869385Y-118053910D01*
X134843431Y-118036569D01*
X134826090Y-118010615D01*
X134820000Y-117980000D01*
X134820000Y-117820000D01*
X134826090Y-117789385D01*
X134843431Y-117763431D01*
X134869385Y-117746090D01*
X134900000Y-117740000D01*
X136310000Y-117740000D01*
X136340615Y-117746090D01*
G37*
G36*
X136340615Y-117246090D02*
G01*
X136366569Y-117263431D01*
X136383910Y-117289385D01*
X136390000Y-117320000D01*
X136390000Y-117480000D01*
X136383910Y-117510615D01*
X136366569Y-117536569D01*
X136340615Y-117553910D01*
X136310000Y-117560000D01*
X134900000Y-117560000D01*
X134869385Y-117553910D01*
X134843431Y-117536569D01*
X134826090Y-117510615D01*
X134820000Y-117480000D01*
X134820000Y-117320000D01*
X134826090Y-117289385D01*
X134843431Y-117263431D01*
X134869385Y-117246090D01*
X134900000Y-117240000D01*
X136310000Y-117240000D01*
X136340615Y-117246090D01*
G37*
G36*
X136340615Y-116746090D02*
G01*
X136366569Y-116763431D01*
X136383910Y-116789385D01*
X136390000Y-116820000D01*
X136390000Y-116980000D01*
X136383910Y-117010615D01*
X136366569Y-117036569D01*
X136340615Y-117053910D01*
X136310000Y-117060000D01*
X134900000Y-117060000D01*
X134869385Y-117053910D01*
X134843431Y-117036569D01*
X134826090Y-117010615D01*
X134820000Y-116980000D01*
X134820000Y-116820000D01*
X134826090Y-116789385D01*
X134843431Y-116763431D01*
X134869385Y-116746090D01*
X134900000Y-116740000D01*
X136310000Y-116740000D01*
X136340615Y-116746090D01*
G37*
G36*
X136340615Y-116246090D02*
G01*
X136366569Y-116263431D01*
X136383910Y-116289385D01*
X136390000Y-116320000D01*
X136390000Y-116480000D01*
X136383910Y-116510615D01*
X136366569Y-116536569D01*
X136340615Y-116553910D01*
X136310000Y-116560000D01*
X134900000Y-116560000D01*
X134869385Y-116553910D01*
X134843431Y-116536569D01*
X134826090Y-116510615D01*
X134820000Y-116480000D01*
X134820000Y-116320000D01*
X134826090Y-116289385D01*
X134843431Y-116263431D01*
X134869385Y-116246090D01*
X134900000Y-116240000D01*
X136310000Y-116240000D01*
X136340615Y-116246090D01*
G37*
G36*
X136340615Y-115746090D02*
G01*
X136366569Y-115763431D01*
X136383910Y-115789385D01*
X136390000Y-115820000D01*
X136390000Y-115980000D01*
X136383910Y-116010615D01*
X136366569Y-116036569D01*
X136340615Y-116053910D01*
X136310000Y-116060000D01*
X134900000Y-116060000D01*
X134869385Y-116053910D01*
X134843431Y-116036569D01*
X134826090Y-116010615D01*
X134820000Y-115980000D01*
X134820000Y-115820000D01*
X134826090Y-115789385D01*
X134843431Y-115763431D01*
X134869385Y-115746090D01*
X134900000Y-115740000D01*
X136310000Y-115740000D01*
X136340615Y-115746090D01*
G37*
G36*
X136340615Y-115246090D02*
G01*
X136366569Y-115263431D01*
X136383910Y-115289385D01*
X136390000Y-115320000D01*
X136390000Y-115480000D01*
X136383910Y-115510615D01*
X136366569Y-115536569D01*
X136340615Y-115553910D01*
X136310000Y-115560000D01*
X134900000Y-115560000D01*
X134869385Y-115553910D01*
X134843431Y-115536569D01*
X134826090Y-115510615D01*
X134820000Y-115480000D01*
X134820000Y-115320000D01*
X134826090Y-115289385D01*
X134843431Y-115263431D01*
X134869385Y-115246090D01*
X134900000Y-115240000D01*
X136310000Y-115240000D01*
X136340615Y-115246090D01*
G37*
G36*
X136340615Y-114746090D02*
G01*
X136366569Y-114763431D01*
X136383910Y-114789385D01*
X136390000Y-114820000D01*
X136390000Y-114980000D01*
X136383910Y-115010615D01*
X136366569Y-115036569D01*
X136340615Y-115053910D01*
X136310000Y-115060000D01*
X134900000Y-115060000D01*
X134869385Y-115053910D01*
X134843431Y-115036569D01*
X134826090Y-115010615D01*
X134820000Y-114980000D01*
X134820000Y-114820000D01*
X134826090Y-114789385D01*
X134843431Y-114763431D01*
X134869385Y-114746090D01*
X134900000Y-114740000D01*
X136310000Y-114740000D01*
X136340615Y-114746090D01*
G37*
G36*
X136340615Y-114246090D02*
G01*
X136366569Y-114263431D01*
X136383910Y-114289385D01*
X136390000Y-114320000D01*
X136390000Y-114480000D01*
X136383910Y-114510615D01*
X136366569Y-114536569D01*
X136340615Y-114553910D01*
X136310000Y-114560000D01*
X134900000Y-114560000D01*
X134869385Y-114553910D01*
X134843431Y-114536569D01*
X134826090Y-114510615D01*
X134820000Y-114480000D01*
X134820000Y-114320000D01*
X134826090Y-114289385D01*
X134843431Y-114263431D01*
X134869385Y-114246090D01*
X134900000Y-114240000D01*
X136310000Y-114240000D01*
X136340615Y-114246090D01*
G37*
G36*
X136340615Y-113746090D02*
G01*
X136366569Y-113763431D01*
X136383910Y-113789385D01*
X136390000Y-113820000D01*
X136390000Y-113980000D01*
X136383910Y-114010615D01*
X136366569Y-114036569D01*
X136340615Y-114053910D01*
X136310000Y-114060000D01*
X134900000Y-114060000D01*
X134869385Y-114053910D01*
X134843431Y-114036569D01*
X134826090Y-114010615D01*
X134820000Y-113980000D01*
X134820000Y-113820000D01*
X134826090Y-113789385D01*
X134843431Y-113763431D01*
X134869385Y-113746090D01*
X134900000Y-113740000D01*
X136310000Y-113740000D01*
X136340615Y-113746090D01*
G37*
G36*
X136340615Y-113246090D02*
G01*
X136366569Y-113263431D01*
X136383910Y-113289385D01*
X136390000Y-113320000D01*
X136390000Y-113480000D01*
X136383910Y-113510615D01*
X136366569Y-113536569D01*
X136340615Y-113553910D01*
X136310000Y-113560000D01*
X134900000Y-113560000D01*
X134869385Y-113553910D01*
X134843431Y-113536569D01*
X134826090Y-113510615D01*
X134820000Y-113480000D01*
X134820000Y-113320000D01*
X134826090Y-113289385D01*
X134843431Y-113263431D01*
X134869385Y-113246090D01*
X134900000Y-113240000D01*
X136310000Y-113240000D01*
X136340615Y-113246090D01*
G37*
G36*
X136340615Y-112746090D02*
G01*
X136366569Y-112763431D01*
X136383910Y-112789385D01*
X136390000Y-112820000D01*
X136390000Y-112980000D01*
X136383910Y-113010615D01*
X136366569Y-113036569D01*
X136340615Y-113053910D01*
X136310000Y-113060000D01*
X134900000Y-113060000D01*
X134869385Y-113053910D01*
X134843431Y-113036569D01*
X134826090Y-113010615D01*
X134820000Y-112980000D01*
X134820000Y-112820000D01*
X134826090Y-112789385D01*
X134843431Y-112763431D01*
X134869385Y-112746090D01*
X134900000Y-112740000D01*
X136310000Y-112740000D01*
X136340615Y-112746090D01*
G37*
G36*
X136340615Y-112246090D02*
G01*
X136366569Y-112263431D01*
X136383910Y-112289385D01*
X136390000Y-112320000D01*
X136390000Y-112480000D01*
X136383910Y-112510615D01*
X136366569Y-112536569D01*
X136340615Y-112553910D01*
X136310000Y-112560000D01*
X134900000Y-112560000D01*
X134869385Y-112553910D01*
X134843431Y-112536569D01*
X134826090Y-112510615D01*
X134820000Y-112480000D01*
X134820000Y-112320000D01*
X134826090Y-112289385D01*
X134843431Y-112263431D01*
X134869385Y-112246090D01*
X134900000Y-112240000D01*
X136310000Y-112240000D01*
X136340615Y-112246090D01*
G37*
G36*
X136340615Y-111746090D02*
G01*
X136366569Y-111763431D01*
X136383910Y-111789385D01*
X136390000Y-111820000D01*
X136390000Y-111980000D01*
X136383910Y-112010615D01*
X136366569Y-112036569D01*
X136340615Y-112053910D01*
X136310000Y-112060000D01*
X134900000Y-112060000D01*
X134869385Y-112053910D01*
X134843431Y-112036569D01*
X134826090Y-112010615D01*
X134820000Y-111980000D01*
X134820000Y-111820000D01*
X134826090Y-111789385D01*
X134843431Y-111763431D01*
X134869385Y-111746090D01*
X134900000Y-111740000D01*
X136310000Y-111740000D01*
X136340615Y-111746090D01*
G37*
G36*
X136340615Y-111246090D02*
G01*
X136366569Y-111263431D01*
X136383910Y-111289385D01*
X136390000Y-111320000D01*
X136390000Y-111480000D01*
X136383910Y-111510615D01*
X136366569Y-111536569D01*
X136340615Y-111553910D01*
X136310000Y-111560000D01*
X134900000Y-111560000D01*
X134869385Y-111553910D01*
X134843431Y-111536569D01*
X134826090Y-111510615D01*
X134820000Y-111480000D01*
X134820000Y-111320000D01*
X134826090Y-111289385D01*
X134843431Y-111263431D01*
X134869385Y-111246090D01*
X134900000Y-111240000D01*
X136310000Y-111240000D01*
X136340615Y-111246090D01*
G37*
G36*
X136340615Y-110746090D02*
G01*
X136366569Y-110763431D01*
X136383910Y-110789385D01*
X136390000Y-110820000D01*
X136390000Y-110980000D01*
X136383910Y-111010615D01*
X136366569Y-111036569D01*
X136340615Y-111053910D01*
X136310000Y-111060000D01*
X134900000Y-111060000D01*
X134869385Y-111053910D01*
X134843431Y-111036569D01*
X134826090Y-111010615D01*
X134820000Y-110980000D01*
X134820000Y-110820000D01*
X134826090Y-110789385D01*
X134843431Y-110763431D01*
X134869385Y-110746090D01*
X134900000Y-110740000D01*
X136310000Y-110740000D01*
X136340615Y-110746090D01*
G37*
G36*
X136340615Y-110246090D02*
G01*
X136366569Y-110263431D01*
X136383910Y-110289385D01*
X136390000Y-110320000D01*
X136390000Y-110480000D01*
X136383910Y-110510615D01*
X136366569Y-110536569D01*
X136340615Y-110553910D01*
X136310000Y-110560000D01*
X134900000Y-110560000D01*
X134869385Y-110553910D01*
X134843431Y-110536569D01*
X134826090Y-110510615D01*
X134820000Y-110480000D01*
X134820000Y-110320000D01*
X134826090Y-110289385D01*
X134843431Y-110263431D01*
X134869385Y-110246090D01*
X134900000Y-110240000D01*
X136310000Y-110240000D01*
X136340615Y-110246090D01*
G37*
G36*
X137640615Y-107696090D02*
G01*
X137666569Y-107713431D01*
X137683910Y-107739385D01*
X137690000Y-107770000D01*
X137690000Y-109180000D01*
X137683910Y-109210615D01*
X137666569Y-109236569D01*
X137640615Y-109253910D01*
X137610000Y-109260000D01*
X137450000Y-109260000D01*
X137419385Y-109253910D01*
X137393431Y-109236569D01*
X137376090Y-109210615D01*
X137370000Y-109180000D01*
X137370000Y-107770000D01*
X137376090Y-107739385D01*
X137393431Y-107713431D01*
X137419385Y-107696090D01*
X137450000Y-107690000D01*
X137610000Y-107690000D01*
X137640615Y-107696090D01*
G37*
G36*
X138140615Y-107696090D02*
G01*
X138166569Y-107713431D01*
X138183910Y-107739385D01*
X138190000Y-107770000D01*
X138190000Y-109180000D01*
X138183910Y-109210615D01*
X138166569Y-109236569D01*
X138140615Y-109253910D01*
X138110000Y-109260000D01*
X137950000Y-109260000D01*
X137919385Y-109253910D01*
X137893431Y-109236569D01*
X137876090Y-109210615D01*
X137870000Y-109180000D01*
X137870000Y-107770000D01*
X137876090Y-107739385D01*
X137893431Y-107713431D01*
X137919385Y-107696090D01*
X137950000Y-107690000D01*
X138110000Y-107690000D01*
X138140615Y-107696090D01*
G37*
G36*
X138640615Y-107696090D02*
G01*
X138666569Y-107713431D01*
X138683910Y-107739385D01*
X138690000Y-107770000D01*
X138690000Y-109180000D01*
X138683910Y-109210615D01*
X138666569Y-109236569D01*
X138640615Y-109253910D01*
X138610000Y-109260000D01*
X138450000Y-109260000D01*
X138419385Y-109253910D01*
X138393431Y-109236569D01*
X138376090Y-109210615D01*
X138370000Y-109180000D01*
X138370000Y-107770000D01*
X138376090Y-107739385D01*
X138393431Y-107713431D01*
X138419385Y-107696090D01*
X138450000Y-107690000D01*
X138610000Y-107690000D01*
X138640615Y-107696090D01*
G37*
G36*
X139140615Y-107696090D02*
G01*
X139166569Y-107713431D01*
X139183910Y-107739385D01*
X139190000Y-107770000D01*
X139190000Y-109180000D01*
X139183910Y-109210615D01*
X139166569Y-109236569D01*
X139140615Y-109253910D01*
X139110000Y-109260000D01*
X138950000Y-109260000D01*
X138919385Y-109253910D01*
X138893431Y-109236569D01*
X138876090Y-109210615D01*
X138870000Y-109180000D01*
X138870000Y-107770000D01*
X138876090Y-107739385D01*
X138893431Y-107713431D01*
X138919385Y-107696090D01*
X138950000Y-107690000D01*
X139110000Y-107690000D01*
X139140615Y-107696090D01*
G37*
G36*
X139640615Y-107696090D02*
G01*
X139666569Y-107713431D01*
X139683910Y-107739385D01*
X139690000Y-107770000D01*
X139690000Y-109180000D01*
X139683910Y-109210615D01*
X139666569Y-109236569D01*
X139640615Y-109253910D01*
X139610000Y-109260000D01*
X139450000Y-109260000D01*
X139419385Y-109253910D01*
X139393431Y-109236569D01*
X139376090Y-109210615D01*
X139370000Y-109180000D01*
X139370000Y-107770000D01*
X139376090Y-107739385D01*
X139393431Y-107713431D01*
X139419385Y-107696090D01*
X139450000Y-107690000D01*
X139610000Y-107690000D01*
X139640615Y-107696090D01*
G37*
G36*
X140140615Y-107696090D02*
G01*
X140166569Y-107713431D01*
X140183910Y-107739385D01*
X140190000Y-107770000D01*
X140190000Y-109180000D01*
X140183910Y-109210615D01*
X140166569Y-109236569D01*
X140140615Y-109253910D01*
X140110000Y-109260000D01*
X139950000Y-109260000D01*
X139919385Y-109253910D01*
X139893431Y-109236569D01*
X139876090Y-109210615D01*
X139870000Y-109180000D01*
X139870000Y-107770000D01*
X139876090Y-107739385D01*
X139893431Y-107713431D01*
X139919385Y-107696090D01*
X139950000Y-107690000D01*
X140110000Y-107690000D01*
X140140615Y-107696090D01*
G37*
G36*
X140640615Y-107696090D02*
G01*
X140666569Y-107713431D01*
X140683910Y-107739385D01*
X140690000Y-107770000D01*
X140690000Y-109180000D01*
X140683910Y-109210615D01*
X140666569Y-109236569D01*
X140640615Y-109253910D01*
X140610000Y-109260000D01*
X140450000Y-109260000D01*
X140419385Y-109253910D01*
X140393431Y-109236569D01*
X140376090Y-109210615D01*
X140370000Y-109180000D01*
X140370000Y-107770000D01*
X140376090Y-107739385D01*
X140393431Y-107713431D01*
X140419385Y-107696090D01*
X140450000Y-107690000D01*
X140610000Y-107690000D01*
X140640615Y-107696090D01*
G37*
G36*
X141140615Y-107696090D02*
G01*
X141166569Y-107713431D01*
X141183910Y-107739385D01*
X141190000Y-107770000D01*
X141190000Y-109180000D01*
X141183910Y-109210615D01*
X141166569Y-109236569D01*
X141140615Y-109253910D01*
X141110000Y-109260000D01*
X140950000Y-109260000D01*
X140919385Y-109253910D01*
X140893431Y-109236569D01*
X140876090Y-109210615D01*
X140870000Y-109180000D01*
X140870000Y-107770000D01*
X140876090Y-107739385D01*
X140893431Y-107713431D01*
X140919385Y-107696090D01*
X140950000Y-107690000D01*
X141110000Y-107690000D01*
X141140615Y-107696090D01*
G37*
G36*
X141640615Y-107696090D02*
G01*
X141666569Y-107713431D01*
X141683910Y-107739385D01*
X141690000Y-107770000D01*
X141690000Y-109180000D01*
X141683910Y-109210615D01*
X141666569Y-109236569D01*
X141640615Y-109253910D01*
X141610000Y-109260000D01*
X141450000Y-109260000D01*
X141419385Y-109253910D01*
X141393431Y-109236569D01*
X141376090Y-109210615D01*
X141370000Y-109180000D01*
X141370000Y-107770000D01*
X141376090Y-107739385D01*
X141393431Y-107713431D01*
X141419385Y-107696090D01*
X141450000Y-107690000D01*
X141610000Y-107690000D01*
X141640615Y-107696090D01*
G37*
G36*
X142140615Y-107696090D02*
G01*
X142166569Y-107713431D01*
X142183910Y-107739385D01*
X142190000Y-107770000D01*
X142190000Y-109180000D01*
X142183910Y-109210615D01*
X142166569Y-109236569D01*
X142140615Y-109253910D01*
X142110000Y-109260000D01*
X141950000Y-109260000D01*
X141919385Y-109253910D01*
X141893431Y-109236569D01*
X141876090Y-109210615D01*
X141870000Y-109180000D01*
X141870000Y-107770000D01*
X141876090Y-107739385D01*
X141893431Y-107713431D01*
X141919385Y-107696090D01*
X141950000Y-107690000D01*
X142110000Y-107690000D01*
X142140615Y-107696090D01*
G37*
G36*
X142640615Y-107696090D02*
G01*
X142666569Y-107713431D01*
X142683910Y-107739385D01*
X142690000Y-107770000D01*
X142690000Y-109180000D01*
X142683910Y-109210615D01*
X142666569Y-109236569D01*
X142640615Y-109253910D01*
X142610000Y-109260000D01*
X142450000Y-109260000D01*
X142419385Y-109253910D01*
X142393431Y-109236569D01*
X142376090Y-109210615D01*
X142370000Y-109180000D01*
X142370000Y-107770000D01*
X142376090Y-107739385D01*
X142393431Y-107713431D01*
X142419385Y-107696090D01*
X142450000Y-107690000D01*
X142610000Y-107690000D01*
X142640615Y-107696090D01*
G37*
G36*
X143140615Y-107696090D02*
G01*
X143166569Y-107713431D01*
X143183910Y-107739385D01*
X143190000Y-107770000D01*
X143190000Y-109180000D01*
X143183910Y-109210615D01*
X143166569Y-109236569D01*
X143140615Y-109253910D01*
X143110000Y-109260000D01*
X142950000Y-109260000D01*
X142919385Y-109253910D01*
X142893431Y-109236569D01*
X142876090Y-109210615D01*
X142870000Y-109180000D01*
X142870000Y-107770000D01*
X142876090Y-107739385D01*
X142893431Y-107713431D01*
X142919385Y-107696090D01*
X142950000Y-107690000D01*
X143110000Y-107690000D01*
X143140615Y-107696090D01*
G37*
G36*
X143640615Y-107696090D02*
G01*
X143666569Y-107713431D01*
X143683910Y-107739385D01*
X143690000Y-107770000D01*
X143690000Y-109180000D01*
X143683910Y-109210615D01*
X143666569Y-109236569D01*
X143640615Y-109253910D01*
X143610000Y-109260000D01*
X143450000Y-109260000D01*
X143419385Y-109253910D01*
X143393431Y-109236569D01*
X143376090Y-109210615D01*
X143370000Y-109180000D01*
X143370000Y-107770000D01*
X143376090Y-107739385D01*
X143393431Y-107713431D01*
X143419385Y-107696090D01*
X143450000Y-107690000D01*
X143610000Y-107690000D01*
X143640615Y-107696090D01*
G37*
G36*
X144140615Y-107696090D02*
G01*
X144166569Y-107713431D01*
X144183910Y-107739385D01*
X144190000Y-107770000D01*
X144190000Y-109180000D01*
X144183910Y-109210615D01*
X144166569Y-109236569D01*
X144140615Y-109253910D01*
X144110000Y-109260000D01*
X143950000Y-109260000D01*
X143919385Y-109253910D01*
X143893431Y-109236569D01*
X143876090Y-109210615D01*
X143870000Y-109180000D01*
X143870000Y-107770000D01*
X143876090Y-107739385D01*
X143893431Y-107713431D01*
X143919385Y-107696090D01*
X143950000Y-107690000D01*
X144110000Y-107690000D01*
X144140615Y-107696090D01*
G37*
G36*
X144640615Y-107696090D02*
G01*
X144666569Y-107713431D01*
X144683910Y-107739385D01*
X144690000Y-107770000D01*
X144690000Y-109180000D01*
X144683910Y-109210615D01*
X144666569Y-109236569D01*
X144640615Y-109253910D01*
X144610000Y-109260000D01*
X144450000Y-109260000D01*
X144419385Y-109253910D01*
X144393431Y-109236569D01*
X144376090Y-109210615D01*
X144370000Y-109180000D01*
X144370000Y-107770000D01*
X144376090Y-107739385D01*
X144393431Y-107713431D01*
X144419385Y-107696090D01*
X144450000Y-107690000D01*
X144610000Y-107690000D01*
X144640615Y-107696090D01*
G37*
G36*
X145140615Y-107696090D02*
G01*
X145166569Y-107713431D01*
X145183910Y-107739385D01*
X145190000Y-107770000D01*
X145190000Y-109180000D01*
X145183910Y-109210615D01*
X145166569Y-109236569D01*
X145140615Y-109253910D01*
X145110000Y-109260000D01*
X144950000Y-109260000D01*
X144919385Y-109253910D01*
X144893431Y-109236569D01*
X144876090Y-109210615D01*
X144870000Y-109180000D01*
X144870000Y-107770000D01*
X144876090Y-107739385D01*
X144893431Y-107713431D01*
X144919385Y-107696090D01*
X144950000Y-107690000D01*
X145110000Y-107690000D01*
X145140615Y-107696090D01*
G37*
G36*
X147690615Y-110246090D02*
G01*
X147716569Y-110263431D01*
X147733910Y-110289385D01*
X147740000Y-110320000D01*
X147740000Y-110480000D01*
X147733910Y-110510615D01*
X147716569Y-110536569D01*
X147690615Y-110553910D01*
X147660000Y-110560000D01*
X146250000Y-110560000D01*
X146219385Y-110553910D01*
X146193431Y-110536569D01*
X146176090Y-110510615D01*
X146170000Y-110480000D01*
X146170000Y-110320000D01*
X146176090Y-110289385D01*
X146193431Y-110263431D01*
X146219385Y-110246090D01*
X146250000Y-110240000D01*
X147660000Y-110240000D01*
X147690615Y-110246090D01*
G37*
G36*
X147690615Y-110746090D02*
G01*
X147716569Y-110763431D01*
X147733910Y-110789385D01*
X147740000Y-110820000D01*
X147740000Y-110980000D01*
X147733910Y-111010615D01*
X147716569Y-111036569D01*
X147690615Y-111053910D01*
X147660000Y-111060000D01*
X146250000Y-111060000D01*
X146219385Y-111053910D01*
X146193431Y-111036569D01*
X146176090Y-111010615D01*
X146170000Y-110980000D01*
X146170000Y-110820000D01*
X146176090Y-110789385D01*
X146193431Y-110763431D01*
X146219385Y-110746090D01*
X146250000Y-110740000D01*
X147660000Y-110740000D01*
X147690615Y-110746090D01*
G37*
G36*
X147690615Y-111246090D02*
G01*
X147716569Y-111263431D01*
X147733910Y-111289385D01*
X147740000Y-111320000D01*
X147740000Y-111480000D01*
X147733910Y-111510615D01*
X147716569Y-111536569D01*
X147690615Y-111553910D01*
X147660000Y-111560000D01*
X146250000Y-111560000D01*
X146219385Y-111553910D01*
X146193431Y-111536569D01*
X146176090Y-111510615D01*
X146170000Y-111480000D01*
X146170000Y-111320000D01*
X146176090Y-111289385D01*
X146193431Y-111263431D01*
X146219385Y-111246090D01*
X146250000Y-111240000D01*
X147660000Y-111240000D01*
X147690615Y-111246090D01*
G37*
G36*
X147690615Y-111746090D02*
G01*
X147716569Y-111763431D01*
X147733910Y-111789385D01*
X147740000Y-111820000D01*
X147740000Y-111980000D01*
X147733910Y-112010615D01*
X147716569Y-112036569D01*
X147690615Y-112053910D01*
X147660000Y-112060000D01*
X146250000Y-112060000D01*
X146219385Y-112053910D01*
X146193431Y-112036569D01*
X146176090Y-112010615D01*
X146170000Y-111980000D01*
X146170000Y-111820000D01*
X146176090Y-111789385D01*
X146193431Y-111763431D01*
X146219385Y-111746090D01*
X146250000Y-111740000D01*
X147660000Y-111740000D01*
X147690615Y-111746090D01*
G37*
G36*
X147690615Y-112246090D02*
G01*
X147716569Y-112263431D01*
X147733910Y-112289385D01*
X147740000Y-112320000D01*
X147740000Y-112480000D01*
X147733910Y-112510615D01*
X147716569Y-112536569D01*
X147690615Y-112553910D01*
X147660000Y-112560000D01*
X146250000Y-112560000D01*
X146219385Y-112553910D01*
X146193431Y-112536569D01*
X146176090Y-112510615D01*
X146170000Y-112480000D01*
X146170000Y-112320000D01*
X146176090Y-112289385D01*
X146193431Y-112263431D01*
X146219385Y-112246090D01*
X146250000Y-112240000D01*
X147660000Y-112240000D01*
X147690615Y-112246090D01*
G37*
G36*
X147690615Y-112746090D02*
G01*
X147716569Y-112763431D01*
X147733910Y-112789385D01*
X147740000Y-112820000D01*
X147740000Y-112980000D01*
X147733910Y-113010615D01*
X147716569Y-113036569D01*
X147690615Y-113053910D01*
X147660000Y-113060000D01*
X146250000Y-113060000D01*
X146219385Y-113053910D01*
X146193431Y-113036569D01*
X146176090Y-113010615D01*
X146170000Y-112980000D01*
X146170000Y-112820000D01*
X146176090Y-112789385D01*
X146193431Y-112763431D01*
X146219385Y-112746090D01*
X146250000Y-112740000D01*
X147660000Y-112740000D01*
X147690615Y-112746090D01*
G37*
G36*
X147690615Y-113246090D02*
G01*
X147716569Y-113263431D01*
X147733910Y-113289385D01*
X147740000Y-113320000D01*
X147740000Y-113480000D01*
X147733910Y-113510615D01*
X147716569Y-113536569D01*
X147690615Y-113553910D01*
X147660000Y-113560000D01*
X146250000Y-113560000D01*
X146219385Y-113553910D01*
X146193431Y-113536569D01*
X146176090Y-113510615D01*
X146170000Y-113480000D01*
X146170000Y-113320000D01*
X146176090Y-113289385D01*
X146193431Y-113263431D01*
X146219385Y-113246090D01*
X146250000Y-113240000D01*
X147660000Y-113240000D01*
X147690615Y-113246090D01*
G37*
G36*
X147690615Y-113746090D02*
G01*
X147716569Y-113763431D01*
X147733910Y-113789385D01*
X147740000Y-113820000D01*
X147740000Y-113980000D01*
X147733910Y-114010615D01*
X147716569Y-114036569D01*
X147690615Y-114053910D01*
X147660000Y-114060000D01*
X146250000Y-114060000D01*
X146219385Y-114053910D01*
X146193431Y-114036569D01*
X146176090Y-114010615D01*
X146170000Y-113980000D01*
X146170000Y-113820000D01*
X146176090Y-113789385D01*
X146193431Y-113763431D01*
X146219385Y-113746090D01*
X146250000Y-113740000D01*
X147660000Y-113740000D01*
X147690615Y-113746090D01*
G37*
G36*
X147690615Y-114246090D02*
G01*
X147716569Y-114263431D01*
X147733910Y-114289385D01*
X147740000Y-114320000D01*
X147740000Y-114480000D01*
X147733910Y-114510615D01*
X147716569Y-114536569D01*
X147690615Y-114553910D01*
X147660000Y-114560000D01*
X146250000Y-114560000D01*
X146219385Y-114553910D01*
X146193431Y-114536569D01*
X146176090Y-114510615D01*
X146170000Y-114480000D01*
X146170000Y-114320000D01*
X146176090Y-114289385D01*
X146193431Y-114263431D01*
X146219385Y-114246090D01*
X146250000Y-114240000D01*
X147660000Y-114240000D01*
X147690615Y-114246090D01*
G37*
G36*
X147690615Y-114746090D02*
G01*
X147716569Y-114763431D01*
X147733910Y-114789385D01*
X147740000Y-114820000D01*
X147740000Y-114980000D01*
X147733910Y-115010615D01*
X147716569Y-115036569D01*
X147690615Y-115053910D01*
X147660000Y-115060000D01*
X146250000Y-115060000D01*
X146219385Y-115053910D01*
X146193431Y-115036569D01*
X146176090Y-115010615D01*
X146170000Y-114980000D01*
X146170000Y-114820000D01*
X146176090Y-114789385D01*
X146193431Y-114763431D01*
X146219385Y-114746090D01*
X146250000Y-114740000D01*
X147660000Y-114740000D01*
X147690615Y-114746090D01*
G37*
G36*
X147690615Y-115246090D02*
G01*
X147716569Y-115263431D01*
X147733910Y-115289385D01*
X147740000Y-115320000D01*
X147740000Y-115480000D01*
X147733910Y-115510615D01*
X147716569Y-115536569D01*
X147690615Y-115553910D01*
X147660000Y-115560000D01*
X146250000Y-115560000D01*
X146219385Y-115553910D01*
X146193431Y-115536569D01*
X146176090Y-115510615D01*
X146170000Y-115480000D01*
X146170000Y-115320000D01*
X146176090Y-115289385D01*
X146193431Y-115263431D01*
X146219385Y-115246090D01*
X146250000Y-115240000D01*
X147660000Y-115240000D01*
X147690615Y-115246090D01*
G37*
G36*
X147690615Y-115746090D02*
G01*
X147716569Y-115763431D01*
X147733910Y-115789385D01*
X147740000Y-115820000D01*
X147740000Y-115980000D01*
X147733910Y-116010615D01*
X147716569Y-116036569D01*
X147690615Y-116053910D01*
X147660000Y-116060000D01*
X146250000Y-116060000D01*
X146219385Y-116053910D01*
X146193431Y-116036569D01*
X146176090Y-116010615D01*
X146170000Y-115980000D01*
X146170000Y-115820000D01*
X146176090Y-115789385D01*
X146193431Y-115763431D01*
X146219385Y-115746090D01*
X146250000Y-115740000D01*
X147660000Y-115740000D01*
X147690615Y-115746090D01*
G37*
G36*
X147690615Y-116246090D02*
G01*
X147716569Y-116263431D01*
X147733910Y-116289385D01*
X147740000Y-116320000D01*
X147740000Y-116480000D01*
X147733910Y-116510615D01*
X147716569Y-116536569D01*
X147690615Y-116553910D01*
X147660000Y-116560000D01*
X146250000Y-116560000D01*
X146219385Y-116553910D01*
X146193431Y-116536569D01*
X146176090Y-116510615D01*
X146170000Y-116480000D01*
X146170000Y-116320000D01*
X146176090Y-116289385D01*
X146193431Y-116263431D01*
X146219385Y-116246090D01*
X146250000Y-116240000D01*
X147660000Y-116240000D01*
X147690615Y-116246090D01*
G37*
G36*
X147690615Y-116746090D02*
G01*
X147716569Y-116763431D01*
X147733910Y-116789385D01*
X147740000Y-116820000D01*
X147740000Y-116980000D01*
X147733910Y-117010615D01*
X147716569Y-117036569D01*
X147690615Y-117053910D01*
X147660000Y-117060000D01*
X146250000Y-117060000D01*
X146219385Y-117053910D01*
X146193431Y-117036569D01*
X146176090Y-117010615D01*
X146170000Y-116980000D01*
X146170000Y-116820000D01*
X146176090Y-116789385D01*
X146193431Y-116763431D01*
X146219385Y-116746090D01*
X146250000Y-116740000D01*
X147660000Y-116740000D01*
X147690615Y-116746090D01*
G37*
G36*
X147690615Y-117246090D02*
G01*
X147716569Y-117263431D01*
X147733910Y-117289385D01*
X147740000Y-117320000D01*
X147740000Y-117480000D01*
X147733910Y-117510615D01*
X147716569Y-117536569D01*
X147690615Y-117553910D01*
X147660000Y-117560000D01*
X146250000Y-117560000D01*
X146219385Y-117553910D01*
X146193431Y-117536569D01*
X146176090Y-117510615D01*
X146170000Y-117480000D01*
X146170000Y-117320000D01*
X146176090Y-117289385D01*
X146193431Y-117263431D01*
X146219385Y-117246090D01*
X146250000Y-117240000D01*
X147660000Y-117240000D01*
X147690615Y-117246090D01*
G37*
G36*
X147690615Y-117746090D02*
G01*
X147716569Y-117763431D01*
X147733910Y-117789385D01*
X147740000Y-117820000D01*
X147740000Y-117980000D01*
X147733910Y-118010615D01*
X147716569Y-118036569D01*
X147690615Y-118053910D01*
X147660000Y-118060000D01*
X146250000Y-118060000D01*
X146219385Y-118053910D01*
X146193431Y-118036569D01*
X146176090Y-118010615D01*
X146170000Y-117980000D01*
X146170000Y-117820000D01*
X146176090Y-117789385D01*
X146193431Y-117763431D01*
X146219385Y-117746090D01*
X146250000Y-117740000D01*
X147660000Y-117740000D01*
X147690615Y-117746090D01*
G37*
G36*
X140446875Y-99157032D02*
G01*
X140519465Y-99205535D01*
X140567968Y-99278125D01*
X140585000Y-99363750D01*
X140585000Y-99811250D01*
X140567968Y-99896875D01*
X140519465Y-99969465D01*
X140446875Y-100017968D01*
X140361250Y-100035000D01*
X139838750Y-100035000D01*
X139753125Y-100017968D01*
X139680535Y-99969465D01*
X139632032Y-99896875D01*
X139615000Y-99811250D01*
X139615000Y-99363750D01*
X139632032Y-99278125D01*
X139680535Y-99205535D01*
X139753125Y-99157032D01*
X139838750Y-99140000D01*
X140361250Y-99140000D01*
X140446875Y-99157032D01*
G37*
G36*
X140446875Y-97582032D02*
G01*
X140519465Y-97630535D01*
X140567968Y-97703125D01*
X140585000Y-97788750D01*
X140585000Y-98236250D01*
X140567968Y-98321875D01*
X140519465Y-98394465D01*
X140446875Y-98442968D01*
X140361250Y-98460000D01*
X139838750Y-98460000D01*
X139753125Y-98442968D01*
X139680535Y-98394465D01*
X139632032Y-98321875D01*
X139615000Y-98236250D01*
X139615000Y-97788750D01*
X139632032Y-97703125D01*
X139680535Y-97630535D01*
X139753125Y-97582032D01*
X139838750Y-97565000D01*
X140361250Y-97565000D01*
X140446875Y-97582032D01*
G37*
G36*
X137941875Y-104412032D02*
G01*
X138014465Y-104460535D01*
X138062968Y-104533125D01*
X138080000Y-104618750D01*
X138080000Y-105141250D01*
X138062968Y-105226875D01*
X138014465Y-105299465D01*
X137941875Y-105347968D01*
X137856250Y-105365000D01*
X137408750Y-105365000D01*
X137323125Y-105347968D01*
X137250535Y-105299465D01*
X137202032Y-105226875D01*
X137185000Y-105141250D01*
X137185000Y-104618750D01*
X137202032Y-104533125D01*
X137250535Y-104460535D01*
X137323125Y-104412032D01*
X137408750Y-104395000D01*
X137856250Y-104395000D01*
X137941875Y-104412032D01*
G37*
G36*
X139516875Y-104412032D02*
G01*
X139589465Y-104460535D01*
X139637968Y-104533125D01*
X139655000Y-104618750D01*
X139655000Y-105141250D01*
X139637968Y-105226875D01*
X139589465Y-105299465D01*
X139516875Y-105347968D01*
X139431250Y-105365000D01*
X138983750Y-105365000D01*
X138898125Y-105347968D01*
X138825535Y-105299465D01*
X138777032Y-105226875D01*
X138760000Y-105141250D01*
X138760000Y-104618750D01*
X138777032Y-104533125D01*
X138825535Y-104460535D01*
X138898125Y-104412032D01*
X138983750Y-104395000D01*
X139431250Y-104395000D01*
X139516875Y-104412032D01*
G37*
G36*
X137941875Y-102944032D02*
G01*
X138014465Y-102992535D01*
X138062968Y-103065125D01*
X138080000Y-103150750D01*
X138080000Y-103673250D01*
X138062968Y-103758875D01*
X138014465Y-103831465D01*
X137941875Y-103879968D01*
X137856250Y-103897000D01*
X137408750Y-103897000D01*
X137323125Y-103879968D01*
X137250535Y-103831465D01*
X137202032Y-103758875D01*
X137185000Y-103673250D01*
X137185000Y-103150750D01*
X137202032Y-103065125D01*
X137250535Y-102992535D01*
X137323125Y-102944032D01*
X137408750Y-102927000D01*
X137856250Y-102927000D01*
X137941875Y-102944032D01*
G37*
G36*
X139516875Y-102944032D02*
G01*
X139589465Y-102992535D01*
X139637968Y-103065125D01*
X139655000Y-103150750D01*
X139655000Y-103673250D01*
X139637968Y-103758875D01*
X139589465Y-103831465D01*
X139516875Y-103879968D01*
X139431250Y-103897000D01*
X138983750Y-103897000D01*
X138898125Y-103879968D01*
X138825535Y-103831465D01*
X138777032Y-103758875D01*
X138760000Y-103673250D01*
X138760000Y-103150750D01*
X138777032Y-103065125D01*
X138825535Y-102992535D01*
X138898125Y-102944032D01*
X138983750Y-102927000D01*
X139431250Y-102927000D01*
X139516875Y-102944032D01*
G37*
G36*
X136558875Y-104412032D02*
G01*
X136631465Y-104460535D01*
X136679968Y-104533125D01*
X136697000Y-104618750D01*
X136697000Y-105141250D01*
X136679968Y-105226875D01*
X136631465Y-105299465D01*
X136558875Y-105347968D01*
X136473250Y-105365000D01*
X136025750Y-105365000D01*
X135940125Y-105347968D01*
X135867535Y-105299465D01*
X135819032Y-105226875D01*
X135802000Y-105141250D01*
X135802000Y-104618750D01*
X135819032Y-104533125D01*
X135867535Y-104460535D01*
X135940125Y-104412032D01*
X136025750Y-104395000D01*
X136473250Y-104395000D01*
X136558875Y-104412032D01*
G37*
G36*
X134983875Y-104412032D02*
G01*
X135056465Y-104460535D01*
X135104968Y-104533125D01*
X135122000Y-104618750D01*
X135122000Y-105141250D01*
X135104968Y-105226875D01*
X135056465Y-105299465D01*
X134983875Y-105347968D01*
X134898250Y-105365000D01*
X134450750Y-105365000D01*
X134365125Y-105347968D01*
X134292535Y-105299465D01*
X134244032Y-105226875D01*
X134227000Y-105141250D01*
X134227000Y-104618750D01*
X134244032Y-104533125D01*
X134292535Y-104460535D01*
X134365125Y-104412032D01*
X134450750Y-104395000D01*
X134898250Y-104395000D01*
X134983875Y-104412032D01*
G37*
G36*
X136546875Y-102944032D02*
G01*
X136619465Y-102992535D01*
X136667968Y-103065125D01*
X136685000Y-103150750D01*
X136685000Y-103673250D01*
X136667968Y-103758875D01*
X136619465Y-103831465D01*
X136546875Y-103879968D01*
X136461250Y-103897000D01*
X136013750Y-103897000D01*
X135928125Y-103879968D01*
X135855535Y-103831465D01*
X135807032Y-103758875D01*
X135790000Y-103673250D01*
X135790000Y-103150750D01*
X135807032Y-103065125D01*
X135855535Y-102992535D01*
X135928125Y-102944032D01*
X136013750Y-102927000D01*
X136461250Y-102927000D01*
X136546875Y-102944032D01*
G37*
G36*
X134971875Y-102944032D02*
G01*
X135044465Y-102992535D01*
X135092968Y-103065125D01*
X135110000Y-103150750D01*
X135110000Y-103673250D01*
X135092968Y-103758875D01*
X135044465Y-103831465D01*
X134971875Y-103879968D01*
X134886250Y-103897000D01*
X134438750Y-103897000D01*
X134353125Y-103879968D01*
X134280535Y-103831465D01*
X134232032Y-103758875D01*
X134215000Y-103673250D01*
X134215000Y-103150750D01*
X134232032Y-103065125D01*
X134280535Y-102992535D01*
X134353125Y-102944032D01*
X134438750Y-102927000D01*
X134886250Y-102927000D01*
X134971875Y-102944032D01*
G37*
D20*
X103000000Y-117000000D03*
X103000000Y-84000000D03*
X178000000Y-84000000D03*
X178000000Y-117000000D03*
D21*
X122900000Y-98300000D03*
D22*
X122900000Y-93300000D03*
D23*
X169500000Y-126700000D03*
X179500000Y-126700000D03*
D24*
X172000000Y-130000000D03*
X174500000Y-130000000D03*
X177000000Y-130000000D03*
D23*
X124500000Y-126700000D03*
X134500000Y-126700000D03*
D24*
X127000000Y-130000000D03*
X129500000Y-130000000D03*
X132000000Y-130000000D03*
D23*
X147000000Y-126700000D03*
X157000000Y-126700000D03*
D24*
X149500000Y-130000000D03*
X152000000Y-130000000D03*
X154500000Y-130000000D03*
D23*
X102000000Y-126700000D03*
X112000000Y-126700000D03*
D24*
X104500000Y-130000000D03*
X107000000Y-130000000D03*
X109500000Y-130000000D03*
D25*
X149270000Y-117180000D03*
X149270000Y-113880000D03*
X151270000Y-113880000D03*
X151270000Y-117180000D03*
G36*
X157414316Y-98106799D02*
G01*
X157464602Y-98140398D01*
X157498201Y-98190684D01*
X157510000Y-98250000D01*
X157510000Y-98560000D01*
X157498201Y-98619316D01*
X157464602Y-98669602D01*
X157414316Y-98703201D01*
X157355000Y-98715000D01*
X155695000Y-98715000D01*
X155635684Y-98703201D01*
X155585398Y-98669602D01*
X155551799Y-98619316D01*
X155540000Y-98560000D01*
X155540000Y-98250000D01*
X155551799Y-98190684D01*
X155585398Y-98140398D01*
X155635684Y-98106799D01*
X155695000Y-98095000D01*
X157355000Y-98095000D01*
X157414316Y-98106799D01*
G37*
G36*
X157414316Y-96836799D02*
G01*
X157464602Y-96870398D01*
X157498201Y-96920684D01*
X157510000Y-96980000D01*
X157510000Y-97290000D01*
X157498201Y-97349316D01*
X157464602Y-97399602D01*
X157414316Y-97433201D01*
X157355000Y-97445000D01*
X155695000Y-97445000D01*
X155635684Y-97433201D01*
X155585398Y-97399602D01*
X155551799Y-97349316D01*
X155540000Y-97290000D01*
X155540000Y-96980000D01*
X155551799Y-96920684D01*
X155585398Y-96870398D01*
X155635684Y-96836799D01*
X155695000Y-96825000D01*
X157355000Y-96825000D01*
X157414316Y-96836799D01*
G37*
G36*
X157414316Y-95566799D02*
G01*
X157464602Y-95600398D01*
X157498201Y-95650684D01*
X157510000Y-95710000D01*
X157510000Y-96020000D01*
X157498201Y-96079316D01*
X157464602Y-96129602D01*
X157414316Y-96163201D01*
X157355000Y-96175000D01*
X155695000Y-96175000D01*
X155635684Y-96163201D01*
X155585398Y-96129602D01*
X155551799Y-96079316D01*
X155540000Y-96020000D01*
X155540000Y-95710000D01*
X155551799Y-95650684D01*
X155585398Y-95600398D01*
X155635684Y-95566799D01*
X155695000Y-95555000D01*
X157355000Y-95555000D01*
X157414316Y-95566799D01*
G37*
G36*
X157414316Y-94296799D02*
G01*
X157464602Y-94330398D01*
X157498201Y-94380684D01*
X157510000Y-94440000D01*
X157510000Y-94750000D01*
X157498201Y-94809316D01*
X157464602Y-94859602D01*
X157414316Y-94893201D01*
X157355000Y-94905000D01*
X155695000Y-94905000D01*
X155635684Y-94893201D01*
X155585398Y-94859602D01*
X155551799Y-94809316D01*
X155540000Y-94750000D01*
X155540000Y-94440000D01*
X155551799Y-94380684D01*
X155585398Y-94330398D01*
X155635684Y-94296799D01*
X155695000Y-94285000D01*
X157355000Y-94285000D01*
X157414316Y-94296799D01*
G37*
G36*
X162364316Y-94296799D02*
G01*
X162414602Y-94330398D01*
X162448201Y-94380684D01*
X162460000Y-94440000D01*
X162460000Y-94750000D01*
X162448201Y-94809316D01*
X162414602Y-94859602D01*
X162364316Y-94893201D01*
X162305000Y-94905000D01*
X160645000Y-94905000D01*
X160585684Y-94893201D01*
X160535398Y-94859602D01*
X160501799Y-94809316D01*
X160490000Y-94750000D01*
X160490000Y-94440000D01*
X160501799Y-94380684D01*
X160535398Y-94330398D01*
X160585684Y-94296799D01*
X160645000Y-94285000D01*
X162305000Y-94285000D01*
X162364316Y-94296799D01*
G37*
G36*
X162364316Y-95566799D02*
G01*
X162414602Y-95600398D01*
X162448201Y-95650684D01*
X162460000Y-95710000D01*
X162460000Y-96020000D01*
X162448201Y-96079316D01*
X162414602Y-96129602D01*
X162364316Y-96163201D01*
X162305000Y-96175000D01*
X160645000Y-96175000D01*
X160585684Y-96163201D01*
X160535398Y-96129602D01*
X160501799Y-96079316D01*
X160490000Y-96020000D01*
X160490000Y-95710000D01*
X160501799Y-95650684D01*
X160535398Y-95600398D01*
X160585684Y-95566799D01*
X160645000Y-95555000D01*
X162305000Y-95555000D01*
X162364316Y-95566799D01*
G37*
G36*
X162364316Y-96836799D02*
G01*
X162414602Y-96870398D01*
X162448201Y-96920684D01*
X162460000Y-96980000D01*
X162460000Y-97290000D01*
X162448201Y-97349316D01*
X162414602Y-97399602D01*
X162364316Y-97433201D01*
X162305000Y-97445000D01*
X160645000Y-97445000D01*
X160585684Y-97433201D01*
X160535398Y-97399602D01*
X160501799Y-97349316D01*
X160490000Y-97290000D01*
X160490000Y-96980000D01*
X160501799Y-96920684D01*
X160535398Y-96870398D01*
X160585684Y-96836799D01*
X160645000Y-96825000D01*
X162305000Y-96825000D01*
X162364316Y-96836799D01*
G37*
G36*
X162364316Y-98106799D02*
G01*
X162414602Y-98140398D01*
X162448201Y-98190684D01*
X162460000Y-98250000D01*
X162460000Y-98560000D01*
X162448201Y-98619316D01*
X162414602Y-98669602D01*
X162364316Y-98703201D01*
X162305000Y-98715000D01*
X160645000Y-98715000D01*
X160585684Y-98703201D01*
X160535398Y-98669602D01*
X160501799Y-98619316D01*
X160490000Y-98560000D01*
X160490000Y-98250000D01*
X160501799Y-98190684D01*
X160535398Y-98140398D01*
X160585684Y-98106799D01*
X160645000Y-98095000D01*
X162305000Y-98095000D01*
X162364316Y-98106799D01*
G37*
D26*
X155850000Y-119125000D03*
X155850000Y-118475000D03*
X155850000Y-117825000D03*
X155850000Y-117175000D03*
X155850000Y-116525000D03*
X155850000Y-115875000D03*
X155850000Y-115225000D03*
X155850000Y-114575000D03*
X155850000Y-113925000D03*
X155850000Y-113275000D03*
X161750000Y-113275000D03*
X161750000Y-113925000D03*
X161750000Y-114575000D03*
X161750000Y-115225000D03*
X161750000Y-115875000D03*
X161750000Y-116525000D03*
X161750000Y-117175000D03*
X161750000Y-117825000D03*
X161750000Y-118475000D03*
X161750000Y-119125000D03*
G36*
X133284749Y-98199896D02*
G01*
X133326924Y-98228076D01*
X133355104Y-98270251D01*
X133365000Y-98320000D01*
X133365000Y-99705000D01*
X133355104Y-99754749D01*
X133326924Y-99796924D01*
X133284749Y-99825104D01*
X133235000Y-99835000D01*
X132975000Y-99835000D01*
X132925251Y-99825104D01*
X132883076Y-99796924D01*
X132854896Y-99754749D01*
X132845000Y-99705000D01*
X132845000Y-98320000D01*
X132854896Y-98270251D01*
X132883076Y-98228076D01*
X132925251Y-98199896D01*
X132975000Y-98190000D01*
X133235000Y-98190000D01*
X133284749Y-98199896D01*
G37*
G36*
X132634749Y-98199896D02*
G01*
X132676924Y-98228076D01*
X132705104Y-98270251D01*
X132715000Y-98320000D01*
X132715000Y-99705000D01*
X132705104Y-99754749D01*
X132676924Y-99796924D01*
X132634749Y-99825104D01*
X132585000Y-99835000D01*
X132325000Y-99835000D01*
X132275251Y-99825104D01*
X132233076Y-99796924D01*
X132204896Y-99754749D01*
X132195000Y-99705000D01*
X132195000Y-98320000D01*
X132204896Y-98270251D01*
X132233076Y-98228076D01*
X132275251Y-98199896D01*
X132325000Y-98190000D01*
X132585000Y-98190000D01*
X132634749Y-98199896D01*
G37*
G36*
X131984749Y-98199896D02*
G01*
X132026924Y-98228076D01*
X132055104Y-98270251D01*
X132065000Y-98320000D01*
X132065000Y-99705000D01*
X132055104Y-99754749D01*
X132026924Y-99796924D01*
X131984749Y-99825104D01*
X131935000Y-99835000D01*
X131675000Y-99835000D01*
X131625251Y-99825104D01*
X131583076Y-99796924D01*
X131554896Y-99754749D01*
X131545000Y-99705000D01*
X131545000Y-98320000D01*
X131554896Y-98270251D01*
X131583076Y-98228076D01*
X131625251Y-98199896D01*
X131675000Y-98190000D01*
X131935000Y-98190000D01*
X131984749Y-98199896D01*
G37*
G36*
X131334749Y-98199896D02*
G01*
X131376924Y-98228076D01*
X131405104Y-98270251D01*
X131415000Y-98320000D01*
X131415000Y-99705000D01*
X131405104Y-99754749D01*
X131376924Y-99796924D01*
X131334749Y-99825104D01*
X131285000Y-99835000D01*
X131025000Y-99835000D01*
X130975251Y-99825104D01*
X130933076Y-99796924D01*
X130904896Y-99754749D01*
X130895000Y-99705000D01*
X130895000Y-98320000D01*
X130904896Y-98270251D01*
X130933076Y-98228076D01*
X130975251Y-98199896D01*
X131025000Y-98190000D01*
X131285000Y-98190000D01*
X131334749Y-98199896D01*
G37*
G36*
X131334749Y-93974896D02*
G01*
X131376924Y-94003076D01*
X131405104Y-94045251D01*
X131415000Y-94095000D01*
X131415000Y-95480000D01*
X131405104Y-95529749D01*
X131376924Y-95571924D01*
X131334749Y-95600104D01*
X131285000Y-95610000D01*
X131025000Y-95610000D01*
X130975251Y-95600104D01*
X130933076Y-95571924D01*
X130904896Y-95529749D01*
X130895000Y-95480000D01*
X130895000Y-94095000D01*
X130904896Y-94045251D01*
X130933076Y-94003076D01*
X130975251Y-93974896D01*
X131025000Y-93965000D01*
X131285000Y-93965000D01*
X131334749Y-93974896D01*
G37*
G36*
X131984749Y-93974896D02*
G01*
X132026924Y-94003076D01*
X132055104Y-94045251D01*
X132065000Y-94095000D01*
X132065000Y-95480000D01*
X132055104Y-95529749D01*
X132026924Y-95571924D01*
X131984749Y-95600104D01*
X131935000Y-95610000D01*
X131675000Y-95610000D01*
X131625251Y-95600104D01*
X131583076Y-95571924D01*
X131554896Y-95529749D01*
X131545000Y-95480000D01*
X131545000Y-94095000D01*
X131554896Y-94045251D01*
X131583076Y-94003076D01*
X131625251Y-93974896D01*
X131675000Y-93965000D01*
X131935000Y-93965000D01*
X131984749Y-93974896D01*
G37*
G36*
X132634749Y-93974896D02*
G01*
X132676924Y-94003076D01*
X132705104Y-94045251D01*
X132715000Y-94095000D01*
X132715000Y-95480000D01*
X132705104Y-95529749D01*
X132676924Y-95571924D01*
X132634749Y-95600104D01*
X132585000Y-95610000D01*
X132325000Y-95610000D01*
X132275251Y-95600104D01*
X132233076Y-95571924D01*
X132204896Y-95529749D01*
X132195000Y-95480000D01*
X132195000Y-94095000D01*
X132204896Y-94045251D01*
X132233076Y-94003076D01*
X132275251Y-93974896D01*
X132325000Y-93965000D01*
X132585000Y-93965000D01*
X132634749Y-93974896D01*
G37*
G36*
X133284749Y-93974896D02*
G01*
X133326924Y-94003076D01*
X133355104Y-94045251D01*
X133365000Y-94095000D01*
X133365000Y-95480000D01*
X133355104Y-95529749D01*
X133326924Y-95571924D01*
X133284749Y-95600104D01*
X133235000Y-95610000D01*
X132975000Y-95610000D01*
X132925251Y-95600104D01*
X132883076Y-95571924D01*
X132854896Y-95529749D01*
X132845000Y-95480000D01*
X132845000Y-94095000D01*
X132854896Y-94045251D01*
X132883076Y-94003076D01*
X132925251Y-93974896D01*
X132975000Y-93965000D01*
X133235000Y-93965000D01*
X133284749Y-93974896D01*
G37*
D27*
X142730000Y-97710000D03*
X143680000Y-99710000D03*
X141780000Y-99710000D03*
D28*
X147860000Y-90440000D03*
D29*
X148810000Y-89190000D03*
X148810000Y-89690000D03*
X148810000Y-90190000D03*
X148810000Y-90690000D03*
X148810000Y-91190000D03*
X148810000Y-91690000D03*
X146910000Y-91690000D03*
X146910000Y-91190000D03*
X146910000Y-90690000D03*
X146910000Y-90190000D03*
X146910000Y-89690000D03*
X146910000Y-89190000D03*
G36*
X160084375Y-99732032D02*
G01*
X160156965Y-99780535D01*
X160205468Y-99853125D01*
X160222500Y-99938750D01*
X160222500Y-100461250D01*
X160205468Y-100546875D01*
X160156965Y-100619465D01*
X160084375Y-100667968D01*
X159998750Y-100685000D01*
X159551250Y-100685000D01*
X159465625Y-100667968D01*
X159393035Y-100619465D01*
X159344532Y-100546875D01*
X159327500Y-100461250D01*
X159327500Y-99938750D01*
X159344532Y-99853125D01*
X159393035Y-99780535D01*
X159465625Y-99732032D01*
X159551250Y-99715000D01*
X159998750Y-99715000D01*
X160084375Y-99732032D01*
G37*
G36*
X158509375Y-99732032D02*
G01*
X158581965Y-99780535D01*
X158630468Y-99853125D01*
X158647500Y-99938750D01*
X158647500Y-100461250D01*
X158630468Y-100546875D01*
X158581965Y-100619465D01*
X158509375Y-100667968D01*
X158423750Y-100685000D01*
X157976250Y-100685000D01*
X157890625Y-100667968D01*
X157818035Y-100619465D01*
X157769532Y-100546875D01*
X157752500Y-100461250D01*
X157752500Y-99938750D01*
X157769532Y-99853125D01*
X157818035Y-99780535D01*
X157890625Y-99732032D01*
X157976250Y-99715000D01*
X158423750Y-99715000D01*
X158509375Y-99732032D01*
G37*
G36*
X169546875Y-101517032D02*
G01*
X169619465Y-101565535D01*
X169667968Y-101638125D01*
X169685000Y-101723750D01*
X169685000Y-102171250D01*
X169667968Y-102256875D01*
X169619465Y-102329465D01*
X169546875Y-102377968D01*
X169461250Y-102395000D01*
X168938750Y-102395000D01*
X168853125Y-102377968D01*
X168780535Y-102329465D01*
X168732032Y-102256875D01*
X168715000Y-102171250D01*
X168715000Y-101723750D01*
X168732032Y-101638125D01*
X168780535Y-101565535D01*
X168853125Y-101517032D01*
X168938750Y-101500000D01*
X169461250Y-101500000D01*
X169546875Y-101517032D01*
G37*
G36*
X169546875Y-99942032D02*
G01*
X169619465Y-99990535D01*
X169667968Y-100063125D01*
X169685000Y-100148750D01*
X169685000Y-100596250D01*
X169667968Y-100681875D01*
X169619465Y-100754465D01*
X169546875Y-100802968D01*
X169461250Y-100820000D01*
X168938750Y-100820000D01*
X168853125Y-100802968D01*
X168780535Y-100754465D01*
X168732032Y-100681875D01*
X168715000Y-100596250D01*
X168715000Y-100148750D01*
X168732032Y-100063125D01*
X168780535Y-99990535D01*
X168853125Y-99942032D01*
X168938750Y-99925000D01*
X169461250Y-99925000D01*
X169546875Y-99942032D01*
G37*
G36*
X173096875Y-99982032D02*
G01*
X173169465Y-100030535D01*
X173217968Y-100103125D01*
X173235000Y-100188750D01*
X173235000Y-100636250D01*
X173217968Y-100721875D01*
X173169465Y-100794465D01*
X173096875Y-100842968D01*
X173011250Y-100860000D01*
X172488750Y-100860000D01*
X172403125Y-100842968D01*
X172330535Y-100794465D01*
X172282032Y-100721875D01*
X172265000Y-100636250D01*
X172265000Y-100188750D01*
X172282032Y-100103125D01*
X172330535Y-100030535D01*
X172403125Y-99982032D01*
X172488750Y-99965000D01*
X173011250Y-99965000D01*
X173096875Y-99982032D01*
G37*
G36*
X173096875Y-101557032D02*
G01*
X173169465Y-101605535D01*
X173217968Y-101678125D01*
X173235000Y-101763750D01*
X173235000Y-102211250D01*
X173217968Y-102296875D01*
X173169465Y-102369465D01*
X173096875Y-102417968D01*
X173011250Y-102435000D01*
X172488750Y-102435000D01*
X172403125Y-102417968D01*
X172330535Y-102369465D01*
X172282032Y-102296875D01*
X172265000Y-102211250D01*
X172265000Y-101763750D01*
X172282032Y-101678125D01*
X172330535Y-101605535D01*
X172403125Y-101557032D01*
X172488750Y-101540000D01*
X173011250Y-101540000D01*
X173096875Y-101557032D01*
G37*
G36*
X162686875Y-101477032D02*
G01*
X162759465Y-101525535D01*
X162807968Y-101598125D01*
X162825000Y-101683750D01*
X162825000Y-102131250D01*
X162807968Y-102216875D01*
X162759465Y-102289465D01*
X162686875Y-102337968D01*
X162601250Y-102355000D01*
X162078750Y-102355000D01*
X161993125Y-102337968D01*
X161920535Y-102289465D01*
X161872032Y-102216875D01*
X161855000Y-102131250D01*
X161855000Y-101683750D01*
X161872032Y-101598125D01*
X161920535Y-101525535D01*
X161993125Y-101477032D01*
X162078750Y-101460000D01*
X162601250Y-101460000D01*
X162686875Y-101477032D01*
G37*
G36*
X162686875Y-99902032D02*
G01*
X162759465Y-99950535D01*
X162807968Y-100023125D01*
X162825000Y-100108750D01*
X162825000Y-100556250D01*
X162807968Y-100641875D01*
X162759465Y-100714465D01*
X162686875Y-100762968D01*
X162601250Y-100780000D01*
X162078750Y-100780000D01*
X161993125Y-100762968D01*
X161920535Y-100714465D01*
X161872032Y-100641875D01*
X161855000Y-100556250D01*
X161855000Y-100108750D01*
X161872032Y-100023125D01*
X161920535Y-99950535D01*
X161993125Y-99902032D01*
X162078750Y-99885000D01*
X162601250Y-99885000D01*
X162686875Y-99902032D01*
G37*
G36*
X166146875Y-99954532D02*
G01*
X166219465Y-100003035D01*
X166267968Y-100075625D01*
X166285000Y-100161250D01*
X166285000Y-100608750D01*
X166267968Y-100694375D01*
X166219465Y-100766965D01*
X166146875Y-100815468D01*
X166061250Y-100832500D01*
X165538750Y-100832500D01*
X165453125Y-100815468D01*
X165380535Y-100766965D01*
X165332032Y-100694375D01*
X165315000Y-100608750D01*
X165315000Y-100161250D01*
X165332032Y-100075625D01*
X165380535Y-100003035D01*
X165453125Y-99954532D01*
X165538750Y-99937500D01*
X166061250Y-99937500D01*
X166146875Y-99954532D01*
G37*
G36*
X166146875Y-101529532D02*
G01*
X166219465Y-101578035D01*
X166267968Y-101650625D01*
X166285000Y-101736250D01*
X166285000Y-102183750D01*
X166267968Y-102269375D01*
X166219465Y-102341965D01*
X166146875Y-102390468D01*
X166061250Y-102407500D01*
X165538750Y-102407500D01*
X165453125Y-102390468D01*
X165380535Y-102341965D01*
X165332032Y-102269375D01*
X165315000Y-102183750D01*
X165315000Y-101736250D01*
X165332032Y-101650625D01*
X165380535Y-101578035D01*
X165453125Y-101529532D01*
X165538750Y-101512500D01*
X166061250Y-101512500D01*
X166146875Y-101529532D01*
G37*
G36*
X176516875Y-101567032D02*
G01*
X176589465Y-101615535D01*
X176637968Y-101688125D01*
X176655000Y-101773750D01*
X176655000Y-102221250D01*
X176637968Y-102306875D01*
X176589465Y-102379465D01*
X176516875Y-102427968D01*
X176431250Y-102445000D01*
X175908750Y-102445000D01*
X175823125Y-102427968D01*
X175750535Y-102379465D01*
X175702032Y-102306875D01*
X175685000Y-102221250D01*
X175685000Y-101773750D01*
X175702032Y-101688125D01*
X175750535Y-101615535D01*
X175823125Y-101567032D01*
X175908750Y-101550000D01*
X176431250Y-101550000D01*
X176516875Y-101567032D01*
G37*
G36*
X176516875Y-99992032D02*
G01*
X176589465Y-100040535D01*
X176637968Y-100113125D01*
X176655000Y-100198750D01*
X176655000Y-100646250D01*
X176637968Y-100731875D01*
X176589465Y-100804465D01*
X176516875Y-100852968D01*
X176431250Y-100870000D01*
X175908750Y-100870000D01*
X175823125Y-100852968D01*
X175750535Y-100804465D01*
X175702032Y-100731875D01*
X175685000Y-100646250D01*
X175685000Y-100198750D01*
X175702032Y-100113125D01*
X175750535Y-100040535D01*
X175823125Y-99992032D01*
X175908750Y-99975000D01*
X176431250Y-99975000D01*
X176516875Y-99992032D01*
G37*
G36*
X179946875Y-100002032D02*
G01*
X180019465Y-100050535D01*
X180067968Y-100123125D01*
X180085000Y-100208750D01*
X180085000Y-100656250D01*
X180067968Y-100741875D01*
X180019465Y-100814465D01*
X179946875Y-100862968D01*
X179861250Y-100880000D01*
X179338750Y-100880000D01*
X179253125Y-100862968D01*
X179180535Y-100814465D01*
X179132032Y-100741875D01*
X179115000Y-100656250D01*
X179115000Y-100208750D01*
X179132032Y-100123125D01*
X179180535Y-100050535D01*
X179253125Y-100002032D01*
X179338750Y-99985000D01*
X179861250Y-99985000D01*
X179946875Y-100002032D01*
G37*
G36*
X179946875Y-101577032D02*
G01*
X180019465Y-101625535D01*
X180067968Y-101698125D01*
X180085000Y-101783750D01*
X180085000Y-102231250D01*
X180067968Y-102316875D01*
X180019465Y-102389465D01*
X179946875Y-102437968D01*
X179861250Y-102455000D01*
X179338750Y-102455000D01*
X179253125Y-102437968D01*
X179180535Y-102389465D01*
X179132032Y-102316875D01*
X179115000Y-102231250D01*
X179115000Y-101783750D01*
X179132032Y-101698125D01*
X179180535Y-101625535D01*
X179253125Y-101577032D01*
X179338750Y-101560000D01*
X179861250Y-101560000D01*
X179946875Y-101577032D01*
G37*
G36*
X154296875Y-112244532D02*
G01*
X154369465Y-112293035D01*
X154417968Y-112365625D01*
X154435000Y-112451250D01*
X154435000Y-112898750D01*
X154417968Y-112984375D01*
X154369465Y-113056965D01*
X154296875Y-113105468D01*
X154211250Y-113122500D01*
X153688750Y-113122500D01*
X153603125Y-113105468D01*
X153530535Y-113056965D01*
X153482032Y-112984375D01*
X153465000Y-112898750D01*
X153465000Y-112451250D01*
X153482032Y-112365625D01*
X153530535Y-112293035D01*
X153603125Y-112244532D01*
X153688750Y-112227500D01*
X154211250Y-112227500D01*
X154296875Y-112244532D01*
G37*
G36*
X154296875Y-110669532D02*
G01*
X154369465Y-110718035D01*
X154417968Y-110790625D01*
X154435000Y-110876250D01*
X154435000Y-111323750D01*
X154417968Y-111409375D01*
X154369465Y-111481965D01*
X154296875Y-111530468D01*
X154211250Y-111547500D01*
X153688750Y-111547500D01*
X153603125Y-111530468D01*
X153530535Y-111481965D01*
X153482032Y-111409375D01*
X153465000Y-111323750D01*
X153465000Y-110876250D01*
X153482032Y-110790625D01*
X153530535Y-110718035D01*
X153603125Y-110669532D01*
X153688750Y-110652500D01*
X154211250Y-110652500D01*
X154296875Y-110669532D01*
G37*
G36*
X119346875Y-105857032D02*
G01*
X119419465Y-105905535D01*
X119467968Y-105978125D01*
X119485000Y-106063750D01*
X119485000Y-106511250D01*
X119467968Y-106596875D01*
X119419465Y-106669465D01*
X119346875Y-106717968D01*
X119261250Y-106735000D01*
X118738750Y-106735000D01*
X118653125Y-106717968D01*
X118580535Y-106669465D01*
X118532032Y-106596875D01*
X118515000Y-106511250D01*
X118515000Y-106063750D01*
X118532032Y-105978125D01*
X118580535Y-105905535D01*
X118653125Y-105857032D01*
X118738750Y-105840000D01*
X119261250Y-105840000D01*
X119346875Y-105857032D01*
G37*
G36*
X119346875Y-104282032D02*
G01*
X119419465Y-104330535D01*
X119467968Y-104403125D01*
X119485000Y-104488750D01*
X119485000Y-104936250D01*
X119467968Y-105021875D01*
X119419465Y-105094465D01*
X119346875Y-105142968D01*
X119261250Y-105160000D01*
X118738750Y-105160000D01*
X118653125Y-105142968D01*
X118580535Y-105094465D01*
X118532032Y-105021875D01*
X118515000Y-104936250D01*
X118515000Y-104488750D01*
X118532032Y-104403125D01*
X118580535Y-104330535D01*
X118653125Y-104282032D01*
X118738750Y-104265000D01*
X119261250Y-104265000D01*
X119346875Y-104282032D01*
G37*
G36*
X117886875Y-105857032D02*
G01*
X117959465Y-105905535D01*
X118007968Y-105978125D01*
X118025000Y-106063750D01*
X118025000Y-106511250D01*
X118007968Y-106596875D01*
X117959465Y-106669465D01*
X117886875Y-106717968D01*
X117801250Y-106735000D01*
X117278750Y-106735000D01*
X117193125Y-106717968D01*
X117120535Y-106669465D01*
X117072032Y-106596875D01*
X117055000Y-106511250D01*
X117055000Y-106063750D01*
X117072032Y-105978125D01*
X117120535Y-105905535D01*
X117193125Y-105857032D01*
X117278750Y-105840000D01*
X117801250Y-105840000D01*
X117886875Y-105857032D01*
G37*
G36*
X117886875Y-104282032D02*
G01*
X117959465Y-104330535D01*
X118007968Y-104403125D01*
X118025000Y-104488750D01*
X118025000Y-104936250D01*
X118007968Y-105021875D01*
X117959465Y-105094465D01*
X117886875Y-105142968D01*
X117801250Y-105160000D01*
X117278750Y-105160000D01*
X117193125Y-105142968D01*
X117120535Y-105094465D01*
X117072032Y-105021875D01*
X117055000Y-104936250D01*
X117055000Y-104488750D01*
X117072032Y-104403125D01*
X117120535Y-104330535D01*
X117193125Y-104282032D01*
X117278750Y-104265000D01*
X117801250Y-104265000D01*
X117886875Y-104282032D01*
G37*
G36*
X135091875Y-92642032D02*
G01*
X135164465Y-92690535D01*
X135212968Y-92763125D01*
X135230000Y-92848750D01*
X135230000Y-93371250D01*
X135212968Y-93456875D01*
X135164465Y-93529465D01*
X135091875Y-93577968D01*
X135006250Y-93595000D01*
X134558750Y-93595000D01*
X134473125Y-93577968D01*
X134400535Y-93529465D01*
X134352032Y-93456875D01*
X134335000Y-93371250D01*
X134335000Y-92848750D01*
X134352032Y-92763125D01*
X134400535Y-92690535D01*
X134473125Y-92642032D01*
X134558750Y-92625000D01*
X135006250Y-92625000D01*
X135091875Y-92642032D01*
G37*
G36*
X136666875Y-92642032D02*
G01*
X136739465Y-92690535D01*
X136787968Y-92763125D01*
X136805000Y-92848750D01*
X136805000Y-93371250D01*
X136787968Y-93456875D01*
X136739465Y-93529465D01*
X136666875Y-93577968D01*
X136581250Y-93595000D01*
X136133750Y-93595000D01*
X136048125Y-93577968D01*
X135975535Y-93529465D01*
X135927032Y-93456875D01*
X135910000Y-93371250D01*
X135910000Y-92848750D01*
X135927032Y-92763125D01*
X135975535Y-92690535D01*
X136048125Y-92642032D01*
X136133750Y-92625000D01*
X136581250Y-92625000D01*
X136666875Y-92642032D01*
G37*
G36*
X136666875Y-94102032D02*
G01*
X136739465Y-94150535D01*
X136787968Y-94223125D01*
X136805000Y-94308750D01*
X136805000Y-94831250D01*
X136787968Y-94916875D01*
X136739465Y-94989465D01*
X136666875Y-95037968D01*
X136581250Y-95055000D01*
X136133750Y-95055000D01*
X136048125Y-95037968D01*
X135975535Y-94989465D01*
X135927032Y-94916875D01*
X135910000Y-94831250D01*
X135910000Y-94308750D01*
X135927032Y-94223125D01*
X135975535Y-94150535D01*
X136048125Y-94102032D01*
X136133750Y-94085000D01*
X136581250Y-94085000D01*
X136666875Y-94102032D01*
G37*
G36*
X135091875Y-94102032D02*
G01*
X135164465Y-94150535D01*
X135212968Y-94223125D01*
X135230000Y-94308750D01*
X135230000Y-94831250D01*
X135212968Y-94916875D01*
X135164465Y-94989465D01*
X135091875Y-95037968D01*
X135006250Y-95055000D01*
X134558750Y-95055000D01*
X134473125Y-95037968D01*
X134400535Y-94989465D01*
X134352032Y-94916875D01*
X134335000Y-94831250D01*
X134335000Y-94308750D01*
X134352032Y-94223125D01*
X134400535Y-94150535D01*
X134473125Y-94102032D01*
X134558750Y-94085000D01*
X135006250Y-94085000D01*
X135091875Y-94102032D01*
G37*
G36*
X149566875Y-84442032D02*
G01*
X149639465Y-84490535D01*
X149687968Y-84563125D01*
X149705000Y-84648750D01*
X149705000Y-85171250D01*
X149687968Y-85256875D01*
X149639465Y-85329465D01*
X149566875Y-85377968D01*
X149481250Y-85395000D01*
X149033750Y-85395000D01*
X148948125Y-85377968D01*
X148875535Y-85329465D01*
X148827032Y-85256875D01*
X148810000Y-85171250D01*
X148810000Y-84648750D01*
X148827032Y-84563125D01*
X148875535Y-84490535D01*
X148948125Y-84442032D01*
X149033750Y-84425000D01*
X149481250Y-84425000D01*
X149566875Y-84442032D01*
G37*
G36*
X147991875Y-84442032D02*
G01*
X148064465Y-84490535D01*
X148112968Y-84563125D01*
X148130000Y-84648750D01*
X148130000Y-85171250D01*
X148112968Y-85256875D01*
X148064465Y-85329465D01*
X147991875Y-85377968D01*
X147906250Y-85395000D01*
X147458750Y-85395000D01*
X147373125Y-85377968D01*
X147300535Y-85329465D01*
X147252032Y-85256875D01*
X147235000Y-85171250D01*
X147235000Y-84648750D01*
X147252032Y-84563125D01*
X147300535Y-84490535D01*
X147373125Y-84442032D01*
X147458750Y-84425000D01*
X147906250Y-84425000D01*
X147991875Y-84442032D01*
G37*
G36*
X147991875Y-85912032D02*
G01*
X148064465Y-85960535D01*
X148112968Y-86033125D01*
X148130000Y-86118750D01*
X148130000Y-86641250D01*
X148112968Y-86726875D01*
X148064465Y-86799465D01*
X147991875Y-86847968D01*
X147906250Y-86865000D01*
X147458750Y-86865000D01*
X147373125Y-86847968D01*
X147300535Y-86799465D01*
X147252032Y-86726875D01*
X147235000Y-86641250D01*
X147235000Y-86118750D01*
X147252032Y-86033125D01*
X147300535Y-85960535D01*
X147373125Y-85912032D01*
X147458750Y-85895000D01*
X147906250Y-85895000D01*
X147991875Y-85912032D01*
G37*
G36*
X149566875Y-85912032D02*
G01*
X149639465Y-85960535D01*
X149687968Y-86033125D01*
X149705000Y-86118750D01*
X149705000Y-86641250D01*
X149687968Y-86726875D01*
X149639465Y-86799465D01*
X149566875Y-86847968D01*
X149481250Y-86865000D01*
X149033750Y-86865000D01*
X148948125Y-86847968D01*
X148875535Y-86799465D01*
X148827032Y-86726875D01*
X148810000Y-86641250D01*
X148810000Y-86118750D01*
X148827032Y-86033125D01*
X148875535Y-85960535D01*
X148948125Y-85912032D01*
X149033750Y-85895000D01*
X149481250Y-85895000D01*
X149566875Y-85912032D01*
G37*
G36*
X148061875Y-94112032D02*
G01*
X148134465Y-94160535D01*
X148182968Y-94233125D01*
X148200000Y-94318750D01*
X148200000Y-94841250D01*
X148182968Y-94926875D01*
X148134465Y-94999465D01*
X148061875Y-95047968D01*
X147976250Y-95065000D01*
X147528750Y-95065000D01*
X147443125Y-95047968D01*
X147370535Y-94999465D01*
X147322032Y-94926875D01*
X147305000Y-94841250D01*
X147305000Y-94318750D01*
X147322032Y-94233125D01*
X147370535Y-94160535D01*
X147443125Y-94112032D01*
X147528750Y-94095000D01*
X147976250Y-94095000D01*
X148061875Y-94112032D01*
G37*
G36*
X149636875Y-94112032D02*
G01*
X149709465Y-94160535D01*
X149757968Y-94233125D01*
X149775000Y-94318750D01*
X149775000Y-94841250D01*
X149757968Y-94926875D01*
X149709465Y-94999465D01*
X149636875Y-95047968D01*
X149551250Y-95065000D01*
X149103750Y-95065000D01*
X149018125Y-95047968D01*
X148945535Y-94999465D01*
X148897032Y-94926875D01*
X148880000Y-94841250D01*
X148880000Y-94318750D01*
X148897032Y-94233125D01*
X148945535Y-94160535D01*
X149018125Y-94112032D01*
X149103750Y-94095000D01*
X149551250Y-94095000D01*
X149636875Y-94112032D01*
G37*
G36*
X151146875Y-94167032D02*
G01*
X151219465Y-94215535D01*
X151267968Y-94288125D01*
X151285000Y-94373750D01*
X151285000Y-94821250D01*
X151267968Y-94906875D01*
X151219465Y-94979465D01*
X151146875Y-95027968D01*
X151061250Y-95045000D01*
X150538750Y-95045000D01*
X150453125Y-95027968D01*
X150380535Y-94979465D01*
X150332032Y-94906875D01*
X150315000Y-94821250D01*
X150315000Y-94373750D01*
X150332032Y-94288125D01*
X150380535Y-94215535D01*
X150453125Y-94167032D01*
X150538750Y-94150000D01*
X151061250Y-94150000D01*
X151146875Y-94167032D01*
G37*
G36*
X151146875Y-92592032D02*
G01*
X151219465Y-92640535D01*
X151267968Y-92713125D01*
X151285000Y-92798750D01*
X151285000Y-93246250D01*
X151267968Y-93331875D01*
X151219465Y-93404465D01*
X151146875Y-93452968D01*
X151061250Y-93470000D01*
X150538750Y-93470000D01*
X150453125Y-93452968D01*
X150380535Y-93404465D01*
X150332032Y-93331875D01*
X150315000Y-93246250D01*
X150315000Y-92798750D01*
X150332032Y-92713125D01*
X150380535Y-92640535D01*
X150453125Y-92592032D01*
X150538750Y-92575000D01*
X151061250Y-92575000D01*
X151146875Y-92592032D01*
G37*
G36*
X146286875Y-87232032D02*
G01*
X146359465Y-87280535D01*
X146407968Y-87353125D01*
X146425000Y-87438750D01*
X146425000Y-87961250D01*
X146407968Y-88046875D01*
X146359465Y-88119465D01*
X146286875Y-88167968D01*
X146201250Y-88185000D01*
X145753750Y-88185000D01*
X145668125Y-88167968D01*
X145595535Y-88119465D01*
X145547032Y-88046875D01*
X145530000Y-87961250D01*
X145530000Y-87438750D01*
X145547032Y-87353125D01*
X145595535Y-87280535D01*
X145668125Y-87232032D01*
X145753750Y-87215000D01*
X146201250Y-87215000D01*
X146286875Y-87232032D01*
G37*
G36*
X144711875Y-87232032D02*
G01*
X144784465Y-87280535D01*
X144832968Y-87353125D01*
X144850000Y-87438750D01*
X144850000Y-87961250D01*
X144832968Y-88046875D01*
X144784465Y-88119465D01*
X144711875Y-88167968D01*
X144626250Y-88185000D01*
X144178750Y-88185000D01*
X144093125Y-88167968D01*
X144020535Y-88119465D01*
X143972032Y-88046875D01*
X143955000Y-87961250D01*
X143955000Y-87438750D01*
X143972032Y-87353125D01*
X144020535Y-87280535D01*
X144093125Y-87232032D01*
X144178750Y-87215000D01*
X144626250Y-87215000D01*
X144711875Y-87232032D01*
G37*
G36*
X110956875Y-108372032D02*
G01*
X111029465Y-108420535D01*
X111077968Y-108493125D01*
X111095000Y-108578750D01*
X111095000Y-109101250D01*
X111077968Y-109186875D01*
X111029465Y-109259465D01*
X110956875Y-109307968D01*
X110871250Y-109325000D01*
X110423750Y-109325000D01*
X110338125Y-109307968D01*
X110265535Y-109259465D01*
X110217032Y-109186875D01*
X110200000Y-109101250D01*
X110200000Y-108578750D01*
X110217032Y-108493125D01*
X110265535Y-108420535D01*
X110338125Y-108372032D01*
X110423750Y-108355000D01*
X110871250Y-108355000D01*
X110956875Y-108372032D01*
G37*
G36*
X109381875Y-108372032D02*
G01*
X109454465Y-108420535D01*
X109502968Y-108493125D01*
X109520000Y-108578750D01*
X109520000Y-109101250D01*
X109502968Y-109186875D01*
X109454465Y-109259465D01*
X109381875Y-109307968D01*
X109296250Y-109325000D01*
X108848750Y-109325000D01*
X108763125Y-109307968D01*
X108690535Y-109259465D01*
X108642032Y-109186875D01*
X108625000Y-109101250D01*
X108625000Y-108578750D01*
X108642032Y-108493125D01*
X108690535Y-108420535D01*
X108763125Y-108372032D01*
X108848750Y-108355000D01*
X109296250Y-108355000D01*
X109381875Y-108372032D01*
G37*
G36*
X110956875Y-106912032D02*
G01*
X111029465Y-106960535D01*
X111077968Y-107033125D01*
X111095000Y-107118750D01*
X111095000Y-107641250D01*
X111077968Y-107726875D01*
X111029465Y-107799465D01*
X110956875Y-107847968D01*
X110871250Y-107865000D01*
X110423750Y-107865000D01*
X110338125Y-107847968D01*
X110265535Y-107799465D01*
X110217032Y-107726875D01*
X110200000Y-107641250D01*
X110200000Y-107118750D01*
X110217032Y-107033125D01*
X110265535Y-106960535D01*
X110338125Y-106912032D01*
X110423750Y-106895000D01*
X110871250Y-106895000D01*
X110956875Y-106912032D01*
G37*
G36*
X109381875Y-106912032D02*
G01*
X109454465Y-106960535D01*
X109502968Y-107033125D01*
X109520000Y-107118750D01*
X109520000Y-107641250D01*
X109502968Y-107726875D01*
X109454465Y-107799465D01*
X109381875Y-107847968D01*
X109296250Y-107865000D01*
X108848750Y-107865000D01*
X108763125Y-107847968D01*
X108690535Y-107799465D01*
X108642032Y-107726875D01*
X108625000Y-107641250D01*
X108625000Y-107118750D01*
X108642032Y-107033125D01*
X108690535Y-106960535D01*
X108763125Y-106912032D01*
X108848750Y-106895000D01*
X109296250Y-106895000D01*
X109381875Y-106912032D01*
G37*
G36*
X115446875Y-107502032D02*
G01*
X115519465Y-107550535D01*
X115567968Y-107623125D01*
X115585000Y-107708750D01*
X115585000Y-108231250D01*
X115567968Y-108316875D01*
X115519465Y-108389465D01*
X115446875Y-108437968D01*
X115361250Y-108455000D01*
X114913750Y-108455000D01*
X114828125Y-108437968D01*
X114755535Y-108389465D01*
X114707032Y-108316875D01*
X114690000Y-108231250D01*
X114690000Y-107708750D01*
X114707032Y-107623125D01*
X114755535Y-107550535D01*
X114828125Y-107502032D01*
X114913750Y-107485000D01*
X115361250Y-107485000D01*
X115446875Y-107502032D01*
G37*
G36*
X113871875Y-107502032D02*
G01*
X113944465Y-107550535D01*
X113992968Y-107623125D01*
X114010000Y-107708750D01*
X114010000Y-108231250D01*
X113992968Y-108316875D01*
X113944465Y-108389465D01*
X113871875Y-108437968D01*
X113786250Y-108455000D01*
X113338750Y-108455000D01*
X113253125Y-108437968D01*
X113180535Y-108389465D01*
X113132032Y-108316875D01*
X113115000Y-108231250D01*
X113115000Y-107708750D01*
X113132032Y-107623125D01*
X113180535Y-107550535D01*
X113253125Y-107502032D01*
X113338750Y-107485000D01*
X113786250Y-107485000D01*
X113871875Y-107502032D01*
G37*
D30*
X120200000Y-119800000D03*
X122200000Y-119800000D03*
X124200000Y-119800000D03*
X126200000Y-119800000D03*
X128200000Y-119800000D03*
G36*
X130653099Y-118934347D02*
G01*
X130735557Y-118989443D01*
X130790653Y-119071901D01*
X130810000Y-119169166D01*
X130810000Y-120430834D01*
X130790653Y-120528099D01*
X130735557Y-120610557D01*
X130653099Y-120665653D01*
X130555834Y-120685000D01*
X129844166Y-120685000D01*
X129746901Y-120665653D01*
X129664443Y-120610557D01*
X129609347Y-120528099D01*
X129590000Y-120430834D01*
X129590000Y-119169166D01*
X129609347Y-119071901D01*
X129664443Y-118989443D01*
X129746901Y-118934347D01*
X129844166Y-118915000D01*
X130555834Y-118915000D01*
X130653099Y-118934347D01*
G37*
D31*
X127750000Y-104880000D03*
X131350000Y-104880000D03*
D32*
X176680000Y-97120000D03*
X178680000Y-89720000D03*
D33*
X165280000Y-94170000D03*
D34*
X169280000Y-89720000D03*
D35*
X177580000Y-93420000D03*
X170580000Y-93420000D03*
D30*
X165930000Y-84310000D03*
G36*
X168383099Y-83444347D02*
G01*
X168465557Y-83499443D01*
X168520653Y-83581901D01*
X168540000Y-83679166D01*
X168540000Y-84940834D01*
X168520653Y-85038099D01*
X168465557Y-85120557D01*
X168383099Y-85175653D01*
X168285834Y-85195000D01*
X167574166Y-85195000D01*
X167476901Y-85175653D01*
X167394443Y-85120557D01*
X167339347Y-85038099D01*
X167320000Y-84940834D01*
X167320000Y-83679166D01*
X167339347Y-83581901D01*
X167394443Y-83499443D01*
X167476901Y-83444347D01*
X167574166Y-83425000D01*
X168285834Y-83425000D01*
X168383099Y-83444347D01*
G37*
D36*
X172720000Y-105270000D03*
D37*
X172720000Y-107810000D03*
D36*
X165810000Y-105270000D03*
D37*
X165810000Y-107810000D03*
D36*
X179600000Y-105260000D03*
D37*
X179600000Y-107800000D03*
D36*
X169240000Y-105270000D03*
D37*
X169240000Y-107810000D03*
D36*
X162340000Y-105270000D03*
D37*
X162340000Y-107810000D03*
D36*
X176170000Y-105270000D03*
D37*
X176170000Y-107810000D03*
D30*
X130200000Y-113200000D03*
X128200000Y-113200000D03*
X126200000Y-113200000D03*
G36*
X124653099Y-112334347D02*
G01*
X124735557Y-112389443D01*
X124790653Y-112471901D01*
X124810000Y-112569166D01*
X124810000Y-113830834D01*
X124790653Y-113928099D01*
X124735557Y-114010557D01*
X124653099Y-114065653D01*
X124555834Y-114085000D01*
X123844166Y-114085000D01*
X123746901Y-114065653D01*
X123664443Y-114010557D01*
X123609347Y-113928099D01*
X123590000Y-113830834D01*
X123590000Y-112569166D01*
X123609347Y-112471901D01*
X123664443Y-112389443D01*
X123746901Y-112334347D01*
X123844166Y-112315000D01*
X124555834Y-112315000D01*
X124653099Y-112334347D01*
G37*
D38*
X115800000Y-85000000D03*
X120200000Y-85000000D03*
D39*
X113550000Y-82150000D03*
X113550000Y-87600000D03*
X122450000Y-82150000D03*
X122450000Y-87600000D03*
D40*
X116400000Y-87700000D03*
X117200000Y-87700000D03*
X118000000Y-87700000D03*
X118800000Y-87700000D03*
X119600000Y-87700000D03*
D30*
X115300000Y-118700000D03*
X113300000Y-118700000D03*
X111300000Y-118700000D03*
G36*
X109753099Y-117834347D02*
G01*
X109835557Y-117889443D01*
X109890653Y-117971901D01*
X109910000Y-118069166D01*
X109910000Y-119330834D01*
X109890653Y-119428099D01*
X109835557Y-119510557D01*
X109753099Y-119565653D01*
X109655834Y-119585000D01*
X108944166Y-119585000D01*
X108846901Y-119565653D01*
X108764443Y-119510557D01*
X108709347Y-119428099D01*
X108690000Y-119330834D01*
X108690000Y-118069166D01*
X108709347Y-117971901D01*
X108764443Y-117889443D01*
X108846901Y-117834347D01*
X108944166Y-117815000D01*
X109655834Y-117815000D01*
X109753099Y-117834347D01*
G37*
G36*
X169666443Y-114058935D02*
G01*
X169747143Y-114112857D01*
X169801065Y-114193557D01*
X169820000Y-114288750D01*
X169820000Y-114786250D01*
X169801065Y-114881443D01*
X169747143Y-114962143D01*
X169666443Y-115016065D01*
X169571250Y-115035000D01*
X168648750Y-115035000D01*
X168553557Y-115016065D01*
X168472857Y-114962143D01*
X168418935Y-114881443D01*
X168400000Y-114786250D01*
X168400000Y-114288750D01*
X168418935Y-114193557D01*
X168472857Y-114112857D01*
X168553557Y-114058935D01*
X168648750Y-114040000D01*
X169571250Y-114040000D01*
X169666443Y-114058935D01*
G37*
G36*
X169666443Y-112183935D02*
G01*
X169747143Y-112237857D01*
X169801065Y-112318557D01*
X169820000Y-112413750D01*
X169820000Y-112911250D01*
X169801065Y-113006443D01*
X169747143Y-113087143D01*
X169666443Y-113141065D01*
X169571250Y-113160000D01*
X168648750Y-113160000D01*
X168553557Y-113141065D01*
X168472857Y-113087143D01*
X168418935Y-113006443D01*
X168400000Y-112911250D01*
X168400000Y-112413750D01*
X168418935Y-112318557D01*
X168472857Y-112237857D01*
X168553557Y-112183935D01*
X168648750Y-112165000D01*
X169571250Y-112165000D01*
X169666443Y-112183935D01*
G37*
G36*
X167466443Y-114058935D02*
G01*
X167547143Y-114112857D01*
X167601065Y-114193557D01*
X167620000Y-114288750D01*
X167620000Y-114786250D01*
X167601065Y-114881443D01*
X167547143Y-114962143D01*
X167466443Y-115016065D01*
X167371250Y-115035000D01*
X166448750Y-115035000D01*
X166353557Y-115016065D01*
X166272857Y-114962143D01*
X166218935Y-114881443D01*
X166200000Y-114786250D01*
X166200000Y-114288750D01*
X166218935Y-114193557D01*
X166272857Y-114112857D01*
X166353557Y-114058935D01*
X166448750Y-114040000D01*
X167371250Y-114040000D01*
X167466443Y-114058935D01*
G37*
G36*
X167466443Y-112183935D02*
G01*
X167547143Y-112237857D01*
X167601065Y-112318557D01*
X167620000Y-112413750D01*
X167620000Y-112911250D01*
X167601065Y-113006443D01*
X167547143Y-113087143D01*
X167466443Y-113141065D01*
X167371250Y-113160000D01*
X166448750Y-113160000D01*
X166353557Y-113141065D01*
X166272857Y-113087143D01*
X166218935Y-113006443D01*
X166200000Y-112911250D01*
X166200000Y-112413750D01*
X166218935Y-112318557D01*
X166272857Y-112237857D01*
X166353557Y-112183935D01*
X166448750Y-112165000D01*
X167371250Y-112165000D01*
X167466443Y-112183935D01*
G37*
G36*
X171856443Y-114058935D02*
G01*
X171937143Y-114112857D01*
X171991065Y-114193557D01*
X172010000Y-114288750D01*
X172010000Y-114786250D01*
X171991065Y-114881443D01*
X171937143Y-114962143D01*
X171856443Y-115016065D01*
X171761250Y-115035000D01*
X170838750Y-115035000D01*
X170743557Y-115016065D01*
X170662857Y-114962143D01*
X170608935Y-114881443D01*
X170590000Y-114786250D01*
X170590000Y-114288750D01*
X170608935Y-114193557D01*
X170662857Y-114112857D01*
X170743557Y-114058935D01*
X170838750Y-114040000D01*
X171761250Y-114040000D01*
X171856443Y-114058935D01*
G37*
G36*
X171856443Y-112183935D02*
G01*
X171937143Y-112237857D01*
X171991065Y-112318557D01*
X172010000Y-112413750D01*
X172010000Y-112911250D01*
X171991065Y-113006443D01*
X171937143Y-113087143D01*
X171856443Y-113141065D01*
X171761250Y-113160000D01*
X170838750Y-113160000D01*
X170743557Y-113141065D01*
X170662857Y-113087143D01*
X170608935Y-113006443D01*
X170590000Y-112911250D01*
X170590000Y-112413750D01*
X170608935Y-112318557D01*
X170662857Y-112237857D01*
X170743557Y-112183935D01*
X170838750Y-112165000D01*
X171761250Y-112165000D01*
X171856443Y-112183935D01*
G37*
G36*
X157456875Y-111292032D02*
G01*
X157529465Y-111340535D01*
X157577968Y-111413125D01*
X157595000Y-111498750D01*
X157595000Y-112021250D01*
X157577968Y-112106875D01*
X157529465Y-112179465D01*
X157456875Y-112227968D01*
X157371250Y-112245000D01*
X156923750Y-112245000D01*
X156838125Y-112227968D01*
X156765535Y-112179465D01*
X156717032Y-112106875D01*
X156700000Y-112021250D01*
X156700000Y-111498750D01*
X156717032Y-111413125D01*
X156765535Y-111340535D01*
X156838125Y-111292032D01*
X156923750Y-111275000D01*
X157371250Y-111275000D01*
X157456875Y-111292032D01*
G37*
G36*
X155881875Y-111292032D02*
G01*
X155954465Y-111340535D01*
X156002968Y-111413125D01*
X156020000Y-111498750D01*
X156020000Y-112021250D01*
X156002968Y-112106875D01*
X155954465Y-112179465D01*
X155881875Y-112227968D01*
X155796250Y-112245000D01*
X155348750Y-112245000D01*
X155263125Y-112227968D01*
X155190535Y-112179465D01*
X155142032Y-112106875D01*
X155125000Y-112021250D01*
X155125000Y-111498750D01*
X155142032Y-111413125D01*
X155190535Y-111340535D01*
X155263125Y-111292032D01*
X155348750Y-111275000D01*
X155796250Y-111275000D01*
X155881875Y-111292032D01*
G37*
G36*
X149657875Y-111316032D02*
G01*
X149730465Y-111364535D01*
X149778968Y-111437125D01*
X149796000Y-111522750D01*
X149796000Y-112045250D01*
X149778968Y-112130875D01*
X149730465Y-112203465D01*
X149657875Y-112251968D01*
X149572250Y-112269000D01*
X149124750Y-112269000D01*
X149039125Y-112251968D01*
X148966535Y-112203465D01*
X148918032Y-112130875D01*
X148901000Y-112045250D01*
X148901000Y-111522750D01*
X148918032Y-111437125D01*
X148966535Y-111364535D01*
X149039125Y-111316032D01*
X149124750Y-111299000D01*
X149572250Y-111299000D01*
X149657875Y-111316032D01*
G37*
G36*
X151232875Y-111316032D02*
G01*
X151305465Y-111364535D01*
X151353968Y-111437125D01*
X151371000Y-111522750D01*
X151371000Y-112045250D01*
X151353968Y-112130875D01*
X151305465Y-112203465D01*
X151232875Y-112251968D01*
X151147250Y-112269000D01*
X150699750Y-112269000D01*
X150614125Y-112251968D01*
X150541535Y-112203465D01*
X150493032Y-112130875D01*
X150476000Y-112045250D01*
X150476000Y-111522750D01*
X150493032Y-111437125D01*
X150541535Y-111364535D01*
X150614125Y-111316032D01*
X150699750Y-111299000D01*
X151147250Y-111299000D01*
X151232875Y-111316032D01*
G37*
G36*
X139506875Y-106012032D02*
G01*
X139579465Y-106060535D01*
X139627968Y-106133125D01*
X139645000Y-106218750D01*
X139645000Y-106741250D01*
X139627968Y-106826875D01*
X139579465Y-106899465D01*
X139506875Y-106947968D01*
X139421250Y-106965000D01*
X138973750Y-106965000D01*
X138888125Y-106947968D01*
X138815535Y-106899465D01*
X138767032Y-106826875D01*
X138750000Y-106741250D01*
X138750000Y-106218750D01*
X138767032Y-106133125D01*
X138815535Y-106060535D01*
X138888125Y-106012032D01*
X138973750Y-105995000D01*
X139421250Y-105995000D01*
X139506875Y-106012032D01*
G37*
G36*
X137931875Y-106012032D02*
G01*
X138004465Y-106060535D01*
X138052968Y-106133125D01*
X138070000Y-106218750D01*
X138070000Y-106741250D01*
X138052968Y-106826875D01*
X138004465Y-106899465D01*
X137931875Y-106947968D01*
X137846250Y-106965000D01*
X137398750Y-106965000D01*
X137313125Y-106947968D01*
X137240535Y-106899465D01*
X137192032Y-106826875D01*
X137175000Y-106741250D01*
X137175000Y-106218750D01*
X137192032Y-106133125D01*
X137240535Y-106060535D01*
X137313125Y-106012032D01*
X137398750Y-105995000D01*
X137846250Y-105995000D01*
X137931875Y-106012032D01*
G37*
G36*
X151386875Y-118802032D02*
G01*
X151459465Y-118850535D01*
X151507968Y-118923125D01*
X151525000Y-119008750D01*
X151525000Y-119531250D01*
X151507968Y-119616875D01*
X151459465Y-119689465D01*
X151386875Y-119737968D01*
X151301250Y-119755000D01*
X150853750Y-119755000D01*
X150768125Y-119737968D01*
X150695535Y-119689465D01*
X150647032Y-119616875D01*
X150630000Y-119531250D01*
X150630000Y-119008750D01*
X150647032Y-118923125D01*
X150695535Y-118850535D01*
X150768125Y-118802032D01*
X150853750Y-118785000D01*
X151301250Y-118785000D01*
X151386875Y-118802032D01*
G37*
G36*
X149811875Y-118802032D02*
G01*
X149884465Y-118850535D01*
X149932968Y-118923125D01*
X149950000Y-119008750D01*
X149950000Y-119531250D01*
X149932968Y-119616875D01*
X149884465Y-119689465D01*
X149811875Y-119737968D01*
X149726250Y-119755000D01*
X149278750Y-119755000D01*
X149193125Y-119737968D01*
X149120535Y-119689465D01*
X149072032Y-119616875D01*
X149055000Y-119531250D01*
X149055000Y-119008750D01*
X149072032Y-118923125D01*
X149120535Y-118850535D01*
X149193125Y-118802032D01*
X149278750Y-118785000D01*
X149726250Y-118785000D01*
X149811875Y-118802032D01*
G37*
G36*
X145136875Y-105952032D02*
G01*
X145209465Y-106000535D01*
X145257968Y-106073125D01*
X145275000Y-106158750D01*
X145275000Y-106681250D01*
X145257968Y-106766875D01*
X145209465Y-106839465D01*
X145136875Y-106887968D01*
X145051250Y-106905000D01*
X144603750Y-106905000D01*
X144518125Y-106887968D01*
X144445535Y-106839465D01*
X144397032Y-106766875D01*
X144380000Y-106681250D01*
X144380000Y-106158750D01*
X144397032Y-106073125D01*
X144445535Y-106000535D01*
X144518125Y-105952032D01*
X144603750Y-105935000D01*
X145051250Y-105935000D01*
X145136875Y-105952032D01*
G37*
G36*
X143561875Y-105952032D02*
G01*
X143634465Y-106000535D01*
X143682968Y-106073125D01*
X143700000Y-106158750D01*
X143700000Y-106681250D01*
X143682968Y-106766875D01*
X143634465Y-106839465D01*
X143561875Y-106887968D01*
X143476250Y-106905000D01*
X143028750Y-106905000D01*
X142943125Y-106887968D01*
X142870535Y-106839465D01*
X142822032Y-106766875D01*
X142805000Y-106681250D01*
X142805000Y-106158750D01*
X142822032Y-106073125D01*
X142870535Y-106000535D01*
X142943125Y-105952032D01*
X143028750Y-105935000D01*
X143476250Y-105935000D01*
X143561875Y-105952032D01*
G37*
G36*
X124348342Y-101739317D02*
G01*
X124430672Y-101794328D01*
X124485683Y-101876658D01*
X124505000Y-101973773D01*
X124505000Y-102811227D01*
X124485683Y-102908342D01*
X124430672Y-102990672D01*
X124348342Y-103045683D01*
X124251227Y-103065000D01*
X122388773Y-103065000D01*
X122291658Y-103045683D01*
X122209328Y-102990672D01*
X122154317Y-102908342D01*
X122135000Y-102811227D01*
X122135000Y-101973773D01*
X122154317Y-101876658D01*
X122209328Y-101794328D01*
X122291658Y-101739317D01*
X122388773Y-101720000D01*
X124251227Y-101720000D01*
X124348342Y-101739317D01*
G37*
G36*
X124348075Y-104814350D02*
G01*
X124430545Y-104869455D01*
X124485650Y-104951925D01*
X124505000Y-105049205D01*
X124505000Y-105885795D01*
X124485650Y-105983075D01*
X124430545Y-106065545D01*
X124348075Y-106120650D01*
X124250795Y-106140000D01*
X122389205Y-106140000D01*
X122291925Y-106120650D01*
X122209455Y-106065545D01*
X122154350Y-105983075D01*
X122135000Y-105885795D01*
X122135000Y-105049205D01*
X122154350Y-104951925D01*
X122209455Y-104869455D01*
X122291925Y-104814350D01*
X122389205Y-104795000D01*
X124250795Y-104795000D01*
X124348075Y-104814350D01*
G37*
G36*
X126196875Y-101819532D02*
G01*
X126269465Y-101868035D01*
X126317968Y-101940625D01*
X126335000Y-102026250D01*
X126335000Y-102473750D01*
X126317968Y-102559375D01*
X126269465Y-102631965D01*
X126196875Y-102680468D01*
X126111250Y-102697500D01*
X125588750Y-102697500D01*
X125503125Y-102680468D01*
X125430535Y-102631965D01*
X125382032Y-102559375D01*
X125365000Y-102473750D01*
X125365000Y-102026250D01*
X125382032Y-101940625D01*
X125430535Y-101868035D01*
X125503125Y-101819532D01*
X125588750Y-101802500D01*
X126111250Y-101802500D01*
X126196875Y-101819532D01*
G37*
G36*
X126196875Y-103394532D02*
G01*
X126269465Y-103443035D01*
X126317968Y-103515625D01*
X126335000Y-103601250D01*
X126335000Y-104048750D01*
X126317968Y-104134375D01*
X126269465Y-104206965D01*
X126196875Y-104255468D01*
X126111250Y-104272500D01*
X125588750Y-104272500D01*
X125503125Y-104255468D01*
X125430535Y-104206965D01*
X125382032Y-104134375D01*
X125365000Y-104048750D01*
X125365000Y-103601250D01*
X125382032Y-103515625D01*
X125430535Y-103443035D01*
X125503125Y-103394532D01*
X125588750Y-103377500D01*
X126111250Y-103377500D01*
X126196875Y-103394532D01*
G37*
G36*
X131671875Y-100532032D02*
G01*
X131744465Y-100580535D01*
X131792968Y-100653125D01*
X131810000Y-100738750D01*
X131810000Y-101261250D01*
X131792968Y-101346875D01*
X131744465Y-101419465D01*
X131671875Y-101467968D01*
X131586250Y-101485000D01*
X131138750Y-101485000D01*
X131053125Y-101467968D01*
X130980535Y-101419465D01*
X130932032Y-101346875D01*
X130915000Y-101261250D01*
X130915000Y-100738750D01*
X130932032Y-100653125D01*
X130980535Y-100580535D01*
X131053125Y-100532032D01*
X131138750Y-100515000D01*
X131586250Y-100515000D01*
X131671875Y-100532032D01*
G37*
G36*
X133246875Y-100532032D02*
G01*
X133319465Y-100580535D01*
X133367968Y-100653125D01*
X133385000Y-100738750D01*
X133385000Y-101261250D01*
X133367968Y-101346875D01*
X133319465Y-101419465D01*
X133246875Y-101467968D01*
X133161250Y-101485000D01*
X132713750Y-101485000D01*
X132628125Y-101467968D01*
X132555535Y-101419465D01*
X132507032Y-101346875D01*
X132490000Y-101261250D01*
X132490000Y-100738750D01*
X132507032Y-100653125D01*
X132555535Y-100580535D01*
X132628125Y-100532032D01*
X132713750Y-100515000D01*
X133161250Y-100515000D01*
X133246875Y-100532032D01*
G37*
G36*
X135116875Y-97357032D02*
G01*
X135189465Y-97405535D01*
X135237968Y-97478125D01*
X135255000Y-97563750D01*
X135255000Y-98011250D01*
X135237968Y-98096875D01*
X135189465Y-98169465D01*
X135116875Y-98217968D01*
X135031250Y-98235000D01*
X134508750Y-98235000D01*
X134423125Y-98217968D01*
X134350535Y-98169465D01*
X134302032Y-98096875D01*
X134285000Y-98011250D01*
X134285000Y-97563750D01*
X134302032Y-97478125D01*
X134350535Y-97405535D01*
X134423125Y-97357032D01*
X134508750Y-97340000D01*
X135031250Y-97340000D01*
X135116875Y-97357032D01*
G37*
G36*
X135116875Y-95782032D02*
G01*
X135189465Y-95830535D01*
X135237968Y-95903125D01*
X135255000Y-95988750D01*
X135255000Y-96436250D01*
X135237968Y-96521875D01*
X135189465Y-96594465D01*
X135116875Y-96642968D01*
X135031250Y-96660000D01*
X134508750Y-96660000D01*
X134423125Y-96642968D01*
X134350535Y-96594465D01*
X134302032Y-96521875D01*
X134285000Y-96436250D01*
X134285000Y-95988750D01*
X134302032Y-95903125D01*
X134350535Y-95830535D01*
X134423125Y-95782032D01*
X134508750Y-95765000D01*
X135031250Y-95765000D01*
X135116875Y-95782032D01*
G37*
G36*
X149496875Y-92542032D02*
G01*
X149569465Y-92590535D01*
X149617968Y-92663125D01*
X149635000Y-92748750D01*
X149635000Y-93271250D01*
X149617968Y-93356875D01*
X149569465Y-93429465D01*
X149496875Y-93477968D01*
X149411250Y-93495000D01*
X148963750Y-93495000D01*
X148878125Y-93477968D01*
X148805535Y-93429465D01*
X148757032Y-93356875D01*
X148740000Y-93271250D01*
X148740000Y-92748750D01*
X148757032Y-92663125D01*
X148805535Y-92590535D01*
X148878125Y-92542032D01*
X148963750Y-92525000D01*
X149411250Y-92525000D01*
X149496875Y-92542032D01*
G37*
G36*
X147921875Y-92542032D02*
G01*
X147994465Y-92590535D01*
X148042968Y-92663125D01*
X148060000Y-92748750D01*
X148060000Y-93271250D01*
X148042968Y-93356875D01*
X147994465Y-93429465D01*
X147921875Y-93477968D01*
X147836250Y-93495000D01*
X147388750Y-93495000D01*
X147303125Y-93477968D01*
X147230535Y-93429465D01*
X147182032Y-93356875D01*
X147165000Y-93271250D01*
X147165000Y-92748750D01*
X147182032Y-92663125D01*
X147230535Y-92590535D01*
X147303125Y-92542032D01*
X147388750Y-92525000D01*
X147836250Y-92525000D01*
X147921875Y-92542032D01*
G37*
G36*
X147991875Y-87382032D02*
G01*
X148064465Y-87430535D01*
X148112968Y-87503125D01*
X148130000Y-87588750D01*
X148130000Y-88111250D01*
X148112968Y-88196875D01*
X148064465Y-88269465D01*
X147991875Y-88317968D01*
X147906250Y-88335000D01*
X147458750Y-88335000D01*
X147373125Y-88317968D01*
X147300535Y-88269465D01*
X147252032Y-88196875D01*
X147235000Y-88111250D01*
X147235000Y-87588750D01*
X147252032Y-87503125D01*
X147300535Y-87430535D01*
X147373125Y-87382032D01*
X147458750Y-87365000D01*
X147906250Y-87365000D01*
X147991875Y-87382032D01*
G37*
G36*
X149566875Y-87382032D02*
G01*
X149639465Y-87430535D01*
X149687968Y-87503125D01*
X149705000Y-87588750D01*
X149705000Y-88111250D01*
X149687968Y-88196875D01*
X149639465Y-88269465D01*
X149566875Y-88317968D01*
X149481250Y-88335000D01*
X149033750Y-88335000D01*
X148948125Y-88317968D01*
X148875535Y-88269465D01*
X148827032Y-88196875D01*
X148810000Y-88111250D01*
X148810000Y-87588750D01*
X148827032Y-87503125D01*
X148875535Y-87430535D01*
X148948125Y-87382032D01*
X149033750Y-87365000D01*
X149481250Y-87365000D01*
X149566875Y-87382032D01*
G37*
G36*
X129866875Y-95657032D02*
G01*
X129939465Y-95705535D01*
X129987968Y-95778125D01*
X130005000Y-95863750D01*
X130005000Y-96311250D01*
X129987968Y-96396875D01*
X129939465Y-96469465D01*
X129866875Y-96517968D01*
X129781250Y-96535000D01*
X129258750Y-96535000D01*
X129173125Y-96517968D01*
X129100535Y-96469465D01*
X129052032Y-96396875D01*
X129035000Y-96311250D01*
X129035000Y-95863750D01*
X129052032Y-95778125D01*
X129100535Y-95705535D01*
X129173125Y-95657032D01*
X129258750Y-95640000D01*
X129781250Y-95640000D01*
X129866875Y-95657032D01*
G37*
G36*
X129866875Y-94082032D02*
G01*
X129939465Y-94130535D01*
X129987968Y-94203125D01*
X130005000Y-94288750D01*
X130005000Y-94736250D01*
X129987968Y-94821875D01*
X129939465Y-94894465D01*
X129866875Y-94942968D01*
X129781250Y-94960000D01*
X129258750Y-94960000D01*
X129173125Y-94942968D01*
X129100535Y-94894465D01*
X129052032Y-94821875D01*
X129035000Y-94736250D01*
X129035000Y-94288750D01*
X129052032Y-94203125D01*
X129100535Y-94130535D01*
X129173125Y-94082032D01*
X129258750Y-94065000D01*
X129781250Y-94065000D01*
X129866875Y-94082032D01*
G37*
G36*
X144911875Y-92542032D02*
G01*
X144984465Y-92590535D01*
X145032968Y-92663125D01*
X145050000Y-92748750D01*
X145050000Y-93271250D01*
X145032968Y-93356875D01*
X144984465Y-93429465D01*
X144911875Y-93477968D01*
X144826250Y-93495000D01*
X144378750Y-93495000D01*
X144293125Y-93477968D01*
X144220535Y-93429465D01*
X144172032Y-93356875D01*
X144155000Y-93271250D01*
X144155000Y-92748750D01*
X144172032Y-92663125D01*
X144220535Y-92590535D01*
X144293125Y-92542032D01*
X144378750Y-92525000D01*
X144826250Y-92525000D01*
X144911875Y-92542032D01*
G37*
G36*
X146486875Y-92542032D02*
G01*
X146559465Y-92590535D01*
X146607968Y-92663125D01*
X146625000Y-92748750D01*
X146625000Y-93271250D01*
X146607968Y-93356875D01*
X146559465Y-93429465D01*
X146486875Y-93477968D01*
X146401250Y-93495000D01*
X145953750Y-93495000D01*
X145868125Y-93477968D01*
X145795535Y-93429465D01*
X145747032Y-93356875D01*
X145730000Y-93271250D01*
X145730000Y-92748750D01*
X145747032Y-92663125D01*
X145795535Y-92590535D01*
X145868125Y-92542032D01*
X145953750Y-92525000D01*
X146401250Y-92525000D01*
X146486875Y-92542032D01*
G37*
G36*
X150916875Y-90717032D02*
G01*
X150989465Y-90765535D01*
X151037968Y-90838125D01*
X151055000Y-90923750D01*
X151055000Y-91371250D01*
X151037968Y-91456875D01*
X150989465Y-91529465D01*
X150916875Y-91577968D01*
X150831250Y-91595000D01*
X150308750Y-91595000D01*
X150223125Y-91577968D01*
X150150535Y-91529465D01*
X150102032Y-91456875D01*
X150085000Y-91371250D01*
X150085000Y-90923750D01*
X150102032Y-90838125D01*
X150150535Y-90765535D01*
X150223125Y-90717032D01*
X150308750Y-90700000D01*
X150831250Y-90700000D01*
X150916875Y-90717032D01*
G37*
G36*
X150916875Y-89142032D02*
G01*
X150989465Y-89190535D01*
X151037968Y-89263125D01*
X151055000Y-89348750D01*
X151055000Y-89796250D01*
X151037968Y-89881875D01*
X150989465Y-89954465D01*
X150916875Y-90002968D01*
X150831250Y-90020000D01*
X150308750Y-90020000D01*
X150223125Y-90002968D01*
X150150535Y-89954465D01*
X150102032Y-89881875D01*
X150085000Y-89796250D01*
X150085000Y-89348750D01*
X150102032Y-89263125D01*
X150150535Y-89190535D01*
X150223125Y-89142032D01*
X150308750Y-89125000D01*
X150831250Y-89125000D01*
X150916875Y-89142032D01*
G37*
G36*
X145856875Y-90777032D02*
G01*
X145929465Y-90825535D01*
X145977968Y-90898125D01*
X145995000Y-90983750D01*
X145995000Y-91431250D01*
X145977968Y-91516875D01*
X145929465Y-91589465D01*
X145856875Y-91637968D01*
X145771250Y-91655000D01*
X145248750Y-91655000D01*
X145163125Y-91637968D01*
X145090535Y-91589465D01*
X145042032Y-91516875D01*
X145025000Y-91431250D01*
X145025000Y-90983750D01*
X145042032Y-90898125D01*
X145090535Y-90825535D01*
X145163125Y-90777032D01*
X145248750Y-90760000D01*
X145771250Y-90760000D01*
X145856875Y-90777032D01*
G37*
G36*
X145856875Y-89202032D02*
G01*
X145929465Y-89250535D01*
X145977968Y-89323125D01*
X145995000Y-89408750D01*
X145995000Y-89856250D01*
X145977968Y-89941875D01*
X145929465Y-90014465D01*
X145856875Y-90062968D01*
X145771250Y-90080000D01*
X145248750Y-90080000D01*
X145163125Y-90062968D01*
X145090535Y-90014465D01*
X145042032Y-89941875D01*
X145025000Y-89856250D01*
X145025000Y-89408750D01*
X145042032Y-89323125D01*
X145090535Y-89250535D01*
X145163125Y-89202032D01*
X145248750Y-89185000D01*
X145771250Y-89185000D01*
X145856875Y-89202032D01*
G37*
M02*
