G04 #@! TF.GenerationSoftware,KiCad,Pcbnew,5.99.0-unknown-a5c7d45~86~ubuntu18.04.1*
G04 #@! TF.CreationDate,2020-01-09T22:12:47+01:00*
G04 #@! TF.ProjectId,V1_0,56315f30-2e6b-4696-9361-645f70636258,rev?*
G04 #@! TF.SameCoordinates,Original*
G04 #@! TF.FileFunction,Paste,Bot*
G04 #@! TF.FilePolarity,Positive*
%FSLAX46Y46*%
G04 Gerber Fmt 4.6, Leading zero omitted, Abs format (unit mm)*
G04 Created by KiCad (PCBNEW 5.99.0-unknown-a5c7d45~86~ubuntu18.04.1) date 2020-01-09 22:12:47*
%MOMM*%
%LPD*%
G04 APERTURE LIST*
%ADD10R,1.000000X0.800000*%
%ADD11R,0.700000X1.500000*%
G04 APERTURE END LIST*
D10*
X144500000Y-130940000D03*
X137200000Y-130940000D03*
X137200000Y-133150000D03*
X144500000Y-133150000D03*
D11*
X138600000Y-130290000D03*
X140100000Y-130290000D03*
X143100000Y-130290000D03*
G36*
X159135671Y-112914030D02*
G01*
X159216777Y-112968223D01*
X159270970Y-113049329D01*
X159290000Y-113144999D01*
X159290000Y-113995001D01*
X159270970Y-114090671D01*
X159216777Y-114171777D01*
X159135671Y-114225970D01*
X159040001Y-114245000D01*
X158139999Y-114245000D01*
X158044329Y-114225970D01*
X157963223Y-114171777D01*
X157909030Y-114090671D01*
X157890000Y-113995001D01*
X157890000Y-113144999D01*
X157909030Y-113049329D01*
X157963223Y-112968223D01*
X158044329Y-112914030D01*
X158139999Y-112895000D01*
X159040001Y-112895000D01*
X159135671Y-112914030D01*
G37*
G36*
X156435671Y-112914030D02*
G01*
X156516777Y-112968223D01*
X156570970Y-113049329D01*
X156590000Y-113144999D01*
X156590000Y-113995001D01*
X156570970Y-114090671D01*
X156516777Y-114171777D01*
X156435671Y-114225970D01*
X156340001Y-114245000D01*
X155439999Y-114245000D01*
X155344329Y-114225970D01*
X155263223Y-114171777D01*
X155209030Y-114090671D01*
X155190000Y-113995001D01*
X155190000Y-113144999D01*
X155209030Y-113049329D01*
X155263223Y-112968223D01*
X155344329Y-112914030D01*
X155439999Y-112895000D01*
X156340001Y-112895000D01*
X156435671Y-112914030D01*
G37*
G36*
X143484962Y-117211651D02*
G01*
X143555930Y-117259070D01*
X143603349Y-117330038D01*
X143620000Y-117413750D01*
X143620000Y-117926250D01*
X143603349Y-118009962D01*
X143555930Y-118080930D01*
X143484962Y-118128349D01*
X143401250Y-118145000D01*
X142963750Y-118145000D01*
X142880038Y-118128349D01*
X142809070Y-118080930D01*
X142761651Y-118009962D01*
X142745000Y-117926250D01*
X142745000Y-117413750D01*
X142761651Y-117330038D01*
X142809070Y-117259070D01*
X142880038Y-117211651D01*
X142963750Y-117195000D01*
X143401250Y-117195000D01*
X143484962Y-117211651D01*
G37*
G36*
X145059962Y-117211651D02*
G01*
X145130930Y-117259070D01*
X145178349Y-117330038D01*
X145195000Y-117413750D01*
X145195000Y-117926250D01*
X145178349Y-118009962D01*
X145130930Y-118080930D01*
X145059962Y-118128349D01*
X144976250Y-118145000D01*
X144538750Y-118145000D01*
X144455038Y-118128349D01*
X144384070Y-118080930D01*
X144336651Y-118009962D01*
X144320000Y-117926250D01*
X144320000Y-117413750D01*
X144336651Y-117330038D01*
X144384070Y-117259070D01*
X144455038Y-117211651D01*
X144538750Y-117195000D01*
X144976250Y-117195000D01*
X145059962Y-117211651D01*
G37*
G36*
X139729962Y-117151651D02*
G01*
X139800930Y-117199070D01*
X139848349Y-117270038D01*
X139865000Y-117353750D01*
X139865000Y-117866250D01*
X139848349Y-117949962D01*
X139800930Y-118020930D01*
X139729962Y-118068349D01*
X139646250Y-118085000D01*
X139208750Y-118085000D01*
X139125038Y-118068349D01*
X139054070Y-118020930D01*
X139006651Y-117949962D01*
X138990000Y-117866250D01*
X138990000Y-117353750D01*
X139006651Y-117270038D01*
X139054070Y-117199070D01*
X139125038Y-117151651D01*
X139208750Y-117135000D01*
X139646250Y-117135000D01*
X139729962Y-117151651D01*
G37*
G36*
X138154962Y-117151651D02*
G01*
X138225930Y-117199070D01*
X138273349Y-117270038D01*
X138290000Y-117353750D01*
X138290000Y-117866250D01*
X138273349Y-117949962D01*
X138225930Y-118020930D01*
X138154962Y-118068349D01*
X138071250Y-118085000D01*
X137633750Y-118085000D01*
X137550038Y-118068349D01*
X137479070Y-118020930D01*
X137431651Y-117949962D01*
X137415000Y-117866250D01*
X137415000Y-117353750D01*
X137431651Y-117270038D01*
X137479070Y-117199070D01*
X137550038Y-117151651D01*
X137633750Y-117135000D01*
X138071250Y-117135000D01*
X138154962Y-117151651D01*
G37*
G36*
X142904962Y-115151651D02*
G01*
X142975930Y-115199070D01*
X143023349Y-115270038D01*
X143040000Y-115353750D01*
X143040000Y-115866250D01*
X143023349Y-115949962D01*
X142975930Y-116020930D01*
X142904962Y-116068349D01*
X142821250Y-116085000D01*
X142383750Y-116085000D01*
X142300038Y-116068349D01*
X142229070Y-116020930D01*
X142181651Y-115949962D01*
X142165000Y-115866250D01*
X142165000Y-115353750D01*
X142181651Y-115270038D01*
X142229070Y-115199070D01*
X142300038Y-115151651D01*
X142383750Y-115135000D01*
X142821250Y-115135000D01*
X142904962Y-115151651D01*
G37*
G36*
X144479962Y-115151651D02*
G01*
X144550930Y-115199070D01*
X144598349Y-115270038D01*
X144615000Y-115353750D01*
X144615000Y-115866250D01*
X144598349Y-115949962D01*
X144550930Y-116020930D01*
X144479962Y-116068349D01*
X144396250Y-116085000D01*
X143958750Y-116085000D01*
X143875038Y-116068349D01*
X143804070Y-116020930D01*
X143756651Y-115949962D01*
X143740000Y-115866250D01*
X143740000Y-115353750D01*
X143756651Y-115270038D01*
X143804070Y-115199070D01*
X143875038Y-115151651D01*
X143958750Y-115135000D01*
X144396250Y-115135000D01*
X144479962Y-115151651D01*
G37*
G36*
X138162462Y-115411651D02*
G01*
X138233430Y-115459070D01*
X138280849Y-115530038D01*
X138297500Y-115613750D01*
X138297500Y-116126250D01*
X138280849Y-116209962D01*
X138233430Y-116280930D01*
X138162462Y-116328349D01*
X138078750Y-116345000D01*
X137641250Y-116345000D01*
X137557538Y-116328349D01*
X137486570Y-116280930D01*
X137439151Y-116209962D01*
X137422500Y-116126250D01*
X137422500Y-115613750D01*
X137439151Y-115530038D01*
X137486570Y-115459070D01*
X137557538Y-115411651D01*
X137641250Y-115395000D01*
X138078750Y-115395000D01*
X138162462Y-115411651D01*
G37*
G36*
X139737462Y-115411651D02*
G01*
X139808430Y-115459070D01*
X139855849Y-115530038D01*
X139872500Y-115613750D01*
X139872500Y-116126250D01*
X139855849Y-116209962D01*
X139808430Y-116280930D01*
X139737462Y-116328349D01*
X139653750Y-116345000D01*
X139216250Y-116345000D01*
X139132538Y-116328349D01*
X139061570Y-116280930D01*
X139014151Y-116209962D01*
X138997500Y-116126250D01*
X138997500Y-115613750D01*
X139014151Y-115530038D01*
X139061570Y-115459070D01*
X139132538Y-115411651D01*
X139216250Y-115395000D01*
X139653750Y-115395000D01*
X139737462Y-115411651D01*
G37*
G36*
X138414962Y-110121651D02*
G01*
X138485930Y-110169070D01*
X138533349Y-110240038D01*
X138550000Y-110323750D01*
X138550000Y-110836250D01*
X138533349Y-110919962D01*
X138485930Y-110990930D01*
X138414962Y-111038349D01*
X138331250Y-111055000D01*
X137893750Y-111055000D01*
X137810038Y-111038349D01*
X137739070Y-110990930D01*
X137691651Y-110919962D01*
X137675000Y-110836250D01*
X137675000Y-110323750D01*
X137691651Y-110240038D01*
X137739070Y-110169070D01*
X137810038Y-110121651D01*
X137893750Y-110105000D01*
X138331250Y-110105000D01*
X138414962Y-110121651D01*
G37*
G36*
X139989962Y-110121651D02*
G01*
X140060930Y-110169070D01*
X140108349Y-110240038D01*
X140125000Y-110323750D01*
X140125000Y-110836250D01*
X140108349Y-110919962D01*
X140060930Y-110990930D01*
X139989962Y-111038349D01*
X139906250Y-111055000D01*
X139468750Y-111055000D01*
X139385038Y-111038349D01*
X139314070Y-110990930D01*
X139266651Y-110919962D01*
X139250000Y-110836250D01*
X139250000Y-110323750D01*
X139266651Y-110240038D01*
X139314070Y-110169070D01*
X139385038Y-110121651D01*
X139468750Y-110105000D01*
X139906250Y-110105000D01*
X139989962Y-110121651D01*
G37*
G36*
X145329962Y-112446651D02*
G01*
X145400930Y-112494070D01*
X145448349Y-112565038D01*
X145465000Y-112648750D01*
X145465000Y-113086250D01*
X145448349Y-113169962D01*
X145400930Y-113240930D01*
X145329962Y-113288349D01*
X145246250Y-113305000D01*
X144733750Y-113305000D01*
X144650038Y-113288349D01*
X144579070Y-113240930D01*
X144531651Y-113169962D01*
X144515000Y-113086250D01*
X144515000Y-112648750D01*
X144531651Y-112565038D01*
X144579070Y-112494070D01*
X144650038Y-112446651D01*
X144733750Y-112430000D01*
X145246250Y-112430000D01*
X145329962Y-112446651D01*
G37*
G36*
X145329962Y-110871651D02*
G01*
X145400930Y-110919070D01*
X145448349Y-110990038D01*
X145465000Y-111073750D01*
X145465000Y-111511250D01*
X145448349Y-111594962D01*
X145400930Y-111665930D01*
X145329962Y-111713349D01*
X145246250Y-111730000D01*
X144733750Y-111730000D01*
X144650038Y-111713349D01*
X144579070Y-111665930D01*
X144531651Y-111594962D01*
X144515000Y-111511250D01*
X144515000Y-111073750D01*
X144531651Y-110990038D01*
X144579070Y-110919070D01*
X144650038Y-110871651D01*
X144733750Y-110855000D01*
X145246250Y-110855000D01*
X145329962Y-110871651D01*
G37*
G36*
X105139962Y-94601651D02*
G01*
X105210930Y-94649070D01*
X105258349Y-94720038D01*
X105275000Y-94803750D01*
X105275000Y-95241250D01*
X105258349Y-95324962D01*
X105210930Y-95395930D01*
X105139962Y-95443349D01*
X105056250Y-95460000D01*
X104543750Y-95460000D01*
X104460038Y-95443349D01*
X104389070Y-95395930D01*
X104341651Y-95324962D01*
X104325000Y-95241250D01*
X104325000Y-94803750D01*
X104341651Y-94720038D01*
X104389070Y-94649070D01*
X104460038Y-94601651D01*
X104543750Y-94585000D01*
X105056250Y-94585000D01*
X105139962Y-94601651D01*
G37*
G36*
X105139962Y-96176651D02*
G01*
X105210930Y-96224070D01*
X105258349Y-96295038D01*
X105275000Y-96378750D01*
X105275000Y-96816250D01*
X105258349Y-96899962D01*
X105210930Y-96970930D01*
X105139962Y-97018349D01*
X105056250Y-97035000D01*
X104543750Y-97035000D01*
X104460038Y-97018349D01*
X104389070Y-96970930D01*
X104341651Y-96899962D01*
X104325000Y-96816250D01*
X104325000Y-96378750D01*
X104341651Y-96295038D01*
X104389070Y-96224070D01*
X104460038Y-96176651D01*
X104543750Y-96160000D01*
X105056250Y-96160000D01*
X105139962Y-96176651D01*
G37*
M02*
