G04 #@! TF.GenerationSoftware,KiCad,Pcbnew,5.99.0-unknown-a5c7d45~86~ubuntu18.04.1*
G04 #@! TF.CreationDate,2020-01-09T22:12:47+01:00*
G04 #@! TF.ProjectId,V1_0,56315f30-2e6b-4696-9361-645f70636258,rev?*
G04 #@! TF.SameCoordinates,Original*
G04 #@! TF.FileFunction,Soldermask,Bot*
G04 #@! TF.FilePolarity,Negative*
%FSLAX46Y46*%
G04 Gerber Fmt 4.6, Leading zero omitted, Abs format (unit mm)*
G04 Created by KiCad (PCBNEW 5.99.0-unknown-a5c7d45~86~ubuntu18.04.1) date 2020-01-09 22:12:47*
%MOMM*%
%LPD*%
G04 APERTURE LIST*
G04 APERTURE END LIST*
G36*
X145003903Y-132740580D02*
G01*
X145007210Y-132742790D01*
X145009420Y-132746097D01*
X145010441Y-132751231D01*
X145010441Y-133548769D01*
X145009420Y-133553903D01*
X145007210Y-133557210D01*
X145003903Y-133559420D01*
X144998769Y-133560441D01*
X144001231Y-133560441D01*
X143996097Y-133559420D01*
X143992790Y-133557210D01*
X143990580Y-133553903D01*
X143989559Y-133548769D01*
X143989559Y-132751231D01*
X143990580Y-132746097D01*
X143992790Y-132742790D01*
X143996097Y-132740580D01*
X144001231Y-132739559D01*
X144998769Y-132739559D01*
X145003903Y-132740580D01*
G37*
G36*
X137703903Y-132740580D02*
G01*
X137707210Y-132742790D01*
X137709420Y-132746097D01*
X137710441Y-132751231D01*
X137710441Y-133548769D01*
X137709420Y-133553903D01*
X137707210Y-133557210D01*
X137703903Y-133559420D01*
X137698769Y-133560441D01*
X136701231Y-133560441D01*
X136696097Y-133559420D01*
X136692790Y-133557210D01*
X136690580Y-133553903D01*
X136689559Y-133548769D01*
X136689559Y-132751231D01*
X136690580Y-132746097D01*
X136692790Y-132742790D01*
X136696097Y-132740580D01*
X136701231Y-132739559D01*
X137698769Y-132739559D01*
X137703903Y-132740580D01*
G37*
G36*
X142402671Y-131592712D02*
G01*
X142455437Y-131596911D01*
X142470580Y-131602922D01*
X142483544Y-131604871D01*
X142531849Y-131627242D01*
X142584002Y-131647944D01*
X142594170Y-131656105D01*
X142603110Y-131660245D01*
X142645671Y-131697438D01*
X142691879Y-131734524D01*
X142697367Y-131742615D01*
X142702328Y-131746950D01*
X142734541Y-131797417D01*
X142769528Y-131848996D01*
X142771437Y-131855222D01*
X142773222Y-131858018D01*
X142790997Y-131919001D01*
X142810085Y-131981240D01*
X142810057Y-131984392D01*
X142810073Y-131984445D01*
X142810025Y-131988096D01*
X142808815Y-132126779D01*
X142788425Y-132189346D01*
X142768051Y-132252996D01*
X142767340Y-132254048D01*
X142765956Y-132258295D01*
X142729034Y-132310733D01*
X142694276Y-132362167D01*
X142690777Y-132365067D01*
X142686321Y-132371395D01*
X142637925Y-132408867D01*
X142592818Y-132446249D01*
X142585648Y-132449344D01*
X142576950Y-132456079D01*
X142522609Y-132476559D01*
X142471847Y-132498473D01*
X142460854Y-132499832D01*
X142447514Y-132504860D01*
X142392706Y-132508260D01*
X142341078Y-132514645D01*
X142326931Y-132512341D01*
X142309456Y-132513425D01*
X142259163Y-132501304D01*
X142211030Y-132493465D01*
X142195162Y-132485880D01*
X142174982Y-132481016D01*
X142133218Y-132456267D01*
X142092145Y-132436633D01*
X142076625Y-132422732D01*
X142055983Y-132410500D01*
X142025498Y-132376939D01*
X141993997Y-132348724D01*
X141981290Y-132328270D01*
X141962979Y-132308111D01*
X141945071Y-132269968D01*
X141924465Y-132236799D01*
X141917141Y-132210480D01*
X141904193Y-132182901D01*
X141898742Y-132144360D01*
X141889140Y-132109853D01*
X141889540Y-132079294D01*
X141884823Y-132045940D01*
X141890438Y-132010684D01*
X141890865Y-131978103D01*
X141900774Y-131945794D01*
X141906580Y-131909339D01*
X141920896Y-131880182D01*
X141929500Y-131852126D01*
X141949859Y-131821191D01*
X141967543Y-131785174D01*
X141987585Y-131763869D01*
X142001936Y-131742063D01*
X142032620Y-131715995D01*
X142062320Y-131684423D01*
X142084936Y-131671549D01*
X142102358Y-131656748D01*
X142142080Y-131639021D01*
X142182531Y-131615995D01*
X142204769Y-131611044D01*
X142222683Y-131603050D01*
X142268993Y-131596747D01*
X142317550Y-131585938D01*
X142337029Y-131587488D01*
X142353246Y-131585281D01*
X142402671Y-131592712D01*
G37*
G36*
X139402671Y-131592712D02*
G01*
X139455437Y-131596911D01*
X139470580Y-131602922D01*
X139483544Y-131604871D01*
X139531849Y-131627242D01*
X139584002Y-131647944D01*
X139594170Y-131656105D01*
X139603110Y-131660245D01*
X139645671Y-131697438D01*
X139691879Y-131734524D01*
X139697367Y-131742615D01*
X139702328Y-131746950D01*
X139734541Y-131797417D01*
X139769528Y-131848996D01*
X139771437Y-131855222D01*
X139773222Y-131858018D01*
X139790997Y-131919001D01*
X139810085Y-131981240D01*
X139810057Y-131984392D01*
X139810073Y-131984445D01*
X139810025Y-131988096D01*
X139808815Y-132126779D01*
X139788425Y-132189346D01*
X139768051Y-132252996D01*
X139767340Y-132254048D01*
X139765956Y-132258295D01*
X139729034Y-132310733D01*
X139694276Y-132362167D01*
X139690777Y-132365067D01*
X139686321Y-132371395D01*
X139637925Y-132408867D01*
X139592818Y-132446249D01*
X139585648Y-132449344D01*
X139576950Y-132456079D01*
X139522609Y-132476559D01*
X139471847Y-132498473D01*
X139460854Y-132499832D01*
X139447514Y-132504860D01*
X139392706Y-132508260D01*
X139341078Y-132514645D01*
X139326931Y-132512341D01*
X139309456Y-132513425D01*
X139259163Y-132501304D01*
X139211030Y-132493465D01*
X139195162Y-132485880D01*
X139174982Y-132481016D01*
X139133218Y-132456267D01*
X139092145Y-132436633D01*
X139076625Y-132422732D01*
X139055983Y-132410500D01*
X139025498Y-132376939D01*
X138993997Y-132348724D01*
X138981290Y-132328270D01*
X138962979Y-132308111D01*
X138945071Y-132269968D01*
X138924465Y-132236799D01*
X138917141Y-132210480D01*
X138904193Y-132182901D01*
X138898742Y-132144360D01*
X138889140Y-132109853D01*
X138889540Y-132079294D01*
X138884823Y-132045940D01*
X138890438Y-132010684D01*
X138890865Y-131978103D01*
X138900774Y-131945794D01*
X138906580Y-131909339D01*
X138920896Y-131880182D01*
X138929500Y-131852126D01*
X138949859Y-131821191D01*
X138967543Y-131785174D01*
X138987585Y-131763869D01*
X139001936Y-131742063D01*
X139032620Y-131715995D01*
X139062320Y-131684423D01*
X139084936Y-131671549D01*
X139102358Y-131656748D01*
X139142080Y-131639021D01*
X139182531Y-131615995D01*
X139204769Y-131611044D01*
X139222683Y-131603050D01*
X139268993Y-131596747D01*
X139317550Y-131585938D01*
X139337029Y-131587488D01*
X139353246Y-131585281D01*
X139402671Y-131592712D01*
G37*
G36*
X145003903Y-130530580D02*
G01*
X145007210Y-130532790D01*
X145009420Y-130536097D01*
X145010441Y-130541231D01*
X145010441Y-131338769D01*
X145009420Y-131343903D01*
X145007210Y-131347210D01*
X145003903Y-131349420D01*
X144998769Y-131350441D01*
X144001231Y-131350441D01*
X143996097Y-131349420D01*
X143992790Y-131347210D01*
X143990580Y-131343903D01*
X143989559Y-131338769D01*
X143989559Y-130541231D01*
X143990580Y-130536097D01*
X143992790Y-130532790D01*
X143996097Y-130530580D01*
X144001231Y-130529559D01*
X144998769Y-130529559D01*
X145003903Y-130530580D01*
G37*
G36*
X137703903Y-130530580D02*
G01*
X137707210Y-130532790D01*
X137709420Y-130536097D01*
X137710441Y-130541231D01*
X137710441Y-131338769D01*
X137709420Y-131343903D01*
X137707210Y-131347210D01*
X137703903Y-131349420D01*
X137698769Y-131350441D01*
X136701231Y-131350441D01*
X136696097Y-131349420D01*
X136692790Y-131347210D01*
X136690580Y-131343903D01*
X136689559Y-131338769D01*
X136689559Y-130541231D01*
X136690580Y-130536097D01*
X136692790Y-130532790D01*
X136696097Y-130530580D01*
X136701231Y-130529559D01*
X137698769Y-130529559D01*
X137703903Y-130530580D01*
G37*
G36*
X138953903Y-129530580D02*
G01*
X138957210Y-129532790D01*
X138959420Y-129536097D01*
X138960441Y-129541231D01*
X138960441Y-131038769D01*
X138959420Y-131043903D01*
X138957210Y-131047210D01*
X138953903Y-131049420D01*
X138948769Y-131050441D01*
X138251231Y-131050441D01*
X138246097Y-131049420D01*
X138242790Y-131047210D01*
X138240580Y-131043903D01*
X138239559Y-131038769D01*
X138239559Y-129541231D01*
X138240580Y-129536097D01*
X138242790Y-129532790D01*
X138246097Y-129530580D01*
X138251231Y-129529559D01*
X138948769Y-129529559D01*
X138953903Y-129530580D01*
G37*
G36*
X143453903Y-129530580D02*
G01*
X143457210Y-129532790D01*
X143459420Y-129536097D01*
X143460441Y-129541231D01*
X143460441Y-131038769D01*
X143459420Y-131043903D01*
X143457210Y-131047210D01*
X143453903Y-131049420D01*
X143448769Y-131050441D01*
X142751231Y-131050441D01*
X142746097Y-131049420D01*
X142742790Y-131047210D01*
X142740580Y-131043903D01*
X142739559Y-131038769D01*
X142739559Y-129541231D01*
X142740580Y-129536097D01*
X142742790Y-129532790D01*
X142746097Y-129530580D01*
X142751231Y-129529559D01*
X143448769Y-129529559D01*
X143453903Y-129530580D01*
G37*
G36*
X140453903Y-129530580D02*
G01*
X140457210Y-129532790D01*
X140459420Y-129536097D01*
X140460441Y-129541231D01*
X140460441Y-131038769D01*
X140459420Y-131043903D01*
X140457210Y-131047210D01*
X140453903Y-131049420D01*
X140448769Y-131050441D01*
X139751231Y-131050441D01*
X139746097Y-131049420D01*
X139742790Y-131047210D01*
X139740580Y-131043903D01*
X139739559Y-131038769D01*
X139739559Y-129541231D01*
X139740580Y-129536097D01*
X139742790Y-129532790D01*
X139746097Y-129530580D01*
X139751231Y-129529559D01*
X140448769Y-129529559D01*
X140453903Y-129530580D01*
G37*
G36*
X154690242Y-129104983D02*
G01*
X154690245Y-129104984D01*
X154690246Y-129104984D01*
X154872171Y-129164095D01*
X155037828Y-129259738D01*
X155037831Y-129259740D01*
X155179986Y-129387737D01*
X155287776Y-129536097D01*
X155292425Y-129542496D01*
X155370228Y-129717243D01*
X155410000Y-129904356D01*
X155410000Y-130095644D01*
X155370228Y-130282757D01*
X155292425Y-130457504D01*
X155292424Y-130457506D01*
X155179986Y-130612263D01*
X155037831Y-130740260D01*
X155037829Y-130740261D01*
X155037828Y-130740262D01*
X154872171Y-130835905D01*
X154690246Y-130895016D01*
X154690245Y-130895016D01*
X154690242Y-130895017D01*
X154500000Y-130915012D01*
X154309758Y-130895017D01*
X154309755Y-130895016D01*
X154309754Y-130895016D01*
X154127829Y-130835905D01*
X153962172Y-130740262D01*
X153962171Y-130740261D01*
X153962169Y-130740260D01*
X153820014Y-130612263D01*
X153707576Y-130457506D01*
X153707575Y-130457504D01*
X153629772Y-130282757D01*
X153590000Y-130095644D01*
X153590000Y-129904356D01*
X153629772Y-129717243D01*
X153707575Y-129542496D01*
X153712224Y-129536097D01*
X153820014Y-129387737D01*
X153962169Y-129259740D01*
X153962172Y-129259738D01*
X154127829Y-129164095D01*
X154309754Y-129104984D01*
X154309755Y-129104984D01*
X154309758Y-129104983D01*
X154500000Y-129084988D01*
X154690242Y-129104983D01*
G37*
G36*
X152190242Y-129104983D02*
G01*
X152190245Y-129104984D01*
X152190246Y-129104984D01*
X152372171Y-129164095D01*
X152537828Y-129259738D01*
X152537831Y-129259740D01*
X152679986Y-129387737D01*
X152787776Y-129536097D01*
X152792425Y-129542496D01*
X152870228Y-129717243D01*
X152910000Y-129904356D01*
X152910000Y-130095644D01*
X152870228Y-130282757D01*
X152792425Y-130457504D01*
X152792424Y-130457506D01*
X152679986Y-130612263D01*
X152537831Y-130740260D01*
X152537829Y-130740261D01*
X152537828Y-130740262D01*
X152372171Y-130835905D01*
X152190246Y-130895016D01*
X152190245Y-130895016D01*
X152190242Y-130895017D01*
X152000000Y-130915012D01*
X151809758Y-130895017D01*
X151809755Y-130895016D01*
X151809754Y-130895016D01*
X151627829Y-130835905D01*
X151462172Y-130740262D01*
X151462171Y-130740261D01*
X151462169Y-130740260D01*
X151320014Y-130612263D01*
X151207576Y-130457506D01*
X151207575Y-130457504D01*
X151129772Y-130282757D01*
X151090000Y-130095644D01*
X151090000Y-129904356D01*
X151129772Y-129717243D01*
X151207575Y-129542496D01*
X151212224Y-129536097D01*
X151320014Y-129387737D01*
X151462169Y-129259740D01*
X151462172Y-129259738D01*
X151627829Y-129164095D01*
X151809754Y-129104984D01*
X151809755Y-129104984D01*
X151809758Y-129104983D01*
X152000000Y-129084988D01*
X152190242Y-129104983D01*
G37*
G36*
X149690242Y-129104983D02*
G01*
X149690245Y-129104984D01*
X149690246Y-129104984D01*
X149872171Y-129164095D01*
X150037828Y-129259738D01*
X150037831Y-129259740D01*
X150179986Y-129387737D01*
X150287776Y-129536097D01*
X150292425Y-129542496D01*
X150370228Y-129717243D01*
X150410000Y-129904356D01*
X150410000Y-130095644D01*
X150370228Y-130282757D01*
X150292425Y-130457504D01*
X150292424Y-130457506D01*
X150179986Y-130612263D01*
X150037831Y-130740260D01*
X150037829Y-130740261D01*
X150037828Y-130740262D01*
X149872171Y-130835905D01*
X149690246Y-130895016D01*
X149690245Y-130895016D01*
X149690242Y-130895017D01*
X149500000Y-130915012D01*
X149309758Y-130895017D01*
X149309755Y-130895016D01*
X149309754Y-130895016D01*
X149127829Y-130835905D01*
X148962172Y-130740262D01*
X148962171Y-130740261D01*
X148962169Y-130740260D01*
X148820014Y-130612263D01*
X148707576Y-130457506D01*
X148707575Y-130457504D01*
X148629772Y-130282757D01*
X148590000Y-130095644D01*
X148590000Y-129904356D01*
X148629772Y-129717243D01*
X148707575Y-129542496D01*
X148712224Y-129536097D01*
X148820014Y-129387737D01*
X148962169Y-129259740D01*
X148962172Y-129259738D01*
X149127829Y-129164095D01*
X149309754Y-129104984D01*
X149309755Y-129104984D01*
X149309758Y-129104983D01*
X149500000Y-129084988D01*
X149690242Y-129104983D01*
G37*
G36*
X132190242Y-129104983D02*
G01*
X132190245Y-129104984D01*
X132190246Y-129104984D01*
X132372171Y-129164095D01*
X132537828Y-129259738D01*
X132537831Y-129259740D01*
X132679986Y-129387737D01*
X132787776Y-129536097D01*
X132792425Y-129542496D01*
X132870228Y-129717243D01*
X132910000Y-129904356D01*
X132910000Y-130095644D01*
X132870228Y-130282757D01*
X132792425Y-130457504D01*
X132792424Y-130457506D01*
X132679986Y-130612263D01*
X132537831Y-130740260D01*
X132537829Y-130740261D01*
X132537828Y-130740262D01*
X132372171Y-130835905D01*
X132190246Y-130895016D01*
X132190245Y-130895016D01*
X132190242Y-130895017D01*
X132000000Y-130915012D01*
X131809758Y-130895017D01*
X131809755Y-130895016D01*
X131809754Y-130895016D01*
X131627829Y-130835905D01*
X131462172Y-130740262D01*
X131462171Y-130740261D01*
X131462169Y-130740260D01*
X131320014Y-130612263D01*
X131207576Y-130457506D01*
X131207575Y-130457504D01*
X131129772Y-130282757D01*
X131090000Y-130095644D01*
X131090000Y-129904356D01*
X131129772Y-129717243D01*
X131207575Y-129542496D01*
X131212224Y-129536097D01*
X131320014Y-129387737D01*
X131462169Y-129259740D01*
X131462172Y-129259738D01*
X131627829Y-129164095D01*
X131809754Y-129104984D01*
X131809755Y-129104984D01*
X131809758Y-129104983D01*
X132000000Y-129084988D01*
X132190242Y-129104983D01*
G37*
G36*
X127190242Y-129104983D02*
G01*
X127190245Y-129104984D01*
X127190246Y-129104984D01*
X127372171Y-129164095D01*
X127537828Y-129259738D01*
X127537831Y-129259740D01*
X127679986Y-129387737D01*
X127787776Y-129536097D01*
X127792425Y-129542496D01*
X127870228Y-129717243D01*
X127910000Y-129904356D01*
X127910000Y-130095644D01*
X127870228Y-130282757D01*
X127792425Y-130457504D01*
X127792424Y-130457506D01*
X127679986Y-130612263D01*
X127537831Y-130740260D01*
X127537829Y-130740261D01*
X127537828Y-130740262D01*
X127372171Y-130835905D01*
X127190246Y-130895016D01*
X127190245Y-130895016D01*
X127190242Y-130895017D01*
X127000000Y-130915012D01*
X126809758Y-130895017D01*
X126809755Y-130895016D01*
X126809754Y-130895016D01*
X126627829Y-130835905D01*
X126462172Y-130740262D01*
X126462171Y-130740261D01*
X126462169Y-130740260D01*
X126320014Y-130612263D01*
X126207576Y-130457506D01*
X126207575Y-130457504D01*
X126129772Y-130282757D01*
X126090000Y-130095644D01*
X126090000Y-129904356D01*
X126129772Y-129717243D01*
X126207575Y-129542496D01*
X126212224Y-129536097D01*
X126320014Y-129387737D01*
X126462169Y-129259740D01*
X126462172Y-129259738D01*
X126627829Y-129164095D01*
X126809754Y-129104984D01*
X126809755Y-129104984D01*
X126809758Y-129104983D01*
X127000000Y-129084988D01*
X127190242Y-129104983D01*
G37*
G36*
X177190242Y-129104983D02*
G01*
X177190245Y-129104984D01*
X177190246Y-129104984D01*
X177372171Y-129164095D01*
X177537828Y-129259738D01*
X177537831Y-129259740D01*
X177679986Y-129387737D01*
X177787776Y-129536097D01*
X177792425Y-129542496D01*
X177870228Y-129717243D01*
X177910000Y-129904356D01*
X177910000Y-130095644D01*
X177870228Y-130282757D01*
X177792425Y-130457504D01*
X177792424Y-130457506D01*
X177679986Y-130612263D01*
X177537831Y-130740260D01*
X177537829Y-130740261D01*
X177537828Y-130740262D01*
X177372171Y-130835905D01*
X177190246Y-130895016D01*
X177190245Y-130895016D01*
X177190242Y-130895017D01*
X177000000Y-130915012D01*
X176809758Y-130895017D01*
X176809755Y-130895016D01*
X176809754Y-130895016D01*
X176627829Y-130835905D01*
X176462172Y-130740262D01*
X176462171Y-130740261D01*
X176462169Y-130740260D01*
X176320014Y-130612263D01*
X176207576Y-130457506D01*
X176207575Y-130457504D01*
X176129772Y-130282757D01*
X176090000Y-130095644D01*
X176090000Y-129904356D01*
X176129772Y-129717243D01*
X176207575Y-129542496D01*
X176212224Y-129536097D01*
X176320014Y-129387737D01*
X176462169Y-129259740D01*
X176462172Y-129259738D01*
X176627829Y-129164095D01*
X176809754Y-129104984D01*
X176809755Y-129104984D01*
X176809758Y-129104983D01*
X177000000Y-129084988D01*
X177190242Y-129104983D01*
G37*
G36*
X172190242Y-129104983D02*
G01*
X172190245Y-129104984D01*
X172190246Y-129104984D01*
X172372171Y-129164095D01*
X172537828Y-129259738D01*
X172537831Y-129259740D01*
X172679986Y-129387737D01*
X172787776Y-129536097D01*
X172792425Y-129542496D01*
X172870228Y-129717243D01*
X172910000Y-129904356D01*
X172910000Y-130095644D01*
X172870228Y-130282757D01*
X172792425Y-130457504D01*
X172792424Y-130457506D01*
X172679986Y-130612263D01*
X172537831Y-130740260D01*
X172537829Y-130740261D01*
X172537828Y-130740262D01*
X172372171Y-130835905D01*
X172190246Y-130895016D01*
X172190245Y-130895016D01*
X172190242Y-130895017D01*
X172000000Y-130915012D01*
X171809758Y-130895017D01*
X171809755Y-130895016D01*
X171809754Y-130895016D01*
X171627829Y-130835905D01*
X171462172Y-130740262D01*
X171462171Y-130740261D01*
X171462169Y-130740260D01*
X171320014Y-130612263D01*
X171207576Y-130457506D01*
X171207575Y-130457504D01*
X171129772Y-130282757D01*
X171090000Y-130095644D01*
X171090000Y-129904356D01*
X171129772Y-129717243D01*
X171207575Y-129542496D01*
X171212224Y-129536097D01*
X171320014Y-129387737D01*
X171462169Y-129259740D01*
X171462172Y-129259738D01*
X171627829Y-129164095D01*
X171809754Y-129104984D01*
X171809755Y-129104984D01*
X171809758Y-129104983D01*
X172000000Y-129084988D01*
X172190242Y-129104983D01*
G37*
G36*
X104690242Y-129104983D02*
G01*
X104690245Y-129104984D01*
X104690246Y-129104984D01*
X104872171Y-129164095D01*
X105037828Y-129259738D01*
X105037831Y-129259740D01*
X105179986Y-129387737D01*
X105287776Y-129536097D01*
X105292425Y-129542496D01*
X105370228Y-129717243D01*
X105410000Y-129904356D01*
X105410000Y-130095644D01*
X105370228Y-130282757D01*
X105292425Y-130457504D01*
X105292424Y-130457506D01*
X105179986Y-130612263D01*
X105037831Y-130740260D01*
X105037829Y-130740261D01*
X105037828Y-130740262D01*
X104872171Y-130835905D01*
X104690246Y-130895016D01*
X104690245Y-130895016D01*
X104690242Y-130895017D01*
X104500000Y-130915012D01*
X104309758Y-130895017D01*
X104309755Y-130895016D01*
X104309754Y-130895016D01*
X104127829Y-130835905D01*
X103962172Y-130740262D01*
X103962171Y-130740261D01*
X103962169Y-130740260D01*
X103820014Y-130612263D01*
X103707576Y-130457506D01*
X103707575Y-130457504D01*
X103629772Y-130282757D01*
X103590000Y-130095644D01*
X103590000Y-129904356D01*
X103629772Y-129717243D01*
X103707575Y-129542496D01*
X103712224Y-129536097D01*
X103820014Y-129387737D01*
X103962169Y-129259740D01*
X103962172Y-129259738D01*
X104127829Y-129164095D01*
X104309754Y-129104984D01*
X104309755Y-129104984D01*
X104309758Y-129104983D01*
X104500000Y-129084988D01*
X104690242Y-129104983D01*
G37*
G36*
X107190242Y-129104983D02*
G01*
X107190245Y-129104984D01*
X107190246Y-129104984D01*
X107372171Y-129164095D01*
X107537828Y-129259738D01*
X107537831Y-129259740D01*
X107679986Y-129387737D01*
X107787776Y-129536097D01*
X107792425Y-129542496D01*
X107870228Y-129717243D01*
X107910000Y-129904356D01*
X107910000Y-130095644D01*
X107870228Y-130282757D01*
X107792425Y-130457504D01*
X107792424Y-130457506D01*
X107679986Y-130612263D01*
X107537831Y-130740260D01*
X107537829Y-130740261D01*
X107537828Y-130740262D01*
X107372171Y-130835905D01*
X107190246Y-130895016D01*
X107190245Y-130895016D01*
X107190242Y-130895017D01*
X107000000Y-130915012D01*
X106809758Y-130895017D01*
X106809755Y-130895016D01*
X106809754Y-130895016D01*
X106627829Y-130835905D01*
X106462172Y-130740262D01*
X106462171Y-130740261D01*
X106462169Y-130740260D01*
X106320014Y-130612263D01*
X106207576Y-130457506D01*
X106207575Y-130457504D01*
X106129772Y-130282757D01*
X106090000Y-130095644D01*
X106090000Y-129904356D01*
X106129772Y-129717243D01*
X106207575Y-129542496D01*
X106212224Y-129536097D01*
X106320014Y-129387737D01*
X106462169Y-129259740D01*
X106462172Y-129259738D01*
X106627829Y-129164095D01*
X106809754Y-129104984D01*
X106809755Y-129104984D01*
X106809758Y-129104983D01*
X107000000Y-129084988D01*
X107190242Y-129104983D01*
G37*
G36*
X109690242Y-129104983D02*
G01*
X109690245Y-129104984D01*
X109690246Y-129104984D01*
X109872171Y-129164095D01*
X110037828Y-129259738D01*
X110037831Y-129259740D01*
X110179986Y-129387737D01*
X110287776Y-129536097D01*
X110292425Y-129542496D01*
X110370228Y-129717243D01*
X110410000Y-129904356D01*
X110410000Y-130095644D01*
X110370228Y-130282757D01*
X110292425Y-130457504D01*
X110292424Y-130457506D01*
X110179986Y-130612263D01*
X110037831Y-130740260D01*
X110037829Y-130740261D01*
X110037828Y-130740262D01*
X109872171Y-130835905D01*
X109690246Y-130895016D01*
X109690245Y-130895016D01*
X109690242Y-130895017D01*
X109500000Y-130915012D01*
X109309758Y-130895017D01*
X109309755Y-130895016D01*
X109309754Y-130895016D01*
X109127829Y-130835905D01*
X108962172Y-130740262D01*
X108962171Y-130740261D01*
X108962169Y-130740260D01*
X108820014Y-130612263D01*
X108707576Y-130457506D01*
X108707575Y-130457504D01*
X108629772Y-130282757D01*
X108590000Y-130095644D01*
X108590000Y-129904356D01*
X108629772Y-129717243D01*
X108707575Y-129542496D01*
X108712224Y-129536097D01*
X108820014Y-129387737D01*
X108962169Y-129259740D01*
X108962172Y-129259738D01*
X109127829Y-129164095D01*
X109309754Y-129104984D01*
X109309755Y-129104984D01*
X109309758Y-129104983D01*
X109500000Y-129084988D01*
X109690242Y-129104983D01*
G37*
G36*
X174690242Y-129104983D02*
G01*
X174690245Y-129104984D01*
X174690246Y-129104984D01*
X174872171Y-129164095D01*
X175037828Y-129259738D01*
X175037831Y-129259740D01*
X175179986Y-129387737D01*
X175287776Y-129536097D01*
X175292425Y-129542496D01*
X175370228Y-129717243D01*
X175410000Y-129904356D01*
X175410000Y-130095644D01*
X175370228Y-130282757D01*
X175292425Y-130457504D01*
X175292424Y-130457506D01*
X175179986Y-130612263D01*
X175037831Y-130740260D01*
X175037829Y-130740261D01*
X175037828Y-130740262D01*
X174872171Y-130835905D01*
X174690246Y-130895016D01*
X174690245Y-130895016D01*
X174690242Y-130895017D01*
X174500000Y-130915012D01*
X174309758Y-130895017D01*
X174309755Y-130895016D01*
X174309754Y-130895016D01*
X174127829Y-130835905D01*
X173962172Y-130740262D01*
X173962171Y-130740261D01*
X173962169Y-130740260D01*
X173820014Y-130612263D01*
X173707576Y-130457506D01*
X173707575Y-130457504D01*
X173629772Y-130282757D01*
X173590000Y-130095644D01*
X173590000Y-129904356D01*
X173629772Y-129717243D01*
X173707575Y-129542496D01*
X173712224Y-129536097D01*
X173820014Y-129387737D01*
X173962169Y-129259740D01*
X173962172Y-129259738D01*
X174127829Y-129164095D01*
X174309754Y-129104984D01*
X174309755Y-129104984D01*
X174309758Y-129104983D01*
X174500000Y-129084988D01*
X174690242Y-129104983D01*
G37*
G36*
X129690242Y-129104983D02*
G01*
X129690245Y-129104984D01*
X129690246Y-129104984D01*
X129872171Y-129164095D01*
X130037828Y-129259738D01*
X130037831Y-129259740D01*
X130179986Y-129387737D01*
X130287776Y-129536097D01*
X130292425Y-129542496D01*
X130370228Y-129717243D01*
X130410000Y-129904356D01*
X130410000Y-130095644D01*
X130370228Y-130282757D01*
X130292425Y-130457504D01*
X130292424Y-130457506D01*
X130179986Y-130612263D01*
X130037831Y-130740260D01*
X130037829Y-130740261D01*
X130037828Y-130740262D01*
X129872171Y-130835905D01*
X129690246Y-130895016D01*
X129690245Y-130895016D01*
X129690242Y-130895017D01*
X129500000Y-130915012D01*
X129309758Y-130895017D01*
X129309755Y-130895016D01*
X129309754Y-130895016D01*
X129127829Y-130835905D01*
X128962172Y-130740262D01*
X128962171Y-130740261D01*
X128962169Y-130740260D01*
X128820014Y-130612263D01*
X128707576Y-130457506D01*
X128707575Y-130457504D01*
X128629772Y-130282757D01*
X128590000Y-130095644D01*
X128590000Y-129904356D01*
X128629772Y-129717243D01*
X128707575Y-129542496D01*
X128712224Y-129536097D01*
X128820014Y-129387737D01*
X128962169Y-129259740D01*
X128962172Y-129259738D01*
X129127829Y-129164095D01*
X129309754Y-129104984D01*
X129309755Y-129104984D01*
X129309758Y-129104983D01*
X129500000Y-129084988D01*
X129690242Y-129104983D01*
G37*
G36*
X169351666Y-124389870D02*
G01*
X169653418Y-124390133D01*
X169803514Y-124410027D01*
X169953607Y-124429920D01*
X170010147Y-124445123D01*
X170246034Y-124508549D01*
X170525687Y-124624671D01*
X170787801Y-124776308D01*
X171027875Y-124960856D01*
X171241806Y-125175161D01*
X171423363Y-125412199D01*
X171425937Y-125415560D01*
X171577114Y-125677933D01*
X171666349Y-125893898D01*
X171692751Y-125957797D01*
X171770869Y-126250359D01*
X171810131Y-126550607D01*
X171809867Y-126853418D01*
X171789973Y-127003514D01*
X171770080Y-127153607D01*
X171770079Y-127153610D01*
X171691451Y-127446034D01*
X171575329Y-127725687D01*
X171423692Y-127987801D01*
X171239144Y-128227875D01*
X171024839Y-128441806D01*
X170787371Y-128623692D01*
X170784440Y-128625937D01*
X170522067Y-128777114D01*
X170306102Y-128866349D01*
X170242203Y-128892751D01*
X169949641Y-128970869D01*
X169649393Y-129010131D01*
X169649389Y-129010131D01*
X169648334Y-129010130D01*
X169346582Y-129009867D01*
X169196486Y-128989973D01*
X169046393Y-128970080D01*
X168989853Y-128954877D01*
X168753966Y-128891451D01*
X168474313Y-128775329D01*
X168212199Y-128623692D01*
X167972125Y-128439144D01*
X167758194Y-128224839D01*
X167574063Y-127984440D01*
X167422887Y-127722068D01*
X167422886Y-127722067D01*
X167307250Y-127442205D01*
X167229132Y-127149644D01*
X167229131Y-127149641D01*
X167189869Y-126849393D01*
X167190133Y-126546582D01*
X167210027Y-126396486D01*
X167229920Y-126246393D01*
X167245123Y-126189853D01*
X167308549Y-125953966D01*
X167424671Y-125674313D01*
X167576308Y-125412199D01*
X167760856Y-125172125D01*
X167975161Y-124958194D01*
X168215560Y-124774063D01*
X168474832Y-124624673D01*
X168477933Y-124622886D01*
X168757795Y-124507250D01*
X168757794Y-124507250D01*
X168757797Y-124507249D01*
X169050359Y-124429131D01*
X169350607Y-124389869D01*
X169350611Y-124389869D01*
X169351666Y-124389870D01*
G37*
G36*
X179351666Y-124389870D02*
G01*
X179653418Y-124390133D01*
X179803514Y-124410027D01*
X179953607Y-124429920D01*
X180010147Y-124445123D01*
X180246034Y-124508549D01*
X180525687Y-124624671D01*
X180787801Y-124776308D01*
X181027875Y-124960856D01*
X181241806Y-125175161D01*
X181423363Y-125412199D01*
X181425937Y-125415560D01*
X181577114Y-125677933D01*
X181666349Y-125893898D01*
X181692751Y-125957797D01*
X181770869Y-126250359D01*
X181810131Y-126550607D01*
X181809867Y-126853418D01*
X181789973Y-127003514D01*
X181770080Y-127153607D01*
X181770079Y-127153610D01*
X181691451Y-127446034D01*
X181575329Y-127725687D01*
X181423692Y-127987801D01*
X181239144Y-128227875D01*
X181024839Y-128441806D01*
X180787371Y-128623692D01*
X180784440Y-128625937D01*
X180522067Y-128777114D01*
X180306102Y-128866349D01*
X180242203Y-128892751D01*
X179949641Y-128970869D01*
X179649393Y-129010131D01*
X179649389Y-129010131D01*
X179648334Y-129010130D01*
X179346582Y-129009867D01*
X179196486Y-128989973D01*
X179046393Y-128970080D01*
X178989853Y-128954877D01*
X178753966Y-128891451D01*
X178474313Y-128775329D01*
X178212199Y-128623692D01*
X177972125Y-128439144D01*
X177758194Y-128224839D01*
X177574063Y-127984440D01*
X177422887Y-127722068D01*
X177422886Y-127722067D01*
X177307250Y-127442205D01*
X177229132Y-127149644D01*
X177229131Y-127149641D01*
X177189869Y-126849393D01*
X177190133Y-126546582D01*
X177210027Y-126396486D01*
X177229920Y-126246393D01*
X177245123Y-126189853D01*
X177308549Y-125953966D01*
X177424671Y-125674313D01*
X177576308Y-125412199D01*
X177760856Y-125172125D01*
X177975161Y-124958194D01*
X178215560Y-124774063D01*
X178474832Y-124624673D01*
X178477933Y-124622886D01*
X178757795Y-124507250D01*
X178757794Y-124507250D01*
X178757797Y-124507249D01*
X179050359Y-124429131D01*
X179350607Y-124389869D01*
X179350611Y-124389869D01*
X179351666Y-124389870D01*
G37*
G36*
X124351666Y-124389870D02*
G01*
X124653418Y-124390133D01*
X124803514Y-124410027D01*
X124953607Y-124429920D01*
X125010147Y-124445123D01*
X125246034Y-124508549D01*
X125525687Y-124624671D01*
X125787801Y-124776308D01*
X126027875Y-124960856D01*
X126241806Y-125175161D01*
X126423363Y-125412199D01*
X126425937Y-125415560D01*
X126577114Y-125677933D01*
X126666349Y-125893898D01*
X126692751Y-125957797D01*
X126770869Y-126250359D01*
X126810131Y-126550607D01*
X126809867Y-126853418D01*
X126789973Y-127003514D01*
X126770080Y-127153607D01*
X126770079Y-127153610D01*
X126691451Y-127446034D01*
X126575329Y-127725687D01*
X126423692Y-127987801D01*
X126239144Y-128227875D01*
X126024839Y-128441806D01*
X125787371Y-128623692D01*
X125784440Y-128625937D01*
X125522067Y-128777114D01*
X125306102Y-128866349D01*
X125242203Y-128892751D01*
X124949641Y-128970869D01*
X124649393Y-129010131D01*
X124649389Y-129010131D01*
X124648334Y-129010130D01*
X124346582Y-129009867D01*
X124196486Y-128989973D01*
X124046393Y-128970080D01*
X123989853Y-128954877D01*
X123753966Y-128891451D01*
X123474313Y-128775329D01*
X123212199Y-128623692D01*
X122972125Y-128439144D01*
X122758194Y-128224839D01*
X122574063Y-127984440D01*
X122422887Y-127722068D01*
X122422886Y-127722067D01*
X122307250Y-127442205D01*
X122229132Y-127149644D01*
X122229131Y-127149641D01*
X122189869Y-126849393D01*
X122190133Y-126546582D01*
X122210027Y-126396486D01*
X122229920Y-126246393D01*
X122245123Y-126189853D01*
X122308549Y-125953966D01*
X122424671Y-125674313D01*
X122576308Y-125412199D01*
X122760856Y-125172125D01*
X122975161Y-124958194D01*
X123215560Y-124774063D01*
X123474832Y-124624673D01*
X123477933Y-124622886D01*
X123757795Y-124507250D01*
X123757794Y-124507250D01*
X123757797Y-124507249D01*
X124050359Y-124429131D01*
X124350607Y-124389869D01*
X124350611Y-124389869D01*
X124351666Y-124389870D01*
G37*
G36*
X134351666Y-124389870D02*
G01*
X134653418Y-124390133D01*
X134803514Y-124410027D01*
X134953607Y-124429920D01*
X135010147Y-124445123D01*
X135246034Y-124508549D01*
X135525687Y-124624671D01*
X135787801Y-124776308D01*
X136027875Y-124960856D01*
X136241806Y-125175161D01*
X136423363Y-125412199D01*
X136425937Y-125415560D01*
X136577114Y-125677933D01*
X136666349Y-125893898D01*
X136692751Y-125957797D01*
X136770869Y-126250359D01*
X136810131Y-126550607D01*
X136809867Y-126853418D01*
X136789973Y-127003514D01*
X136770080Y-127153607D01*
X136770079Y-127153610D01*
X136691451Y-127446034D01*
X136575329Y-127725687D01*
X136423692Y-127987801D01*
X136239144Y-128227875D01*
X136024839Y-128441806D01*
X135787371Y-128623692D01*
X135784440Y-128625937D01*
X135522067Y-128777114D01*
X135306102Y-128866349D01*
X135242203Y-128892751D01*
X134949641Y-128970869D01*
X134649393Y-129010131D01*
X134649389Y-129010131D01*
X134648334Y-129010130D01*
X134346582Y-129009867D01*
X134196486Y-128989973D01*
X134046393Y-128970080D01*
X133989853Y-128954877D01*
X133753966Y-128891451D01*
X133474313Y-128775329D01*
X133212199Y-128623692D01*
X132972125Y-128439144D01*
X132758194Y-128224839D01*
X132574063Y-127984440D01*
X132422887Y-127722068D01*
X132422886Y-127722067D01*
X132307250Y-127442205D01*
X132229132Y-127149644D01*
X132229131Y-127149641D01*
X132189869Y-126849393D01*
X132190133Y-126546582D01*
X132210027Y-126396486D01*
X132229920Y-126246393D01*
X132245123Y-126189853D01*
X132308549Y-125953966D01*
X132424671Y-125674313D01*
X132576308Y-125412199D01*
X132760856Y-125172125D01*
X132975161Y-124958194D01*
X133215560Y-124774063D01*
X133474832Y-124624673D01*
X133477933Y-124622886D01*
X133757795Y-124507250D01*
X133757794Y-124507250D01*
X133757797Y-124507249D01*
X134050359Y-124429131D01*
X134350607Y-124389869D01*
X134350611Y-124389869D01*
X134351666Y-124389870D01*
G37*
G36*
X156851666Y-124389870D02*
G01*
X157153418Y-124390133D01*
X157303514Y-124410027D01*
X157453607Y-124429920D01*
X157510147Y-124445123D01*
X157746034Y-124508549D01*
X158025687Y-124624671D01*
X158287801Y-124776308D01*
X158527875Y-124960856D01*
X158741806Y-125175161D01*
X158923363Y-125412199D01*
X158925937Y-125415560D01*
X159077114Y-125677933D01*
X159166349Y-125893898D01*
X159192751Y-125957797D01*
X159270869Y-126250359D01*
X159310131Y-126550607D01*
X159309867Y-126853418D01*
X159289973Y-127003514D01*
X159270080Y-127153607D01*
X159270079Y-127153610D01*
X159191451Y-127446034D01*
X159075329Y-127725687D01*
X158923692Y-127987801D01*
X158739144Y-128227875D01*
X158524839Y-128441806D01*
X158287371Y-128623692D01*
X158284440Y-128625937D01*
X158022067Y-128777114D01*
X157806102Y-128866349D01*
X157742203Y-128892751D01*
X157449641Y-128970869D01*
X157149393Y-129010131D01*
X157149389Y-129010131D01*
X157148334Y-129010130D01*
X156846582Y-129009867D01*
X156696486Y-128989973D01*
X156546393Y-128970080D01*
X156489853Y-128954877D01*
X156253966Y-128891451D01*
X155974313Y-128775329D01*
X155712199Y-128623692D01*
X155472125Y-128439144D01*
X155258194Y-128224839D01*
X155074063Y-127984440D01*
X154922887Y-127722068D01*
X154922886Y-127722067D01*
X154807250Y-127442205D01*
X154729132Y-127149644D01*
X154729131Y-127149641D01*
X154689869Y-126849393D01*
X154690133Y-126546582D01*
X154710027Y-126396486D01*
X154729920Y-126246393D01*
X154745123Y-126189853D01*
X154808549Y-125953966D01*
X154924671Y-125674313D01*
X155076308Y-125412199D01*
X155260856Y-125172125D01*
X155475161Y-124958194D01*
X155715560Y-124774063D01*
X155974832Y-124624673D01*
X155977933Y-124622886D01*
X156257795Y-124507250D01*
X156257794Y-124507250D01*
X156257797Y-124507249D01*
X156550359Y-124429131D01*
X156850607Y-124389869D01*
X156850611Y-124389869D01*
X156851666Y-124389870D01*
G37*
G36*
X146851666Y-124389870D02*
G01*
X147153418Y-124390133D01*
X147303514Y-124410027D01*
X147453607Y-124429920D01*
X147510147Y-124445123D01*
X147746034Y-124508549D01*
X148025687Y-124624671D01*
X148287801Y-124776308D01*
X148527875Y-124960856D01*
X148741806Y-125175161D01*
X148923363Y-125412199D01*
X148925937Y-125415560D01*
X149077114Y-125677933D01*
X149166349Y-125893898D01*
X149192751Y-125957797D01*
X149270869Y-126250359D01*
X149310131Y-126550607D01*
X149309867Y-126853418D01*
X149289973Y-127003514D01*
X149270080Y-127153607D01*
X149270079Y-127153610D01*
X149191451Y-127446034D01*
X149075329Y-127725687D01*
X148923692Y-127987801D01*
X148739144Y-128227875D01*
X148524839Y-128441806D01*
X148287371Y-128623692D01*
X148284440Y-128625937D01*
X148022067Y-128777114D01*
X147806102Y-128866349D01*
X147742203Y-128892751D01*
X147449641Y-128970869D01*
X147149393Y-129010131D01*
X147149389Y-129010131D01*
X147148334Y-129010130D01*
X146846582Y-129009867D01*
X146696486Y-128989973D01*
X146546393Y-128970080D01*
X146489853Y-128954877D01*
X146253966Y-128891451D01*
X145974313Y-128775329D01*
X145712199Y-128623692D01*
X145472125Y-128439144D01*
X145258194Y-128224839D01*
X145074063Y-127984440D01*
X144922887Y-127722068D01*
X144922886Y-127722067D01*
X144807250Y-127442205D01*
X144729132Y-127149644D01*
X144729131Y-127149641D01*
X144689869Y-126849393D01*
X144690133Y-126546582D01*
X144710027Y-126396486D01*
X144729920Y-126246393D01*
X144745123Y-126189853D01*
X144808549Y-125953966D01*
X144924671Y-125674313D01*
X145076308Y-125412199D01*
X145260856Y-125172125D01*
X145475161Y-124958194D01*
X145715560Y-124774063D01*
X145974832Y-124624673D01*
X145977933Y-124622886D01*
X146257795Y-124507250D01*
X146257794Y-124507250D01*
X146257797Y-124507249D01*
X146550359Y-124429131D01*
X146850607Y-124389869D01*
X146850611Y-124389869D01*
X146851666Y-124389870D01*
G37*
G36*
X111851666Y-124389870D02*
G01*
X112153418Y-124390133D01*
X112303514Y-124410027D01*
X112453607Y-124429920D01*
X112510147Y-124445123D01*
X112746034Y-124508549D01*
X113025687Y-124624671D01*
X113287801Y-124776308D01*
X113527875Y-124960856D01*
X113741806Y-125175161D01*
X113923363Y-125412199D01*
X113925937Y-125415560D01*
X114077114Y-125677933D01*
X114166349Y-125893898D01*
X114192751Y-125957797D01*
X114270869Y-126250359D01*
X114310131Y-126550607D01*
X114309867Y-126853418D01*
X114289973Y-127003514D01*
X114270080Y-127153607D01*
X114270079Y-127153610D01*
X114191451Y-127446034D01*
X114075329Y-127725687D01*
X113923692Y-127987801D01*
X113739144Y-128227875D01*
X113524839Y-128441806D01*
X113287371Y-128623692D01*
X113284440Y-128625937D01*
X113022067Y-128777114D01*
X112806102Y-128866349D01*
X112742203Y-128892751D01*
X112449641Y-128970869D01*
X112149393Y-129010131D01*
X112149389Y-129010131D01*
X112148334Y-129010130D01*
X111846582Y-129009867D01*
X111696486Y-128989973D01*
X111546393Y-128970080D01*
X111489853Y-128954877D01*
X111253966Y-128891451D01*
X110974313Y-128775329D01*
X110712199Y-128623692D01*
X110472125Y-128439144D01*
X110258194Y-128224839D01*
X110074063Y-127984440D01*
X109922887Y-127722068D01*
X109922886Y-127722067D01*
X109807250Y-127442205D01*
X109729132Y-127149644D01*
X109729131Y-127149641D01*
X109689869Y-126849393D01*
X109690133Y-126546582D01*
X109710027Y-126396486D01*
X109729920Y-126246393D01*
X109745123Y-126189853D01*
X109808549Y-125953966D01*
X109924671Y-125674313D01*
X110076308Y-125412199D01*
X110260856Y-125172125D01*
X110475161Y-124958194D01*
X110715560Y-124774063D01*
X110974832Y-124624673D01*
X110977933Y-124622886D01*
X111257795Y-124507250D01*
X111257794Y-124507250D01*
X111257797Y-124507249D01*
X111550359Y-124429131D01*
X111850607Y-124389869D01*
X111850611Y-124389869D01*
X111851666Y-124389870D01*
G37*
G36*
X101851666Y-124389870D02*
G01*
X102153418Y-124390133D01*
X102303514Y-124410027D01*
X102453607Y-124429920D01*
X102510147Y-124445123D01*
X102746034Y-124508549D01*
X103025687Y-124624671D01*
X103287801Y-124776308D01*
X103527875Y-124960856D01*
X103741806Y-125175161D01*
X103923363Y-125412199D01*
X103925937Y-125415560D01*
X104077114Y-125677933D01*
X104166349Y-125893898D01*
X104192751Y-125957797D01*
X104270869Y-126250359D01*
X104310131Y-126550607D01*
X104309867Y-126853418D01*
X104289973Y-127003514D01*
X104270080Y-127153607D01*
X104270079Y-127153610D01*
X104191451Y-127446034D01*
X104075329Y-127725687D01*
X103923692Y-127987801D01*
X103739144Y-128227875D01*
X103524839Y-128441806D01*
X103287371Y-128623692D01*
X103284440Y-128625937D01*
X103022067Y-128777114D01*
X102806102Y-128866349D01*
X102742203Y-128892751D01*
X102449641Y-128970869D01*
X102149393Y-129010131D01*
X102149389Y-129010131D01*
X102148334Y-129010130D01*
X101846582Y-129009867D01*
X101696486Y-128989973D01*
X101546393Y-128970080D01*
X101489853Y-128954877D01*
X101253966Y-128891451D01*
X100974313Y-128775329D01*
X100712199Y-128623692D01*
X100472125Y-128439144D01*
X100258194Y-128224839D01*
X100074063Y-127984440D01*
X99922887Y-127722068D01*
X99922886Y-127722067D01*
X99807250Y-127442205D01*
X99729132Y-127149644D01*
X99729131Y-127149641D01*
X99689869Y-126849393D01*
X99690133Y-126546582D01*
X99710027Y-126396486D01*
X99729920Y-126246393D01*
X99745123Y-126189853D01*
X99808549Y-125953966D01*
X99924671Y-125674313D01*
X100076308Y-125412199D01*
X100260856Y-125172125D01*
X100475161Y-124958194D01*
X100715560Y-124774063D01*
X100974832Y-124624673D01*
X100977933Y-124622886D01*
X101257795Y-124507250D01*
X101257794Y-124507250D01*
X101257797Y-124507249D01*
X101550359Y-124429131D01*
X101850607Y-124389869D01*
X101850611Y-124389869D01*
X101851666Y-124389870D01*
G37*
G36*
X126389998Y-118940245D02*
G01*
X126529452Y-119005867D01*
X126648205Y-119104108D01*
X126719104Y-119201693D01*
X126738796Y-119228797D01*
X126795532Y-119372094D01*
X126810000Y-119486623D01*
X126810000Y-120100414D01*
X126771671Y-120301341D01*
X126771478Y-120301692D01*
X126771478Y-120301693D01*
X126697422Y-120436400D01*
X126662999Y-120473056D01*
X126591919Y-120548749D01*
X126485901Y-120616029D01*
X126461789Y-120631331D01*
X126315211Y-120678957D01*
X126161396Y-120688635D01*
X126161393Y-120688635D01*
X126010002Y-120659755D01*
X125870548Y-120594133D01*
X125751795Y-120495892D01*
X125661205Y-120371204D01*
X125661204Y-120371202D01*
X125604468Y-120227905D01*
X125590000Y-120113376D01*
X125590000Y-119499586D01*
X125628329Y-119298659D01*
X125702579Y-119163601D01*
X125808082Y-119051251D01*
X125938211Y-118968669D01*
X126084789Y-118921043D01*
X126238604Y-118911365D01*
X126238607Y-118911365D01*
X126389998Y-118940245D01*
G37*
G36*
X124389998Y-118940245D02*
G01*
X124529452Y-119005867D01*
X124648205Y-119104108D01*
X124719104Y-119201693D01*
X124738796Y-119228797D01*
X124795532Y-119372094D01*
X124810000Y-119486623D01*
X124810000Y-120100414D01*
X124771671Y-120301341D01*
X124771478Y-120301692D01*
X124771478Y-120301693D01*
X124697422Y-120436400D01*
X124662999Y-120473056D01*
X124591919Y-120548749D01*
X124485901Y-120616029D01*
X124461789Y-120631331D01*
X124315211Y-120678957D01*
X124161396Y-120688635D01*
X124161393Y-120688635D01*
X124010002Y-120659755D01*
X123870548Y-120594133D01*
X123751795Y-120495892D01*
X123661205Y-120371204D01*
X123661204Y-120371202D01*
X123604468Y-120227905D01*
X123590000Y-120113376D01*
X123590000Y-119499586D01*
X123628329Y-119298659D01*
X123702579Y-119163601D01*
X123808082Y-119051251D01*
X123938211Y-118968669D01*
X124084789Y-118921043D01*
X124238604Y-118911365D01*
X124238607Y-118911365D01*
X124389998Y-118940245D01*
G37*
G36*
X122389998Y-118940245D02*
G01*
X122529452Y-119005867D01*
X122648205Y-119104108D01*
X122719104Y-119201693D01*
X122738796Y-119228797D01*
X122795532Y-119372094D01*
X122810000Y-119486623D01*
X122810000Y-120100414D01*
X122771671Y-120301341D01*
X122771478Y-120301692D01*
X122771478Y-120301693D01*
X122697422Y-120436400D01*
X122662999Y-120473056D01*
X122591919Y-120548749D01*
X122485901Y-120616029D01*
X122461789Y-120631331D01*
X122315211Y-120678957D01*
X122161396Y-120688635D01*
X122161393Y-120688635D01*
X122010002Y-120659755D01*
X121870548Y-120594133D01*
X121751795Y-120495892D01*
X121661205Y-120371204D01*
X121661204Y-120371202D01*
X121604468Y-120227905D01*
X121590000Y-120113376D01*
X121590000Y-119499586D01*
X121628329Y-119298659D01*
X121702579Y-119163601D01*
X121808082Y-119051251D01*
X121938211Y-118968669D01*
X122084789Y-118921043D01*
X122238604Y-118911365D01*
X122238607Y-118911365D01*
X122389998Y-118940245D01*
G37*
G36*
X120389998Y-118940245D02*
G01*
X120529452Y-119005867D01*
X120648205Y-119104108D01*
X120719104Y-119201693D01*
X120738796Y-119228797D01*
X120795532Y-119372094D01*
X120810000Y-119486623D01*
X120810000Y-120100414D01*
X120771671Y-120301341D01*
X120771478Y-120301692D01*
X120771478Y-120301693D01*
X120697422Y-120436400D01*
X120662999Y-120473056D01*
X120591919Y-120548749D01*
X120485901Y-120616029D01*
X120461789Y-120631331D01*
X120315211Y-120678957D01*
X120161396Y-120688635D01*
X120161393Y-120688635D01*
X120010002Y-120659755D01*
X119870548Y-120594133D01*
X119751795Y-120495892D01*
X119661205Y-120371204D01*
X119661204Y-120371202D01*
X119604468Y-120227905D01*
X119590000Y-120113376D01*
X119590000Y-119499586D01*
X119628329Y-119298659D01*
X119702579Y-119163601D01*
X119808082Y-119051251D01*
X119938211Y-118968669D01*
X120084789Y-118921043D01*
X120238604Y-118911365D01*
X120238607Y-118911365D01*
X120389998Y-118940245D01*
G37*
G36*
X128389998Y-118940245D02*
G01*
X128529452Y-119005867D01*
X128648205Y-119104108D01*
X128719104Y-119201693D01*
X128738796Y-119228797D01*
X128795532Y-119372094D01*
X128810000Y-119486623D01*
X128810000Y-120100414D01*
X128771671Y-120301341D01*
X128771478Y-120301692D01*
X128771478Y-120301693D01*
X128697422Y-120436400D01*
X128662999Y-120473056D01*
X128591919Y-120548749D01*
X128485901Y-120616029D01*
X128461789Y-120631331D01*
X128315211Y-120678957D01*
X128161396Y-120688635D01*
X128161393Y-120688635D01*
X128010002Y-120659755D01*
X127870548Y-120594133D01*
X127751795Y-120495892D01*
X127661205Y-120371204D01*
X127661204Y-120371202D01*
X127604468Y-120227905D01*
X127590000Y-120113376D01*
X127590000Y-119499586D01*
X127628329Y-119298659D01*
X127702579Y-119163601D01*
X127808082Y-119051251D01*
X127938211Y-118968669D01*
X128084789Y-118921043D01*
X128238604Y-118911365D01*
X128238607Y-118911365D01*
X128389998Y-118940245D01*
G37*
G36*
X130640875Y-118932679D02*
G01*
X130643671Y-118934410D01*
X130646550Y-118934983D01*
X130671229Y-118951473D01*
X130723716Y-118983971D01*
X130727638Y-118989164D01*
X130732552Y-118992448D01*
X130751256Y-119020440D01*
X130782248Y-119061481D01*
X130784187Y-119069725D01*
X130790017Y-119078450D01*
X130810196Y-119179897D01*
X130810196Y-119180305D01*
X130810441Y-119181347D01*
X130810441Y-120418945D01*
X130792321Y-120515875D01*
X130790590Y-120518671D01*
X130790017Y-120521550D01*
X130773527Y-120546229D01*
X130741029Y-120598716D01*
X130735836Y-120602638D01*
X130732552Y-120607552D01*
X130704560Y-120626256D01*
X130663519Y-120657248D01*
X130655275Y-120659187D01*
X130646550Y-120665017D01*
X130545103Y-120685196D01*
X130544695Y-120685196D01*
X130543653Y-120685441D01*
X129856055Y-120685441D01*
X129759125Y-120667321D01*
X129756329Y-120665590D01*
X129753450Y-120665017D01*
X129728771Y-120648527D01*
X129676284Y-120616029D01*
X129672362Y-120610836D01*
X129667448Y-120607552D01*
X129648744Y-120579560D01*
X129617752Y-120538519D01*
X129615813Y-120530275D01*
X129609983Y-120521550D01*
X129589804Y-120420103D01*
X129589804Y-120419695D01*
X129589559Y-120418653D01*
X129589559Y-119181055D01*
X129607679Y-119084125D01*
X129609410Y-119081329D01*
X129609983Y-119078450D01*
X129626473Y-119053771D01*
X129658971Y-119001284D01*
X129664164Y-118997362D01*
X129667448Y-118992448D01*
X129695440Y-118973744D01*
X129736481Y-118942752D01*
X129744725Y-118940813D01*
X129753450Y-118934983D01*
X129854897Y-118914804D01*
X129855305Y-118914804D01*
X129856347Y-118914559D01*
X130543945Y-118914559D01*
X130640875Y-118932679D01*
G37*
G36*
X115489997Y-117840245D02*
G01*
X115629451Y-117905867D01*
X115748205Y-118004108D01*
X115838795Y-118128795D01*
X115838796Y-118128797D01*
X115895532Y-118272094D01*
X115908784Y-118376996D01*
X115910000Y-118386625D01*
X115910000Y-119000414D01*
X115871671Y-119201341D01*
X115871478Y-119201692D01*
X115871478Y-119201693D01*
X115856578Y-119228795D01*
X115797422Y-119336399D01*
X115691919Y-119448749D01*
X115585902Y-119516029D01*
X115561790Y-119531331D01*
X115415212Y-119578957D01*
X115261397Y-119588635D01*
X115261394Y-119588635D01*
X115110003Y-119559755D01*
X114970549Y-119494133D01*
X114851796Y-119395892D01*
X114761205Y-119271205D01*
X114761204Y-119271203D01*
X114704468Y-119127906D01*
X114690000Y-119013377D01*
X114690000Y-118399587D01*
X114728329Y-118198660D01*
X114728522Y-118198309D01*
X114728522Y-118198308D01*
X114768008Y-118126485D01*
X114802578Y-118063602D01*
X114908081Y-117951251D01*
X115038210Y-117868669D01*
X115058843Y-117861965D01*
X115184788Y-117821043D01*
X115338603Y-117811365D01*
X115338606Y-117811365D01*
X115489997Y-117840245D01*
G37*
G36*
X113489997Y-117840245D02*
G01*
X113629451Y-117905867D01*
X113748205Y-118004108D01*
X113838795Y-118128795D01*
X113838796Y-118128797D01*
X113895532Y-118272094D01*
X113908784Y-118376996D01*
X113910000Y-118386625D01*
X113910000Y-119000414D01*
X113871671Y-119201341D01*
X113871478Y-119201692D01*
X113871478Y-119201693D01*
X113856578Y-119228795D01*
X113797422Y-119336399D01*
X113691919Y-119448749D01*
X113585902Y-119516029D01*
X113561790Y-119531331D01*
X113415212Y-119578957D01*
X113261397Y-119588635D01*
X113261394Y-119588635D01*
X113110003Y-119559755D01*
X112970549Y-119494133D01*
X112851796Y-119395892D01*
X112761205Y-119271205D01*
X112761204Y-119271203D01*
X112704468Y-119127906D01*
X112690000Y-119013377D01*
X112690000Y-118399587D01*
X112728329Y-118198660D01*
X112728522Y-118198309D01*
X112728522Y-118198308D01*
X112768008Y-118126485D01*
X112802578Y-118063602D01*
X112908081Y-117951251D01*
X113038210Y-117868669D01*
X113058843Y-117861965D01*
X113184788Y-117821043D01*
X113338603Y-117811365D01*
X113338606Y-117811365D01*
X113489997Y-117840245D01*
G37*
G36*
X111489997Y-117840245D02*
G01*
X111629451Y-117905867D01*
X111748205Y-118004108D01*
X111838795Y-118128795D01*
X111838796Y-118128797D01*
X111895532Y-118272094D01*
X111908784Y-118376996D01*
X111910000Y-118386625D01*
X111910000Y-119000414D01*
X111871671Y-119201341D01*
X111871478Y-119201692D01*
X111871478Y-119201693D01*
X111856578Y-119228795D01*
X111797422Y-119336399D01*
X111691919Y-119448749D01*
X111585902Y-119516029D01*
X111561790Y-119531331D01*
X111415212Y-119578957D01*
X111261397Y-119588635D01*
X111261394Y-119588635D01*
X111110003Y-119559755D01*
X110970549Y-119494133D01*
X110851796Y-119395892D01*
X110761205Y-119271205D01*
X110761204Y-119271203D01*
X110704468Y-119127906D01*
X110690000Y-119013377D01*
X110690000Y-118399587D01*
X110728329Y-118198660D01*
X110728522Y-118198309D01*
X110728522Y-118198308D01*
X110768008Y-118126485D01*
X110802578Y-118063602D01*
X110908081Y-117951251D01*
X111038210Y-117868669D01*
X111058843Y-117861965D01*
X111184788Y-117821043D01*
X111338603Y-117811365D01*
X111338606Y-117811365D01*
X111489997Y-117840245D01*
G37*
G36*
X109740875Y-117832679D02*
G01*
X109743671Y-117834410D01*
X109746550Y-117834983D01*
X109771229Y-117851473D01*
X109823716Y-117883971D01*
X109827638Y-117889164D01*
X109832552Y-117892448D01*
X109851256Y-117920440D01*
X109882248Y-117961481D01*
X109884187Y-117969725D01*
X109890017Y-117978450D01*
X109910196Y-118079897D01*
X109910196Y-118080305D01*
X109910441Y-118081347D01*
X109910441Y-119318945D01*
X109892321Y-119415875D01*
X109890590Y-119418671D01*
X109890017Y-119421550D01*
X109873527Y-119446229D01*
X109841029Y-119498716D01*
X109835836Y-119502638D01*
X109832552Y-119507552D01*
X109804560Y-119526256D01*
X109763519Y-119557248D01*
X109755275Y-119559187D01*
X109746550Y-119565017D01*
X109645103Y-119585196D01*
X109644695Y-119585196D01*
X109643653Y-119585441D01*
X108956055Y-119585441D01*
X108859125Y-119567321D01*
X108856329Y-119565590D01*
X108853450Y-119565017D01*
X108828771Y-119548527D01*
X108776284Y-119516029D01*
X108772362Y-119510836D01*
X108767448Y-119507552D01*
X108748744Y-119479560D01*
X108717752Y-119438519D01*
X108715813Y-119430275D01*
X108709983Y-119421550D01*
X108689804Y-119320103D01*
X108689804Y-119319695D01*
X108689559Y-119318653D01*
X108689559Y-118081055D01*
X108707679Y-117984125D01*
X108709410Y-117981329D01*
X108709983Y-117978450D01*
X108726473Y-117953771D01*
X108758971Y-117901284D01*
X108764164Y-117897362D01*
X108767448Y-117892448D01*
X108795440Y-117873744D01*
X108836481Y-117842752D01*
X108844725Y-117840813D01*
X108853450Y-117834983D01*
X108954897Y-117814804D01*
X108955305Y-117814804D01*
X108956347Y-117814559D01*
X109643945Y-117814559D01*
X109740875Y-117832679D01*
G37*
G36*
X178377011Y-115429643D02*
G01*
X178618022Y-115507953D01*
X178843823Y-115623004D01*
X179048846Y-115771962D01*
X179228038Y-115951154D01*
X179376996Y-116156177D01*
X179492047Y-116381978D01*
X179570357Y-116622989D01*
X179610000Y-116873290D01*
X179610000Y-117126710D01*
X179570357Y-117377011D01*
X179492047Y-117618022D01*
X179376996Y-117843823D01*
X179228038Y-118048846D01*
X179048846Y-118228038D01*
X178843823Y-118376996D01*
X178618022Y-118492047D01*
X178377011Y-118570357D01*
X178126710Y-118610000D01*
X177873290Y-118610000D01*
X177622989Y-118570357D01*
X177381978Y-118492047D01*
X177156177Y-118376996D01*
X176951154Y-118228038D01*
X176771962Y-118048846D01*
X176623004Y-117843823D01*
X176507953Y-117618022D01*
X176429643Y-117377011D01*
X176390000Y-117126710D01*
X176390000Y-116873290D01*
X176429643Y-116622989D01*
X176507953Y-116381978D01*
X176623004Y-116156177D01*
X176771962Y-115951154D01*
X176951154Y-115771962D01*
X177156177Y-115623004D01*
X177381978Y-115507953D01*
X177622989Y-115429643D01*
X177873290Y-115390000D01*
X178126710Y-115390000D01*
X178377011Y-115429643D01*
G37*
G36*
X103377011Y-115429643D02*
G01*
X103618022Y-115507953D01*
X103843823Y-115623004D01*
X104048846Y-115771962D01*
X104228038Y-115951154D01*
X104376996Y-116156177D01*
X104492047Y-116381978D01*
X104570357Y-116622989D01*
X104610000Y-116873290D01*
X104610000Y-117126710D01*
X104570357Y-117377011D01*
X104492047Y-117618022D01*
X104376996Y-117843823D01*
X104228038Y-118048846D01*
X104048846Y-118228038D01*
X103843823Y-118376996D01*
X103618022Y-118492047D01*
X103377011Y-118570357D01*
X103126710Y-118610000D01*
X102873290Y-118610000D01*
X102622989Y-118570357D01*
X102381978Y-118492047D01*
X102156177Y-118376996D01*
X101951154Y-118228038D01*
X101771962Y-118048846D01*
X101623004Y-117843823D01*
X101507953Y-117618022D01*
X101429643Y-117377011D01*
X101390000Y-117126710D01*
X101390000Y-116873290D01*
X101429643Y-116622989D01*
X101507953Y-116381978D01*
X101623004Y-116156177D01*
X101771962Y-115951154D01*
X101951154Y-115771962D01*
X102156177Y-115623004D01*
X102381978Y-115507953D01*
X102622989Y-115429643D01*
X102873290Y-115390000D01*
X103126710Y-115390000D01*
X103377011Y-115429643D01*
G37*
G36*
X145007328Y-117191838D02*
G01*
X145061219Y-117202558D01*
X145136884Y-117253116D01*
X145187442Y-117328781D01*
X145187442Y-117328782D01*
X145205441Y-117419266D01*
X145205441Y-117920734D01*
X145205196Y-117921965D01*
X145187442Y-118011219D01*
X145136884Y-118086884D01*
X145061219Y-118137442D01*
X145007328Y-118148162D01*
X144970734Y-118155441D01*
X144544266Y-118155441D01*
X144507672Y-118148162D01*
X144453781Y-118137442D01*
X144378116Y-118086884D01*
X144327558Y-118011219D01*
X144309804Y-117921965D01*
X144309559Y-117920734D01*
X144309559Y-117419266D01*
X144327558Y-117328782D01*
X144327558Y-117328781D01*
X144378116Y-117253116D01*
X144453781Y-117202558D01*
X144507672Y-117191838D01*
X144544266Y-117184559D01*
X144970734Y-117184559D01*
X145007328Y-117191838D01*
G37*
G36*
X143432328Y-117191838D02*
G01*
X143486219Y-117202558D01*
X143561884Y-117253116D01*
X143612442Y-117328781D01*
X143612442Y-117328782D01*
X143630441Y-117419266D01*
X143630441Y-117920734D01*
X143630196Y-117921965D01*
X143612442Y-118011219D01*
X143561884Y-118086884D01*
X143486219Y-118137442D01*
X143432328Y-118148162D01*
X143395734Y-118155441D01*
X142969266Y-118155441D01*
X142932672Y-118148162D01*
X142878781Y-118137442D01*
X142803116Y-118086884D01*
X142752558Y-118011219D01*
X142734804Y-117921965D01*
X142734559Y-117920734D01*
X142734559Y-117419266D01*
X142752558Y-117328782D01*
X142752558Y-117328781D01*
X142803116Y-117253116D01*
X142878781Y-117202558D01*
X142932672Y-117191838D01*
X142969266Y-117184559D01*
X143395734Y-117184559D01*
X143432328Y-117191838D01*
G37*
G36*
X138076547Y-117126710D02*
G01*
X138156219Y-117142558D01*
X138231884Y-117193116D01*
X138282442Y-117268781D01*
X138282442Y-117268782D01*
X138300441Y-117359266D01*
X138300441Y-117860734D01*
X138295819Y-117883971D01*
X138282442Y-117951219D01*
X138231884Y-118026884D01*
X138156219Y-118077442D01*
X138102328Y-118088162D01*
X138065734Y-118095441D01*
X137639266Y-118095441D01*
X137602672Y-118088162D01*
X137548781Y-118077442D01*
X137473116Y-118026884D01*
X137422558Y-117951219D01*
X137409181Y-117883971D01*
X137404559Y-117860734D01*
X137404559Y-117359266D01*
X137422558Y-117268782D01*
X137422558Y-117268781D01*
X137473116Y-117193116D01*
X137548781Y-117142558D01*
X137628453Y-117126710D01*
X137639266Y-117124559D01*
X138065734Y-117124559D01*
X138076547Y-117126710D01*
G37*
G36*
X139651547Y-117126710D02*
G01*
X139731219Y-117142558D01*
X139806884Y-117193116D01*
X139857442Y-117268781D01*
X139857442Y-117268782D01*
X139875441Y-117359266D01*
X139875441Y-117860734D01*
X139870819Y-117883971D01*
X139857442Y-117951219D01*
X139806884Y-118026884D01*
X139731219Y-118077442D01*
X139677328Y-118088162D01*
X139640734Y-118095441D01*
X139214266Y-118095441D01*
X139177672Y-118088162D01*
X139123781Y-118077442D01*
X139048116Y-118026884D01*
X138997558Y-117951219D01*
X138984181Y-117883971D01*
X138979559Y-117860734D01*
X138979559Y-117359266D01*
X138997558Y-117268782D01*
X138997558Y-117268781D01*
X139048116Y-117193116D01*
X139123781Y-117142558D01*
X139203453Y-117126710D01*
X139214266Y-117124559D01*
X139640734Y-117124559D01*
X139651547Y-117126710D01*
G37*
G36*
X139675587Y-115390000D02*
G01*
X139738719Y-115402558D01*
X139814384Y-115453116D01*
X139864942Y-115528781D01*
X139864942Y-115528782D01*
X139882941Y-115619266D01*
X139882941Y-116120734D01*
X139882696Y-116121965D01*
X139864942Y-116211219D01*
X139814384Y-116286884D01*
X139738719Y-116337442D01*
X139684828Y-116348162D01*
X139648234Y-116355441D01*
X139221766Y-116355441D01*
X139185172Y-116348162D01*
X139131281Y-116337442D01*
X139055616Y-116286884D01*
X139005058Y-116211219D01*
X138987304Y-116121965D01*
X138987059Y-116120734D01*
X138987059Y-115619266D01*
X139005058Y-115528782D01*
X139005058Y-115528781D01*
X139055616Y-115453116D01*
X139131281Y-115402558D01*
X139194413Y-115390000D01*
X139221766Y-115384559D01*
X139648234Y-115384559D01*
X139675587Y-115390000D01*
G37*
G36*
X138100587Y-115390000D02*
G01*
X138163719Y-115402558D01*
X138239384Y-115453116D01*
X138289942Y-115528781D01*
X138289942Y-115528782D01*
X138307941Y-115619266D01*
X138307941Y-116120734D01*
X138307696Y-116121965D01*
X138289942Y-116211219D01*
X138239384Y-116286884D01*
X138163719Y-116337442D01*
X138109828Y-116348162D01*
X138073234Y-116355441D01*
X137646766Y-116355441D01*
X137610172Y-116348162D01*
X137556281Y-116337442D01*
X137480616Y-116286884D01*
X137430058Y-116211219D01*
X137412304Y-116121965D01*
X137412059Y-116120734D01*
X137412059Y-115619266D01*
X137430058Y-115528782D01*
X137430058Y-115528781D01*
X137480616Y-115453116D01*
X137556281Y-115402558D01*
X137619413Y-115390000D01*
X137646766Y-115384559D01*
X138073234Y-115384559D01*
X138100587Y-115390000D01*
G37*
G36*
X144427328Y-115131838D02*
G01*
X144481219Y-115142558D01*
X144556884Y-115193116D01*
X144607442Y-115268781D01*
X144607442Y-115268782D01*
X144625441Y-115359266D01*
X144625441Y-115860734D01*
X144625196Y-115861965D01*
X144607442Y-115951219D01*
X144556884Y-116026884D01*
X144481219Y-116077442D01*
X144427328Y-116088162D01*
X144390734Y-116095441D01*
X143964266Y-116095441D01*
X143927672Y-116088162D01*
X143873781Y-116077442D01*
X143798116Y-116026884D01*
X143747558Y-115951219D01*
X143729804Y-115861965D01*
X143729559Y-115860734D01*
X143729559Y-115359266D01*
X143747558Y-115268782D01*
X143747558Y-115268781D01*
X143798116Y-115193116D01*
X143873781Y-115142558D01*
X143927672Y-115131838D01*
X143964266Y-115124559D01*
X144390734Y-115124559D01*
X144427328Y-115131838D01*
G37*
G36*
X142852328Y-115131838D02*
G01*
X142906219Y-115142558D01*
X142981884Y-115193116D01*
X143032442Y-115268781D01*
X143032442Y-115268782D01*
X143050441Y-115359266D01*
X143050441Y-115860734D01*
X143050196Y-115861965D01*
X143032442Y-115951219D01*
X142981884Y-116026884D01*
X142906219Y-116077442D01*
X142852328Y-116088162D01*
X142815734Y-116095441D01*
X142389266Y-116095441D01*
X142352672Y-116088162D01*
X142298781Y-116077442D01*
X142223116Y-116026884D01*
X142172558Y-115951219D01*
X142154804Y-115861965D01*
X142154559Y-115860734D01*
X142154559Y-115359266D01*
X142172558Y-115268782D01*
X142172558Y-115268781D01*
X142223116Y-115193116D01*
X142298781Y-115142558D01*
X142352672Y-115131838D01*
X142389266Y-115124559D01*
X142815734Y-115124559D01*
X142852328Y-115131838D01*
G37*
G36*
X156430875Y-112902679D02*
G01*
X156433671Y-112904410D01*
X156436550Y-112904983D01*
X156461229Y-112921473D01*
X156513716Y-112953971D01*
X156517638Y-112959164D01*
X156522552Y-112962448D01*
X156541256Y-112990440D01*
X156572248Y-113031481D01*
X156574187Y-113039725D01*
X156580017Y-113048450D01*
X156600196Y-113149897D01*
X156600196Y-113150305D01*
X156600441Y-113151347D01*
X156600441Y-113988945D01*
X156582321Y-114085875D01*
X156580590Y-114088671D01*
X156580017Y-114091550D01*
X156563527Y-114116229D01*
X156531029Y-114168716D01*
X156525836Y-114172638D01*
X156522552Y-114177552D01*
X156494560Y-114196256D01*
X156453519Y-114227248D01*
X156445275Y-114229187D01*
X156436550Y-114235017D01*
X156335103Y-114255196D01*
X156334695Y-114255196D01*
X156333653Y-114255441D01*
X155446055Y-114255441D01*
X155349125Y-114237321D01*
X155346329Y-114235590D01*
X155343450Y-114235017D01*
X155318771Y-114218527D01*
X155266284Y-114186029D01*
X155262362Y-114180836D01*
X155257448Y-114177552D01*
X155238744Y-114149560D01*
X155207752Y-114108519D01*
X155205813Y-114100275D01*
X155199983Y-114091550D01*
X155179804Y-113990103D01*
X155179804Y-113989695D01*
X155179559Y-113988653D01*
X155179559Y-113151055D01*
X155197679Y-113054125D01*
X155199410Y-113051329D01*
X155199983Y-113048450D01*
X155216473Y-113023771D01*
X155248971Y-112971284D01*
X155254164Y-112967362D01*
X155257448Y-112962448D01*
X155285440Y-112943744D01*
X155326481Y-112912752D01*
X155334725Y-112910813D01*
X155343450Y-112904983D01*
X155444897Y-112884804D01*
X155445305Y-112884804D01*
X155446347Y-112884559D01*
X156333945Y-112884559D01*
X156430875Y-112902679D01*
G37*
G36*
X159130875Y-112902679D02*
G01*
X159133671Y-112904410D01*
X159136550Y-112904983D01*
X159161229Y-112921473D01*
X159213716Y-112953971D01*
X159217638Y-112959164D01*
X159222552Y-112962448D01*
X159241256Y-112990440D01*
X159272248Y-113031481D01*
X159274187Y-113039725D01*
X159280017Y-113048450D01*
X159300196Y-113149897D01*
X159300196Y-113150305D01*
X159300441Y-113151347D01*
X159300441Y-113988945D01*
X159282321Y-114085875D01*
X159280590Y-114088671D01*
X159280017Y-114091550D01*
X159263527Y-114116229D01*
X159231029Y-114168716D01*
X159225836Y-114172638D01*
X159222552Y-114177552D01*
X159194560Y-114196256D01*
X159153519Y-114227248D01*
X159145275Y-114229187D01*
X159136550Y-114235017D01*
X159035103Y-114255196D01*
X159034695Y-114255196D01*
X159033653Y-114255441D01*
X158146055Y-114255441D01*
X158049125Y-114237321D01*
X158046329Y-114235590D01*
X158043450Y-114235017D01*
X158018771Y-114218527D01*
X157966284Y-114186029D01*
X157962362Y-114180836D01*
X157957448Y-114177552D01*
X157938744Y-114149560D01*
X157907752Y-114108519D01*
X157905813Y-114100275D01*
X157899983Y-114091550D01*
X157879804Y-113990103D01*
X157879804Y-113989695D01*
X157879559Y-113988653D01*
X157879559Y-113151055D01*
X157897679Y-113054125D01*
X157899410Y-113051329D01*
X157899983Y-113048450D01*
X157916473Y-113023771D01*
X157948971Y-112971284D01*
X157954164Y-112967362D01*
X157957448Y-112962448D01*
X157985440Y-112943744D01*
X158026481Y-112912752D01*
X158034725Y-112910813D01*
X158043450Y-112904983D01*
X158144897Y-112884804D01*
X158145305Y-112884804D01*
X158146347Y-112884559D01*
X159033945Y-112884559D01*
X159130875Y-112902679D01*
G37*
G36*
X130389997Y-112340245D02*
G01*
X130529451Y-112405867D01*
X130648205Y-112504108D01*
X130704322Y-112581347D01*
X130738796Y-112628797D01*
X130795532Y-112772094D01*
X130809739Y-112884559D01*
X130810000Y-112886625D01*
X130810000Y-113500414D01*
X130771671Y-113701341D01*
X130771478Y-113701692D01*
X130771478Y-113701693D01*
X130733264Y-113771203D01*
X130697422Y-113836399D01*
X130591919Y-113948749D01*
X130485902Y-114016029D01*
X130461790Y-114031331D01*
X130315212Y-114078957D01*
X130161397Y-114088635D01*
X130161394Y-114088635D01*
X130010003Y-114059755D01*
X129870549Y-113994133D01*
X129751796Y-113895892D01*
X129661205Y-113771205D01*
X129633683Y-113701693D01*
X129604468Y-113627906D01*
X129590000Y-113513377D01*
X129590000Y-112899587D01*
X129628329Y-112698660D01*
X129628522Y-112698309D01*
X129628522Y-112698308D01*
X129702579Y-112563601D01*
X129758446Y-112504108D01*
X129808081Y-112451251D01*
X129938210Y-112368669D01*
X130084788Y-112321043D01*
X130238603Y-112311365D01*
X130238606Y-112311365D01*
X130389997Y-112340245D01*
G37*
G36*
X126389997Y-112340245D02*
G01*
X126529451Y-112405867D01*
X126648205Y-112504108D01*
X126704322Y-112581347D01*
X126738796Y-112628797D01*
X126795532Y-112772094D01*
X126809739Y-112884559D01*
X126810000Y-112886625D01*
X126810000Y-113500414D01*
X126771671Y-113701341D01*
X126771478Y-113701692D01*
X126771478Y-113701693D01*
X126733264Y-113771203D01*
X126697422Y-113836399D01*
X126591919Y-113948749D01*
X126485902Y-114016029D01*
X126461790Y-114031331D01*
X126315212Y-114078957D01*
X126161397Y-114088635D01*
X126161394Y-114088635D01*
X126010003Y-114059755D01*
X125870549Y-113994133D01*
X125751796Y-113895892D01*
X125661205Y-113771205D01*
X125633683Y-113701693D01*
X125604468Y-113627906D01*
X125590000Y-113513377D01*
X125590000Y-112899587D01*
X125628329Y-112698660D01*
X125628522Y-112698309D01*
X125628522Y-112698308D01*
X125702579Y-112563601D01*
X125758446Y-112504108D01*
X125808081Y-112451251D01*
X125938210Y-112368669D01*
X126084788Y-112321043D01*
X126238603Y-112311365D01*
X126238606Y-112311365D01*
X126389997Y-112340245D01*
G37*
G36*
X128389997Y-112340245D02*
G01*
X128529451Y-112405867D01*
X128648205Y-112504108D01*
X128704322Y-112581347D01*
X128738796Y-112628797D01*
X128795532Y-112772094D01*
X128809739Y-112884559D01*
X128810000Y-112886625D01*
X128810000Y-113500414D01*
X128771671Y-113701341D01*
X128771478Y-113701692D01*
X128771478Y-113701693D01*
X128733264Y-113771203D01*
X128697422Y-113836399D01*
X128591919Y-113948749D01*
X128485902Y-114016029D01*
X128461790Y-114031331D01*
X128315212Y-114078957D01*
X128161397Y-114088635D01*
X128161394Y-114088635D01*
X128010003Y-114059755D01*
X127870549Y-113994133D01*
X127751796Y-113895892D01*
X127661205Y-113771205D01*
X127633683Y-113701693D01*
X127604468Y-113627906D01*
X127590000Y-113513377D01*
X127590000Y-112899587D01*
X127628329Y-112698660D01*
X127628522Y-112698309D01*
X127628522Y-112698308D01*
X127702579Y-112563601D01*
X127758446Y-112504108D01*
X127808081Y-112451251D01*
X127938210Y-112368669D01*
X128084788Y-112321043D01*
X128238603Y-112311365D01*
X128238606Y-112311365D01*
X128389997Y-112340245D01*
G37*
G36*
X124640875Y-112332679D02*
G01*
X124643671Y-112334410D01*
X124646550Y-112334983D01*
X124671229Y-112351473D01*
X124723716Y-112383971D01*
X124727638Y-112389164D01*
X124732552Y-112392448D01*
X124751256Y-112420440D01*
X124782248Y-112461481D01*
X124784187Y-112469725D01*
X124790017Y-112478450D01*
X124810196Y-112579897D01*
X124810196Y-112580305D01*
X124810441Y-112581347D01*
X124810441Y-113818945D01*
X124792321Y-113915875D01*
X124790590Y-113918671D01*
X124790017Y-113921550D01*
X124773527Y-113946229D01*
X124741029Y-113998716D01*
X124735836Y-114002638D01*
X124732552Y-114007552D01*
X124704560Y-114026256D01*
X124663519Y-114057248D01*
X124655275Y-114059187D01*
X124646550Y-114065017D01*
X124545103Y-114085196D01*
X124544695Y-114085196D01*
X124543653Y-114085441D01*
X123856055Y-114085441D01*
X123759125Y-114067321D01*
X123756329Y-114065590D01*
X123753450Y-114065017D01*
X123728771Y-114048527D01*
X123676284Y-114016029D01*
X123672362Y-114010836D01*
X123667448Y-114007552D01*
X123648744Y-113979560D01*
X123617752Y-113938519D01*
X123615813Y-113930275D01*
X123609983Y-113921550D01*
X123589804Y-113820103D01*
X123589804Y-113819695D01*
X123589559Y-113818653D01*
X123589559Y-112581055D01*
X123607679Y-112484125D01*
X123609410Y-112481329D01*
X123609983Y-112478450D01*
X123626473Y-112453771D01*
X123658971Y-112401284D01*
X123664164Y-112397362D01*
X123667448Y-112392448D01*
X123695440Y-112373744D01*
X123736481Y-112342752D01*
X123744725Y-112340813D01*
X123753450Y-112334983D01*
X123854897Y-112314804D01*
X123855305Y-112314804D01*
X123856347Y-112314559D01*
X124543945Y-112314559D01*
X124640875Y-112332679D01*
G37*
G36*
X145277328Y-112426838D02*
G01*
X145331219Y-112437558D01*
X145406884Y-112488116D01*
X145457442Y-112563781D01*
X145457442Y-112563782D01*
X145475441Y-112654266D01*
X145475441Y-113080734D01*
X145475196Y-113081965D01*
X145457442Y-113171219D01*
X145406884Y-113246884D01*
X145331219Y-113297442D01*
X145277328Y-113308162D01*
X145240734Y-113315441D01*
X144739266Y-113315441D01*
X144702672Y-113308162D01*
X144648781Y-113297442D01*
X144573116Y-113246884D01*
X144522558Y-113171219D01*
X144504804Y-113081965D01*
X144504559Y-113080734D01*
X144504559Y-112654266D01*
X144522558Y-112563782D01*
X144522558Y-112563781D01*
X144573116Y-112488116D01*
X144648781Y-112437558D01*
X144702672Y-112426838D01*
X144739266Y-112419559D01*
X145240734Y-112419559D01*
X145277328Y-112426838D01*
G37*
G36*
X145277328Y-110851838D02*
G01*
X145331219Y-110862558D01*
X145406884Y-110913116D01*
X145457442Y-110988781D01*
X145457442Y-110988782D01*
X145475441Y-111079266D01*
X145475441Y-111505734D01*
X145475196Y-111506965D01*
X145457442Y-111596219D01*
X145406884Y-111671884D01*
X145331219Y-111722442D01*
X145277328Y-111733162D01*
X145240734Y-111740441D01*
X144739266Y-111740441D01*
X144702672Y-111733162D01*
X144648781Y-111722442D01*
X144573116Y-111671884D01*
X144522558Y-111596219D01*
X144504804Y-111506965D01*
X144504559Y-111505734D01*
X144504559Y-111079266D01*
X144522558Y-110988782D01*
X144522558Y-110988781D01*
X144573116Y-110913116D01*
X144648781Y-110862558D01*
X144702672Y-110851838D01*
X144739266Y-110844559D01*
X145240734Y-110844559D01*
X145277328Y-110851838D01*
G37*
G36*
X139937328Y-110101838D02*
G01*
X139991219Y-110112558D01*
X140066884Y-110163116D01*
X140117442Y-110238781D01*
X140117442Y-110238782D01*
X140135441Y-110329266D01*
X140135441Y-110830734D01*
X140135196Y-110831965D01*
X140117442Y-110921219D01*
X140066884Y-110996884D01*
X139991219Y-111047442D01*
X139937328Y-111058162D01*
X139900734Y-111065441D01*
X139474266Y-111065441D01*
X139437672Y-111058162D01*
X139383781Y-111047442D01*
X139308116Y-110996884D01*
X139257558Y-110921219D01*
X139239804Y-110831965D01*
X139239559Y-110830734D01*
X139239559Y-110329266D01*
X139257558Y-110238782D01*
X139257558Y-110238781D01*
X139308116Y-110163116D01*
X139383781Y-110112558D01*
X139437672Y-110101838D01*
X139474266Y-110094559D01*
X139900734Y-110094559D01*
X139937328Y-110101838D01*
G37*
G36*
X138362328Y-110101838D02*
G01*
X138416219Y-110112558D01*
X138491884Y-110163116D01*
X138542442Y-110238781D01*
X138542442Y-110238782D01*
X138560441Y-110329266D01*
X138560441Y-110830734D01*
X138560196Y-110831965D01*
X138542442Y-110921219D01*
X138491884Y-110996884D01*
X138416219Y-111047442D01*
X138362328Y-111058162D01*
X138325734Y-111065441D01*
X137899266Y-111065441D01*
X137862672Y-111058162D01*
X137808781Y-111047442D01*
X137733116Y-110996884D01*
X137682558Y-110921219D01*
X137664804Y-110831965D01*
X137664559Y-110830734D01*
X137664559Y-110329266D01*
X137682558Y-110238782D01*
X137682558Y-110238781D01*
X137733116Y-110163116D01*
X137808781Y-110112558D01*
X137862672Y-110101838D01*
X137899266Y-110094559D01*
X138325734Y-110094559D01*
X138362328Y-110101838D01*
G37*
G36*
X173573903Y-106950580D02*
G01*
X173577210Y-106952790D01*
X173579420Y-106956097D01*
X173580441Y-106961231D01*
X173580441Y-108658769D01*
X173579420Y-108663903D01*
X173577210Y-108667210D01*
X173573903Y-108669420D01*
X173568769Y-108670441D01*
X171871231Y-108670441D01*
X171866097Y-108669420D01*
X171862790Y-108667210D01*
X171860580Y-108663903D01*
X171859559Y-108658769D01*
X171859559Y-106961231D01*
X171860580Y-106956097D01*
X171862790Y-106952790D01*
X171866097Y-106950580D01*
X171871231Y-106949559D01*
X173568769Y-106949559D01*
X173573903Y-106950580D01*
G37*
G36*
X170093903Y-106950580D02*
G01*
X170097210Y-106952790D01*
X170099420Y-106956097D01*
X170100441Y-106961231D01*
X170100441Y-108658769D01*
X170099420Y-108663903D01*
X170097210Y-108667210D01*
X170093903Y-108669420D01*
X170088769Y-108670441D01*
X168391231Y-108670441D01*
X168386097Y-108669420D01*
X168382790Y-108667210D01*
X168380580Y-108663903D01*
X168379559Y-108658769D01*
X168379559Y-106961231D01*
X168380580Y-106956097D01*
X168382790Y-106952790D01*
X168386097Y-106950580D01*
X168391231Y-106949559D01*
X170088769Y-106949559D01*
X170093903Y-106950580D01*
G37*
G36*
X166663903Y-106950580D02*
G01*
X166667210Y-106952790D01*
X166669420Y-106956097D01*
X166670441Y-106961231D01*
X166670441Y-108658769D01*
X166669420Y-108663903D01*
X166667210Y-108667210D01*
X166663903Y-108669420D01*
X166658769Y-108670441D01*
X164961231Y-108670441D01*
X164956097Y-108669420D01*
X164952790Y-108667210D01*
X164950580Y-108663903D01*
X164949559Y-108658769D01*
X164949559Y-106961231D01*
X164950580Y-106956097D01*
X164952790Y-106952790D01*
X164956097Y-106950580D01*
X164961231Y-106949559D01*
X166658769Y-106949559D01*
X166663903Y-106950580D01*
G37*
G36*
X163193903Y-106950580D02*
G01*
X163197210Y-106952790D01*
X163199420Y-106956097D01*
X163200441Y-106961231D01*
X163200441Y-108658769D01*
X163199420Y-108663903D01*
X163197210Y-108667210D01*
X163193903Y-108669420D01*
X163188769Y-108670441D01*
X161491231Y-108670441D01*
X161486097Y-108669420D01*
X161482790Y-108667210D01*
X161480580Y-108663903D01*
X161479559Y-108658769D01*
X161479559Y-106961231D01*
X161480580Y-106956097D01*
X161482790Y-106952790D01*
X161486097Y-106950580D01*
X161491231Y-106949559D01*
X163188769Y-106949559D01*
X163193903Y-106950580D01*
G37*
G36*
X177023903Y-106950580D02*
G01*
X177027210Y-106952790D01*
X177029420Y-106956097D01*
X177030441Y-106961231D01*
X177030441Y-108658769D01*
X177029420Y-108663903D01*
X177027210Y-108667210D01*
X177023903Y-108669420D01*
X177018769Y-108670441D01*
X175321231Y-108670441D01*
X175316097Y-108669420D01*
X175312790Y-108667210D01*
X175310580Y-108663903D01*
X175309559Y-108658769D01*
X175309559Y-106961231D01*
X175310580Y-106956097D01*
X175312790Y-106952790D01*
X175316097Y-106950580D01*
X175321231Y-106949559D01*
X177018769Y-106949559D01*
X177023903Y-106950580D01*
G37*
G36*
X180453903Y-106940580D02*
G01*
X180457210Y-106942790D01*
X180459420Y-106946097D01*
X180460441Y-106951231D01*
X180460441Y-108648769D01*
X180459420Y-108653903D01*
X180457210Y-108657210D01*
X180453903Y-108659420D01*
X180448769Y-108660441D01*
X178751231Y-108660441D01*
X178746097Y-108659420D01*
X178742790Y-108657210D01*
X178740580Y-108653903D01*
X178739559Y-108648769D01*
X178739559Y-106951231D01*
X178740580Y-106946097D01*
X178742790Y-106942790D01*
X178746097Y-106940580D01*
X178751231Y-106939559D01*
X180448769Y-106939559D01*
X180453903Y-106940580D01*
G37*
G36*
X176311289Y-104416545D02*
G01*
X176491260Y-104466794D01*
X176637435Y-104544517D01*
X176656244Y-104554518D01*
X176786787Y-104665619D01*
X176798539Y-104675621D01*
X176911511Y-104824455D01*
X176989887Y-104994078D01*
X176989887Y-104994079D01*
X177027813Y-105166573D01*
X177030011Y-105176573D01*
X177029338Y-105369429D01*
X177029333Y-105369451D01*
X177029333Y-105369453D01*
X177010394Y-105452811D01*
X176987941Y-105551640D01*
X176908382Y-105720710D01*
X176794374Y-105868753D01*
X176651235Y-105988861D01*
X176485644Y-106075429D01*
X176305327Y-106124421D01*
X176118696Y-106133548D01*
X175934458Y-106102387D01*
X175761210Y-106032390D01*
X175607034Y-105926824D01*
X175522703Y-105837020D01*
X175479124Y-105790614D01*
X175383446Y-105630113D01*
X175324467Y-105452814D01*
X175324466Y-105452811D01*
X175304934Y-105266980D01*
X175325763Y-105081291D01*
X175329168Y-105071290D01*
X175385979Y-104904406D01*
X175385979Y-104904405D01*
X175482775Y-104744577D01*
X175611633Y-104609262D01*
X175766542Y-104504775D01*
X175940275Y-104435989D01*
X176124726Y-104406115D01*
X176311289Y-104416545D01*
G37*
G36*
X165951289Y-104416545D02*
G01*
X166131260Y-104466794D01*
X166277435Y-104544517D01*
X166296244Y-104554518D01*
X166426787Y-104665619D01*
X166438539Y-104675621D01*
X166551511Y-104824455D01*
X166629887Y-104994078D01*
X166629887Y-104994079D01*
X166667813Y-105166573D01*
X166670011Y-105176573D01*
X166669338Y-105369429D01*
X166669333Y-105369451D01*
X166669333Y-105369453D01*
X166650394Y-105452811D01*
X166627941Y-105551640D01*
X166548382Y-105720710D01*
X166434374Y-105868753D01*
X166291235Y-105988861D01*
X166125644Y-106075429D01*
X165945327Y-106124421D01*
X165758696Y-106133548D01*
X165574458Y-106102387D01*
X165401210Y-106032390D01*
X165247034Y-105926824D01*
X165162703Y-105837020D01*
X165119124Y-105790614D01*
X165023446Y-105630113D01*
X164964467Y-105452814D01*
X164964466Y-105452811D01*
X164944934Y-105266980D01*
X164965763Y-105081291D01*
X164969168Y-105071290D01*
X165025979Y-104904406D01*
X165025979Y-104904405D01*
X165122775Y-104744577D01*
X165251633Y-104609262D01*
X165406542Y-104504775D01*
X165580275Y-104435989D01*
X165764726Y-104406115D01*
X165951289Y-104416545D01*
G37*
G36*
X169381289Y-104416545D02*
G01*
X169561260Y-104466794D01*
X169707435Y-104544517D01*
X169726244Y-104554518D01*
X169856787Y-104665619D01*
X169868539Y-104675621D01*
X169981511Y-104824455D01*
X170059887Y-104994078D01*
X170059887Y-104994079D01*
X170097813Y-105166573D01*
X170100011Y-105176573D01*
X170099338Y-105369429D01*
X170099333Y-105369451D01*
X170099333Y-105369453D01*
X170080394Y-105452811D01*
X170057941Y-105551640D01*
X169978382Y-105720710D01*
X169864374Y-105868753D01*
X169721235Y-105988861D01*
X169555644Y-106075429D01*
X169375327Y-106124421D01*
X169188696Y-106133548D01*
X169004458Y-106102387D01*
X168831210Y-106032390D01*
X168677034Y-105926824D01*
X168592703Y-105837020D01*
X168549124Y-105790614D01*
X168453446Y-105630113D01*
X168394467Y-105452814D01*
X168394466Y-105452811D01*
X168374934Y-105266980D01*
X168395763Y-105081291D01*
X168399168Y-105071290D01*
X168455979Y-104904406D01*
X168455979Y-104904405D01*
X168552775Y-104744577D01*
X168681633Y-104609262D01*
X168836542Y-104504775D01*
X169010275Y-104435989D01*
X169194726Y-104406115D01*
X169381289Y-104416545D01*
G37*
G36*
X172861289Y-104416545D02*
G01*
X173041260Y-104466794D01*
X173187435Y-104544517D01*
X173206244Y-104554518D01*
X173336787Y-104665619D01*
X173348539Y-104675621D01*
X173461511Y-104824455D01*
X173539887Y-104994078D01*
X173539887Y-104994079D01*
X173577813Y-105166573D01*
X173580011Y-105176573D01*
X173579338Y-105369429D01*
X173579333Y-105369451D01*
X173579333Y-105369453D01*
X173560394Y-105452811D01*
X173537941Y-105551640D01*
X173458382Y-105720710D01*
X173344374Y-105868753D01*
X173201235Y-105988861D01*
X173035644Y-106075429D01*
X172855327Y-106124421D01*
X172668696Y-106133548D01*
X172484458Y-106102387D01*
X172311210Y-106032390D01*
X172157034Y-105926824D01*
X172072703Y-105837020D01*
X172029124Y-105790614D01*
X171933446Y-105630113D01*
X171874467Y-105452814D01*
X171874466Y-105452811D01*
X171854934Y-105266980D01*
X171875763Y-105081291D01*
X171879168Y-105071290D01*
X171935979Y-104904406D01*
X171935979Y-104904405D01*
X172032775Y-104744577D01*
X172161633Y-104609262D01*
X172316542Y-104504775D01*
X172490275Y-104435989D01*
X172674726Y-104406115D01*
X172861289Y-104416545D01*
G37*
G36*
X162481289Y-104416545D02*
G01*
X162661260Y-104466794D01*
X162807435Y-104544517D01*
X162826244Y-104554518D01*
X162956787Y-104665619D01*
X162968539Y-104675621D01*
X163081511Y-104824455D01*
X163159887Y-104994078D01*
X163159887Y-104994079D01*
X163197813Y-105166573D01*
X163200011Y-105176573D01*
X163199338Y-105369429D01*
X163199333Y-105369451D01*
X163199333Y-105369453D01*
X163180394Y-105452811D01*
X163157941Y-105551640D01*
X163078382Y-105720710D01*
X162964374Y-105868753D01*
X162821235Y-105988861D01*
X162655644Y-106075429D01*
X162475327Y-106124421D01*
X162288696Y-106133548D01*
X162104458Y-106102387D01*
X161931210Y-106032390D01*
X161777034Y-105926824D01*
X161692703Y-105837020D01*
X161649124Y-105790614D01*
X161553446Y-105630113D01*
X161494467Y-105452814D01*
X161494466Y-105452811D01*
X161474934Y-105266980D01*
X161495763Y-105081291D01*
X161499168Y-105071290D01*
X161555979Y-104904406D01*
X161555979Y-104904405D01*
X161652775Y-104744577D01*
X161781633Y-104609262D01*
X161936542Y-104504775D01*
X162110275Y-104435989D01*
X162294726Y-104406115D01*
X162481289Y-104416545D01*
G37*
G36*
X179741289Y-104406545D02*
G01*
X179921260Y-104456794D01*
X180076404Y-104539286D01*
X180086244Y-104544518D01*
X180228537Y-104665619D01*
X180228539Y-104665621D01*
X180341511Y-104814455D01*
X180419887Y-104984078D01*
X180460011Y-105166573D01*
X180459338Y-105359429D01*
X180417941Y-105541640D01*
X180338382Y-105710710D01*
X180224374Y-105858753D01*
X180081235Y-105978861D01*
X179915644Y-106065429D01*
X179735327Y-106114421D01*
X179548696Y-106123548D01*
X179364458Y-106092387D01*
X179191210Y-106022390D01*
X179037034Y-105916824D01*
X178952703Y-105827020D01*
X178909124Y-105780614D01*
X178813446Y-105620113D01*
X178754467Y-105442814D01*
X178754466Y-105442811D01*
X178734934Y-105256980D01*
X178755763Y-105071291D01*
X178815979Y-104894405D01*
X178912775Y-104734577D01*
X179041633Y-104599262D01*
X179196542Y-104494775D01*
X179370275Y-104425989D01*
X179554726Y-104396115D01*
X179741289Y-104406545D01*
G37*
G36*
X123006085Y-97290672D02*
G01*
X123200112Y-97330501D01*
X123382705Y-97407257D01*
X123546913Y-97518015D01*
X123686480Y-97658560D01*
X123796093Y-97823540D01*
X123871571Y-98006665D01*
X123910026Y-98200877D01*
X123910026Y-98200883D01*
X123910042Y-98200964D01*
X123906883Y-98427199D01*
X123906864Y-98427282D01*
X123906864Y-98427288D01*
X123863003Y-98620347D01*
X123782439Y-98801296D01*
X123668266Y-98963147D01*
X123524826Y-99099743D01*
X123357591Y-99205874D01*
X123172923Y-99277502D01*
X122977861Y-99311896D01*
X122779832Y-99307748D01*
X122586387Y-99265216D01*
X122404877Y-99185916D01*
X122242232Y-99072875D01*
X122104638Y-98930393D01*
X121997342Y-98763901D01*
X121924429Y-98579743D01*
X121888672Y-98384923D01*
X121891438Y-98186872D01*
X121932620Y-97993126D01*
X122010646Y-97811076D01*
X122122553Y-97647641D01*
X122264066Y-97509061D01*
X122429807Y-97400603D01*
X122613453Y-97326406D01*
X122759378Y-97298570D01*
X122808018Y-97289291D01*
X122808019Y-97289291D01*
X123006085Y-97290672D01*
G37*
G36*
X105087328Y-96156838D02*
G01*
X105141219Y-96167558D01*
X105216884Y-96218116D01*
X105267442Y-96293781D01*
X105267442Y-96293782D01*
X105285441Y-96384266D01*
X105285441Y-96810734D01*
X105285196Y-96811965D01*
X105267442Y-96901219D01*
X105216884Y-96976884D01*
X105141219Y-97027442D01*
X105087328Y-97038162D01*
X105050734Y-97045441D01*
X104549266Y-97045441D01*
X104512672Y-97038162D01*
X104458781Y-97027442D01*
X104383116Y-96976884D01*
X104332558Y-96901219D01*
X104314804Y-96811965D01*
X104314559Y-96810734D01*
X104314559Y-96384266D01*
X104332558Y-96293782D01*
X104332558Y-96293781D01*
X104383116Y-96218116D01*
X104458781Y-96167558D01*
X104512672Y-96156838D01*
X104549266Y-96149559D01*
X105050734Y-96149559D01*
X105087328Y-96156838D01*
G37*
G36*
X105087328Y-94581838D02*
G01*
X105141219Y-94592558D01*
X105216884Y-94643116D01*
X105267442Y-94718781D01*
X105267442Y-94718782D01*
X105285441Y-94809266D01*
X105285441Y-95235734D01*
X105285196Y-95236965D01*
X105267442Y-95326219D01*
X105216884Y-95401884D01*
X105141219Y-95452442D01*
X105087328Y-95463162D01*
X105050734Y-95470441D01*
X104549266Y-95470441D01*
X104512672Y-95463162D01*
X104458781Y-95452442D01*
X104383116Y-95401884D01*
X104332558Y-95326219D01*
X104314804Y-95236965D01*
X104314559Y-95235734D01*
X104314559Y-94809266D01*
X104332558Y-94718782D01*
X104332558Y-94718781D01*
X104383116Y-94643116D01*
X104458781Y-94592558D01*
X104512672Y-94581838D01*
X104549266Y-94574559D01*
X105050734Y-94574559D01*
X105087328Y-94581838D01*
G37*
G36*
X123903903Y-92290580D02*
G01*
X123907210Y-92292790D01*
X123909420Y-92296097D01*
X123910441Y-92301231D01*
X123910441Y-94298769D01*
X123909420Y-94303903D01*
X123907210Y-94307210D01*
X123903903Y-94309420D01*
X123898769Y-94310441D01*
X121901231Y-94310441D01*
X121896097Y-94309420D01*
X121892790Y-94307210D01*
X121890580Y-94303903D01*
X121889559Y-94298769D01*
X121889559Y-92301231D01*
X121890580Y-92296097D01*
X121892790Y-92292790D01*
X121896097Y-92290580D01*
X121901231Y-92289559D01*
X123898769Y-92289559D01*
X123903903Y-92290580D01*
G37*
G36*
X177721289Y-92566545D02*
G01*
X177901260Y-92616794D01*
X178056404Y-92699286D01*
X178066244Y-92704518D01*
X178208537Y-92825619D01*
X178208539Y-92825621D01*
X178321511Y-92974455D01*
X178399887Y-93144078D01*
X178440011Y-93326573D01*
X178439338Y-93519429D01*
X178397941Y-93701640D01*
X178318382Y-93870710D01*
X178204374Y-94018753D01*
X178061235Y-94138861D01*
X177895644Y-94225429D01*
X177715327Y-94274421D01*
X177528696Y-94283548D01*
X177344458Y-94252387D01*
X177171210Y-94182390D01*
X177017034Y-94076824D01*
X176932703Y-93987020D01*
X176889124Y-93940614D01*
X176793446Y-93780113D01*
X176734467Y-93602814D01*
X176734466Y-93602811D01*
X176714934Y-93416980D01*
X176735763Y-93231291D01*
X176795979Y-93054405D01*
X176892775Y-92894577D01*
X177021633Y-92759262D01*
X177176542Y-92654775D01*
X177350275Y-92585989D01*
X177534726Y-92556115D01*
X177721289Y-92566545D01*
G37*
G36*
X170721289Y-92566545D02*
G01*
X170901260Y-92616794D01*
X171056404Y-92699286D01*
X171066244Y-92704518D01*
X171208537Y-92825619D01*
X171208539Y-92825621D01*
X171321511Y-92974455D01*
X171399887Y-93144078D01*
X171440011Y-93326573D01*
X171439338Y-93519429D01*
X171397941Y-93701640D01*
X171318382Y-93870710D01*
X171204374Y-94018753D01*
X171061235Y-94138861D01*
X170895644Y-94225429D01*
X170715327Y-94274421D01*
X170528696Y-94283548D01*
X170344458Y-94252387D01*
X170171210Y-94182390D01*
X170017034Y-94076824D01*
X169932703Y-93987020D01*
X169889124Y-93940614D01*
X169793446Y-93780113D01*
X169734467Y-93602814D01*
X169734466Y-93602811D01*
X169714934Y-93416980D01*
X169735763Y-93231291D01*
X169795979Y-93054405D01*
X169892775Y-92894577D01*
X170021633Y-92759262D01*
X170176542Y-92654775D01*
X170350275Y-92585989D01*
X170534726Y-92556115D01*
X170721289Y-92566545D01*
G37*
G36*
X178377011Y-82429643D02*
G01*
X178618022Y-82507953D01*
X178843823Y-82623004D01*
X179048846Y-82771962D01*
X179228038Y-82951154D01*
X179376996Y-83156177D01*
X179492047Y-83381978D01*
X179570357Y-83622989D01*
X179610000Y-83873290D01*
X179610000Y-84126710D01*
X179570357Y-84377011D01*
X179492047Y-84618022D01*
X179376996Y-84843823D01*
X179228038Y-85048846D01*
X179048846Y-85228038D01*
X178843823Y-85376996D01*
X178618022Y-85492047D01*
X178377011Y-85570357D01*
X178126710Y-85610000D01*
X177873290Y-85610000D01*
X177622989Y-85570357D01*
X177381978Y-85492047D01*
X177156177Y-85376996D01*
X176951154Y-85228038D01*
X176771962Y-85048846D01*
X176623004Y-84843823D01*
X176507953Y-84618022D01*
X176429643Y-84377011D01*
X176390000Y-84126710D01*
X176390000Y-83873290D01*
X176429643Y-83622989D01*
X176507953Y-83381978D01*
X176623004Y-83156177D01*
X176771962Y-82951154D01*
X176951154Y-82771962D01*
X177156177Y-82623004D01*
X177381978Y-82507953D01*
X177622989Y-82429643D01*
X177873290Y-82390000D01*
X178126710Y-82390000D01*
X178377011Y-82429643D01*
G37*
G36*
X103377011Y-82429643D02*
G01*
X103618022Y-82507953D01*
X103843823Y-82623004D01*
X104048846Y-82771962D01*
X104228038Y-82951154D01*
X104376996Y-83156177D01*
X104492047Y-83381978D01*
X104570357Y-83622989D01*
X104610000Y-83873290D01*
X104610000Y-84126710D01*
X104570357Y-84377011D01*
X104492047Y-84618022D01*
X104376996Y-84843823D01*
X104228038Y-85048846D01*
X104048846Y-85228038D01*
X103843823Y-85376996D01*
X103618022Y-85492047D01*
X103377011Y-85570357D01*
X103126710Y-85610000D01*
X102873290Y-85610000D01*
X102622989Y-85570357D01*
X102381978Y-85492047D01*
X102156177Y-85376996D01*
X101951154Y-85228038D01*
X101771962Y-85048846D01*
X101623004Y-84843823D01*
X101507953Y-84618022D01*
X101429643Y-84377011D01*
X101390000Y-84126710D01*
X101390000Y-83873290D01*
X101429643Y-83622989D01*
X101507953Y-83381978D01*
X101623004Y-83156177D01*
X101771962Y-82951154D01*
X101951154Y-82771962D01*
X102156177Y-82623004D01*
X102381978Y-82507953D01*
X102622989Y-82429643D01*
X102873290Y-82390000D01*
X103126710Y-82390000D01*
X103377011Y-82429643D01*
G37*
G36*
X115822183Y-84487563D02*
G01*
X115837701Y-84486587D01*
X115890892Y-84497893D01*
X115948061Y-84506488D01*
X115962256Y-84513062D01*
X115974380Y-84515639D01*
X116025292Y-84542255D01*
X116080622Y-84567880D01*
X116090025Y-84576098D01*
X116098213Y-84580378D01*
X116142324Y-84621801D01*
X116190624Y-84664010D01*
X116195639Y-84671867D01*
X116200070Y-84676028D01*
X116232971Y-84730354D01*
X116269224Y-84787150D01*
X116270946Y-84793057D01*
X116272455Y-84795549D01*
X116290260Y-84859322D01*
X116310104Y-84927401D01*
X116309795Y-84951034D01*
X116308439Y-85080592D01*
X116308083Y-85081770D01*
X116308029Y-85085927D01*
X116286889Y-85151969D01*
X116268069Y-85214302D01*
X116265782Y-85217905D01*
X116263492Y-85225060D01*
X116226544Y-85279734D01*
X116193199Y-85332277D01*
X116187675Y-85337251D01*
X116181695Y-85346100D01*
X116133348Y-85386168D01*
X116089356Y-85425778D01*
X116079870Y-85430487D01*
X116069214Y-85439318D01*
X116014486Y-85462944D01*
X115964203Y-85487905D01*
X115950699Y-85490481D01*
X115935091Y-85497219D01*
X115879046Y-85504150D01*
X115826941Y-85514090D01*
X115810105Y-85512676D01*
X115790109Y-85515149D01*
X115737470Y-85506576D01*
X115687702Y-85502397D01*
X115668922Y-85495413D01*
X115645921Y-85491667D01*
X115600631Y-85470016D01*
X115556734Y-85453691D01*
X115537980Y-85440065D01*
X115514120Y-85428659D01*
X115479062Y-85397259D01*
X115443687Y-85371557D01*
X115427341Y-85350933D01*
X115405300Y-85331192D01*
X115382119Y-85293878D01*
X115356894Y-85262052D01*
X115345481Y-85234902D01*
X115328210Y-85207101D01*
X115317274Y-85167802D01*
X115302745Y-85133238D01*
X115298662Y-85100913D01*
X115289047Y-85066361D01*
X115289540Y-85028707D01*
X115285233Y-84994611D01*
X115290449Y-84959287D01*
X115290960Y-84920286D01*
X115301082Y-84887280D01*
X115305646Y-84856375D01*
X115321439Y-84820903D01*
X115333793Y-84780620D01*
X115351045Y-84754406D01*
X115362478Y-84728727D01*
X115389218Y-84696404D01*
X115414105Y-84658589D01*
X115435628Y-84640304D01*
X115451547Y-84621061D01*
X115488551Y-84595342D01*
X115525439Y-84564004D01*
X115548357Y-84553776D01*
X115566288Y-84541314D01*
X115611786Y-84525470D01*
X115658844Y-84504469D01*
X115680589Y-84501510D01*
X115698248Y-84495360D01*
X115749439Y-84492140D01*
X115803597Y-84484769D01*
X115822183Y-84487563D01*
G37*
G36*
X120222183Y-84487563D02*
G01*
X120237701Y-84486587D01*
X120290892Y-84497893D01*
X120348061Y-84506488D01*
X120362256Y-84513062D01*
X120374380Y-84515639D01*
X120425292Y-84542255D01*
X120480622Y-84567880D01*
X120490025Y-84576098D01*
X120498213Y-84580378D01*
X120542324Y-84621801D01*
X120590624Y-84664010D01*
X120595639Y-84671867D01*
X120600070Y-84676028D01*
X120632971Y-84730354D01*
X120669224Y-84787150D01*
X120670946Y-84793057D01*
X120672455Y-84795549D01*
X120690260Y-84859322D01*
X120710104Y-84927401D01*
X120709795Y-84951034D01*
X120708439Y-85080592D01*
X120708083Y-85081770D01*
X120708029Y-85085927D01*
X120686889Y-85151969D01*
X120668069Y-85214302D01*
X120665782Y-85217905D01*
X120663492Y-85225060D01*
X120626544Y-85279734D01*
X120593199Y-85332277D01*
X120587675Y-85337251D01*
X120581695Y-85346100D01*
X120533348Y-85386168D01*
X120489356Y-85425778D01*
X120479870Y-85430487D01*
X120469214Y-85439318D01*
X120414486Y-85462944D01*
X120364203Y-85487905D01*
X120350699Y-85490481D01*
X120335091Y-85497219D01*
X120279046Y-85504150D01*
X120226941Y-85514090D01*
X120210105Y-85512676D01*
X120190109Y-85515149D01*
X120137470Y-85506576D01*
X120087702Y-85502397D01*
X120068922Y-85495413D01*
X120045921Y-85491667D01*
X120000631Y-85470016D01*
X119956734Y-85453691D01*
X119937980Y-85440065D01*
X119914120Y-85428659D01*
X119879062Y-85397259D01*
X119843687Y-85371557D01*
X119827341Y-85350933D01*
X119805300Y-85331192D01*
X119782119Y-85293878D01*
X119756894Y-85262052D01*
X119745481Y-85234902D01*
X119728210Y-85207101D01*
X119717274Y-85167802D01*
X119702745Y-85133238D01*
X119698662Y-85100913D01*
X119689047Y-85066361D01*
X119689540Y-85028707D01*
X119685233Y-84994611D01*
X119690449Y-84959287D01*
X119690960Y-84920286D01*
X119701082Y-84887280D01*
X119705646Y-84856375D01*
X119721439Y-84820903D01*
X119733793Y-84780620D01*
X119751045Y-84754406D01*
X119762478Y-84728727D01*
X119789218Y-84696404D01*
X119814105Y-84658589D01*
X119835628Y-84640304D01*
X119851547Y-84621061D01*
X119888551Y-84595342D01*
X119925439Y-84564004D01*
X119948357Y-84553776D01*
X119966288Y-84541314D01*
X120011786Y-84525470D01*
X120058844Y-84504469D01*
X120080589Y-84501510D01*
X120098248Y-84495360D01*
X120149439Y-84492140D01*
X120203597Y-84484769D01*
X120222183Y-84487563D01*
G37*
G36*
X166119998Y-83450245D02*
G01*
X166259452Y-83515867D01*
X166378205Y-83614108D01*
X166434322Y-83691347D01*
X166468796Y-83738797D01*
X166525532Y-83882094D01*
X166540000Y-83996623D01*
X166540000Y-84610414D01*
X166501671Y-84811341D01*
X166501478Y-84811692D01*
X166501478Y-84811693D01*
X166427422Y-84946400D01*
X166392999Y-84983056D01*
X166321919Y-85058749D01*
X166191789Y-85141331D01*
X166045211Y-85188957D01*
X165891396Y-85198635D01*
X165891393Y-85198635D01*
X165740002Y-85169755D01*
X165600548Y-85104133D01*
X165481795Y-85005892D01*
X165391205Y-84881204D01*
X165391204Y-84881202D01*
X165334468Y-84737905D01*
X165320000Y-84623376D01*
X165320000Y-84009586D01*
X165358329Y-83808659D01*
X165432579Y-83673601D01*
X165538082Y-83561251D01*
X165668211Y-83478669D01*
X165814789Y-83431043D01*
X165968604Y-83421365D01*
X165968607Y-83421365D01*
X166119998Y-83450245D01*
G37*
G36*
X168370875Y-83442679D02*
G01*
X168373671Y-83444410D01*
X168376550Y-83444983D01*
X168401229Y-83461473D01*
X168453716Y-83493971D01*
X168457638Y-83499164D01*
X168462552Y-83502448D01*
X168481256Y-83530440D01*
X168512248Y-83571481D01*
X168514187Y-83579725D01*
X168520017Y-83588450D01*
X168540196Y-83689897D01*
X168540196Y-83690305D01*
X168540441Y-83691347D01*
X168540441Y-84928945D01*
X168522321Y-85025875D01*
X168520590Y-85028671D01*
X168520017Y-85031550D01*
X168503527Y-85056229D01*
X168471029Y-85108716D01*
X168465836Y-85112638D01*
X168462552Y-85117552D01*
X168434560Y-85136256D01*
X168393519Y-85167248D01*
X168385275Y-85169187D01*
X168376550Y-85175017D01*
X168275103Y-85195196D01*
X168274695Y-85195196D01*
X168273653Y-85195441D01*
X167586055Y-85195441D01*
X167489125Y-85177321D01*
X167486329Y-85175590D01*
X167483450Y-85175017D01*
X167458771Y-85158527D01*
X167406284Y-85126029D01*
X167402362Y-85120836D01*
X167397448Y-85117552D01*
X167378744Y-85089560D01*
X167347752Y-85048519D01*
X167345813Y-85040275D01*
X167339983Y-85031550D01*
X167319804Y-84930103D01*
X167319804Y-84929695D01*
X167319559Y-84928653D01*
X167319559Y-83691055D01*
X167337679Y-83594125D01*
X167339410Y-83591329D01*
X167339983Y-83588450D01*
X167356473Y-83563771D01*
X167388971Y-83511284D01*
X167394164Y-83507362D01*
X167397448Y-83502448D01*
X167425440Y-83483744D01*
X167466481Y-83452752D01*
X167474725Y-83450813D01*
X167483450Y-83444983D01*
X167584897Y-83424804D01*
X167585305Y-83424804D01*
X167586347Y-83424559D01*
X168273945Y-83424559D01*
X168370875Y-83442679D01*
G37*
M02*
