G04 #@! TF.GenerationSoftware,KiCad,Pcbnew,5.99.0-unknown-a5c7d45~86~ubuntu18.04.1*
G04 #@! TF.CreationDate,2020-01-09T22:12:47+01:00*
G04 #@! TF.ProjectId,V1_0,56315f30-2e6b-4696-9361-645f70636258,rev?*
G04 #@! TF.SameCoordinates,Original*
G04 #@! TF.FileFunction,Legend,Bot*
G04 #@! TF.FilePolarity,Positive*
%FSLAX46Y46*%
G04 Gerber Fmt 4.6, Leading zero omitted, Abs format (unit mm)*
G04 Created by KiCad (PCBNEW 5.99.0-unknown-a5c7d45~86~ubuntu18.04.1) date 2020-01-09 22:12:47*
%MOMM*%
%LPD*%
G04 APERTURE LIST*
%ADD10C,0.150000*%
%ADD11C,0.500000*%
%ADD12C,0.120000*%
%ADD13R,1.020000X0.820000*%
%ADD14R,0.720000X1.520000*%
%ADD15C,0.920000*%
%ADD16C,3.220000*%
%ADD17C,2.020000*%
%ADD18R,2.020000X2.020000*%
%ADD19C,4.620000*%
%ADD20C,1.820000*%
%ADD21O,1.220000X1.770000*%
%ADD22C,1.720000*%
%ADD23O,1.720000X1.720000*%
%ADD24R,1.720000X1.720000*%
%ADD25C,1.020000*%
G04 APERTURE END LIST*
D10*
X135423333Y-132628571D02*
X135280476Y-132676190D01*
X135232857Y-132723809D01*
X135185238Y-132819047D01*
X135185238Y-132961904D01*
X135232857Y-133057142D01*
X135280476Y-133104761D01*
X135375714Y-133152380D01*
X135756666Y-133152380D01*
X135756666Y-132152380D01*
X135423333Y-132152380D01*
X135328095Y-132200000D01*
X135280476Y-132247619D01*
X135232857Y-132342857D01*
X135232857Y-132438095D01*
X135280476Y-132533333D01*
X135328095Y-132580952D01*
X135423333Y-132628571D01*
X135756666Y-132628571D01*
X134280476Y-133152380D02*
X134756666Y-133152380D01*
X134756666Y-132152380D01*
X146285714Y-133052380D02*
X146285714Y-132052380D01*
X145714285Y-133052380D01*
X145714285Y-132052380D01*
X180330000Y-110647380D02*
X180330000Y-109647380D01*
X180091904Y-109647380D01*
X179949047Y-109695000D01*
X179853809Y-109790238D01*
X179806190Y-109885476D01*
X179758571Y-110075952D01*
X179758571Y-110218809D01*
X179806190Y-110409285D01*
X179853809Y-110504523D01*
X179949047Y-110599761D01*
X180091904Y-110647380D01*
X180330000Y-110647380D01*
X179330000Y-110647380D02*
X179330000Y-109980714D01*
X179330000Y-109647380D02*
X179377619Y-109695000D01*
X179330000Y-109742619D01*
X179282380Y-109695000D01*
X179330000Y-109647380D01*
X179330000Y-109742619D01*
X178901428Y-110599761D02*
X178806190Y-110647380D01*
X178615714Y-110647380D01*
X178520476Y-110599761D01*
X178472857Y-110504523D01*
X178472857Y-110456904D01*
X178520476Y-110361666D01*
X178615714Y-110314047D01*
X178758571Y-110314047D01*
X178853809Y-110266428D01*
X178901428Y-110171190D01*
X178901428Y-110123571D01*
X178853809Y-110028333D01*
X178758571Y-109980714D01*
X178615714Y-109980714D01*
X178520476Y-110028333D01*
X177615714Y-110599761D02*
X177710952Y-110647380D01*
X177901428Y-110647380D01*
X177996666Y-110599761D01*
X178044285Y-110552142D01*
X178091904Y-110456904D01*
X178091904Y-110171190D01*
X178044285Y-110075952D01*
X177996666Y-110028333D01*
X177901428Y-109980714D01*
X177710952Y-109980714D01*
X177615714Y-110028333D01*
X177044285Y-110647380D02*
X177139523Y-110599761D01*
X177187142Y-110552142D01*
X177234761Y-110456904D01*
X177234761Y-110171190D01*
X177187142Y-110075952D01*
X177139523Y-110028333D01*
X177044285Y-109980714D01*
X176901428Y-109980714D01*
X176806190Y-110028333D01*
X176758571Y-110075952D01*
X176710952Y-110171190D01*
X176710952Y-110456904D01*
X176758571Y-110552142D01*
X176806190Y-110599761D01*
X176901428Y-110647380D01*
X177044285Y-110647380D01*
X176282380Y-109980714D02*
X176282380Y-110647380D01*
X176282380Y-110075952D02*
X176234761Y-110028333D01*
X176139523Y-109980714D01*
X175996666Y-109980714D01*
X175901428Y-110028333D01*
X175853809Y-110123571D01*
X175853809Y-110647380D01*
X175377619Y-109980714D02*
X175377619Y-110647380D01*
X175377619Y-110075952D02*
X175330000Y-110028333D01*
X175234761Y-109980714D01*
X175091904Y-109980714D01*
X174996666Y-110028333D01*
X174949047Y-110123571D01*
X174949047Y-110647380D01*
X174091904Y-110599761D02*
X174187142Y-110647380D01*
X174377619Y-110647380D01*
X174472857Y-110599761D01*
X174520476Y-110504523D01*
X174520476Y-110123571D01*
X174472857Y-110028333D01*
X174377619Y-109980714D01*
X174187142Y-109980714D01*
X174091904Y-110028333D01*
X174044285Y-110123571D01*
X174044285Y-110218809D01*
X174520476Y-110314047D01*
X173187142Y-110599761D02*
X173282380Y-110647380D01*
X173472857Y-110647380D01*
X173568095Y-110599761D01*
X173615714Y-110552142D01*
X173663333Y-110456904D01*
X173663333Y-110171190D01*
X173615714Y-110075952D01*
X173568095Y-110028333D01*
X173472857Y-109980714D01*
X173282380Y-109980714D01*
X173187142Y-110028333D01*
X172901428Y-109980714D02*
X172520476Y-109980714D01*
X172758571Y-109647380D02*
X172758571Y-110504523D01*
X172710952Y-110599761D01*
X172615714Y-110647380D01*
X172520476Y-110647380D01*
X171425238Y-109980714D02*
X171425238Y-110980714D01*
X171425238Y-110028333D02*
X171330000Y-109980714D01*
X171139523Y-109980714D01*
X171044285Y-110028333D01*
X170996666Y-110075952D01*
X170949047Y-110171190D01*
X170949047Y-110456904D01*
X170996666Y-110552142D01*
X171044285Y-110599761D01*
X171139523Y-110647380D01*
X171330000Y-110647380D01*
X171425238Y-110599761D01*
X170377619Y-110647380D02*
X170472857Y-110599761D01*
X170520476Y-110552142D01*
X170568095Y-110456904D01*
X170568095Y-110171190D01*
X170520476Y-110075952D01*
X170472857Y-110028333D01*
X170377619Y-109980714D01*
X170234761Y-109980714D01*
X170139523Y-110028333D01*
X170091904Y-110075952D01*
X170044285Y-110171190D01*
X170044285Y-110456904D01*
X170091904Y-110552142D01*
X170139523Y-110599761D01*
X170234761Y-110647380D01*
X170377619Y-110647380D01*
X169710952Y-109980714D02*
X169520476Y-110647380D01*
X169330000Y-110171190D01*
X169139523Y-110647380D01*
X168949047Y-109980714D01*
X168187142Y-110599761D02*
X168282380Y-110647380D01*
X168472857Y-110647380D01*
X168568095Y-110599761D01*
X168615714Y-110504523D01*
X168615714Y-110123571D01*
X168568095Y-110028333D01*
X168472857Y-109980714D01*
X168282380Y-109980714D01*
X168187142Y-110028333D01*
X168139523Y-110123571D01*
X168139523Y-110218809D01*
X168615714Y-110314047D01*
X167710952Y-110647380D02*
X167710952Y-109980714D01*
X167710952Y-110171190D02*
X167663333Y-110075952D01*
X167615714Y-110028333D01*
X167520476Y-109980714D01*
X167425238Y-109980714D01*
X166330000Y-110647380D02*
X166330000Y-109647380D01*
X166330000Y-110028333D02*
X166234761Y-109980714D01*
X166044285Y-109980714D01*
X165949047Y-110028333D01*
X165901428Y-110075952D01*
X165853809Y-110171190D01*
X165853809Y-110456904D01*
X165901428Y-110552142D01*
X165949047Y-110599761D01*
X166044285Y-110647380D01*
X166234761Y-110647380D01*
X166330000Y-110599761D01*
X165044285Y-110599761D02*
X165139523Y-110647380D01*
X165330000Y-110647380D01*
X165425238Y-110599761D01*
X165472857Y-110504523D01*
X165472857Y-110123571D01*
X165425238Y-110028333D01*
X165330000Y-109980714D01*
X165139523Y-109980714D01*
X165044285Y-110028333D01*
X164996666Y-110123571D01*
X164996666Y-110218809D01*
X165472857Y-110314047D01*
X164710952Y-109980714D02*
X164330000Y-109980714D01*
X164568095Y-110647380D02*
X164568095Y-109790238D01*
X164520476Y-109695000D01*
X164425238Y-109647380D01*
X164330000Y-109647380D01*
X163853809Y-110647380D02*
X163949047Y-110599761D01*
X163996666Y-110552142D01*
X164044285Y-110456904D01*
X164044285Y-110171190D01*
X163996666Y-110075952D01*
X163949047Y-110028333D01*
X163853809Y-109980714D01*
X163710952Y-109980714D01*
X163615714Y-110028333D01*
X163568095Y-110075952D01*
X163520476Y-110171190D01*
X163520476Y-110456904D01*
X163568095Y-110552142D01*
X163615714Y-110599761D01*
X163710952Y-110647380D01*
X163853809Y-110647380D01*
X163091904Y-110647380D02*
X163091904Y-109980714D01*
X163091904Y-110171190D02*
X163044285Y-110075952D01*
X162996666Y-110028333D01*
X162901428Y-109980714D01*
X162806190Y-109980714D01*
X162091904Y-110599761D02*
X162187142Y-110647380D01*
X162377619Y-110647380D01*
X162472857Y-110599761D01*
X162520476Y-110504523D01*
X162520476Y-110123571D01*
X162472857Y-110028333D01*
X162377619Y-109980714D01*
X162187142Y-109980714D01*
X162091904Y-110028333D01*
X162044285Y-110123571D01*
X162044285Y-110218809D01*
X162520476Y-110314047D01*
X178877619Y-112209761D02*
X178972857Y-112257380D01*
X179163333Y-112257380D01*
X179258571Y-112209761D01*
X179306190Y-112162142D01*
X179353809Y-112066904D01*
X179353809Y-111781190D01*
X179306190Y-111685952D01*
X179258571Y-111638333D01*
X179163333Y-111590714D01*
X178972857Y-111590714D01*
X178877619Y-111638333D01*
X178449047Y-112257380D02*
X178449047Y-111257380D01*
X178020476Y-112257380D02*
X178020476Y-111733571D01*
X178068095Y-111638333D01*
X178163333Y-111590714D01*
X178306190Y-111590714D01*
X178401428Y-111638333D01*
X178449047Y-111685952D01*
X177115714Y-112257380D02*
X177115714Y-111733571D01*
X177163333Y-111638333D01*
X177258571Y-111590714D01*
X177449047Y-111590714D01*
X177544285Y-111638333D01*
X177115714Y-112209761D02*
X177210952Y-112257380D01*
X177449047Y-112257380D01*
X177544285Y-112209761D01*
X177591904Y-112114523D01*
X177591904Y-112019285D01*
X177544285Y-111924047D01*
X177449047Y-111876428D01*
X177210952Y-111876428D01*
X177115714Y-111828809D01*
X176639523Y-111590714D02*
X176639523Y-112257380D01*
X176639523Y-111685952D02*
X176591904Y-111638333D01*
X176496666Y-111590714D01*
X176353809Y-111590714D01*
X176258571Y-111638333D01*
X176210952Y-111733571D01*
X176210952Y-112257380D01*
X175306190Y-111590714D02*
X175306190Y-112400238D01*
X175353809Y-112495476D01*
X175401428Y-112543095D01*
X175496666Y-112590714D01*
X175639523Y-112590714D01*
X175734761Y-112543095D01*
X175306190Y-112209761D02*
X175401428Y-112257380D01*
X175591904Y-112257380D01*
X175687142Y-112209761D01*
X175734761Y-112162142D01*
X175782380Y-112066904D01*
X175782380Y-111781190D01*
X175734761Y-111685952D01*
X175687142Y-111638333D01*
X175591904Y-111590714D01*
X175401428Y-111590714D01*
X175306190Y-111638333D01*
X174830000Y-112257380D02*
X174830000Y-111590714D01*
X174830000Y-111257380D02*
X174877619Y-111305000D01*
X174830000Y-111352619D01*
X174782380Y-111305000D01*
X174830000Y-111257380D01*
X174830000Y-111352619D01*
X174353809Y-111590714D02*
X174353809Y-112257380D01*
X174353809Y-111685952D02*
X174306190Y-111638333D01*
X174210952Y-111590714D01*
X174068095Y-111590714D01*
X173972857Y-111638333D01*
X173925238Y-111733571D01*
X173925238Y-112257380D01*
X173020476Y-111590714D02*
X173020476Y-112400238D01*
X173068095Y-112495476D01*
X173115714Y-112543095D01*
X173210952Y-112590714D01*
X173353809Y-112590714D01*
X173449047Y-112543095D01*
X173020476Y-112209761D02*
X173115714Y-112257380D01*
X173306190Y-112257380D01*
X173401428Y-112209761D01*
X173449047Y-112162142D01*
X173496666Y-112066904D01*
X173496666Y-111781190D01*
X173449047Y-111685952D01*
X173401428Y-111638333D01*
X173306190Y-111590714D01*
X173115714Y-111590714D01*
X173020476Y-111638333D01*
X171353809Y-112209761D02*
X171449047Y-112257380D01*
X171639523Y-112257380D01*
X171734761Y-112209761D01*
X171782380Y-112162142D01*
X171830000Y-112066904D01*
X171830000Y-111781190D01*
X171782380Y-111685952D01*
X171734761Y-111638333D01*
X171639523Y-111590714D01*
X171449047Y-111590714D01*
X171353809Y-111638333D01*
X170782380Y-112257380D02*
X170877619Y-112209761D01*
X170925238Y-112162142D01*
X170972857Y-112066904D01*
X170972857Y-111781190D01*
X170925238Y-111685952D01*
X170877619Y-111638333D01*
X170782380Y-111590714D01*
X170639523Y-111590714D01*
X170544285Y-111638333D01*
X170496666Y-111685952D01*
X170449047Y-111781190D01*
X170449047Y-112066904D01*
X170496666Y-112162142D01*
X170544285Y-112209761D01*
X170639523Y-112257380D01*
X170782380Y-112257380D01*
X170020476Y-111590714D02*
X170020476Y-112257380D01*
X170020476Y-111685952D02*
X169972857Y-111638333D01*
X169877619Y-111590714D01*
X169734761Y-111590714D01*
X169639523Y-111638333D01*
X169591904Y-111733571D01*
X169591904Y-112257380D01*
X169258571Y-111590714D02*
X168877619Y-111590714D01*
X169115714Y-112257380D02*
X169115714Y-111400238D01*
X169068095Y-111305000D01*
X168972857Y-111257380D01*
X168877619Y-111257380D01*
X168544285Y-112257380D02*
X168544285Y-111590714D01*
X168544285Y-111257380D02*
X168591904Y-111305000D01*
X168544285Y-111352619D01*
X168496666Y-111305000D01*
X168544285Y-111257380D01*
X168544285Y-111352619D01*
X167639523Y-111590714D02*
X167639523Y-112400238D01*
X167687142Y-112495476D01*
X167734761Y-112543095D01*
X167830000Y-112590714D01*
X167972857Y-112590714D01*
X168068095Y-112543095D01*
X167639523Y-112209761D02*
X167734761Y-112257380D01*
X167925238Y-112257380D01*
X168020476Y-112209761D01*
X168068095Y-112162142D01*
X168115714Y-112066904D01*
X168115714Y-111781190D01*
X168068095Y-111685952D01*
X168020476Y-111638333D01*
X167925238Y-111590714D01*
X167734761Y-111590714D01*
X167639523Y-111638333D01*
X166734761Y-111590714D02*
X166734761Y-112257380D01*
X167163333Y-111590714D02*
X167163333Y-112114523D01*
X167115714Y-112209761D01*
X167020476Y-112257380D01*
X166877619Y-112257380D01*
X166782380Y-112209761D01*
X166734761Y-112162142D01*
X166258571Y-112257380D02*
X166258571Y-111590714D01*
X166258571Y-111781190D02*
X166210952Y-111685952D01*
X166163333Y-111638333D01*
X166068095Y-111590714D01*
X165972857Y-111590714D01*
X165210952Y-112257380D02*
X165210952Y-111733571D01*
X165258571Y-111638333D01*
X165353809Y-111590714D01*
X165544285Y-111590714D01*
X165639523Y-111638333D01*
X165210952Y-112209761D02*
X165306190Y-112257380D01*
X165544285Y-112257380D01*
X165639523Y-112209761D01*
X165687142Y-112114523D01*
X165687142Y-112019285D01*
X165639523Y-111924047D01*
X165544285Y-111876428D01*
X165306190Y-111876428D01*
X165210952Y-111828809D01*
X164877619Y-111590714D02*
X164496666Y-111590714D01*
X164734761Y-111257380D02*
X164734761Y-112114523D01*
X164687142Y-112209761D01*
X164591904Y-112257380D01*
X164496666Y-112257380D01*
X164163333Y-112257380D02*
X164163333Y-111590714D01*
X164163333Y-111257380D02*
X164210952Y-111305000D01*
X164163333Y-111352619D01*
X164115714Y-111305000D01*
X164163333Y-111257380D01*
X164163333Y-111352619D01*
X163544285Y-112257380D02*
X163639523Y-112209761D01*
X163687142Y-112162142D01*
X163734761Y-112066904D01*
X163734761Y-111781190D01*
X163687142Y-111685952D01*
X163639523Y-111638333D01*
X163544285Y-111590714D01*
X163401428Y-111590714D01*
X163306190Y-111638333D01*
X163258571Y-111685952D01*
X163210952Y-111781190D01*
X163210952Y-112066904D01*
X163258571Y-112162142D01*
X163306190Y-112209761D01*
X163401428Y-112257380D01*
X163544285Y-112257380D01*
X162782380Y-111590714D02*
X162782380Y-112257380D01*
X162782380Y-111685952D02*
X162734761Y-111638333D01*
X162639523Y-111590714D01*
X162496666Y-111590714D01*
X162401428Y-111638333D01*
X162353809Y-111733571D01*
X162353809Y-112257380D01*
X177922380Y-96202380D02*
X177922380Y-95202380D01*
X177589047Y-95916666D01*
X177255714Y-95202380D01*
X177255714Y-96202380D01*
X176589047Y-95202380D02*
X176398571Y-95202380D01*
X176303333Y-95250000D01*
X176208095Y-95345238D01*
X176160476Y-95535714D01*
X176160476Y-95869047D01*
X176208095Y-96059523D01*
X176303333Y-96154761D01*
X176398571Y-96202380D01*
X176589047Y-96202380D01*
X176684285Y-96154761D01*
X176779523Y-96059523D01*
X176827142Y-95869047D01*
X176827142Y-95535714D01*
X176779523Y-95345238D01*
X176684285Y-95250000D01*
X176589047Y-95202380D01*
X175731904Y-96202380D02*
X175731904Y-95202380D01*
X175160476Y-96202380D01*
X175160476Y-95202380D01*
X174493809Y-95202380D02*
X174303333Y-95202380D01*
X174208095Y-95250000D01*
X174112857Y-95345238D01*
X174065238Y-95535714D01*
X174065238Y-95869047D01*
X174112857Y-96059523D01*
X174208095Y-96154761D01*
X174303333Y-96202380D01*
X174493809Y-96202380D01*
X174589047Y-96154761D01*
X174684285Y-96059523D01*
X174731904Y-95869047D01*
X174731904Y-95535714D01*
X174684285Y-95345238D01*
X174589047Y-95250000D01*
X174493809Y-95202380D01*
X173636666Y-95821428D02*
X172874761Y-95821428D01*
X172208095Y-95202380D02*
X172017619Y-95202380D01*
X171922380Y-95250000D01*
X171827142Y-95345238D01*
X171779523Y-95535714D01*
X171779523Y-95869047D01*
X171827142Y-96059523D01*
X171922380Y-96154761D01*
X172017619Y-96202380D01*
X172208095Y-96202380D01*
X172303333Y-96154761D01*
X172398571Y-96059523D01*
X172446190Y-95869047D01*
X172446190Y-95535714D01*
X172398571Y-95345238D01*
X172303333Y-95250000D01*
X172208095Y-95202380D01*
X171350952Y-95202380D02*
X171350952Y-96011904D01*
X171303333Y-96107142D01*
X171255714Y-96154761D01*
X171160476Y-96202380D01*
X170970000Y-96202380D01*
X170874761Y-96154761D01*
X170827142Y-96107142D01*
X170779523Y-96011904D01*
X170779523Y-95202380D01*
X170446190Y-95202380D02*
X169874761Y-95202380D01*
X170160476Y-96202380D02*
X170160476Y-95202380D01*
X136688571Y-94527380D02*
X136688571Y-93527380D01*
X136450476Y-93527380D01*
X136307619Y-93575000D01*
X136212380Y-93670238D01*
X136164761Y-93765476D01*
X136117142Y-93955952D01*
X136117142Y-94098809D01*
X136164761Y-94289285D01*
X136212380Y-94384523D01*
X136307619Y-94479761D01*
X136450476Y-94527380D01*
X136688571Y-94527380D01*
X135307619Y-94479761D02*
X135402857Y-94527380D01*
X135593333Y-94527380D01*
X135688571Y-94479761D01*
X135736190Y-94384523D01*
X135736190Y-94003571D01*
X135688571Y-93908333D01*
X135593333Y-93860714D01*
X135402857Y-93860714D01*
X135307619Y-93908333D01*
X135260000Y-94003571D01*
X135260000Y-94098809D01*
X135736190Y-94194047D01*
X134402857Y-94527380D02*
X134402857Y-93527380D01*
X134402857Y-94479761D02*
X134498095Y-94527380D01*
X134688571Y-94527380D01*
X134783809Y-94479761D01*
X134831428Y-94432142D01*
X134879047Y-94336904D01*
X134879047Y-94051190D01*
X134831428Y-93955952D01*
X134783809Y-93908333D01*
X134688571Y-93860714D01*
X134498095Y-93860714D01*
X134402857Y-93908333D01*
X133926666Y-94527380D02*
X133926666Y-93860714D01*
X133926666Y-93527380D02*
X133974285Y-93575000D01*
X133926666Y-93622619D01*
X133879047Y-93575000D01*
X133926666Y-93527380D01*
X133926666Y-93622619D01*
X133021904Y-94479761D02*
X133117142Y-94527380D01*
X133307619Y-94527380D01*
X133402857Y-94479761D01*
X133450476Y-94432142D01*
X133498095Y-94336904D01*
X133498095Y-94051190D01*
X133450476Y-93955952D01*
X133402857Y-93908333D01*
X133307619Y-93860714D01*
X133117142Y-93860714D01*
X133021904Y-93908333D01*
X132164761Y-94527380D02*
X132164761Y-94003571D01*
X132212380Y-93908333D01*
X132307619Y-93860714D01*
X132498095Y-93860714D01*
X132593333Y-93908333D01*
X132164761Y-94479761D02*
X132260000Y-94527380D01*
X132498095Y-94527380D01*
X132593333Y-94479761D01*
X132640952Y-94384523D01*
X132640952Y-94289285D01*
X132593333Y-94194047D01*
X132498095Y-94146428D01*
X132260000Y-94146428D01*
X132164761Y-94098809D01*
X131831428Y-93860714D02*
X131450476Y-93860714D01*
X131688571Y-93527380D02*
X131688571Y-94384523D01*
X131640952Y-94479761D01*
X131545714Y-94527380D01*
X131450476Y-94527380D01*
X130736190Y-94479761D02*
X130831428Y-94527380D01*
X131021904Y-94527380D01*
X131117142Y-94479761D01*
X131164761Y-94384523D01*
X131164761Y-94003571D01*
X131117142Y-93908333D01*
X131021904Y-93860714D01*
X130831428Y-93860714D01*
X130736190Y-93908333D01*
X130688571Y-94003571D01*
X130688571Y-94098809D01*
X131164761Y-94194047D01*
X129831428Y-94527380D02*
X129831428Y-93527380D01*
X129831428Y-94479761D02*
X129926666Y-94527380D01*
X130117142Y-94527380D01*
X130212380Y-94479761D01*
X130260000Y-94432142D01*
X130307619Y-94336904D01*
X130307619Y-94051190D01*
X130260000Y-93955952D01*
X130212380Y-93908333D01*
X130117142Y-93860714D01*
X129926666Y-93860714D01*
X129831428Y-93908333D01*
X128736190Y-93860714D02*
X128355238Y-93860714D01*
X128593333Y-93527380D02*
X128593333Y-94384523D01*
X128545714Y-94479761D01*
X128450476Y-94527380D01*
X128355238Y-94527380D01*
X127879047Y-94527380D02*
X127974285Y-94479761D01*
X128021904Y-94432142D01*
X128069523Y-94336904D01*
X128069523Y-94051190D01*
X128021904Y-93955952D01*
X127974285Y-93908333D01*
X127879047Y-93860714D01*
X127736190Y-93860714D01*
X127640952Y-93908333D01*
X127593333Y-93955952D01*
X127545714Y-94051190D01*
X127545714Y-94336904D01*
X127593333Y-94432142D01*
X127640952Y-94479761D01*
X127736190Y-94527380D01*
X127879047Y-94527380D01*
X141355238Y-96089761D02*
X141212380Y-96137380D01*
X140974285Y-96137380D01*
X140879047Y-96089761D01*
X140831428Y-96042142D01*
X140783809Y-95946904D01*
X140783809Y-95851666D01*
X140831428Y-95756428D01*
X140879047Y-95708809D01*
X140974285Y-95661190D01*
X141164761Y-95613571D01*
X141260000Y-95565952D01*
X141307619Y-95518333D01*
X141355238Y-95423095D01*
X141355238Y-95327857D01*
X141307619Y-95232619D01*
X141260000Y-95185000D01*
X141164761Y-95137380D01*
X140926666Y-95137380D01*
X140783809Y-95185000D01*
X139926666Y-96137380D02*
X139926666Y-95613571D01*
X139974285Y-95518333D01*
X140069523Y-95470714D01*
X140260000Y-95470714D01*
X140355238Y-95518333D01*
X139926666Y-96089761D02*
X140021904Y-96137380D01*
X140260000Y-96137380D01*
X140355238Y-96089761D01*
X140402857Y-95994523D01*
X140402857Y-95899285D01*
X140355238Y-95804047D01*
X140260000Y-95756428D01*
X140021904Y-95756428D01*
X139926666Y-95708809D01*
X139450476Y-96137380D02*
X139450476Y-95470714D01*
X139450476Y-95565952D02*
X139402857Y-95518333D01*
X139307619Y-95470714D01*
X139164761Y-95470714D01*
X139069523Y-95518333D01*
X139021904Y-95613571D01*
X139021904Y-96137380D01*
X139021904Y-95613571D02*
X138974285Y-95518333D01*
X138879047Y-95470714D01*
X138736190Y-95470714D01*
X138640952Y-95518333D01*
X138593333Y-95613571D01*
X138593333Y-96137380D01*
X137688571Y-95470714D02*
X137688571Y-96137380D01*
X138117142Y-95470714D02*
X138117142Y-95994523D01*
X138069523Y-96089761D01*
X137974285Y-96137380D01*
X137831428Y-96137380D01*
X137736190Y-96089761D01*
X137688571Y-96042142D01*
X136831428Y-96089761D02*
X136926666Y-96137380D01*
X137117142Y-96137380D01*
X137212380Y-96089761D01*
X137260000Y-95994523D01*
X137260000Y-95613571D01*
X137212380Y-95518333D01*
X137117142Y-95470714D01*
X136926666Y-95470714D01*
X136831428Y-95518333D01*
X136783809Y-95613571D01*
X136783809Y-95708809D01*
X137260000Y-95804047D01*
X136212380Y-96137380D02*
X136307619Y-96089761D01*
X136355238Y-95994523D01*
X136355238Y-95137380D01*
X133974285Y-95613571D02*
X133831428Y-95661190D01*
X133783809Y-95708809D01*
X133736190Y-95804047D01*
X133736190Y-95946904D01*
X133783809Y-96042142D01*
X133831428Y-96089761D01*
X133926666Y-96137380D01*
X134307619Y-96137380D01*
X134307619Y-95137380D01*
X133974285Y-95137380D01*
X133879047Y-95185000D01*
X133831428Y-95232619D01*
X133783809Y-95327857D01*
X133783809Y-95423095D01*
X133831428Y-95518333D01*
X133879047Y-95565952D01*
X133974285Y-95613571D01*
X134307619Y-95613571D01*
X132926666Y-96089761D02*
X133021904Y-96137380D01*
X133212380Y-96137380D01*
X133307619Y-96089761D01*
X133355238Y-95994523D01*
X133355238Y-95613571D01*
X133307619Y-95518333D01*
X133212380Y-95470714D01*
X133021904Y-95470714D01*
X132926666Y-95518333D01*
X132879047Y-95613571D01*
X132879047Y-95708809D01*
X133355238Y-95804047D01*
X132021904Y-96089761D02*
X132117142Y-96137380D01*
X132307619Y-96137380D01*
X132402857Y-96089761D01*
X132450476Y-96042142D01*
X132498095Y-95946904D01*
X132498095Y-95661190D01*
X132450476Y-95565952D01*
X132402857Y-95518333D01*
X132307619Y-95470714D01*
X132117142Y-95470714D01*
X132021904Y-95518333D01*
X131212380Y-96089761D02*
X131307619Y-96137380D01*
X131498095Y-96137380D01*
X131593333Y-96089761D01*
X131640952Y-95994523D01*
X131640952Y-95613571D01*
X131593333Y-95518333D01*
X131498095Y-95470714D01*
X131307619Y-95470714D01*
X131212380Y-95518333D01*
X131164761Y-95613571D01*
X131164761Y-95708809D01*
X131640952Y-95804047D01*
X130736190Y-96137380D02*
X130736190Y-95470714D01*
X130736190Y-95661190D02*
X130688571Y-95565952D01*
X130640952Y-95518333D01*
X130545714Y-95470714D01*
X130450476Y-95470714D01*
X130117142Y-96137380D02*
X130117142Y-95470714D01*
X130117142Y-95661190D02*
X130069523Y-95565952D01*
X130021904Y-95518333D01*
X129926666Y-95470714D01*
X129831428Y-95470714D01*
X129069523Y-96137380D02*
X129069523Y-95613571D01*
X129117142Y-95518333D01*
X129212380Y-95470714D01*
X129402857Y-95470714D01*
X129498095Y-95518333D01*
X129069523Y-96089761D02*
X129164761Y-96137380D01*
X129402857Y-96137380D01*
X129498095Y-96089761D01*
X129545714Y-95994523D01*
X129545714Y-95899285D01*
X129498095Y-95804047D01*
X129402857Y-95756428D01*
X129164761Y-95756428D01*
X129069523Y-95708809D01*
X127974285Y-95137380D02*
X127640952Y-96137380D01*
X127307619Y-95137380D01*
X126593333Y-96089761D02*
X126688571Y-96137380D01*
X126879047Y-96137380D01*
X126974285Y-96089761D01*
X127021904Y-95994523D01*
X127021904Y-95613571D01*
X126974285Y-95518333D01*
X126879047Y-95470714D01*
X126688571Y-95470714D01*
X126593333Y-95518333D01*
X126545714Y-95613571D01*
X126545714Y-95708809D01*
X127021904Y-95804047D01*
X126117142Y-95470714D02*
X126117142Y-96137380D01*
X126117142Y-95565952D02*
X126069523Y-95518333D01*
X125974285Y-95470714D01*
X125831428Y-95470714D01*
X125736190Y-95518333D01*
X125688571Y-95613571D01*
X125688571Y-96137380D01*
X124831428Y-96089761D02*
X124926666Y-96137380D01*
X125117142Y-96137380D01*
X125212380Y-96089761D01*
X125260000Y-95994523D01*
X125260000Y-95613571D01*
X125212380Y-95518333D01*
X125117142Y-95470714D01*
X124926666Y-95470714D01*
X124831428Y-95518333D01*
X124783809Y-95613571D01*
X124783809Y-95708809D01*
X125260000Y-95804047D01*
X123926666Y-95470714D02*
X123926666Y-96280238D01*
X123974285Y-96375476D01*
X124021904Y-96423095D01*
X124117142Y-96470714D01*
X124260000Y-96470714D01*
X124355238Y-96423095D01*
X123926666Y-96089761D02*
X124021904Y-96137380D01*
X124212380Y-96137380D01*
X124307619Y-96089761D01*
X124355238Y-96042142D01*
X124402857Y-95946904D01*
X124402857Y-95661190D01*
X124355238Y-95565952D01*
X124307619Y-95518333D01*
X124212380Y-95470714D01*
X124021904Y-95470714D01*
X123926666Y-95518333D01*
X123021904Y-96137380D02*
X123021904Y-95613571D01*
X123069523Y-95518333D01*
X123164761Y-95470714D01*
X123355238Y-95470714D01*
X123450476Y-95518333D01*
X123021904Y-96089761D02*
X123117142Y-96137380D01*
X123355238Y-96137380D01*
X123450476Y-96089761D01*
X123498095Y-95994523D01*
X123498095Y-95899285D01*
X123450476Y-95804047D01*
X123355238Y-95756428D01*
X123117142Y-95756428D01*
X123021904Y-95708809D01*
X122593333Y-96089761D02*
X122498095Y-96137380D01*
X122307619Y-96137380D01*
X122212380Y-96089761D01*
X122164761Y-95994523D01*
X122164761Y-95946904D01*
X122212380Y-95851666D01*
X122307619Y-95804047D01*
X122450476Y-95804047D01*
X122545714Y-95756428D01*
X122593333Y-95661190D01*
X122593333Y-95613571D01*
X122545714Y-95518333D01*
X122450476Y-95470714D01*
X122307619Y-95470714D01*
X122212380Y-95518333D01*
X137979047Y-87718571D02*
X137836190Y-87766190D01*
X137788571Y-87813809D01*
X137740952Y-87909047D01*
X137740952Y-88051904D01*
X137788571Y-88147142D01*
X137836190Y-88194761D01*
X137931428Y-88242380D01*
X138312380Y-88242380D01*
X138312380Y-87242380D01*
X137979047Y-87242380D01*
X137883809Y-87290000D01*
X137836190Y-87337619D01*
X137788571Y-87432857D01*
X137788571Y-87528095D01*
X137836190Y-87623333D01*
X137883809Y-87670952D01*
X137979047Y-87718571D01*
X138312380Y-87718571D01*
X137169523Y-88242380D02*
X137264761Y-88194761D01*
X137312380Y-88147142D01*
X137360000Y-88051904D01*
X137360000Y-87766190D01*
X137312380Y-87670952D01*
X137264761Y-87623333D01*
X137169523Y-87575714D01*
X137026666Y-87575714D01*
X136931428Y-87623333D01*
X136883809Y-87670952D01*
X136836190Y-87766190D01*
X136836190Y-88051904D01*
X136883809Y-88147142D01*
X136931428Y-88194761D01*
X137026666Y-88242380D01*
X137169523Y-88242380D01*
X135360000Y-87242380D02*
X135360000Y-87956666D01*
X135407619Y-88099523D01*
X135502857Y-88194761D01*
X135645714Y-88242380D01*
X135740952Y-88242380D01*
X134740952Y-88242380D02*
X134836190Y-88194761D01*
X134883809Y-88147142D01*
X134931428Y-88051904D01*
X134931428Y-87766190D01*
X134883809Y-87670952D01*
X134836190Y-87623333D01*
X134740952Y-87575714D01*
X134598095Y-87575714D01*
X134502857Y-87623333D01*
X134455238Y-87670952D01*
X134407619Y-87766190D01*
X134407619Y-88051904D01*
X134455238Y-88147142D01*
X134502857Y-88194761D01*
X134598095Y-88242380D01*
X134740952Y-88242380D01*
X133598095Y-88194761D02*
X133693333Y-88242380D01*
X133883809Y-88242380D01*
X133979047Y-88194761D01*
X134026666Y-88099523D01*
X134026666Y-87718571D01*
X133979047Y-87623333D01*
X133883809Y-87575714D01*
X133693333Y-87575714D01*
X133598095Y-87623333D01*
X133550476Y-87718571D01*
X133550476Y-87813809D01*
X134026666Y-87909047D01*
X132979047Y-88242380D02*
X133074285Y-88194761D01*
X133121904Y-88099523D01*
X133121904Y-87242380D01*
X131883809Y-88194761D02*
X131740952Y-88242380D01*
X131502857Y-88242380D01*
X131407619Y-88194761D01*
X131360000Y-88147142D01*
X131312380Y-88051904D01*
X131312380Y-87956666D01*
X131360000Y-87861428D01*
X131407619Y-87813809D01*
X131502857Y-87766190D01*
X131693333Y-87718571D01*
X131788571Y-87670952D01*
X131836190Y-87623333D01*
X131883809Y-87528095D01*
X131883809Y-87432857D01*
X131836190Y-87337619D01*
X131788571Y-87290000D01*
X131693333Y-87242380D01*
X131455238Y-87242380D01*
X131312380Y-87290000D01*
X130979047Y-87575714D02*
X130740952Y-88242380D01*
X130502857Y-87575714D01*
X129740952Y-88194761D02*
X129836190Y-88242380D01*
X130026666Y-88242380D01*
X130121904Y-88194761D01*
X130169523Y-88099523D01*
X130169523Y-87718571D01*
X130121904Y-87623333D01*
X130026666Y-87575714D01*
X129836190Y-87575714D01*
X129740952Y-87623333D01*
X129693333Y-87718571D01*
X129693333Y-87813809D01*
X130169523Y-87909047D01*
X129264761Y-87575714D02*
X129264761Y-88242380D01*
X129264761Y-87670952D02*
X129217142Y-87623333D01*
X129121904Y-87575714D01*
X128979047Y-87575714D01*
X128883809Y-87623333D01*
X128836190Y-87718571D01*
X128836190Y-88242380D01*
X128407619Y-88194761D02*
X128312380Y-88242380D01*
X128121904Y-88242380D01*
X128026666Y-88194761D01*
X127979047Y-88099523D01*
X127979047Y-88051904D01*
X128026666Y-87956666D01*
X128121904Y-87909047D01*
X128264761Y-87909047D01*
X128360000Y-87861428D01*
X128407619Y-87766190D01*
X128407619Y-87718571D01*
X128360000Y-87623333D01*
X128264761Y-87575714D01*
X128121904Y-87575714D01*
X128026666Y-87623333D01*
X127598095Y-88194761D02*
X127502857Y-88242380D01*
X127312380Y-88242380D01*
X127217142Y-88194761D01*
X127169523Y-88099523D01*
X127169523Y-88051904D01*
X127217142Y-87956666D01*
X127312380Y-87909047D01*
X127455238Y-87909047D01*
X127550476Y-87861428D01*
X127598095Y-87766190D01*
X127598095Y-87718571D01*
X127550476Y-87623333D01*
X127455238Y-87575714D01*
X127312380Y-87575714D01*
X127217142Y-87623333D01*
X126598095Y-88242380D02*
X126693333Y-88194761D01*
X126740952Y-88147142D01*
X126788571Y-88051904D01*
X126788571Y-87766190D01*
X126740952Y-87670952D01*
X126693333Y-87623333D01*
X126598095Y-87575714D01*
X126455238Y-87575714D01*
X126360000Y-87623333D01*
X126312380Y-87670952D01*
X126264761Y-87766190D01*
X126264761Y-88051904D01*
X126312380Y-88147142D01*
X126360000Y-88194761D01*
X126455238Y-88242380D01*
X126598095Y-88242380D01*
X125836190Y-87575714D02*
X125836190Y-88242380D01*
X125836190Y-87670952D02*
X125788571Y-87623333D01*
X125693333Y-87575714D01*
X125550476Y-87575714D01*
X125455238Y-87623333D01*
X125407619Y-87718571D01*
X125407619Y-88242380D01*
D11*
X140205714Y-85469523D02*
X139920000Y-85564761D01*
X139443809Y-85564761D01*
X139253333Y-85469523D01*
X139158095Y-85374285D01*
X139062857Y-85183809D01*
X139062857Y-84993333D01*
X139158095Y-84802857D01*
X139253333Y-84707619D01*
X139443809Y-84612380D01*
X139824761Y-84517142D01*
X140015238Y-84421904D01*
X140110476Y-84326666D01*
X140205714Y-84136190D01*
X140205714Y-83945714D01*
X140110476Y-83755238D01*
X140015238Y-83660000D01*
X139824761Y-83564761D01*
X139348571Y-83564761D01*
X139062857Y-83660000D01*
X137824761Y-84612380D02*
X137824761Y-85564761D01*
X138491428Y-83564761D02*
X137824761Y-84612380D01*
X137158095Y-83564761D01*
X136491428Y-85564761D02*
X136491428Y-83564761D01*
X135348571Y-85564761D01*
X135348571Y-83564761D01*
X134681904Y-83564761D02*
X133539047Y-83564761D01*
X134110476Y-85564761D02*
X134110476Y-83564761D01*
X132872380Y-85564761D02*
X132872380Y-83564761D01*
X132872380Y-84517142D02*
X131729523Y-84517142D01*
X131729523Y-85564761D02*
X131729523Y-83564761D01*
X129539047Y-83564761D02*
X128872380Y-85564761D01*
X128205714Y-83564761D01*
X126491428Y-85564761D02*
X127634285Y-85564761D01*
X127062857Y-85564761D02*
X127062857Y-83564761D01*
X127253333Y-83850476D01*
X127443809Y-84040952D01*
X127634285Y-84136190D01*
X125634285Y-85374285D02*
X125539047Y-85469523D01*
X125634285Y-85564761D01*
X125729523Y-85469523D01*
X125634285Y-85374285D01*
X125634285Y-85564761D01*
X124300952Y-83564761D02*
X124110476Y-83564761D01*
X123919999Y-83660000D01*
X123824761Y-83755238D01*
X123729523Y-83945714D01*
X123634285Y-84326666D01*
X123634285Y-84802857D01*
X123729523Y-85183809D01*
X123824761Y-85374285D01*
X123919999Y-85469523D01*
X124110476Y-85564761D01*
X124300952Y-85564761D01*
X124491428Y-85469523D01*
X124586666Y-85374285D01*
X124681904Y-85183809D01*
X124777142Y-84802857D01*
X124777142Y-84326666D01*
X124681904Y-83945714D01*
X124586666Y-83755238D01*
X124491428Y-83660000D01*
X124300952Y-83564761D01*
D10*
X129892380Y-114263809D02*
X129892380Y-114882857D01*
X130273333Y-114549523D01*
X130273333Y-114692380D01*
X130320952Y-114787619D01*
X130368571Y-114835238D01*
X130463809Y-114882857D01*
X130701904Y-114882857D01*
X130797142Y-114835238D01*
X130844761Y-114787619D01*
X130892380Y-114692380D01*
X130892380Y-114406666D01*
X130844761Y-114311428D01*
X130797142Y-114263809D01*
X130797142Y-115311428D02*
X130844761Y-115359047D01*
X130892380Y-115311428D01*
X130844761Y-115263809D01*
X130797142Y-115311428D01*
X130892380Y-115311428D01*
X129892380Y-115692380D02*
X129892380Y-116311428D01*
X130273333Y-115978095D01*
X130273333Y-116120952D01*
X130320952Y-116216190D01*
X130368571Y-116263809D01*
X130463809Y-116311428D01*
X130701904Y-116311428D01*
X130797142Y-116263809D01*
X130844761Y-116216190D01*
X130892380Y-116120952D01*
X130892380Y-115835238D01*
X130844761Y-115740000D01*
X130797142Y-115692380D01*
X129892380Y-116597142D02*
X130892380Y-116930476D01*
X129892380Y-117263809D01*
X127802380Y-114498095D02*
X127802380Y-115069523D01*
X128802380Y-114783809D02*
X127802380Y-114783809D01*
X127802380Y-115307619D02*
X128802380Y-115974285D01*
X127802380Y-115974285D02*
X128802380Y-115307619D01*
X126672380Y-115133333D02*
X126196190Y-114800000D01*
X126672380Y-114561904D02*
X125672380Y-114561904D01*
X125672380Y-114942857D01*
X125720000Y-115038095D01*
X125767619Y-115085714D01*
X125862857Y-115133333D01*
X126005714Y-115133333D01*
X126100952Y-115085714D01*
X126148571Y-115038095D01*
X126196190Y-114942857D01*
X126196190Y-114561904D01*
X125672380Y-115466666D02*
X126672380Y-116133333D01*
X125672380Y-116133333D02*
X126672380Y-115466666D01*
X123710000Y-115048095D02*
X123662380Y-114952857D01*
X123662380Y-114810000D01*
X123710000Y-114667142D01*
X123805238Y-114571904D01*
X123900476Y-114524285D01*
X124090952Y-114476666D01*
X124233809Y-114476666D01*
X124424285Y-114524285D01*
X124519523Y-114571904D01*
X124614761Y-114667142D01*
X124662380Y-114810000D01*
X124662380Y-114905238D01*
X124614761Y-115048095D01*
X124567142Y-115095714D01*
X124233809Y-115095714D01*
X124233809Y-114905238D01*
X124662380Y-115524285D02*
X123662380Y-115524285D01*
X124662380Y-116095714D01*
X123662380Y-116095714D01*
X124662380Y-116571904D02*
X123662380Y-116571904D01*
X123662380Y-116810000D01*
X123710000Y-116952857D01*
X123805238Y-117048095D01*
X123900476Y-117095714D01*
X124090952Y-117143333D01*
X124233809Y-117143333D01*
X124424285Y-117095714D01*
X124519523Y-117048095D01*
X124614761Y-116952857D01*
X124662380Y-116810000D01*
X124662380Y-116571904D01*
X130732380Y-121104285D02*
X129732380Y-121104285D01*
X130732380Y-121675714D01*
X129732380Y-121675714D01*
X130637142Y-122723333D02*
X130684761Y-122675714D01*
X130732380Y-122532857D01*
X130732380Y-122437619D01*
X130684761Y-122294761D01*
X130589523Y-122199523D01*
X130494285Y-122151904D01*
X130303809Y-122104285D01*
X130160952Y-122104285D01*
X129970476Y-122151904D01*
X129875238Y-122199523D01*
X129780000Y-122294761D01*
X129732380Y-122437619D01*
X129732380Y-122532857D01*
X129780000Y-122675714D01*
X129827619Y-122723333D01*
X119752380Y-121003809D02*
X119752380Y-121622857D01*
X120133333Y-121289523D01*
X120133333Y-121432380D01*
X120180952Y-121527619D01*
X120228571Y-121575238D01*
X120323809Y-121622857D01*
X120561904Y-121622857D01*
X120657142Y-121575238D01*
X120704761Y-121527619D01*
X120752380Y-121432380D01*
X120752380Y-121146666D01*
X120704761Y-121051428D01*
X120657142Y-121003809D01*
X120657142Y-122051428D02*
X120704761Y-122099047D01*
X120752380Y-122051428D01*
X120704761Y-122003809D01*
X120657142Y-122051428D01*
X120752380Y-122051428D01*
X119752380Y-122432380D02*
X119752380Y-123051428D01*
X120133333Y-122718095D01*
X120133333Y-122860952D01*
X120180952Y-122956190D01*
X120228571Y-123003809D01*
X120323809Y-123051428D01*
X120561904Y-123051428D01*
X120657142Y-123003809D01*
X120704761Y-122956190D01*
X120752380Y-122860952D01*
X120752380Y-122575238D01*
X120704761Y-122480000D01*
X120657142Y-122432380D01*
X119752380Y-123337142D02*
X120752380Y-123670476D01*
X119752380Y-124003809D01*
X122597142Y-121664761D02*
X122644761Y-121617142D01*
X122692380Y-121474285D01*
X122692380Y-121379047D01*
X122644761Y-121236190D01*
X122549523Y-121140952D01*
X122454285Y-121093333D01*
X122263809Y-121045714D01*
X122120952Y-121045714D01*
X121930476Y-121093333D01*
X121835238Y-121140952D01*
X121740000Y-121236190D01*
X121692380Y-121379047D01*
X121692380Y-121474285D01*
X121740000Y-121617142D01*
X121787619Y-121664761D01*
X122692380Y-122569523D02*
X122692380Y-122093333D01*
X121692380Y-122093333D01*
X122692380Y-122902857D02*
X121692380Y-122902857D01*
X122692380Y-123474285D02*
X122120952Y-123045714D01*
X121692380Y-123474285D02*
X122263809Y-122902857D01*
X123710000Y-121518095D02*
X123662380Y-121422857D01*
X123662380Y-121280000D01*
X123710000Y-121137142D01*
X123805238Y-121041904D01*
X123900476Y-120994285D01*
X124090952Y-120946666D01*
X124233809Y-120946666D01*
X124424285Y-120994285D01*
X124519523Y-121041904D01*
X124614761Y-121137142D01*
X124662380Y-121280000D01*
X124662380Y-121375238D01*
X124614761Y-121518095D01*
X124567142Y-121565714D01*
X124233809Y-121565714D01*
X124233809Y-121375238D01*
X124662380Y-121994285D02*
X123662380Y-121994285D01*
X124662380Y-122565714D01*
X123662380Y-122565714D01*
X124662380Y-123041904D02*
X123662380Y-123041904D01*
X123662380Y-123280000D01*
X123710000Y-123422857D01*
X123805238Y-123518095D01*
X123900476Y-123565714D01*
X124090952Y-123613333D01*
X124233809Y-123613333D01*
X124424285Y-123565714D01*
X124519523Y-123518095D01*
X124614761Y-123422857D01*
X124662380Y-123280000D01*
X124662380Y-123041904D01*
X126742380Y-121266190D02*
X125742380Y-121266190D01*
X125742380Y-121932857D02*
X125742380Y-122123333D01*
X125790000Y-122218571D01*
X125885238Y-122313809D01*
X126075714Y-122361428D01*
X126409047Y-122361428D01*
X126599523Y-122313809D01*
X126694761Y-122218571D01*
X126742380Y-122123333D01*
X126742380Y-121932857D01*
X126694761Y-121837619D01*
X126599523Y-121742380D01*
X126409047Y-121694761D01*
X126075714Y-121694761D01*
X125885238Y-121742380D01*
X125790000Y-121837619D01*
X125742380Y-121932857D01*
X128712380Y-121157142D02*
X127712380Y-121157142D01*
X128712380Y-121728571D01*
X127712380Y-121728571D01*
X128712380Y-122776190D02*
X128236190Y-122442857D01*
X128712380Y-122204761D02*
X127712380Y-122204761D01*
X127712380Y-122585714D01*
X127760000Y-122680952D01*
X127807619Y-122728571D01*
X127902857Y-122776190D01*
X128045714Y-122776190D01*
X128140952Y-122728571D01*
X128188571Y-122680952D01*
X128236190Y-122585714D01*
X128236190Y-122204761D01*
X128664761Y-123157142D02*
X128712380Y-123300000D01*
X128712380Y-123538095D01*
X128664761Y-123633333D01*
X128617142Y-123680952D01*
X128521904Y-123728571D01*
X128426666Y-123728571D01*
X128331428Y-123680952D01*
X128283809Y-123633333D01*
X128236190Y-123538095D01*
X128188571Y-123347619D01*
X128140952Y-123252380D01*
X128093333Y-123204761D01*
X127998095Y-123157142D01*
X127902857Y-123157142D01*
X127807619Y-123204761D01*
X127760000Y-123252380D01*
X127712380Y-123347619D01*
X127712380Y-123585714D01*
X127760000Y-123728571D01*
X127712380Y-124014285D02*
X127712380Y-124585714D01*
X128712380Y-124300000D02*
X127712380Y-124300000D01*
X108880000Y-120768095D02*
X108832380Y-120672857D01*
X108832380Y-120530000D01*
X108880000Y-120387142D01*
X108975238Y-120291904D01*
X109070476Y-120244285D01*
X109260952Y-120196666D01*
X109403809Y-120196666D01*
X109594285Y-120244285D01*
X109689523Y-120291904D01*
X109784761Y-120387142D01*
X109832380Y-120530000D01*
X109832380Y-120625238D01*
X109784761Y-120768095D01*
X109737142Y-120815714D01*
X109403809Y-120815714D01*
X109403809Y-120625238D01*
X109832380Y-121244285D02*
X108832380Y-121244285D01*
X109832380Y-121815714D01*
X108832380Y-121815714D01*
X109832380Y-122291904D02*
X108832380Y-122291904D01*
X108832380Y-122530000D01*
X108880000Y-122672857D01*
X108975238Y-122768095D01*
X109070476Y-122815714D01*
X109260952Y-122863333D01*
X109403809Y-122863333D01*
X109594285Y-122815714D01*
X109689523Y-122768095D01*
X109784761Y-122672857D01*
X109832380Y-122530000D01*
X109832380Y-122291904D01*
X115032380Y-120213809D02*
X115032380Y-120832857D01*
X115413333Y-120499523D01*
X115413333Y-120642380D01*
X115460952Y-120737619D01*
X115508571Y-120785238D01*
X115603809Y-120832857D01*
X115841904Y-120832857D01*
X115937142Y-120785238D01*
X115984761Y-120737619D01*
X116032380Y-120642380D01*
X116032380Y-120356666D01*
X115984761Y-120261428D01*
X115937142Y-120213809D01*
X115937142Y-121261428D02*
X115984761Y-121309047D01*
X116032380Y-121261428D01*
X115984761Y-121213809D01*
X115937142Y-121261428D01*
X116032380Y-121261428D01*
X115032380Y-121642380D02*
X115032380Y-122261428D01*
X115413333Y-121928095D01*
X115413333Y-122070952D01*
X115460952Y-122166190D01*
X115508571Y-122213809D01*
X115603809Y-122261428D01*
X115841904Y-122261428D01*
X115937142Y-122213809D01*
X115984761Y-122166190D01*
X116032380Y-122070952D01*
X116032380Y-121785238D01*
X115984761Y-121690000D01*
X115937142Y-121642380D01*
X115032380Y-122547142D02*
X116032380Y-122880476D01*
X115032380Y-123213809D01*
X113052380Y-120198095D02*
X113052380Y-120769523D01*
X114052380Y-120483809D02*
X113052380Y-120483809D01*
X113052380Y-121007619D02*
X114052380Y-121674285D01*
X113052380Y-121674285D02*
X114052380Y-121007619D01*
X111812380Y-120823333D02*
X111336190Y-120490000D01*
X111812380Y-120251904D02*
X110812380Y-120251904D01*
X110812380Y-120632857D01*
X110860000Y-120728095D01*
X110907619Y-120775714D01*
X111002857Y-120823333D01*
X111145714Y-120823333D01*
X111240952Y-120775714D01*
X111288571Y-120728095D01*
X111336190Y-120632857D01*
X111336190Y-120251904D01*
X110812380Y-121156666D02*
X111812380Y-121823333D01*
X110812380Y-121823333D02*
X111812380Y-121156666D01*
D12*
X139450000Y-130600000D02*
X139250000Y-130600000D01*
X142250000Y-134740000D02*
X142050000Y-134950000D01*
X140950000Y-134740000D02*
X141150000Y-134950000D01*
X142250000Y-133450000D02*
X142250000Y-134740000D01*
X142050000Y-134950000D02*
X141150000Y-134950000D01*
X140950000Y-134740000D02*
X140950000Y-133450000D01*
X143700000Y-133450000D02*
X138000000Y-133450000D01*
X142450000Y-130600000D02*
X140750000Y-130600000D01*
X144300000Y-131650000D02*
X144300000Y-132440000D01*
X137400000Y-132440000D02*
X137400000Y-131650000D01*
X158840000Y-114505000D02*
X154930000Y-114505000D01*
X154930000Y-114505000D02*
X154930000Y-112635000D01*
X154930000Y-112635000D02*
X158840000Y-112635000D01*
X144132779Y-117160000D02*
X143807221Y-117160000D01*
X144132779Y-118180000D02*
X143807221Y-118180000D01*
X138477221Y-118120000D02*
X138802779Y-118120000D01*
X138477221Y-117100000D02*
X138802779Y-117100000D01*
X143552779Y-115100000D02*
X143227221Y-115100000D01*
X143552779Y-116120000D02*
X143227221Y-116120000D01*
X138810279Y-115360000D02*
X138484721Y-115360000D01*
X138810279Y-116380000D02*
X138484721Y-116380000D01*
X139062779Y-110070000D02*
X138737221Y-110070000D01*
X139062779Y-111090000D02*
X138737221Y-111090000D01*
X144480000Y-111917221D02*
X144480000Y-112242779D01*
X145500000Y-111917221D02*
X145500000Y-112242779D01*
X105310000Y-95972779D02*
X105310000Y-95647221D01*
X104290000Y-95972779D02*
X104290000Y-95647221D01*
D10*
X142183333Y-128924761D02*
X142040476Y-128972380D01*
X141802380Y-128972380D01*
X141707142Y-128924761D01*
X141659523Y-128877142D01*
X141611904Y-128781904D01*
X141611904Y-128686666D01*
X141659523Y-128591428D01*
X141707142Y-128543809D01*
X141802380Y-128496190D01*
X141992857Y-128448571D01*
X142088095Y-128400952D01*
X142135714Y-128353333D01*
X142183333Y-128258095D01*
X142183333Y-128162857D01*
X142135714Y-128067619D01*
X142088095Y-128020000D01*
X141992857Y-127972380D01*
X141754761Y-127972380D01*
X141611904Y-128020000D01*
X141278571Y-127972380D02*
X141040476Y-128972380D01*
X140850000Y-128258095D01*
X140659523Y-128972380D01*
X140421428Y-127972380D01*
X140135714Y-127972380D02*
X139516666Y-127972380D01*
X139850000Y-128353333D01*
X139707142Y-128353333D01*
X139611904Y-128400952D01*
X139564285Y-128448571D01*
X139516666Y-128543809D01*
X139516666Y-128781904D01*
X139564285Y-128877142D01*
X139611904Y-128924761D01*
X139707142Y-128972380D01*
X139992857Y-128972380D01*
X140088095Y-128924761D01*
X140135714Y-128877142D01*
X157832857Y-115847142D02*
X157880476Y-115894761D01*
X158023333Y-115942380D01*
X158118571Y-115942380D01*
X158261428Y-115894761D01*
X158356666Y-115799523D01*
X158404285Y-115704285D01*
X158451904Y-115513809D01*
X158451904Y-115370952D01*
X158404285Y-115180476D01*
X158356666Y-115085238D01*
X158261428Y-114990000D01*
X158118571Y-114942380D01*
X158023333Y-114942380D01*
X157880476Y-114990000D01*
X157832857Y-115037619D01*
X157451904Y-115037619D02*
X157404285Y-114990000D01*
X157309047Y-114942380D01*
X157070952Y-114942380D01*
X156975714Y-114990000D01*
X156928095Y-115037619D01*
X156880476Y-115132857D01*
X156880476Y-115228095D01*
X156928095Y-115370952D01*
X157499523Y-115942380D01*
X156880476Y-115942380D01*
X156023333Y-115275714D02*
X156023333Y-115942380D01*
X156261428Y-114894761D02*
X156499523Y-115609047D01*
X155880476Y-115609047D01*
X144592857Y-119877142D02*
X144640476Y-119924761D01*
X144783333Y-119972380D01*
X144878571Y-119972380D01*
X145021428Y-119924761D01*
X145116666Y-119829523D01*
X145164285Y-119734285D01*
X145211904Y-119543809D01*
X145211904Y-119400952D01*
X145164285Y-119210476D01*
X145116666Y-119115238D01*
X145021428Y-119020000D01*
X144878571Y-118972380D01*
X144783333Y-118972380D01*
X144640476Y-119020000D01*
X144592857Y-119067619D01*
X144211904Y-119067619D02*
X144164285Y-119020000D01*
X144069047Y-118972380D01*
X143830952Y-118972380D01*
X143735714Y-119020000D01*
X143688095Y-119067619D01*
X143640476Y-119162857D01*
X143640476Y-119258095D01*
X143688095Y-119400952D01*
X144259523Y-119972380D01*
X143640476Y-119972380D01*
X143259523Y-119067619D02*
X143211904Y-119020000D01*
X143116666Y-118972380D01*
X142878571Y-118972380D01*
X142783333Y-119020000D01*
X142735714Y-119067619D01*
X142688095Y-119162857D01*
X142688095Y-119258095D01*
X142735714Y-119400952D01*
X143307142Y-119972380D01*
X142688095Y-119972380D01*
X139282857Y-119397142D02*
X139330476Y-119444761D01*
X139473333Y-119492380D01*
X139568571Y-119492380D01*
X139711428Y-119444761D01*
X139806666Y-119349523D01*
X139854285Y-119254285D01*
X139901904Y-119063809D01*
X139901904Y-118920952D01*
X139854285Y-118730476D01*
X139806666Y-118635238D01*
X139711428Y-118540000D01*
X139568571Y-118492380D01*
X139473333Y-118492380D01*
X139330476Y-118540000D01*
X139282857Y-118587619D01*
X138901904Y-118587619D02*
X138854285Y-118540000D01*
X138759047Y-118492380D01*
X138520952Y-118492380D01*
X138425714Y-118540000D01*
X138378095Y-118587619D01*
X138330476Y-118682857D01*
X138330476Y-118778095D01*
X138378095Y-118920952D01*
X138949523Y-119492380D01*
X138330476Y-119492380D01*
X137378095Y-119492380D02*
X137949523Y-119492380D01*
X137663809Y-119492380D02*
X137663809Y-118492380D01*
X137759047Y-118635238D01*
X137854285Y-118730476D01*
X137949523Y-118778095D01*
X147552857Y-116077142D02*
X147600476Y-116124761D01*
X147743333Y-116172380D01*
X147838571Y-116172380D01*
X147981428Y-116124761D01*
X148076666Y-116029523D01*
X148124285Y-115934285D01*
X148171904Y-115743809D01*
X148171904Y-115600952D01*
X148124285Y-115410476D01*
X148076666Y-115315238D01*
X147981428Y-115220000D01*
X147838571Y-115172380D01*
X147743333Y-115172380D01*
X147600476Y-115220000D01*
X147552857Y-115267619D01*
X146600476Y-116172380D02*
X147171904Y-116172380D01*
X146886190Y-116172380D02*
X146886190Y-115172380D01*
X146981428Y-115315238D01*
X147076666Y-115410476D01*
X147171904Y-115458095D01*
X146267142Y-115172380D02*
X145600476Y-115172380D01*
X146029047Y-116172380D01*
X139290357Y-114797142D02*
X139337976Y-114844761D01*
X139480833Y-114892380D01*
X139576071Y-114892380D01*
X139718928Y-114844761D01*
X139814166Y-114749523D01*
X139861785Y-114654285D01*
X139909404Y-114463809D01*
X139909404Y-114320952D01*
X139861785Y-114130476D01*
X139814166Y-114035238D01*
X139718928Y-113940000D01*
X139576071Y-113892380D01*
X139480833Y-113892380D01*
X139337976Y-113940000D01*
X139290357Y-113987619D01*
X138337976Y-114892380D02*
X138909404Y-114892380D01*
X138623690Y-114892380D02*
X138623690Y-113892380D01*
X138718928Y-114035238D01*
X138814166Y-114130476D01*
X138909404Y-114178095D01*
X137480833Y-113892380D02*
X137671309Y-113892380D01*
X137766547Y-113940000D01*
X137814166Y-113987619D01*
X137909404Y-114130476D01*
X137957023Y-114320952D01*
X137957023Y-114701904D01*
X137909404Y-114797142D01*
X137861785Y-114844761D01*
X137766547Y-114892380D01*
X137576071Y-114892380D01*
X137480833Y-114844761D01*
X137433214Y-114797142D01*
X137385595Y-114701904D01*
X137385595Y-114463809D01*
X137433214Y-114368571D01*
X137480833Y-114320952D01*
X137576071Y-114273333D01*
X137766547Y-114273333D01*
X137861785Y-114320952D01*
X137909404Y-114368571D01*
X137957023Y-114463809D01*
X139602857Y-109097142D02*
X139650476Y-109144761D01*
X139793333Y-109192380D01*
X139888571Y-109192380D01*
X140031428Y-109144761D01*
X140126666Y-109049523D01*
X140174285Y-108954285D01*
X140221904Y-108763809D01*
X140221904Y-108620952D01*
X140174285Y-108430476D01*
X140126666Y-108335238D01*
X140031428Y-108240000D01*
X139888571Y-108192380D01*
X139793333Y-108192380D01*
X139650476Y-108240000D01*
X139602857Y-108287619D01*
X138650476Y-109192380D02*
X139221904Y-109192380D01*
X138936190Y-109192380D02*
X138936190Y-108192380D01*
X139031428Y-108335238D01*
X139126666Y-108430476D01*
X139221904Y-108478095D01*
X137745714Y-108192380D02*
X138221904Y-108192380D01*
X138269523Y-108668571D01*
X138221904Y-108620952D01*
X138126666Y-108573333D01*
X137888571Y-108573333D01*
X137793333Y-108620952D01*
X137745714Y-108668571D01*
X137698095Y-108763809D01*
X137698095Y-109001904D01*
X137745714Y-109097142D01*
X137793333Y-109144761D01*
X137888571Y-109192380D01*
X138126666Y-109192380D01*
X138221904Y-109144761D01*
X138269523Y-109097142D01*
X143012857Y-112652857D02*
X142965238Y-112700476D01*
X142917619Y-112843333D01*
X142917619Y-112938571D01*
X142965238Y-113081428D01*
X143060476Y-113176666D01*
X143155714Y-113224285D01*
X143346190Y-113271904D01*
X143489047Y-113271904D01*
X143679523Y-113224285D01*
X143774761Y-113176666D01*
X143870000Y-113081428D01*
X143917619Y-112938571D01*
X143917619Y-112843333D01*
X143870000Y-112700476D01*
X143822380Y-112652857D01*
X142917619Y-111700476D02*
X142917619Y-112271904D01*
X142917619Y-111986190D02*
X143917619Y-111986190D01*
X143774761Y-112081428D01*
X143679523Y-112176666D01*
X143631904Y-112271904D01*
X143584285Y-110843333D02*
X142917619Y-110843333D01*
X143965238Y-111081428D02*
X143250952Y-111319523D01*
X143250952Y-110700476D01*
X105157142Y-98193333D02*
X105204761Y-98145714D01*
X105252380Y-98002857D01*
X105252380Y-97907619D01*
X105204761Y-97764761D01*
X105109523Y-97669523D01*
X105014285Y-97621904D01*
X104823809Y-97574285D01*
X104680952Y-97574285D01*
X104490476Y-97621904D01*
X104395238Y-97669523D01*
X104300000Y-97764761D01*
X104252380Y-97907619D01*
X104252380Y-98002857D01*
X104300000Y-98145714D01*
X104347619Y-98193333D01*
X105252380Y-99145714D02*
X105252380Y-98574285D01*
X105252380Y-98860000D02*
X104252380Y-98860000D01*
X104395238Y-98764761D01*
X104490476Y-98669523D01*
X104538095Y-98574285D01*
%LPC*%
D13*
X144500000Y-130940000D03*
X137200000Y-130940000D03*
X137200000Y-133150000D03*
X144500000Y-133150000D03*
D14*
X138600000Y-130290000D03*
X140100000Y-130290000D03*
X143100000Y-130290000D03*
D15*
X139350000Y-132050000D03*
X142350000Y-132050000D03*
D16*
X103000000Y-117000000D03*
X103000000Y-84000000D03*
X178000000Y-84000000D03*
X178000000Y-117000000D03*
D17*
X122900000Y-98300000D03*
D18*
X122900000Y-93300000D03*
D19*
X169500000Y-126700000D03*
X179500000Y-126700000D03*
D20*
X172000000Y-130000000D03*
X174500000Y-130000000D03*
X177000000Y-130000000D03*
D19*
X124500000Y-126700000D03*
X134500000Y-126700000D03*
D20*
X127000000Y-130000000D03*
X129500000Y-130000000D03*
X132000000Y-130000000D03*
D19*
X147000000Y-126700000D03*
X157000000Y-126700000D03*
D20*
X149500000Y-130000000D03*
X152000000Y-130000000D03*
X154500000Y-130000000D03*
D19*
X102000000Y-126700000D03*
X112000000Y-126700000D03*
D20*
X104500000Y-130000000D03*
X107000000Y-130000000D03*
X109500000Y-130000000D03*
D21*
X120200000Y-119800000D03*
X122200000Y-119800000D03*
X124200000Y-119800000D03*
X126200000Y-119800000D03*
X128200000Y-119800000D03*
G36*
X130653099Y-118934347D02*
G01*
X130735557Y-118989443D01*
X130790653Y-119071901D01*
X130810000Y-119169166D01*
X130810000Y-120430834D01*
X130790653Y-120528099D01*
X130735557Y-120610557D01*
X130653099Y-120665653D01*
X130555834Y-120685000D01*
X129844166Y-120685000D01*
X129746901Y-120665653D01*
X129664443Y-120610557D01*
X129609347Y-120528099D01*
X129590000Y-120430834D01*
X129590000Y-119169166D01*
X129609347Y-119071901D01*
X129664443Y-118989443D01*
X129746901Y-118934347D01*
X129844166Y-118915000D01*
X130555834Y-118915000D01*
X130653099Y-118934347D01*
G37*
D22*
X177580000Y-93420000D03*
X170580000Y-93420000D03*
D21*
X165930000Y-84310000D03*
G36*
X168383099Y-83444347D02*
G01*
X168465557Y-83499443D01*
X168520653Y-83581901D01*
X168540000Y-83679166D01*
X168540000Y-84940834D01*
X168520653Y-85038099D01*
X168465557Y-85120557D01*
X168383099Y-85175653D01*
X168285834Y-85195000D01*
X167574166Y-85195000D01*
X167476901Y-85175653D01*
X167394443Y-85120557D01*
X167339347Y-85038099D01*
X167320000Y-84940834D01*
X167320000Y-83679166D01*
X167339347Y-83581901D01*
X167394443Y-83499443D01*
X167476901Y-83444347D01*
X167574166Y-83425000D01*
X168285834Y-83425000D01*
X168383099Y-83444347D01*
G37*
D23*
X172720000Y-105270000D03*
D24*
X172720000Y-107810000D03*
D23*
X165810000Y-105270000D03*
D24*
X165810000Y-107810000D03*
D23*
X179600000Y-105260000D03*
D24*
X179600000Y-107800000D03*
D23*
X169240000Y-105270000D03*
D24*
X169240000Y-107810000D03*
D23*
X162340000Y-105270000D03*
D24*
X162340000Y-107810000D03*
D23*
X176170000Y-105270000D03*
D24*
X176170000Y-107810000D03*
D21*
X130200000Y-113200000D03*
X128200000Y-113200000D03*
X126200000Y-113200000D03*
G36*
X124653099Y-112334347D02*
G01*
X124735557Y-112389443D01*
X124790653Y-112471901D01*
X124810000Y-112569166D01*
X124810000Y-113830834D01*
X124790653Y-113928099D01*
X124735557Y-114010557D01*
X124653099Y-114065653D01*
X124555834Y-114085000D01*
X123844166Y-114085000D01*
X123746901Y-114065653D01*
X123664443Y-114010557D01*
X123609347Y-113928099D01*
X123590000Y-113830834D01*
X123590000Y-112569166D01*
X123609347Y-112471901D01*
X123664443Y-112389443D01*
X123746901Y-112334347D01*
X123844166Y-112315000D01*
X124555834Y-112315000D01*
X124653099Y-112334347D01*
G37*
D25*
X115800000Y-85000000D03*
X120200000Y-85000000D03*
D21*
X115300000Y-118700000D03*
X113300000Y-118700000D03*
X111300000Y-118700000D03*
G36*
X109753099Y-117834347D02*
G01*
X109835557Y-117889443D01*
X109890653Y-117971901D01*
X109910000Y-118069166D01*
X109910000Y-119330834D01*
X109890653Y-119428099D01*
X109835557Y-119510557D01*
X109753099Y-119565653D01*
X109655834Y-119585000D01*
X108944166Y-119585000D01*
X108846901Y-119565653D01*
X108764443Y-119510557D01*
X108709347Y-119428099D01*
X108690000Y-119330834D01*
X108690000Y-118069166D01*
X108709347Y-117971901D01*
X108764443Y-117889443D01*
X108846901Y-117834347D01*
X108944166Y-117815000D01*
X109655834Y-117815000D01*
X109753099Y-117834347D01*
G37*
G36*
X159143385Y-112904312D02*
G01*
X159225692Y-112959308D01*
X159280688Y-113041615D01*
X159300000Y-113138703D01*
X159300000Y-114001297D01*
X159280688Y-114098385D01*
X159225692Y-114180692D01*
X159143385Y-114235688D01*
X159046297Y-114255000D01*
X158133703Y-114255000D01*
X158036615Y-114235688D01*
X157954308Y-114180692D01*
X157899312Y-114098385D01*
X157880000Y-114001297D01*
X157880000Y-113138703D01*
X157899312Y-113041615D01*
X157954308Y-112959308D01*
X158036615Y-112904312D01*
X158133703Y-112885000D01*
X159046297Y-112885000D01*
X159143385Y-112904312D01*
G37*
G36*
X156443385Y-112904312D02*
G01*
X156525692Y-112959308D01*
X156580688Y-113041615D01*
X156600000Y-113138703D01*
X156600000Y-114001297D01*
X156580688Y-114098385D01*
X156525692Y-114180692D01*
X156443385Y-114235688D01*
X156346297Y-114255000D01*
X155433703Y-114255000D01*
X155336615Y-114235688D01*
X155254308Y-114180692D01*
X155199312Y-114098385D01*
X155180000Y-114001297D01*
X155180000Y-113138703D01*
X155199312Y-113041615D01*
X155254308Y-112959308D01*
X155336615Y-112904312D01*
X155433703Y-112885000D01*
X156346297Y-112885000D01*
X156443385Y-112904312D01*
G37*
G36*
X143491875Y-117202032D02*
G01*
X143564465Y-117250535D01*
X143612968Y-117323125D01*
X143630000Y-117408750D01*
X143630000Y-117931250D01*
X143612968Y-118016875D01*
X143564465Y-118089465D01*
X143491875Y-118137968D01*
X143406250Y-118155000D01*
X142958750Y-118155000D01*
X142873125Y-118137968D01*
X142800535Y-118089465D01*
X142752032Y-118016875D01*
X142735000Y-117931250D01*
X142735000Y-117408750D01*
X142752032Y-117323125D01*
X142800535Y-117250535D01*
X142873125Y-117202032D01*
X142958750Y-117185000D01*
X143406250Y-117185000D01*
X143491875Y-117202032D01*
G37*
G36*
X145066875Y-117202032D02*
G01*
X145139465Y-117250535D01*
X145187968Y-117323125D01*
X145205000Y-117408750D01*
X145205000Y-117931250D01*
X145187968Y-118016875D01*
X145139465Y-118089465D01*
X145066875Y-118137968D01*
X144981250Y-118155000D01*
X144533750Y-118155000D01*
X144448125Y-118137968D01*
X144375535Y-118089465D01*
X144327032Y-118016875D01*
X144310000Y-117931250D01*
X144310000Y-117408750D01*
X144327032Y-117323125D01*
X144375535Y-117250535D01*
X144448125Y-117202032D01*
X144533750Y-117185000D01*
X144981250Y-117185000D01*
X145066875Y-117202032D01*
G37*
G36*
X139736875Y-117142032D02*
G01*
X139809465Y-117190535D01*
X139857968Y-117263125D01*
X139875000Y-117348750D01*
X139875000Y-117871250D01*
X139857968Y-117956875D01*
X139809465Y-118029465D01*
X139736875Y-118077968D01*
X139651250Y-118095000D01*
X139203750Y-118095000D01*
X139118125Y-118077968D01*
X139045535Y-118029465D01*
X138997032Y-117956875D01*
X138980000Y-117871250D01*
X138980000Y-117348750D01*
X138997032Y-117263125D01*
X139045535Y-117190535D01*
X139118125Y-117142032D01*
X139203750Y-117125000D01*
X139651250Y-117125000D01*
X139736875Y-117142032D01*
G37*
G36*
X138161875Y-117142032D02*
G01*
X138234465Y-117190535D01*
X138282968Y-117263125D01*
X138300000Y-117348750D01*
X138300000Y-117871250D01*
X138282968Y-117956875D01*
X138234465Y-118029465D01*
X138161875Y-118077968D01*
X138076250Y-118095000D01*
X137628750Y-118095000D01*
X137543125Y-118077968D01*
X137470535Y-118029465D01*
X137422032Y-117956875D01*
X137405000Y-117871250D01*
X137405000Y-117348750D01*
X137422032Y-117263125D01*
X137470535Y-117190535D01*
X137543125Y-117142032D01*
X137628750Y-117125000D01*
X138076250Y-117125000D01*
X138161875Y-117142032D01*
G37*
G36*
X142911875Y-115142032D02*
G01*
X142984465Y-115190535D01*
X143032968Y-115263125D01*
X143050000Y-115348750D01*
X143050000Y-115871250D01*
X143032968Y-115956875D01*
X142984465Y-116029465D01*
X142911875Y-116077968D01*
X142826250Y-116095000D01*
X142378750Y-116095000D01*
X142293125Y-116077968D01*
X142220535Y-116029465D01*
X142172032Y-115956875D01*
X142155000Y-115871250D01*
X142155000Y-115348750D01*
X142172032Y-115263125D01*
X142220535Y-115190535D01*
X142293125Y-115142032D01*
X142378750Y-115125000D01*
X142826250Y-115125000D01*
X142911875Y-115142032D01*
G37*
G36*
X144486875Y-115142032D02*
G01*
X144559465Y-115190535D01*
X144607968Y-115263125D01*
X144625000Y-115348750D01*
X144625000Y-115871250D01*
X144607968Y-115956875D01*
X144559465Y-116029465D01*
X144486875Y-116077968D01*
X144401250Y-116095000D01*
X143953750Y-116095000D01*
X143868125Y-116077968D01*
X143795535Y-116029465D01*
X143747032Y-115956875D01*
X143730000Y-115871250D01*
X143730000Y-115348750D01*
X143747032Y-115263125D01*
X143795535Y-115190535D01*
X143868125Y-115142032D01*
X143953750Y-115125000D01*
X144401250Y-115125000D01*
X144486875Y-115142032D01*
G37*
G36*
X138169375Y-115402032D02*
G01*
X138241965Y-115450535D01*
X138290468Y-115523125D01*
X138307500Y-115608750D01*
X138307500Y-116131250D01*
X138290468Y-116216875D01*
X138241965Y-116289465D01*
X138169375Y-116337968D01*
X138083750Y-116355000D01*
X137636250Y-116355000D01*
X137550625Y-116337968D01*
X137478035Y-116289465D01*
X137429532Y-116216875D01*
X137412500Y-116131250D01*
X137412500Y-115608750D01*
X137429532Y-115523125D01*
X137478035Y-115450535D01*
X137550625Y-115402032D01*
X137636250Y-115385000D01*
X138083750Y-115385000D01*
X138169375Y-115402032D01*
G37*
G36*
X139744375Y-115402032D02*
G01*
X139816965Y-115450535D01*
X139865468Y-115523125D01*
X139882500Y-115608750D01*
X139882500Y-116131250D01*
X139865468Y-116216875D01*
X139816965Y-116289465D01*
X139744375Y-116337968D01*
X139658750Y-116355000D01*
X139211250Y-116355000D01*
X139125625Y-116337968D01*
X139053035Y-116289465D01*
X139004532Y-116216875D01*
X138987500Y-116131250D01*
X138987500Y-115608750D01*
X139004532Y-115523125D01*
X139053035Y-115450535D01*
X139125625Y-115402032D01*
X139211250Y-115385000D01*
X139658750Y-115385000D01*
X139744375Y-115402032D01*
G37*
G36*
X138421875Y-110112032D02*
G01*
X138494465Y-110160535D01*
X138542968Y-110233125D01*
X138560000Y-110318750D01*
X138560000Y-110841250D01*
X138542968Y-110926875D01*
X138494465Y-110999465D01*
X138421875Y-111047968D01*
X138336250Y-111065000D01*
X137888750Y-111065000D01*
X137803125Y-111047968D01*
X137730535Y-110999465D01*
X137682032Y-110926875D01*
X137665000Y-110841250D01*
X137665000Y-110318750D01*
X137682032Y-110233125D01*
X137730535Y-110160535D01*
X137803125Y-110112032D01*
X137888750Y-110095000D01*
X138336250Y-110095000D01*
X138421875Y-110112032D01*
G37*
G36*
X139996875Y-110112032D02*
G01*
X140069465Y-110160535D01*
X140117968Y-110233125D01*
X140135000Y-110318750D01*
X140135000Y-110841250D01*
X140117968Y-110926875D01*
X140069465Y-110999465D01*
X139996875Y-111047968D01*
X139911250Y-111065000D01*
X139463750Y-111065000D01*
X139378125Y-111047968D01*
X139305535Y-110999465D01*
X139257032Y-110926875D01*
X139240000Y-110841250D01*
X139240000Y-110318750D01*
X139257032Y-110233125D01*
X139305535Y-110160535D01*
X139378125Y-110112032D01*
X139463750Y-110095000D01*
X139911250Y-110095000D01*
X139996875Y-110112032D01*
G37*
G36*
X145336875Y-112437032D02*
G01*
X145409465Y-112485535D01*
X145457968Y-112558125D01*
X145475000Y-112643750D01*
X145475000Y-113091250D01*
X145457968Y-113176875D01*
X145409465Y-113249465D01*
X145336875Y-113297968D01*
X145251250Y-113315000D01*
X144728750Y-113315000D01*
X144643125Y-113297968D01*
X144570535Y-113249465D01*
X144522032Y-113176875D01*
X144505000Y-113091250D01*
X144505000Y-112643750D01*
X144522032Y-112558125D01*
X144570535Y-112485535D01*
X144643125Y-112437032D01*
X144728750Y-112420000D01*
X145251250Y-112420000D01*
X145336875Y-112437032D01*
G37*
G36*
X145336875Y-110862032D02*
G01*
X145409465Y-110910535D01*
X145457968Y-110983125D01*
X145475000Y-111068750D01*
X145475000Y-111516250D01*
X145457968Y-111601875D01*
X145409465Y-111674465D01*
X145336875Y-111722968D01*
X145251250Y-111740000D01*
X144728750Y-111740000D01*
X144643125Y-111722968D01*
X144570535Y-111674465D01*
X144522032Y-111601875D01*
X144505000Y-111516250D01*
X144505000Y-111068750D01*
X144522032Y-110983125D01*
X144570535Y-110910535D01*
X144643125Y-110862032D01*
X144728750Y-110845000D01*
X145251250Y-110845000D01*
X145336875Y-110862032D01*
G37*
G36*
X105146875Y-94592032D02*
G01*
X105219465Y-94640535D01*
X105267968Y-94713125D01*
X105285000Y-94798750D01*
X105285000Y-95246250D01*
X105267968Y-95331875D01*
X105219465Y-95404465D01*
X105146875Y-95452968D01*
X105061250Y-95470000D01*
X104538750Y-95470000D01*
X104453125Y-95452968D01*
X104380535Y-95404465D01*
X104332032Y-95331875D01*
X104315000Y-95246250D01*
X104315000Y-94798750D01*
X104332032Y-94713125D01*
X104380535Y-94640535D01*
X104453125Y-94592032D01*
X104538750Y-94575000D01*
X105061250Y-94575000D01*
X105146875Y-94592032D01*
G37*
G36*
X105146875Y-96167032D02*
G01*
X105219465Y-96215535D01*
X105267968Y-96288125D01*
X105285000Y-96373750D01*
X105285000Y-96821250D01*
X105267968Y-96906875D01*
X105219465Y-96979465D01*
X105146875Y-97027968D01*
X105061250Y-97045000D01*
X104538750Y-97045000D01*
X104453125Y-97027968D01*
X104380535Y-96979465D01*
X104332032Y-96906875D01*
X104315000Y-96821250D01*
X104315000Y-96373750D01*
X104332032Y-96288125D01*
X104380535Y-96215535D01*
X104453125Y-96167032D01*
X104538750Y-96150000D01*
X105061250Y-96150000D01*
X105146875Y-96167032D01*
G37*
M02*
